<svg width="359" height="37" viewBox="0 0 359 37" fill="none" xmlns="http://www.w3.org/2000/svg">
<g clip-path="url(#clip0_1_8662)">
<g clip-path="url(#clip1_1_8662)">
<path d="M143.286 1H18C8.33502 1 0.5 8.83502 0.5 18.5C0.5 28.165 8.33502 36 18 36H143.286C152.951 36 160.786 28.165 160.786 18.5C160.786 8.83502 152.951 1 143.286 1Z" fill="white"/>
<path d="M31.606 13.793H32.3203L34.356 11.7573L34.456 10.893C33.2898 9.86366 31.8805 9.14862 30.3611 8.81542C28.8418 8.48222 27.2625 8.54186 25.7726 8.98869C24.2827 9.43552 22.9313 10.2548 21.8461 11.3691C20.7608 12.4835 19.9776 13.8561 19.5703 15.3573C19.7971 15.2643 20.0483 15.2492 20.2846 15.3144L24.356 14.643C24.356 14.643 24.5632 14.3001 24.6703 14.3215C25.5427 13.3634 26.7483 12.775 28.0403 12.6768C29.3323 12.5785 30.6131 12.9778 31.6203 13.793H31.606Z" fill="#EA4335"/>
<path d="M37.2582 15.357C36.7903 13.6339 35.8296 12.0849 34.4939 10.8999L31.6368 13.757C32.2322 14.2436 32.7094 14.859 33.0324 15.5569C33.3553 16.2547 33.5156 17.0168 33.5011 17.7856V18.2928C33.835 18.2928 34.1657 18.3585 34.4742 18.4863C34.7827 18.6141 35.063 18.8014 35.2991 19.0375C35.5353 19.2737 35.7226 19.554 35.8504 19.8625C35.9781 20.171 36.0439 20.5017 36.0439 20.8356C36.0439 21.1696 35.9781 21.5002 35.8504 21.8087C35.7226 22.1172 35.5353 22.3976 35.2991 22.6337C35.063 22.8698 34.7827 23.0571 34.4742 23.1849C34.1657 23.3127 33.835 23.3785 33.5011 23.3785H28.4153L27.9082 23.8928V26.9428L28.4153 27.4499H33.5011C34.9212 27.461 36.3072 27.0146 37.4541 26.1769C38.6009 25.3392 39.4476 24.1545 39.869 22.7983C40.2904 21.442 40.264 19.9861 39.7938 18.646C39.3236 17.3059 38.4346 16.1527 37.2582 15.357Z" fill="#4285F4"/>
<path d="M23.3229 27.4216H28.4086V23.3502H23.3229C22.9606 23.3501 22.6025 23.2721 22.2729 23.1216L21.5586 23.343L19.5086 25.3787L19.3301 26.093C20.4797 26.9611 21.8824 27.4278 23.3229 27.4216Z" fill="#34A853"/>
<path d="M23.3209 14.2139C21.9429 14.2221 20.6019 14.6606 19.4852 15.4679C18.3684 16.2753 17.5317 17.4113 17.092 18.7172C16.6522 20.0232 16.6313 21.4339 17.0322 22.7523C17.433 24.0707 18.2357 25.231 19.328 26.0711L22.278 23.1211C21.9031 22.9517 21.5749 22.6939 21.3216 22.3698C21.0682 22.0457 20.8973 21.665 20.8234 21.2603C20.7496 20.8556 20.775 20.439 20.8975 20.0463C21.0201 19.6536 21.236 19.2965 21.5269 19.0057C21.8178 18.7148 22.1749 18.4988 22.5676 18.3763C22.9603 18.2538 23.3768 18.2283 23.7815 18.3022C24.1862 18.3761 24.5669 18.547 24.891 18.8003C25.2151 19.0537 25.4729 19.3819 25.6423 19.7568L28.5923 16.8068C27.9731 15.9973 27.1751 15.3421 26.2606 14.8922C25.3461 14.4424 24.34 14.2103 23.3209 14.2139Z" fill="#FBBC05"/>
<path d="M53.7051 24.5784C52.8295 24.5896 51.9606 24.4239 51.1505 24.0913C50.3405 23.7587 49.6059 23.266 48.9908 22.6427C48.3563 22.0459 47.8528 21.3237 47.5122 20.522C47.1716 19.7203 47.0013 18.8566 47.0122 17.9856C47.0018 17.1146 47.1722 16.251 47.5128 15.4494C47.8534 14.6477 48.3566 13.9255 48.9908 13.3284C49.6029 12.6987 50.3361 12.1994 51.1463 11.8606C51.9565 11.5218 52.8269 11.3505 53.7051 11.357C54.5418 11.3459 55.3724 11.5011 56.1486 11.8138C56.9248 12.1265 57.6311 12.5904 58.2265 13.1784L56.9551 14.4713C56.0844 13.6298 54.9158 13.1675 53.7051 13.1856C53.077 13.1779 52.4542 13.3009 51.8763 13.5468C51.2983 13.7928 50.7778 14.1562 50.3479 14.6141C49.9011 15.0574 49.5486 15.5865 49.3117 16.1696C49.0748 16.7527 48.9583 17.3777 48.9694 18.007C48.9641 18.6291 49.0834 19.246 49.3201 19.8213C49.5569 20.3966 49.9063 20.9188 50.3479 21.357C51.2325 22.2385 52.4261 22.74 53.6748 22.7546C54.9235 22.7693 56.1286 22.296 57.0336 21.4356C57.5939 20.822 57.9377 20.0417 58.0122 19.2141H53.7265V17.3856H59.7908C59.8504 17.7538 59.8743 18.127 59.8622 18.4999C59.8999 19.2716 59.7807 20.0429 59.5119 20.7673C59.243 21.4916 58.83 22.1539 58.2979 22.7141C57.7063 23.3301 56.9915 23.8145 56.2002 24.1357C55.4088 24.4569 54.5586 24.6078 53.7051 24.5784ZM67.8051 23.3642C66.9912 24.1443 65.9074 24.5798 64.7801 24.5798C63.6527 24.5798 62.5689 24.1443 61.7551 23.3642C61.35 22.9714 61.031 22.4987 60.8182 21.9761C60.6055 21.4535 60.5037 20.8924 60.5194 20.3284C60.5042 19.7645 60.6062 19.2035 60.8189 18.681C61.0316 18.1585 61.3503 17.6857 61.7551 17.2927C62.5698 16.5142 63.6532 16.0798 64.7801 16.0798C65.9069 16.0798 66.9904 16.5142 67.8051 17.2927C68.2098 17.6857 68.5286 18.1585 68.7413 18.681C68.954 19.2035 69.056 19.7645 69.0408 20.3284C69.0555 20.893 68.9526 21.4544 68.7386 21.977C68.5246 22.4996 68.2043 22.972 67.7979 23.3642H67.8051ZM63.0908 22.1713C63.3073 22.4025 63.5689 22.5868 63.8594 22.7127C64.15 22.8387 64.4634 22.9037 64.7801 22.9037C65.0968 22.9037 65.4101 22.8387 65.7007 22.7127C65.9913 22.5868 66.2529 22.4025 66.4694 22.1713C66.7054 21.9273 66.8902 21.6386 67.0129 21.3221C67.1355 21.0056 67.1936 20.6677 67.1836 20.3284C67.1942 19.988 67.1364 19.6489 67.0137 19.3312C66.891 19.0134 66.7059 18.7235 66.4694 18.4784C66.25 18.2496 65.9866 18.0676 65.6951 17.9432C65.4036 17.8188 65.0899 17.7547 64.7729 17.7547C64.456 17.7547 64.1423 17.8188 63.8507 17.9432C63.5592 18.0676 63.2958 18.2496 63.0765 18.4784C62.8399 18.7235 62.6548 19.0134 62.5321 19.3312C62.4095 19.6489 62.3517 19.988 62.3622 20.3284C62.3532 20.6682 62.4124 21.0064 62.5363 21.3229C62.6602 21.6395 62.8463 21.9279 63.0836 22.1713H63.0908ZM77.1051 23.3642C76.2912 24.1443 75.2074 24.5798 74.0801 24.5798C72.9527 24.5798 71.8689 24.1443 71.0551 23.3642C70.65 22.9714 70.331 22.4987 70.1182 21.9761C69.9055 21.4535 69.8037 20.8924 69.8194 20.3284C69.8042 19.7645 69.9062 19.2035 70.1189 18.681C70.3316 18.1585 70.6503 17.6857 71.0551 17.2927C71.8689 16.5126 72.9527 16.077 74.0801 16.077C75.2074 16.077 76.2912 16.5126 77.1051 17.2927C77.5098 17.6857 77.8286 18.1585 78.0413 18.681C78.254 19.2035 78.356 19.7645 78.3408 20.3284C78.3564 20.8924 78.2546 21.4535 78.0419 21.9761C77.8292 22.4987 77.5101 22.9714 77.1051 23.3642ZM72.3908 22.1713C72.6073 22.4025 72.8689 22.5868 73.1594 22.7127C73.45 22.8387 73.7634 22.9037 74.0801 22.9037C74.3968 22.9037 74.7101 22.8387 75.0007 22.7127C75.2913 22.5868 75.5529 22.4025 75.7693 22.1713C76.0054 21.9273 76.1902 21.6386 76.3129 21.3221C76.4355 21.0056 76.4936 20.6677 76.4836 20.3284C76.4942 19.988 76.4364 19.6489 76.3137 19.3312C76.191 19.0134 76.0059 18.7235 75.7693 18.4784C75.55 18.2496 75.2866 18.0676 74.9951 17.9432C74.7036 17.8188 74.3899 17.7547 74.0729 17.7547C73.756 17.7547 73.4423 17.8188 73.1507 17.9432C72.8592 18.0676 72.5958 18.2496 72.3765 18.4784C72.1399 18.7235 71.9548 19.0134 71.8321 19.3312C71.7095 19.6489 71.6517 19.988 71.6622 20.3284C71.6532 20.6682 71.7124 21.0064 71.8363 21.3229C71.9602 21.6395 72.1463 21.9279 72.3836 22.1713H72.3908ZM83.2193 28.3927C82.3632 28.42 81.5236 28.1527 80.8408 27.6356C80.2345 27.1798 79.757 26.5743 79.4551 25.8784L81.0836 25.1999C81.2609 25.6157 81.5381 25.9813 81.8908 26.2642C82.2682 26.5684 82.7419 26.728 83.2265 26.7142C83.5338 26.7328 83.8415 26.6851 84.1287 26.5742C84.4159 26.4632 84.6758 26.2917 84.8908 26.0713C85.3211 25.5522 85.5336 24.8866 85.4836 24.2142V23.5999H85.4193C85.1472 23.9232 84.8034 24.1786 84.4153 24.346C84.0273 24.5134 83.6056 24.5881 83.1836 24.5642C82.6473 24.5658 82.1165 24.4562 81.6248 24.2422C81.133 24.0283 80.6909 23.7147 80.3265 23.3213C79.931 22.931 79.6189 22.4645 79.409 21.9501C79.199 21.4357 79.0956 20.884 79.1051 20.3284C79.0952 19.7696 79.1983 19.2146 79.4082 18.6967C79.6181 18.1787 79.9304 17.7085 80.3265 17.3141C80.69 16.9191 81.1318 16.6039 81.6236 16.3887C82.1155 16.1735 82.6467 16.063 83.1836 16.0641C83.638 16.0634 84.0869 16.1634 84.4979 16.357C84.8535 16.5123 85.1705 16.744 85.4265 17.0356H85.4908V16.357H87.2622V23.9642C87.3088 24.5659 87.2322 25.1709 87.0369 25.742C86.8416 26.3131 86.5318 26.8383 86.1265 27.2856C85.7404 27.6549 85.2843 27.9432 84.785 28.1333C84.2856 28.3235 83.7533 28.4117 83.2193 28.3927ZM83.3479 22.907C83.6529 22.9137 83.9557 22.8532 84.2347 22.7297C84.5136 22.6063 84.762 22.423 84.9622 22.1927C85.4029 21.6877 85.6353 21.034 85.6122 20.3642C85.6387 19.6829 85.4065 19.0169 84.9622 18.4999C84.7624 18.2692 84.514 18.0856 84.235 17.9622C83.9559 17.8387 83.653 17.7784 83.3479 17.7856C83.0346 17.7791 82.7235 17.8395 82.4353 17.9627C82.1471 18.0858 81.8884 18.269 81.6765 18.4999C81.204 18.9984 80.9473 19.6632 80.9622 20.3499C80.9549 20.6867 81.0143 21.0216 81.1369 21.3354C81.2595 21.6492 81.4428 21.9357 81.6765 22.1784C81.8874 22.4116 82.1455 22.5971 82.4337 22.7227C82.7219 22.8484 83.0336 22.9112 83.3479 22.907ZM90.4122 11.8356V24.3213H88.5479V11.8356H90.4122ZM95.5265 24.5784C94.9682 24.5928 94.4129 24.4917 93.8955 24.2815C93.378 24.0714 92.9095 23.7566 92.5193 23.357C92.1234 22.9603 91.8123 22.4873 91.6047 21.9667C91.3972 21.4461 91.2977 20.8887 91.3122 20.3284C91.2911 19.7668 91.3833 19.2066 91.5833 18.6814C91.7833 18.1562 92.0871 17.6766 92.4765 17.2713C92.8434 16.8845 93.2871 16.5786 93.7791 16.3732C94.2711 16.1677 94.8006 16.0674 95.3336 16.0784C95.8238 16.0733 96.3099 16.168 96.7622 16.357C97.1696 16.5215 97.5409 16.7641 97.8551 17.0713C98.1248 17.3317 98.3644 17.6216 98.5693 17.9356C98.7351 18.2007 98.8762 18.4804 98.9908 18.7713L99.1836 19.257L93.4693 21.607C93.6422 22.0041 93.9312 22.3395 94.2985 22.569C94.6657 22.7985 95.0938 22.9114 95.5265 22.8927C95.9474 22.8939 96.3615 22.7859 96.7283 22.5793C97.0951 22.3728 97.4021 22.0747 97.6193 21.7141L99.0479 22.6784C98.6833 23.2 98.2168 23.6423 97.6765 23.9784C97.0339 24.3844 96.2864 24.593 95.5265 24.5784ZM93.1408 20.1999L96.9408 18.6213C96.8237 18.343 96.6143 18.1134 96.3479 17.9713C96.0496 17.8028 95.7119 17.7166 95.3693 17.7213C94.788 17.7363 94.2362 17.9802 93.8336 18.3999C93.5927 18.6304 93.4057 18.9112 93.286 19.2224C93.1662 19.5336 93.1166 19.8673 93.1408 20.1999Z" fill="#5F6368"/>
<path d="M108.95 24.5787C108.157 24.5923 107.37 24.4457 106.635 24.1475C105.9 23.8493 105.233 23.4056 104.674 22.8433C104.115 22.2809 103.676 21.6113 103.382 20.8748C103.088 20.1383 102.946 19.35 102.964 18.5572C102.946 17.7645 103.088 16.9762 103.382 16.2397C103.676 15.5031 104.115 14.8336 104.674 14.2712C105.233 13.7088 105.9 13.2652 106.635 12.967C107.37 12.6688 108.157 12.5221 108.95 12.5358C109.753 12.5107 110.55 12.6673 111.284 12.9938C112.017 13.3204 112.668 13.8084 113.186 14.4215L112.157 15.4215C111.777 14.9429 111.289 14.5608 110.733 14.3064C110.177 14.0519 109.568 13.9323 108.957 13.9572C108.369 13.944 107.784 14.0498 107.238 14.2683C106.692 14.4868 106.196 14.8134 105.779 15.2287C105.345 15.6644 105.007 16.185 104.784 16.7578C104.562 17.3306 104.46 17.9433 104.486 18.5572C104.46 19.1712 104.562 19.7838 104.784 20.3566C105.007 20.9295 105.345 21.4501 105.779 21.8858C106.196 22.301 106.692 22.6277 107.238 22.8462C107.784 23.0647 108.369 23.1705 108.957 23.1572C109.64 23.1649 110.316 23.0186 110.934 22.7292C111.552 22.4399 112.097 22.0148 112.529 21.4858L113.557 22.5144C113.019 23.1584 112.343 23.6734 111.579 24.0215C110.755 24.4017 109.857 24.5921 108.95 24.5787Z" fill="#5F6368"/>
<path d="M116.322 24.3218H114.844V12.7861H116.322V24.3218Z" fill="#5F6368"/>
<path d="M118.737 17.3785C119.511 16.6091 120.559 16.1772 121.651 16.1772C122.743 16.1772 123.79 16.6091 124.565 17.3785C124.944 17.7785 125.24 18.2495 125.436 18.7644C125.632 19.2792 125.725 19.8278 125.708 20.3785C125.725 20.9292 125.632 21.4778 125.436 21.9926C125.24 22.5075 124.944 22.9785 124.565 23.3785C123.79 24.1479 122.743 24.5797 121.651 24.5797C120.559 24.5797 119.511 24.1479 118.737 23.3785C118.358 22.9785 118.062 22.5075 117.866 21.9926C117.669 21.4778 117.577 20.9292 117.594 20.3785C117.577 19.8278 117.669 19.2792 117.866 18.7644C118.062 18.2495 118.358 17.7785 118.737 17.3785ZM119.837 22.4499C120.07 22.6961 120.35 22.8922 120.662 23.0263C120.973 23.1603 121.308 23.2294 121.647 23.2294C121.986 23.2294 122.322 23.1603 122.633 23.0263C122.944 22.8922 123.225 22.6961 123.458 22.4499C123.716 22.1726 123.917 21.8467 124.048 21.491C124.18 21.1354 124.239 20.7572 124.222 20.3785C124.239 19.9998 124.18 19.6216 124.048 19.266C123.917 18.9103 123.716 18.5844 123.458 18.3071C123.225 18.0609 122.944 17.8648 122.633 17.7307C122.322 17.5967 121.986 17.5276 121.647 17.5276C121.308 17.5276 120.973 17.5967 120.662 17.7307C120.35 17.8648 120.07 18.0609 119.837 18.3071C119.578 18.5844 119.377 18.9103 119.246 19.266C119.115 19.6216 119.056 19.9998 119.072 20.3785C119.058 20.7565 119.119 21.1336 119.251 21.488C119.383 21.8424 119.585 22.1669 119.844 22.4428L119.837 22.4499Z" fill="#5F6368"/>
<path d="M133.899 24.3213H132.471V23.2284H132.428C132.174 23.6435 131.814 23.9836 131.385 24.2141C130.94 24.472 130.435 24.6075 129.921 24.607C129.503 24.6355 129.085 24.5694 128.697 24.4136C128.308 24.2577 127.96 24.0162 127.678 23.707C127.137 23.0226 126.865 22.1638 126.914 21.2927V16.4355H128.392V21.0213C128.392 22.4927 129.042 23.2284 130.342 23.2284C130.631 23.2374 130.918 23.1773 131.179 23.053C131.44 22.9288 131.667 22.744 131.842 22.5141C132.226 22.0284 132.43 21.4256 132.421 20.807V16.4355H133.899V24.3213Z" fill="#5F6368"/>
<path d="M138.922 24.5785C138.42 24.5802 137.924 24.4731 137.468 24.2647C137.011 24.0563 136.606 23.7516 136.279 23.3714C135.538 22.5534 135.142 21.4814 135.172 20.3785C135.142 19.2756 135.538 18.2036 136.279 17.3856C136.606 17.0054 137.011 16.7007 137.468 16.4923C137.924 16.2839 138.42 16.1768 138.922 16.1785C139.483 16.1696 140.039 16.3023 140.536 16.5642C140.973 16.7841 141.343 17.1171 141.607 17.5285H141.672L141.607 16.4356V12.7856H143.086V24.3214H141.657V23.2285H141.593C141.328 23.6399 140.958 23.9729 140.522 24.1928C140.029 24.4524 139.479 24.585 138.922 24.5785ZM139.164 23.2285C139.499 23.2334 139.83 23.1671 140.137 23.0341C140.443 22.9011 140.718 22.7044 140.943 22.4571C141.445 21.8852 141.702 21.1383 141.657 20.3785C141.702 19.6187 141.445 18.8718 140.943 18.2999C140.717 18.0513 140.441 17.8526 140.133 17.7166C139.826 17.5807 139.493 17.5105 139.157 17.5105C138.821 17.5105 138.488 17.5807 138.181 17.7166C137.873 17.8526 137.598 18.0513 137.372 18.2999C137.122 18.5812 136.93 18.909 136.808 19.2645C136.685 19.6199 136.634 19.9961 136.657 20.3714C136.634 20.7466 136.685 21.1228 136.808 21.4783C136.93 21.8337 137.122 22.1615 137.372 22.4428C137.597 22.6945 137.873 22.895 138.183 23.0306C138.492 23.1661 138.827 23.2336 139.164 23.2285Z" fill="#5F6368"/>
<path d="M143.286 1H18C8.33502 1 0.5 8.83502 0.5 18.5C0.5 28.165 8.33502 36 18 36H143.286C152.951 36 160.786 28.165 160.786 18.5C160.786 8.83502 152.951 1 143.286 1Z" stroke="#E8E8E8"/>
<path d="M216.692 1H187.285C177.62 1 169.785 8.83502 169.785 18.5C169.785 28.165 177.62 36 187.285 36H216.692C226.356 36 234.192 28.165 234.192 18.5C234.192 8.83502 226.356 1 216.692 1Z" fill="white"/>
<mask id="mask0_1_8662" style="mask-type:luminance" maskUnits="userSpaceOnUse" x="185" y="8" width="34" height="21">
<path d="M218.692 8.5H185.285V28.5H218.692V8.5Z" fill="white"/>
</mask>
<g mask="url(#mask0_1_8662)">
<path d="M194.779 15.7969C194.779 16.2035 194.823 16.5332 194.9 16.7749C194.988 17.0167 195.098 17.2804 195.252 17.5661C195.307 17.6541 195.328 17.742 195.328 17.8189C195.328 17.9288 195.263 18.0387 195.12 18.1486L194.427 18.6101C194.328 18.676 194.23 18.709 194.142 18.709C194.032 18.709 193.922 18.6541 193.812 18.5552C193.658 18.3903 193.526 18.2145 193.416 18.0387C193.307 17.8519 193.197 17.6431 193.076 17.3903C192.219 18.4013 191.142 18.9068 189.845 18.9068C188.922 18.9068 188.186 18.6431 187.647 18.1156C187.109 17.5881 186.834 16.8848 186.834 16.0057C186.834 15.0716 187.164 14.3134 187.834 13.742C188.504 13.1705 189.394 12.8848 190.526 12.8848C190.9 12.8848 191.285 12.9178 191.691 12.9727C192.098 13.0277 192.515 13.1156 192.955 13.2145V12.4123C192.955 11.5771 192.779 10.9947 192.438 10.6541C192.087 10.3134 191.493 10.1486 190.647 10.1486C190.263 10.1486 189.867 10.1925 189.46 10.2914C189.054 10.3903 188.658 10.5112 188.274 10.665C188.098 10.742 187.966 10.7859 187.889 10.8079C187.812 10.8299 187.757 10.8409 187.713 10.8409C187.559 10.8409 187.482 10.731 187.482 10.5002V9.96175C187.482 9.78593 187.504 9.65406 187.559 9.57714C187.614 9.50021 187.713 9.42329 187.867 9.34637C188.252 9.14857 188.713 8.98373 189.252 8.85186C189.79 8.70901 190.361 8.64307 190.966 8.64307C192.274 8.64307 193.23 8.93977 193.845 9.53318C194.449 10.1266 194.757 11.0277 194.757 12.2365V15.7969H194.779ZM190.318 17.4672C190.68 17.4672 191.054 17.4013 191.449 17.2694C191.845 17.1376 192.197 16.8958 192.493 16.5661C192.669 16.3574 192.801 16.1266 192.867 15.8629C192.933 15.5991 192.977 15.2804 192.977 14.9068V14.4453C192.658 14.3683 192.318 14.3024 191.966 14.2585C191.614 14.2145 191.274 14.1925 190.933 14.1925C190.197 14.1925 189.658 14.3354 189.296 14.6321C188.933 14.9288 188.757 15.3464 188.757 15.8958C188.757 16.4123 188.889 16.7969 189.164 17.0607C189.427 17.3354 189.812 17.4672 190.318 17.4672ZM199.142 18.6541C198.944 18.6541 198.812 18.6211 198.724 18.5442C198.636 18.4782 198.559 18.3244 198.493 18.1156L195.911 9.62109C195.845 9.40131 195.812 9.25846 195.812 9.18153C195.812 9.00571 195.9 8.90681 196.076 8.90681H197.153C197.361 8.90681 197.504 8.93978 197.581 9.0167C197.669 9.08263 197.735 9.23648 197.801 9.44527L199.647 16.72L201.361 9.44527C201.416 9.22549 201.482 9.08263 201.57 9.0167C201.658 8.95076 201.812 8.90681 202.01 8.90681H202.889C203.098 8.90681 203.241 8.93978 203.328 9.0167C203.416 9.08263 203.493 9.23648 203.537 9.44527L205.274 16.8079L207.175 9.44527C207.241 9.22549 207.318 9.08263 207.394 9.0167C207.482 8.95076 207.625 8.90681 207.823 8.90681H208.845C209.021 8.90681 209.12 8.99472 209.12 9.18153C209.12 9.23648 209.109 9.29142 209.098 9.35736C209.087 9.42329 209.065 9.5112 209.021 9.63208L206.372 18.1266C206.307 18.3464 206.23 18.4892 206.142 18.5552C206.054 18.6211 205.911 18.665 205.724 18.665H204.779C204.57 18.665 204.427 18.6321 204.339 18.5552C204.252 18.4782 204.175 18.3354 204.131 18.1156L202.427 11.0277L200.735 18.1046C200.68 18.3244 200.614 18.4672 200.526 18.5442C200.438 18.6211 200.285 18.6541 200.087 18.6541H199.142ZM213.263 18.9508C212.691 18.9508 212.12 18.8848 211.57 18.753C211.021 18.6211 210.592 18.4782 210.307 18.3134C210.131 18.2145 210.01 18.1046 209.966 18.0057C209.922 17.9068 209.9 17.7969 209.9 17.698V17.1376C209.9 16.9068 209.988 16.7969 210.153 16.7969C210.219 16.7969 210.285 16.8079 210.35 16.8299C210.416 16.8519 210.515 16.8958 210.625 16.9398C210.999 17.1046 211.405 17.2365 211.834 17.3244C212.274 17.4123 212.702 17.4563 213.142 17.4563C213.834 17.4563 214.372 17.3354 214.746 17.0936C215.12 16.8519 215.317 16.5002 215.317 16.0497C215.317 15.742 215.219 15.4892 215.021 15.2804C214.823 15.0716 214.449 14.8848 213.911 14.709L212.318 14.2145C211.515 13.9618 210.922 13.5881 210.559 13.0936C210.197 12.6101 210.01 12.0716 210.01 11.5002C210.01 11.0387 210.109 10.6321 210.307 10.2804C210.504 9.92879 210.768 9.62109 211.098 9.37934C211.427 9.12659 211.801 8.93978 212.241 8.80791C212.68 8.67604 213.142 8.62109 213.625 8.62109C213.867 8.62109 214.12 8.63208 214.361 8.66505C214.614 8.69802 214.845 8.74197 215.076 8.78593C215.296 8.84087 215.504 8.89582 215.702 8.96175C215.9 9.02769 216.054 9.09362 216.164 9.15956C216.318 9.24747 216.427 9.33538 216.493 9.43428C216.559 9.52219 216.592 9.64307 216.592 9.79692V10.3134C216.592 10.5442 216.504 10.665 216.339 10.665C216.252 10.665 216.109 10.6211 215.922 10.5332C215.296 10.2475 214.592 10.1046 213.812 10.1046C213.186 10.1046 212.691 10.2035 212.35 10.4123C212.01 10.6211 211.834 10.9398 211.834 11.3903C211.834 11.698 211.944 11.9618 212.164 12.1705C212.383 12.3793 212.79 12.5881 213.372 12.7749L214.933 13.2694C215.724 13.5222 216.296 13.8738 216.636 14.3244C216.977 14.7749 217.142 15.2914 217.142 15.8629C217.142 16.3354 217.043 16.764 216.856 17.1376C216.658 17.5112 216.394 17.8409 216.054 18.1046C215.713 18.3793 215.307 18.5771 214.834 18.72C214.339 18.8738 213.823 18.9508 213.263 18.9508Z" fill="#252F3E"/>
<path fill-rule="evenodd" clip-rule="evenodd" d="M215.338 24.2913C211.723 26.9617 206.47 28.3793 201.954 28.3793C195.624 28.3793 189.921 26.0386 185.613 22.1485C185.273 21.8408 185.58 21.4232 185.987 21.665C190.646 24.3683 196.393 26.0056 202.338 26.0056C206.349 26.0056 210.756 25.1705 214.811 23.4562C215.415 23.1815 215.932 23.8518 215.338 24.2913Z" fill="#FF9900"/>
<path fill-rule="evenodd" clip-rule="evenodd" d="M216.845 22.5772C216.384 21.9838 213.79 22.2915 212.615 22.4343C212.263 22.4783 212.208 22.1706 212.527 21.9398C214.593 20.4893 217.988 20.9068 218.384 21.3904C218.779 21.8849 218.274 25.2805 216.34 26.9068C216.043 27.1596 215.757 27.0277 215.889 26.6981C216.329 25.6101 217.307 23.1596 216.845 22.5772Z" fill="#FF9900"/>
</g>
<path d="M216.692 1H187.285C177.62 1 169.785 8.83502 169.785 18.5C169.785 28.165 177.62 36 187.285 36H216.692C226.356 36 234.192 28.165 234.192 18.5C234.192 8.83502 226.356 1 216.692 1Z" stroke="#E8E8E8"/>
<path d="M278.691 1H260.691C251.026 1 243.191 8.83502 243.191 18.5C243.191 28.165 251.026 36 260.691 36H278.691C288.356 36 296.191 28.165 296.191 18.5C296.191 8.83502 288.356 1 278.691 1Z" fill="white"/>
<path d="M275.002 21.3096H265.54C265.452 21.3095 265.366 21.3359 265.293 21.3853C265.221 21.4348 265.164 21.505 265.132 21.5868C265.1 21.6687 265.093 21.7583 265.112 21.8441C265.132 21.9299 265.177 22.0079 265.241 22.0679L271.321 27.743C271.498 27.9081 271.731 27.9999 271.973 27.9999H277.331L275.002 21.3096Z" fill="#0078D4"/>
<path d="M278.691 1H260.691C251.026 1 243.191 8.83502 243.191 18.5C243.191 28.165 251.026 36 260.691 36H278.691C288.356 36 296.191 28.165 296.191 18.5C296.191 8.83502 288.356 1 278.691 1Z" stroke="#E8E8E8"/>
<path d="M340.691 1H322.691C313.026 1 305.191 8.83502 305.191 18.5C305.191 28.165 313.026 36 322.691 36H340.691C350.356 36 358.191 28.165 358.191 18.5C358.191 8.83502 350.356 1 340.691 1Z" fill="white"/>
<path d="M331.693 29.4999V25.234C336.208 25.234 339.713 20.7561 337.98 16.0037C337.343 14.2575 335.934 12.848 334.175 12.2118C329.423 10.4905 324.945 13.983 324.945 18.4984H320.691C320.691 11.3013 327.652 5.68823 335.198 8.0457C338.491 9.081 341.123 11.7004 342.146 14.9934C344.503 22.5398 338.89 29.4999 331.693 29.4999Z" fill="#0080FF"/>
<path fill-rule="evenodd" clip-rule="evenodd" d="M331.707 25.2583H327.453V21.0049H331.707V25.2583Z" fill="#0080FF"/>
<path fill-rule="evenodd" clip-rule="evenodd" d="M327.451 28.5143H324.195V25.2588H327.451V28.5143Z" fill="#0080FF"/>
<path fill-rule="evenodd" clip-rule="evenodd" d="M324.195 25.259H321.463V22.5273H324.195V25.259Z" fill="#0080FF"/>
<path d="M340.691 1H322.691C313.026 1 305.191 8.83502 305.191 18.5C305.191 28.165 313.026 36 322.691 36H340.691C350.356 36 358.191 28.165 358.191 18.5C358.191 8.83502 350.356 1 340.691 1Z" stroke="#E8E8E8"/>
</g>
</g>
<defs>
<clipPath id="clip0_1_8662">
<rect width="359" height="36" fill="white" transform="translate(0 0.5)"/>
</clipPath>
<clipPath id="clip1_1_8662">
<rect width="359" height="36" fill="white" transform="translate(0 0.5)"/>
</clipPath>
</defs>
</svg>
