<svg width="472" height="209" viewBox="0 0 472 209" fill="none" xmlns="http://www.w3.org/2000/svg">
<g clip-path="url(#clip0_1_9102)">
<g clip-path="url(#clip1_1_9102)">
<g clip-path="url(#clip2_1_9102)">
<path d="M584.59 75.2119H95.7571C89.4339 75.2119 84.3079 80.273 84.3079 86.5162V117.972C84.3079 124.215 89.4339 129.276 95.7571 129.276H584.59C590.914 129.276 596.04 124.215 596.04 117.972V86.5162C596.04 80.273 590.914 75.2119 584.59 75.2119Z" fill="#303030"/>
<path d="M584.59 75.2119H95.7571C89.4339 75.2119 84.3079 80.273 84.3079 86.5162V117.972C84.3079 124.215 89.4339 129.276 95.7571 129.276H584.59C590.914 129.276 596.04 124.215 596.04 117.972V86.5162C596.04 80.273 590.914 75.2119 584.59 75.2119Z" stroke="#484848" stroke-width="0.989274"/>
<path d="M127.616 87.0078H111.686C107.563 87.0078 104.219 90.3086 104.219 94.3803V110.108C104.219 114.18 107.563 117.481 111.686 117.481H127.616C131.74 117.481 135.083 114.18 135.083 110.108V94.3803C135.083 90.3086 131.74 87.0078 127.616 87.0078Z" fill="#484848"/>
<path d="M127.616 87.0078H111.686C107.563 87.0078 104.219 90.3086 104.219 94.3803V110.108C104.219 114.18 107.563 117.481 111.686 117.481H127.616C131.74 117.481 135.083 114.18 135.083 110.108V94.3803C135.083 90.3086 131.74 87.0078 127.616 87.0078Z" stroke="#585858" stroke-width="0.989274"/>
<path d="M116.664 109.125C116.664 109.125 113.678 106.831 113.678 102.244C113.678 97.6561 116.664 95.3628 116.664 95.3628M122.638 95.3628C122.638 95.3628 125.625 97.6561 125.625 102.244C125.625 106.831 122.638 109.125 122.638 109.125M121.891 99.9505L117.411 104.537M117.411 99.9505L121.891 104.537" stroke="#D8D8D8" stroke-width="0.989274" stroke-linecap="round" stroke-linejoin="round"/>
<path d="M346.147 87.0078H153.501C148.277 87.0078 144.043 91.1888 144.043 96.3463V108.142C144.043 113.3 148.277 117.481 153.501 117.481H346.147C351.37 117.481 355.605 113.3 355.605 108.142V96.3463C355.605 91.1888 351.37 87.0078 346.147 87.0078Z" fill="#303030"/>
<path d="M346.147 87.0078H153.501C148.277 87.0078 144.043 91.1888 144.043 96.3463V108.142C144.043 113.3 148.277 117.481 153.501 117.481H346.147C351.37 117.481 355.605 113.3 355.605 108.142V96.3463C355.605 91.1888 351.37 87.0078 346.147 87.0078Z" stroke="#484848" stroke-width="0.989274"/>
<path d="M156.117 98.3718V97.374H163.176V98.3718H160.217V106.668H159.076V98.3718H156.117ZM166.725 106.813C166.044 106.813 165.458 106.664 164.965 106.368C164.473 106.066 164.079 105.631 163.83 105.115C163.566 104.576 163.434 103.95 163.434 103.237C163.434 102.523 163.566 101.894 163.829 101.349C164.072 100.829 164.458 100.385 164.942 100.069C165.42 99.7608 165.978 99.6064 166.615 99.6064C166.983 99.6064 167.346 99.6664 167.704 99.7873C168.062 99.9092 168.389 100.106 168.683 100.377C168.977 100.647 169.211 101.004 169.387 101.449C169.561 101.894 169.648 102.441 169.648 103.091V103.545H164.207V102.619H168.545C168.545 102.226 168.466 101.875 168.306 101.568C168.157 101.266 167.924 101.013 167.635 100.836C167.328 100.652 166.974 100.559 166.615 100.568C166.183 100.568 165.808 100.674 165.494 100.886C165.184 101.091 164.935 101.372 164.772 101.702C164.603 102.038 164.517 102.408 164.519 102.783V103.4C164.519 103.927 164.611 104.373 164.795 104.739C164.982 105.102 165.241 105.379 165.572 105.569C165.902 105.756 166.287 105.85 166.725 105.85C167.01 105.85 167.267 105.811 167.497 105.733C167.722 105.656 167.927 105.531 168.099 105.369C168.269 105.207 168.398 105.003 168.49 104.761L169.538 105.052C169.43 105.4 169.239 105.717 168.981 105.977C168.708 106.249 168.379 106.459 168.016 106.595C167.603 106.745 167.165 106.819 166.725 106.813ZM176.299 101.259L175.324 101.53C175.258 101.362 175.167 101.204 175.053 101.063C174.927 100.901 174.763 100.77 174.576 100.682C174.372 100.582 174.114 100.532 173.799 100.532C173.367 100.532 173.007 100.631 172.719 100.827C172.433 101.021 172.291 101.268 172.291 101.567C172.291 101.833 172.389 102.043 172.585 102.198C172.782 102.352 173.087 102.481 173.504 102.583L174.552 102.838C175.183 102.989 175.654 103.221 175.963 103.532C176.272 103.84 176.427 104.238 176.427 104.725C176.432 105.11 176.31 105.486 176.079 105.796C175.848 106.111 175.526 106.359 175.113 106.541C174.699 106.721 174.218 106.813 173.67 106.813C172.95 106.813 172.353 106.658 171.882 106.35C171.41 106.041 171.111 105.59 170.986 104.997L172.015 104.744C172.114 105.118 172.299 105.4 172.571 105.587C172.847 105.775 173.207 105.869 173.652 105.869C174.157 105.869 174.558 105.763 174.856 105.551C175.155 105.336 175.306 105.079 175.306 104.78C175.309 104.666 175.287 104.553 175.243 104.449C175.199 104.344 175.132 104.249 175.048 104.171C174.877 104.004 174.613 103.882 174.258 103.799L173.081 103.528C172.434 103.376 171.96 103.141 171.658 102.824C171.357 102.503 171.207 102.102 171.207 101.622C171.207 101.228 171.318 100.879 171.542 100.578C171.782 100.265 172.1 100.019 172.466 99.865C172.858 99.6929 173.302 99.6064 173.798 99.6064C174.497 99.6064 175.046 99.7578 175.444 100.061C175.845 100.362 176.131 100.762 176.299 101.259ZM181.131 99.6969V100.604H177.472V99.6969H181.131ZM178.538 98.0267H179.623V104.671C179.623 104.974 179.667 105.2 179.756 105.351C179.848 105.5 179.965 105.6 180.105 105.651C180.249 105.7 180.401 105.724 180.56 105.724C180.68 105.724 180.778 105.718 180.855 105.705L181.038 105.669L181.259 106.632C181.158 106.666 181.055 106.693 180.95 106.713C180.819 106.743 180.652 106.758 180.451 106.758C180.144 106.758 179.843 106.693 179.55 106.563C179.258 106.433 179.007 106.227 178.823 105.968C178.634 105.703 178.538 105.367 178.538 104.961V98.0267Z" fill="#A1A1A1"/>
<path d="M566.669 87.0078H374.024C368.8 87.0078 364.566 91.1888 364.566 96.3463V108.142C364.566 113.3 368.8 117.481 374.024 117.481H566.669C571.893 117.481 576.127 113.3 576.127 108.142V96.3463C576.127 91.1888 571.893 87.0078 566.669 87.0078Z" fill="#303030"/>
<path d="M566.669 87.0078H374.024C368.8 87.0078 364.566 91.1888 364.566 96.3463V108.142C364.566 113.3 368.8 117.481 374.024 117.481H566.669C571.893 117.481 576.127 113.3 576.127 108.142V96.3463C576.127 91.1888 571.893 87.0078 566.669 87.0078Z" stroke="#484848" stroke-width="0.989274"/>
<path d="M380.299 97.3731V106.667H379.159V98.5537H379.103L376.805 100.06V98.9164L379.159 97.3731H380.299ZM383.006 106.667V105.852L386.112 102.493C386.478 102.099 386.777 101.757 387.013 101.467C387.249 101.173 387.424 100.898 387.538 100.642C387.653 100.384 387.712 100.105 387.712 99.8237C387.712 99.4974 387.632 99.2143 387.473 98.9754C387.315 98.7353 387.092 98.5437 386.83 98.422C386.542 98.2885 386.228 98.2216 385.91 98.2264C385.549 98.2264 385.233 98.3011 384.963 98.4495C384.701 98.5907 384.486 98.8033 384.343 99.0619C384.193 99.3478 384.119 99.6662 384.127 99.9879H383.043C383.043 99.4433 383.169 98.9656 383.424 98.5527C383.675 98.1447 384.034 97.8122 384.462 97.5913C384.903 97.3613 385.398 97.2473 385.947 97.2473C386.498 97.2473 386.987 97.3613 387.413 97.5913C387.839 97.8214 388.173 98.132 388.415 98.5213C388.657 98.9125 388.778 99.347 388.778 99.8237C388.778 100.166 388.716 100.5 388.59 100.826C388.468 101.151 388.253 101.513 387.946 101.912C387.55 102.416 387.128 102.901 386.683 103.364L384.568 105.597V105.67H388.944V106.667H383.006ZM394.022 106.795C393.416 106.795 392.875 106.692 392.4 106.486C391.956 106.301 391.568 106.006 391.274 105.628C390.997 105.255 390.84 104.807 390.823 104.345H391.982C392.006 104.643 392.111 104.902 392.295 105.12C392.478 105.334 392.719 105.502 393.016 105.62C393.313 105.737 393.643 105.796 394.004 105.796C394.408 105.796 394.767 105.727 395.079 105.587C395.392 105.448 395.637 105.255 395.815 105.007C395.992 104.758 396.082 104.471 396.082 104.144C396.082 103.803 395.995 103.501 395.824 103.242C395.639 102.967 395.377 102.753 395.07 102.624C394.74 102.476 394.335 102.402 393.857 102.402H393.103V101.403H393.857C394.231 101.403 394.559 101.337 394.84 101.204C395.125 101.07 395.347 100.883 395.506 100.641C395.67 100.399 395.75 100.115 395.75 99.7884C395.75 99.4738 395.68 99.1986 395.539 98.9666C395.397 98.7326 395.19 98.5436 394.942 98.422C394.662 98.286 394.353 98.2189 394.041 98.2264C393.716 98.2264 393.41 98.2853 393.122 98.4033C392.849 98.5091 392.608 98.6828 392.423 98.9076C392.242 99.1248 392.144 99.3893 392.128 99.6969H391.025C391.044 99.2104 391.193 98.7827 391.471 98.4171C391.75 98.0484 392.116 97.7604 392.566 97.555C393.035 97.346 393.544 97.2406 394.059 97.2463C394.641 97.2463 395.141 97.3633 395.557 97.5963C395.956 97.8084 396.288 98.1238 396.518 98.5085C396.742 98.886 396.854 99.2949 396.854 99.7333C396.854 100.257 396.714 100.703 396.435 101.072C396.156 101.444 395.76 101.713 395.309 101.839V101.912C395.904 102.008 396.368 102.258 396.702 102.661C397.036 103.06 397.203 103.555 397.203 104.145C397.203 104.649 397.064 105.103 396.785 105.506C396.499 105.913 396.109 106.239 395.654 106.449C395.176 106.679 394.632 106.795 394.022 106.795Z" fill="#A1A1A1"/>
</g>
</g>
<g clip-path="url(#clip3_1_9102)">
<g clip-path="url(#clip4_1_9102)">
<path d="M552.366 59.6411H69.824C63.4919 59.6411 58.3586 64.8037 58.3586 71.1721V136.347C58.3586 142.716 63.4919 147.878 69.824 147.878H552.366C558.698 147.878 563.832 142.716 563.832 136.347V71.1721C563.832 64.8037 558.698 59.6411 552.366 59.6411Z" fill="#303030"/>
<path d="M552.366 59.6411H69.824C63.4919 59.6411 58.3586 64.8037 58.3586 71.1721V136.347C58.3586 142.716 63.4919 147.878 69.824 147.878H552.366C558.698 147.878 563.832 142.716 563.832 136.347V71.1721C563.832 64.8037 558.698 59.6411 552.366 59.6411Z" stroke="#484848" stroke-width="0.999806"/>
<path d="M78.9414 88.2172V78.7383H84.6302V79.756H80.083V82.9594H84.3351V83.977H80.083V87.1985H84.704V88.2172H78.9414ZM87.6262 83.9399V88.2172H86.5394V81.1085H87.5893V82.2184H87.682C87.8475 81.8575 88.0987 81.5667 88.4367 81.3481C88.7737 81.1266 89.2094 81.0153 89.7428 81.0153C90.2213 81.0153 90.641 81.1135 91 81.311C91.3589 81.5056 91.638 81.8023 91.8374 82.2004C92.0368 82.5944 92.1365 83.0947 92.1365 83.6993V88.2172H91.0498V83.7735C91.0498 83.215 90.9062 82.7809 90.6181 82.4681C90.329 82.1533 89.9342 81.9968 89.4307 81.9968C89.1065 81.9911 88.7862 82.0691 88.5005 82.2234C88.2313 82.3738 88.018 82.5944 87.8614 82.8852C87.7049 83.1759 87.6262 83.5269 87.6262 83.9399ZM99.6498 81.1075L97.0347 88.2172H95.9301L93.316 81.1085H94.4944L96.4465 86.7734H96.5193L98.4714 81.1085L99.6498 81.1075ZM101.083 88.2172V81.1085H102.17V88.2172H101.083ZM101.636 79.9224C101.432 79.9256 101.234 79.8474 101.087 79.7048C101.016 79.6385 100.958 79.5578 100.919 79.4678C100.881 79.3778 100.861 79.2806 100.862 79.1825C100.862 78.9779 100.937 78.8045 101.087 78.6591C101.234 78.5164 101.432 78.4382 101.636 78.4415C101.847 78.4415 102.028 78.5137 102.178 78.6591C102.251 78.7247 102.31 78.8054 102.35 78.8957C102.389 78.986 102.409 79.0837 102.408 79.1825C102.409 79.2809 102.389 79.3785 102.35 79.4685C102.31 79.5586 102.252 79.6392 102.179 79.7048C102.107 79.7755 102.023 79.8312 101.929 79.8685C101.836 79.9059 101.736 79.9242 101.636 79.9224ZM104.158 88.2172V81.1085H105.208V82.1813H105.282C105.411 81.8304 105.644 81.5447 105.982 81.3251C106.319 81.1065 106.699 80.9962 107.123 80.9962C107.203 80.9962 107.303 80.9982 107.422 81.0012C107.542 81.0042 107.632 81.0093 107.693 81.0153V82.1262C107.61 82.1088 107.525 82.0947 107.44 82.0841C107.305 82.0621 107.168 82.0513 107.031 82.052C106.711 82.0463 106.395 82.1211 106.11 82.2696C105.843 82.4109 105.632 82.6085 105.475 82.8611C105.322 83.1118 105.246 83.3975 105.246 83.7184V88.2172H104.158ZM111.638 88.3656C110.999 88.3656 110.44 88.2122 109.958 87.9074C109.472 87.5933 109.083 87.1488 108.835 86.624C108.568 86.0756 108.434 85.4339 108.434 84.6989C108.434 83.959 108.568 83.3123 108.835 82.7598C109.104 82.2084 109.479 81.7783 109.958 81.4735C110.439 81.1677 110.999 81.0153 111.638 81.0153C112.276 81.0153 112.834 81.1677 113.313 81.4735C113.795 81.7783 114.17 82.2074 114.436 82.7598C114.706 83.3123 114.841 83.959 114.841 84.6989C114.841 85.4339 114.706 86.0756 114.436 86.624C114.19 87.15 113.801 87.5951 113.313 87.9074C112.835 88.2122 112.277 88.3656 111.639 88.3656H111.638ZM111.638 87.384C112.123 87.384 112.522 87.2587 112.834 87.009C113.148 86.7584 113.379 86.4305 113.53 86.0234C113.679 85.6154 113.755 85.1742 113.755 84.6999C113.755 84.2237 113.68 83.7815 113.53 83.3705C113.394 82.9808 113.153 82.6366 112.835 82.3758C112.522 82.1232 112.123 81.9968 111.639 81.9968C111.153 81.9968 110.754 82.1232 110.442 82.3758C110.123 82.6365 109.883 82.9807 109.746 83.3705C109.597 83.7815 109.521 84.2237 109.521 84.6989C109.521 85.1742 109.596 85.6164 109.746 86.0224C109.896 86.4305 110.128 86.7594 110.441 87.009C110.754 87.2597 111.153 87.384 111.638 87.384ZM117.586 83.9399V88.2172H116.499V81.1085H117.549V82.2184H117.64C117.807 81.8575 118.058 81.5667 118.396 81.3481C118.733 81.1266 119.169 81.0153 119.702 81.0153C120.181 81.0153 120.599 81.1135 120.958 81.311C121.317 81.5056 121.597 81.8023 121.797 82.2004C121.996 82.5944 122.096 83.0947 122.096 83.6993V88.2172H121.009V83.7735C121.009 83.215 120.866 82.7809 120.578 82.4681C120.288 82.1533 119.893 81.9968 119.39 81.9968C119.066 81.9911 118.746 82.0691 118.46 82.2234C118.191 82.3738 117.976 82.5944 117.82 82.8852C117.663 83.1759 117.586 83.5269 117.586 83.9399ZM124.081 88.2172V81.1085H125.13V82.2184H125.223C125.358 81.8537 125.609 81.5433 125.935 81.3341C126.264 81.1215 126.658 81.0153 127.119 81.0153C127.585 81.0153 127.973 81.1215 128.283 81.3341C128.596 81.5447 128.84 81.8384 129.015 82.2184H129.089C129.268 81.8525 129.552 81.5482 129.903 81.3441C130.265 81.1246 130.7 81.0153 131.205 81.0153C131.838 81.0153 132.355 81.2138 132.757 81.6118C133.159 82.0069 133.36 82.6225 133.36 83.4587V88.2172H132.273V83.4587C132.273 82.9343 132.131 82.5593 131.845 82.3337C131.558 82.1078 131.202 81.9884 130.838 81.9958C130.34 81.9958 129.955 82.1472 129.682 82.45C129.409 82.7488 129.273 83.1288 129.273 83.589V88.2172H128.168V83.3474C128.168 82.9433 128.038 82.6185 127.777 82.3708C127.516 82.1212 127.18 81.9968 126.769 81.9968C126.487 81.9968 126.222 82.072 125.977 82.2234C125.735 82.3738 125.539 82.5844 125.389 82.8531C125.24 83.1178 125.167 83.4246 125.167 83.7735V88.2172H124.081ZM138.31 88.3656C137.629 88.3656 137.041 88.2142 136.547 87.9114C136.055 87.6038 135.66 87.1605 135.411 86.634C135.147 86.0846 135.014 85.4459 135.014 84.718C135.014 83.9901 135.146 83.3474 135.41 82.7929C135.677 82.2335 136.048 81.7993 136.524 81.4875C137.003 81.1727 137.561 81.0153 138.199 81.0153C138.568 81.0153 138.931 81.0764 139.29 81.1998C139.649 81.3231 139.976 81.5246 140.27 81.8013C140.565 82.0761 140.799 82.441 140.975 82.8942C141.149 83.3484 141.237 83.9069 141.237 84.5696V85.0328H135.788V84.0883H140.132C140.132 83.6873 140.053 83.3293 139.893 83.0155C139.744 82.7081 139.511 82.4495 139.221 82.2696C138.914 82.0819 138.559 81.9869 138.199 81.9958C137.767 81.9958 137.392 82.1041 137.077 82.3207C136.767 82.5292 136.518 82.8163 136.354 83.1529C136.184 83.4958 136.101 83.8627 136.101 84.2558V84.8844C136.101 85.4218 136.192 85.877 136.377 86.25C136.564 86.621 136.823 86.9017 137.154 87.0972C137.485 87.2877 137.871 87.384 138.31 87.384C138.595 87.384 138.853 87.3439 139.083 87.2637C139.308 87.1852 139.514 87.0586 139.686 86.8927C139.855 86.7273 139.985 86.5197 140.078 86.2731L141.126 86.5699C141.017 86.9278 140.83 87.2416 140.57 87.5133C140.296 87.7904 139.966 88.0051 139.603 88.143C139.189 88.2966 138.751 88.372 138.31 88.3656ZM143.976 83.9399V88.2172H142.889V81.1085H143.939V82.2184H144.031C144.196 81.8575 144.448 81.5667 144.785 81.3481C145.123 81.1266 145.559 81.0153 146.092 81.0153C146.571 81.0153 146.99 81.1135 147.349 81.311C147.708 81.5056 147.987 81.8023 148.186 82.2004C148.385 82.5944 148.485 83.0947 148.485 83.6993V88.2172H147.399V83.7735C147.399 83.215 147.256 82.7809 146.967 82.4681C146.679 82.1533 146.283 81.9968 145.78 81.9968C145.433 81.9968 145.122 82.072 144.85 82.2234C144.58 82.3738 144.367 82.5944 144.21 82.8852C144.054 83.1759 143.976 83.5269 143.976 83.9399ZM153.546 81.1075V82.0329H149.882V81.1075H153.546ZM150.949 79.404H152.035V86.1808C152.035 86.4886 152.079 86.7203 152.168 86.8747C152.261 87.0261 152.377 87.1283 152.518 87.1805C152.663 87.2306 152.814 87.2547 152.974 87.2547C153.093 87.2547 153.192 87.2486 153.269 87.2356L153.452 87.1985L153.673 88.1811C153.573 88.216 153.469 88.2434 153.364 88.2633C153.233 88.2934 153.065 88.3094 152.863 88.3094C152.557 88.3094 152.255 88.2433 151.962 88.1109C151.669 87.9779 151.418 87.7684 151.234 87.5043C151.044 87.2336 150.949 86.8907 150.949 86.4766V79.404ZM164.604 81.1085L161.991 88.2172H160.887L158.273 81.1085H159.45L161.402 86.7734H161.476L163.427 81.1085H164.605H164.604ZM167.903 88.3836C167.455 88.3836 167.049 88.2994 166.683 88.129C166.33 87.9666 166.029 87.7087 165.814 87.384C165.598 87.0571 165.492 86.6621 165.492 86.1989C165.492 85.7918 165.572 85.4619 165.731 85.2083C165.891 84.9526 166.104 84.7521 166.37 84.6067C166.637 84.4613 166.932 84.354 167.254 84.2829C167.579 84.2087 167.906 84.1505 168.234 84.1074C168.664 84.0512 169.012 84.0101 169.279 83.9821C169.549 83.952 169.746 83.8998 169.869 83.8297C169.994 83.7585 170.057 83.6351 170.057 83.4587V83.4216C170.057 82.9654 169.933 82.6095 169.684 82.3578C169.439 82.1041 169.066 81.9778 168.566 81.9778C168.047 81.9778 167.641 82.0921 167.346 82.3207C167.052 82.5483 166.845 82.7919 166.725 83.0516L165.694 82.6806C165.879 82.2495 166.124 81.9126 166.431 81.672C166.74 81.4284 167.078 81.2589 167.443 81.1627C167.797 81.066 168.162 81.0165 168.53 81.0153C168.756 81.0153 169.017 81.0423 169.311 81.0985C169.609 81.1506 169.896 81.2599 170.173 81.4274C170.452 81.5938 170.683 81.8454 170.868 82.1813C171.051 82.5182 171.144 82.9684 171.144 83.5329V88.2172H170.057V87.2547H170.002C169.907 87.4386 169.783 87.6058 169.634 87.75C169.437 87.9428 169.204 88.0953 168.948 88.1991C168.662 88.3225 168.314 88.3836 167.903 88.3836ZM168.069 87.402C168.499 87.402 168.861 87.3178 169.155 87.1484C169.435 86.9962 169.668 86.7684 169.827 86.4907C169.977 86.2339 170.057 85.9414 170.057 85.6434V84.6438C170.011 84.6989 169.91 84.7501 169.754 84.7962C169.578 84.8445 169.4 84.8833 169.219 84.9125C168.874 84.9663 168.527 85.0124 168.18 85.0509C167.911 85.0849 167.645 85.1453 167.388 85.2313C167.146 85.3116 166.949 85.4339 166.799 85.5973C166.651 85.7577 166.577 85.9773 166.577 86.255C166.577 86.634 166.717 86.9208 166.996 87.1153C167.278 87.3068 167.636 87.402 168.069 87.402ZM173.126 88.2172V81.1085H174.176V82.1813H174.249C174.378 81.8304 174.611 81.5447 174.948 81.3251C175.288 81.1053 175.685 80.9909 176.09 80.9962C176.169 80.9962 176.269 80.9982 176.389 81.0012C176.508 81.0042 176.599 81.0093 176.661 81.0153V82.1262C176.577 82.1088 176.493 82.0948 176.408 82.0841C176.272 82.062 176.135 82.0513 175.998 82.052C175.654 82.052 175.348 82.1242 175.078 82.2696C174.811 82.4109 174.599 82.6085 174.443 82.8611C174.289 83.1118 174.212 83.3975 174.212 83.7184V88.2172H173.126ZM177.948 88.2172V81.1085H179.035V88.2172H177.948ZM178.5 79.9224C178.297 79.9253 178.1 79.8471 177.953 79.7048C177.881 79.6386 177.824 79.5578 177.785 79.4678C177.746 79.3778 177.727 79.2806 177.728 79.1825C177.728 78.9779 177.803 78.8045 177.953 78.6591C178.1 78.5167 178.297 78.4385 178.5 78.4415C178.713 78.4415 178.893 78.5137 179.044 78.6591C179.117 78.7247 179.176 78.8054 179.215 78.8957C179.255 78.986 179.275 79.0837 179.274 79.1825C179.275 79.281 179.255 79.3786 179.215 79.4687C179.175 79.5588 179.117 79.6393 179.044 79.7048C178.972 79.7755 178.887 79.8312 178.794 79.8685C178.701 79.9059 178.601 79.9242 178.5 79.9224ZM183.105 88.3846C182.657 88.3846 182.25 88.2994 181.884 88.129C181.531 87.9666 181.23 87.7087 181.015 87.384C180.8 87.0571 180.693 86.6621 180.693 86.1989C180.693 85.7918 180.773 85.4619 180.932 85.2083C181.092 84.9526 181.305 84.7521 181.572 84.6067C181.838 84.4613 182.133 84.354 182.455 84.2829C182.781 84.2087 183.108 84.1505 183.436 84.1074C183.865 84.0512 184.213 84.0101 184.48 83.9821C184.751 83.952 184.947 83.8998 185.07 83.8297C185.195 83.7585 185.258 83.6351 185.258 83.4587V83.4216C185.258 82.9654 185.134 82.6095 184.885 82.3578C184.64 82.1041 184.267 81.9778 183.768 81.9778C183.248 81.9778 182.842 82.0921 182.547 82.3207C182.253 82.5483 182.046 82.7919 181.926 83.0516L180.895 82.6806C181.08 82.2495 181.325 81.9126 181.632 81.672C181.941 81.4284 182.279 81.2589 182.644 81.1627C183.013 81.0644 183.375 81.0153 183.731 81.0153C183.957 81.0153 184.218 81.0423 184.512 81.0985C184.81 81.1506 185.098 81.2599 185.374 81.4274C185.653 81.5938 185.884 81.8454 186.069 82.1813C186.253 82.5182 186.345 82.9684 186.345 83.5329V88.2172H185.258V87.2547H185.203C185.108 87.4386 184.984 87.6058 184.835 87.75C184.638 87.9428 184.405 88.0953 184.149 88.1991C183.864 88.3225 183.515 88.3846 183.105 88.3846ZM183.27 87.402C183.7 87.402 184.062 87.3178 184.357 87.1484C184.654 86.9779 184.878 86.7594 185.029 86.4907C185.181 86.2219 185.258 85.9392 185.258 85.6434V84.6438C185.212 84.6989 185.111 84.7501 184.955 84.7962C184.779 84.8445 184.601 84.8833 184.421 84.9125C184.075 84.9663 183.728 85.0124 183.381 85.0509C183.112 85.0849 182.846 85.1453 182.589 85.2313C182.347 85.3116 182.15 85.4339 182 85.5973C181.852 85.7577 181.779 85.9773 181.779 86.255C181.779 86.634 181.918 86.9208 182.197 87.1153C182.48 87.3068 182.837 87.402 183.27 87.402ZM188.474 88.2172V78.7383H189.561V82.2375H189.653C189.758 82.0768 189.869 81.9193 189.984 81.7652C190.151 81.5511 190.361 81.3745 190.601 81.2469C190.871 81.0925 191.236 81.0153 191.697 81.0153C192.292 81.0153 192.816 81.1647 193.27 81.4644C193.724 81.7632 194.078 82.1873 194.334 82.7378C194.588 83.2862 194.715 83.9339 194.715 84.6809C194.715 85.4339 194.588 86.0866 194.334 86.639C194.078 87.1885 193.726 87.6136 193.275 87.9164C192.824 88.2162 192.304 88.3656 191.715 88.3656C191.261 88.3656 190.897 88.2894 190.624 88.139C190.38 88.0097 190.166 87.8316 189.994 87.6156C189.873 87.4569 189.759 87.2929 189.653 87.1243H189.524V88.2172H188.474ZM189.542 84.6618C189.542 85.1993 189.621 85.6725 189.777 86.0836C189.934 86.4907 190.162 86.8105 190.462 87.0411C190.763 87.2697 191.131 87.384 191.567 87.384C192.022 87.384 192.4 87.2637 192.705 87.023C193.02 86.766 193.259 86.4263 193.394 86.0415C193.556 85.6002 193.636 85.133 193.63 84.6628C193.63 84.1625 193.553 83.7124 193.399 83.3113C193.267 82.9321 193.029 82.5993 192.713 82.3528C192.409 82.1152 192.028 81.9968 191.567 81.9968C191.125 81.9968 190.754 82.1091 190.453 82.3347C190.153 82.5563 189.926 82.8681 189.772 83.2692C189.619 83.6672 189.542 84.1305 189.542 84.6618ZM197.463 78.7373V88.2172H196.377V78.7383L197.463 78.7373ZM202.417 88.3656C201.735 88.3656 201.148 88.2142 200.653 87.9114C200.161 87.6037 199.766 87.1604 199.517 86.634C199.254 86.0846 199.121 85.4459 199.121 84.718C199.121 83.9901 199.254 83.3474 199.517 82.7929C199.76 82.262 200.146 81.8099 200.631 81.4875C201.11 81.1727 201.668 81.0153 202.306 81.0153C202.674 81.0153 203.038 81.0764 203.397 81.1998C203.756 81.3231 204.083 81.5246 204.377 81.8013C204.672 82.0761 204.907 82.441 205.082 82.8942C205.257 83.3484 205.344 83.9069 205.344 84.5696V85.0328H199.895V84.0883H204.24C204.24 83.6873 204.16 83.3293 204 83.0155C203.851 82.7082 203.618 82.4496 203.328 82.2696C203.021 82.0821 202.666 81.9871 202.306 81.9958C201.874 81.9958 201.499 82.1041 201.183 82.3207C200.874 82.5293 200.625 82.8164 200.461 83.1529C200.292 83.4958 200.208 83.8627 200.208 84.2558V84.8844C200.208 85.4218 200.3 85.877 200.484 86.25C200.67 86.621 200.93 86.9017 201.262 87.0972C201.593 87.2877 201.977 87.384 202.417 87.384C202.702 87.384 202.96 87.3439 203.19 87.2637C203.423 87.1805 203.624 87.0571 203.793 86.8927C203.961 86.7273 204.092 86.5197 204.184 86.2731L205.234 86.5699C205.125 86.9244 204.934 87.2478 204.676 87.5133C204.403 87.7905 204.073 88.0053 203.71 88.143C203.297 88.2966 202.858 88.372 202.417 88.3656Z" fill="#D8D8D8"/>
<path d="M297.137 96.7407H87.7697C82.5388 96.7407 78.2983 101.005 78.2983 106.266V118.299C78.2983 123.56 82.5388 127.824 87.7697 127.824H297.137C302.368 127.824 306.609 123.56 306.609 118.299V106.266C306.609 101.005 302.368 96.7407 297.137 96.7407Z" fill="#262626"/>
<path d="M297.137 96.7407H87.7697C82.5388 96.7407 78.2983 101.005 78.2983 106.266V118.299C78.2983 123.56 82.5388 127.824 87.7697 127.824H297.137C302.368 127.824 306.609 123.56 306.609 118.299V106.266C306.609 101.005 302.368 96.7407 297.137 96.7407Z" stroke="#484848" stroke-width="0.999806"/>
<path d="M90.9053 116.794V107.314H92.0468V112.016H92.1565L96.3917 107.314H97.8822L93.9241 111.591L97.8822 116.794H96.5014L93.2253 112.387L92.0468 113.721V116.794H90.9053ZM101.658 116.942C100.977 116.942 100.389 116.791 99.8951 116.488C99.4024 116.181 99.0079 115.737 98.7585 115.211C98.4943 114.661 98.3627 114.023 98.3627 113.295C98.3627 112.567 98.4943 111.925 98.7585 111.37C99.0247 110.81 99.3966 110.375 99.8722 110.064C100.351 109.749 100.909 109.592 101.547 109.592C101.916 109.592 102.279 109.653 102.638 109.776C102.997 109.9 103.324 110.101 103.619 110.378C103.913 110.654 104.147 111.018 104.323 111.471C104.497 111.925 104.585 112.484 104.585 113.146V113.61H99.1354V112.665H103.48C103.48 112.264 103.401 111.906 103.241 111.592C103.091 111.285 102.858 111.026 102.569 110.846C102.261 110.659 101.907 110.564 101.547 110.573C101.114 110.573 100.74 110.681 100.424 110.897C100.115 111.106 99.8655 111.393 99.7017 111.73C99.5322 112.072 99.4484 112.439 99.4484 112.832V113.461C99.4484 113.999 99.5412 114.454 99.7246 114.827C99.912 115.198 100.171 115.478 100.502 115.674C100.834 115.864 101.219 115.961 101.659 115.961C101.943 115.961 102.201 115.921 102.431 115.84C102.656 115.762 102.862 115.635 103.034 115.469C103.203 115.303 103.333 115.096 103.425 114.85L104.474 115.146C104.366 115.5 104.176 115.824 103.918 116.09C103.644 116.367 103.314 116.582 102.951 116.72C102.537 116.873 102.099 116.949 101.658 116.942ZM106.722 119.46C106.538 119.46 106.374 119.445 106.229 119.414C106.126 119.398 106.026 119.37 105.93 119.331L106.206 118.368C106.47 118.435 106.704 118.46 106.906 118.442C107.113 118.421 107.305 118.324 107.444 118.168C107.604 118.008 107.749 117.747 107.882 117.386L108.084 116.831L105.47 109.684H106.648L108.6 115.349H108.674L110.625 109.684H111.803L108.802 117.831C108.688 118.161 108.518 118.47 108.301 118.743C108.101 118.987 107.869 119.167 107.606 119.284C107.327 119.405 107.026 119.465 106.722 119.46Z" fill="#606060"/>
<path d="M534.42 96.7407H325.053C319.822 96.7407 315.582 101.005 315.582 106.266V118.299C315.582 123.56 319.822 127.824 325.053 127.824H534.42C539.651 127.824 543.892 123.56 543.892 118.299V106.266C543.892 101.005 539.651 96.7407 534.42 96.7407Z" fill="#262626"/>
<path d="M534.42 96.7407H325.053C319.822 96.7407 315.582 101.005 315.582 106.266V118.299C315.582 123.56 319.822 127.824 325.053 127.824H534.42C539.651 127.824 543.892 123.56 543.892 118.299V106.266C543.892 101.005 539.651 96.7407 534.42 96.7407Z" stroke="#484848" stroke-width="0.999806"/>
<path d="M328.575 107.314L331.373 115.295H331.484L334.282 107.314H335.478L332.018 116.794H330.839L327.378 107.314H328.575ZM338.222 116.96C337.774 116.96 337.368 116.876 337.002 116.706C336.649 116.543 336.348 116.285 336.132 115.961C335.917 115.634 335.81 115.239 335.81 114.776C335.81 114.368 335.89 114.039 336.05 113.785C336.209 113.529 336.423 113.329 336.69 113.183C336.956 113.038 337.251 112.931 337.573 112.86C337.898 112.785 338.225 112.727 338.553 112.684C338.983 112.628 339.331 112.587 339.598 112.559C339.868 112.529 340.065 112.477 340.187 112.406C340.313 112.335 340.376 112.212 340.376 112.035V111.998C340.376 111.542 340.252 111.186 340.003 110.934C339.758 110.681 339.385 110.554 338.885 110.554C338.366 110.554 337.96 110.669 337.665 110.897C337.371 111.125 337.163 111.369 337.044 111.628L336.013 111.257C336.197 110.826 336.443 110.489 336.75 110.249C337.059 110.005 337.397 109.836 337.762 109.739C338.116 109.643 338.481 109.593 338.848 109.592C339.075 109.592 339.336 109.619 339.63 109.675C339.928 109.727 340.215 109.837 340.491 110.004C340.77 110.17 341.002 110.422 341.186 110.758C341.37 111.095 341.462 111.545 341.462 112.11V116.794H340.376V115.831H340.321C340.225 116.015 340.101 116.182 339.953 116.327C339.755 116.519 339.522 116.671 339.267 116.775C338.982 116.899 338.633 116.96 338.222 116.96ZM338.388 115.98C338.817 115.98 339.179 115.895 339.473 115.725C339.754 115.573 339.986 115.345 340.145 115.067C340.296 114.811 340.375 114.518 340.376 114.22V113.22C340.33 113.277 340.229 113.327 340.073 113.373C339.897 113.421 339.718 113.46 339.538 113.489C339.193 113.543 338.846 113.589 338.498 113.628C338.229 113.662 337.964 113.722 337.707 113.808C337.464 113.888 337.268 114.011 337.118 114.174C336.97 114.334 336.896 114.554 336.896 114.832C336.896 115.211 337.036 115.497 337.315 115.692C337.598 115.883 337.955 115.98 338.388 115.98ZM344.531 107.314V116.794H343.444V107.314H344.531ZM350.976 113.887V109.684H352.062V116.794H350.976V115.591H350.902C350.729 115.96 350.462 116.278 350.129 116.511C349.779 116.762 349.338 116.886 348.803 116.886C348.392 116.894 347.986 116.794 347.625 116.595C347.272 116.387 346.99 116.078 346.815 115.706C346.619 115.308 346.52 114.807 346.52 114.202V109.684H347.607V114.128C347.607 114.646 347.75 115.06 348.039 115.368C348.331 115.677 348.702 115.831 349.153 115.831C349.423 115.831 349.697 115.761 349.977 115.623C350.259 115.483 350.495 115.272 350.685 114.984C350.879 114.697 350.976 114.331 350.976 113.887ZM357.015 116.942C356.334 116.942 355.746 116.791 355.253 116.488C354.76 116.181 354.365 115.737 354.116 115.211C353.852 114.661 353.72 114.023 353.72 113.295C353.72 112.567 353.852 111.925 354.116 111.37C354.382 110.81 354.754 110.375 355.23 110.064C355.708 109.749 356.267 109.592 356.905 109.592C357.274 109.592 357.636 109.653 357.995 109.776C358.354 109.9 358.681 110.101 358.976 110.378C359.271 110.654 359.506 111.018 359.68 111.471C359.855 111.925 359.942 112.484 359.942 113.146V113.61H354.493V112.665H358.838C358.838 112.264 358.758 111.906 358.599 111.592C358.449 111.285 358.216 111.026 357.927 110.846C357.619 110.659 357.264 110.564 356.905 110.573C356.472 110.573 356.098 110.681 355.782 110.897C355.472 111.106 355.223 111.393 355.059 111.73C354.89 112.072 354.804 112.45 354.806 112.832V113.461C354.806 113.999 354.898 114.454 355.082 114.827C355.27 115.198 355.529 115.478 355.86 115.674C356.192 115.864 356.577 115.961 357.015 115.961C357.3 115.961 357.559 115.921 357.789 115.84C358.022 115.757 358.223 115.634 358.391 115.469C358.561 115.303 358.69 115.096 358.783 114.85L359.832 115.146C359.724 115.5 359.533 115.824 359.275 116.09C359.002 116.367 358.672 116.582 358.308 116.72C357.895 116.873 357.456 116.949 357.015 116.942Z" fill="#606060"/>
</g>
</g>
</g>
<defs>
<clipPath id="clip0_1_9102">
<rect width="538.8" height="207.53" fill="white" transform="translate(0 0.779785)"/>
</clipPath>
<clipPath id="clip1_1_9102">
<rect width="457.97" height="56.03" fill="white" transform="translate(83.8101 74.1099)"/>
</clipPath>
<clipPath id="clip2_1_9102">
<rect width="457.97" height="56.03" fill="white" transform="translate(83.8101 74.1099)"/>
</clipPath>
<clipPath id="clip3_1_9102">
<rect width="506.47" height="89.24" fill="white" transform="translate(57.8601 59.1396)"/>
</clipPath>
<clipPath id="clip4_1_9102">
<rect width="506.47" height="89.24" fill="white" transform="translate(57.8601 59.1396)"/>
</clipPath>
</defs>
</svg>
