<svg width="342" height="181" viewBox="0 0 342 181" fill="none" xmlns="http://www.w3.org/2000/svg">
<g opacity="0.5" clip-path="url(#clip0_1_9192)">
<g clip-path="url(#clip1_1_9192)">
<path d="M321.187 113.197H19.8637C16.5788 113.197 13.9158 115.856 13.9158 119.136V157.145C13.9158 160.425 16.5788 163.085 19.8637 163.085H321.187C324.472 163.085 327.135 160.425 327.135 157.145V119.136C327.135 115.856 324.472 113.197 321.187 113.197Z" fill="#303030"/>
<path d="M46.7413 125.898H30.9215C28.519 125.898 26.5713 127.843 26.5713 130.242V146.039C26.5713 148.438 28.519 150.383 30.9215 150.383H46.7413C49.1438 150.383 51.0915 148.438 51.0915 146.039V130.242C51.0915 127.843 49.1438 125.898 46.7413 125.898Z" fill="#484848"/>
<path fill-rule="evenodd" clip-rule="evenodd" d="M37.4467 132.809V135.968H40.2142V132.809H41.4013V135.968H43.3789V137.153H41.4005V139.128H43.3781V140.312H41.4005V143.472H40.2142V140.312H37.4459V143.472H36.2589V140.312H34.282V139.128H36.2589V137.153H34.282V135.968H36.2589V132.809H37.4467ZM37.4467 137.153V139.128H40.2142V137.153H37.4467Z" fill="white"/>
<path d="M46.7413 125.898H30.9215C28.519 125.898 26.5713 127.843 26.5713 130.242V146.039C26.5713 148.438 28.519 150.383 30.9215 150.383H46.7413C49.1438 150.383 51.0915 148.438 51.0915 146.039V130.242C51.0915 127.843 49.1438 125.898 46.7413 125.898Z" stroke="#585858" stroke-width="0.790021"/>
<path d="M67.5838 135.809C67.5838 136.921 66.9256 137.427 66.1786 137.68V137.705C67.1278 137.869 67.9382 138.59 67.9382 139.942C67.9382 141.61 66.7488 142.571 64.8758 142.571H60.9775V133.534H64.622C66.4696 133.534 67.5838 134.406 67.5838 135.809ZM62.1162 137.313H64.7997C66.0906 137.313 66.4451 136.757 66.4451 135.935C66.4451 135.114 65.9637 134.546 64.9257 134.546H62.1162V137.313ZM62.1162 138.324V141.559H64.9892C66.4443 141.559 66.7987 140.788 66.7987 139.941C66.7987 138.969 66.1913 138.324 65.2421 138.324H62.1162ZM73.248 136.125H74.2606V142.571H73.248V141.8H73.2226C72.8808 142.254 72.1973 142.747 71.0966 142.747C69.9191 142.747 68.9318 142.103 68.9318 140.624V136.125H69.9444V140.371C69.9444 141.205 70.337 141.862 71.3496 141.862C72.4883 141.862 73.248 141.142 73.248 140.144V136.125ZM76.289 134.874C76.0107 134.874 75.6562 134.659 75.6562 134.268C75.6562 133.876 76.0107 133.66 76.289 133.66C76.58 133.66 76.9218 133.876 76.9218 134.268C76.9218 134.659 76.5808 134.874 76.289 134.874ZM75.7831 136.125H76.7949V142.571H75.7831V136.125ZM78.2278 133.534H79.2404V142.57H78.2278V133.534ZM85.2678 133.534H86.2804V142.57H85.2678V141.774H85.2424C84.8634 142.267 84.2552 142.747 83.218 142.747C81.5979 142.747 80.3078 141.471 80.3078 139.347C80.3078 137.225 81.5979 135.948 83.218 135.948C84.2552 135.948 84.8634 136.403 85.2424 136.959H85.2678V133.534ZM83.3195 141.862C84.5216 141.862 85.2678 140.864 85.2678 139.347C85.2678 137.831 84.5216 136.832 83.3195 136.832C81.9904 136.832 81.3196 138.084 81.3196 139.347C81.3196 140.611 81.9904 141.862 83.3195 141.862ZM91.1017 136.454H89.9614C89.9614 134.849 91.0121 133.661 93.1761 133.661C94.6692 133.661 95.9856 134.532 95.9856 136.075C95.9856 136.997 95.5296 137.578 94.6439 137.932V137.958C95.8841 138.298 96.302 139.095 96.302 140.119C96.302 141.837 95.0744 142.747 93.2015 142.747C90.974 142.747 89.7338 141.584 89.7338 139.613H90.8725C90.8725 140.877 91.4545 141.735 93.1126 141.735C94.6185 141.735 95.1633 141.168 95.1633 140.119C95.1633 138.753 94.1633 138.513 93.3156 138.513H92.3799V137.502H93.2657C94.1641 137.502 94.8477 137.086 94.8477 136.075C94.8477 135.367 94.3663 134.672 93.1769 134.672C91.468 134.672 91.1017 135.595 91.1017 136.454Z" fill="white"/>
<path d="M150.072 130.408H149.166C149.074 129.93 148.801 129.507 148.403 129.226C148.214 129.089 148.003 128.986 147.778 128.92C147.546 128.851 147.305 128.817 147.063 128.818C146.61 128.818 146.2 128.932 145.832 129.161C145.467 129.389 145.177 129.726 144.959 130.17C144.745 130.615 144.638 131.161 144.638 131.808C144.638 132.455 144.745 133 144.959 133.444C145.177 133.889 145.467 134.227 145.832 134.455C146.2 134.684 146.61 134.798 147.063 134.798C147.311 134.798 147.55 134.763 147.778 134.695C148.008 134.627 148.215 134.527 148.403 134.393C148.799 134.109 149.071 133.685 149.166 133.208H150.072C150.011 133.569 149.885 133.916 149.7 134.232C149.519 134.533 149.295 134.79 149.027 135.002C148.757 135.212 148.452 135.374 148.126 135.479C147.783 135.59 147.424 135.646 147.063 135.643C146.425 135.643 145.858 135.488 145.361 135.176C144.865 134.866 144.474 134.424 144.189 133.85C143.905 133.276 143.762 132.595 143.762 131.808C143.762 131.02 143.905 130.34 144.189 129.765C144.474 129.192 144.865 128.75 145.361 128.438C145.858 128.127 146.425 127.971 147.063 127.971C147.441 127.971 147.794 128.027 148.126 128.136C148.459 128.245 148.76 128.405 149.027 128.617C149.295 128.826 149.519 129.081 149.7 129.383C149.88 129.682 150.003 130.024 150.072 130.408ZM151.418 135.541V129.94H152.251V130.787H152.309C152.412 130.51 152.596 130.285 152.864 130.112C153.134 129.939 153.449 129.849 153.77 129.853C153.833 129.853 153.912 129.854 154.007 129.857C154.102 129.859 154.174 129.863 154.223 129.868V130.743C154.156 130.729 154.089 130.718 154.021 130.71C153.914 130.693 153.806 130.684 153.697 130.685C153.424 130.685 153.181 130.742 152.967 130.856C152.76 130.963 152.585 131.125 152.462 131.323C152.341 131.519 152.28 131.744 152.28 131.997V135.541H151.418ZM157.425 135.658C156.885 135.658 156.419 135.539 156.027 135.3C155.636 135.059 155.322 134.709 155.124 134.295C154.915 133.862 154.81 133.359 154.81 132.785C154.81 132.211 154.915 131.705 155.124 131.268C155.318 130.849 155.624 130.493 156.009 130.24C156.388 129.992 156.831 129.868 157.338 129.868C157.629 129.868 157.918 129.917 158.203 130.013C158.487 130.111 158.747 130.269 158.981 130.488C159.215 130.704 159.4 130.99 159.539 131.348C159.678 131.705 159.747 132.146 159.747 132.668V133.033H155.424V132.288H158.871C158.871 131.973 158.808 131.691 158.681 131.443C158.563 131.201 158.378 130.997 158.148 130.856C157.904 130.708 157.623 130.633 157.338 130.64C156.994 130.64 156.697 130.726 156.446 130.896C156.201 131.061 156.003 131.287 155.873 131.553C155.739 131.822 155.67 132.12 155.672 132.42V132.916C155.672 133.339 155.745 133.698 155.891 133.991C156.04 134.284 156.246 134.506 156.508 134.659C156.771 134.809 157.077 134.885 157.425 134.885C157.652 134.885 157.856 134.854 158.039 134.79C158.223 134.725 158.383 134.627 158.517 134.498C158.655 134.36 158.761 134.193 158.827 134.01L159.659 134.243C159.572 134.525 159.425 134.774 159.218 134.988C159.001 135.206 158.739 135.375 158.451 135.483C158.123 135.604 157.775 135.664 157.425 135.658ZM162.708 135.673C162.375 135.677 162.045 135.609 161.741 135.472C161.461 135.344 161.222 135.141 161.051 134.885C160.881 134.627 160.795 134.316 160.795 133.951C160.795 133.63 160.858 133.371 160.985 133.171C161.112 132.969 161.281 132.812 161.493 132.698C161.704 132.583 161.938 132.498 162.194 132.442C162.452 132.383 162.712 132.337 162.972 132.303C163.313 132.26 163.589 132.226 163.8 132.205C164.014 132.181 164.171 132.141 164.268 132.085C164.368 132.029 164.418 131.931 164.418 131.793V131.764C164.418 131.404 164.319 131.124 164.122 130.925C163.927 130.726 163.631 130.626 163.235 130.626C162.823 130.626 162.501 130.716 162.267 130.895C162.034 131.076 161.869 131.268 161.774 131.472L160.956 131.18C161.102 130.84 161.297 130.575 161.54 130.385C161.786 130.194 162.054 130.06 162.344 129.985C162.625 129.908 162.914 129.869 163.206 129.868C163.386 129.868 163.593 129.89 163.826 129.933C164.062 129.975 164.29 130.061 164.509 130.192C164.73 130.324 164.914 130.522 165.06 130.786C165.206 131.051 165.279 131.406 165.279 131.851V135.541H164.418V134.783H164.374C164.298 134.928 164.2 135.06 164.082 135.173C163.925 135.325 163.74 135.445 163.538 135.527C163.311 135.624 163.035 135.673 162.708 135.673ZM162.84 134.9C163.181 134.9 163.468 134.832 163.702 134.699C163.916 134.583 164.095 134.412 164.221 134.204C164.347 133.995 164.415 133.757 164.418 133.514V132.726C164.381 132.77 164.301 132.81 164.177 132.846C164.037 132.884 163.896 132.915 163.753 132.938C163.479 132.98 163.204 133.017 162.928 133.048C162.715 133.074 162.504 133.122 162.3 133.19C162.107 133.253 161.952 133.348 161.832 133.478C161.716 133.604 161.657 133.777 161.657 133.995C161.657 134.294 161.768 134.52 161.989 134.673C162.214 134.824 162.497 134.9 162.84 134.9ZM169.292 129.94V130.67H166.385V129.941H169.292V129.94ZM167.232 128.599H168.093V133.937C168.093 134.18 168.129 134.362 168.2 134.483C168.262 134.593 168.36 134.679 168.477 134.725C168.591 134.763 168.712 134.782 168.839 134.782C168.934 134.782 169.012 134.778 169.073 134.768L169.219 134.739L169.394 135.512C169.314 135.539 169.232 135.561 169.149 135.577C169.018 135.604 168.884 135.617 168.751 135.614C168.507 135.614 168.269 135.562 168.036 135.457C167.804 135.352 167.605 135.187 167.458 134.98C167.308 134.766 167.232 134.497 167.232 134.17V128.599ZM172.879 135.658C172.339 135.658 171.873 135.539 171.48 135.3C171.089 135.058 170.777 134.709 170.579 134.295C170.369 133.862 170.265 133.359 170.265 132.785C170.265 132.211 170.369 131.705 170.579 131.268C170.772 130.85 171.078 130.494 171.462 130.24C171.842 129.992 172.285 129.868 172.792 129.868C173.084 129.868 173.372 129.917 173.657 130.013C173.942 130.111 174.201 130.269 174.435 130.488C174.668 130.704 174.854 130.99 174.993 131.348C175.132 131.705 175.202 132.146 175.202 132.668V133.033H170.878V132.288H174.325C174.325 131.973 174.262 131.691 174.135 131.443C174.017 131.201 173.832 130.998 173.602 130.856C173.358 130.708 173.077 130.633 172.792 130.64C172.448 130.64 172.151 130.726 171.9 130.896C171.655 131.061 171.457 131.287 171.327 131.553C171.193 131.822 171.125 132.12 171.127 132.42V132.916C171.127 133.339 171.2 133.698 171.345 133.991C171.494 134.284 171.7 134.506 171.962 134.659C172.226 134.809 172.531 134.885 172.879 134.885C173.106 134.885 173.31 134.854 173.493 134.79C173.678 134.725 173.837 134.627 173.971 134.498C174.109 134.36 174.215 134.193 174.281 134.01L175.114 134.243C175.026 134.525 174.879 134.774 174.672 134.988C174.455 135.206 174.193 135.375 173.905 135.483C173.577 135.604 173.229 135.664 172.879 135.658ZM178.63 135.658C178.163 135.658 177.75 135.539 177.393 135.304C177.034 135.067 176.754 134.731 176.553 134.299C176.351 133.863 176.249 133.348 176.249 132.755C176.249 132.167 176.351 131.657 176.553 131.224C176.754 130.792 177.036 130.458 177.396 130.222C177.757 129.986 178.173 129.868 178.645 129.868C179.01 129.868 179.298 129.929 179.51 130.05C179.725 130.169 179.887 130.306 180 130.458C180.114 130.609 180.203 130.733 180.266 130.83H180.339V128.074H181.201V135.541H180.369V134.681H180.266C180.203 134.782 180.112 134.912 179.996 135.068C179.859 135.237 179.689 135.378 179.496 135.479C179.279 135.598 178.99 135.658 178.63 135.658ZM178.747 134.885C179.093 134.885 179.385 134.795 179.623 134.615C179.862 134.433 180.044 134.181 180.167 133.861C180.292 133.537 180.354 133.164 180.354 132.741C180.354 132.323 180.292 131.957 180.171 131.644C180.049 131.327 179.869 131.081 179.63 130.907C179.392 130.73 179.097 130.64 178.747 130.64C178.382 130.64 178.078 130.735 177.834 130.922C177.585 131.117 177.397 131.378 177.29 131.676C177.171 131.993 177.111 132.348 177.111 132.741C177.111 133.139 177.172 133.501 177.293 133.828C177.418 134.151 177.6 134.409 177.841 134.6C178.085 134.79 178.387 134.885 178.747 134.885Z" fill="#A1A1A1"/>
<path d="M219.694 141.992H146.926C145.178 141.992 143.762 143.406 143.762 145.151C143.762 146.896 145.178 148.311 146.926 148.311H219.694C221.441 148.311 222.858 146.896 222.858 145.151C222.858 143.406 221.441 141.992 219.694 141.992Z" fill="#484848"/>
<path d="M309.188 129.139H267.035C264.025 129.139 261.585 131.575 261.585 134.581V141.702C261.585 144.707 264.025 147.143 267.035 147.143H309.188C312.198 147.143 314.637 144.707 314.637 141.702V134.581C314.637 131.575 312.198 129.139 309.188 129.139Z" fill="#262626"/>
<path d="M272.422 140.965V135.221H274.473C274.918 135.221 275.288 135.298 275.582 135.451C275.878 135.604 276.099 135.817 276.245 136.087C276.391 136.357 276.464 136.669 276.464 137.022C276.464 137.373 276.39 137.683 276.243 137.95C276.091 138.22 275.86 138.437 275.58 138.57C275.286 138.718 274.915 138.792 274.47 138.792H272.917V138.046H274.391C274.672 138.046 274.901 138.005 275.077 137.924C275.243 137.855 275.38 137.732 275.467 137.575C275.554 137.403 275.596 137.213 275.591 137.022C275.591 136.805 275.549 136.617 275.464 136.458C275.378 136.296 275.241 136.168 275.074 136.094C274.898 136.007 274.666 135.965 274.38 135.965H273.29V140.965H272.422ZM275.262 138.373L276.684 140.965H275.695L274.301 138.373H275.262ZM279.216 141.052C278.812 141.052 278.459 140.96 278.157 140.775C277.854 140.588 277.61 140.318 277.455 139.997C277.289 139.665 277.205 139.276 277.205 138.831C277.205 138.384 277.289 137.993 277.455 137.658C277.61 137.337 277.853 137.066 278.157 136.878C278.459 136.693 278.812 136.601 279.216 136.601C279.621 136.601 279.974 136.693 280.275 136.878C280.576 137.064 280.811 137.323 280.977 137.658C281.144 137.993 281.227 138.384 281.227 138.83C281.227 139.276 281.144 139.665 280.977 139.997C280.811 140.33 280.576 140.59 280.275 140.774C279.974 140.96 279.621 141.052 279.216 141.052ZM279.219 140.347C279.481 140.347 279.698 140.279 279.87 140.141C280.047 139.996 280.18 139.804 280.253 139.588C280.337 139.358 280.379 139.105 280.379 138.828C280.382 138.57 280.339 138.314 280.253 138.071C280.18 137.853 280.047 137.66 279.87 137.513C279.698 137.373 279.481 137.302 279.219 137.302C278.955 137.302 278.736 137.373 278.562 137.513C278.385 137.66 278.251 137.853 278.177 138.071C278.094 138.301 278.053 138.553 278.053 138.828C278.053 139.105 278.094 139.358 278.177 139.588C278.262 139.818 278.389 140.002 278.562 140.141C278.736 140.279 278.955 140.347 279.219 140.347ZM283.004 135.221V140.965H282.165V135.221H283.004ZM284.974 135.221V140.965H284.134V135.221H284.974ZM286.171 140.965V135.221H287.011V137.355H287.062C287.124 137.246 287.194 137.142 287.273 137.044C287.364 136.926 287.492 136.824 287.654 136.735C287.818 136.646 288.033 136.601 288.301 136.601C288.649 136.601 288.96 136.688 289.233 136.865C289.507 137.04 289.721 137.293 289.876 137.625C290.034 137.955 290.112 138.354 290.112 138.819C290.112 139.285 290.035 139.685 289.879 140.017C289.742 140.327 289.52 140.593 289.239 140.783C288.962 140.962 288.639 141.055 288.309 141.05C288.047 141.05 287.833 141.005 287.666 140.918C287.517 140.842 287.385 140.737 287.278 140.609C287.198 140.51 287.126 140.405 287.062 140.295H286.992V140.965H286.171ZM286.995 138.811C286.995 139.114 287.039 139.38 287.127 139.608C287.215 139.836 287.342 140.014 287.508 140.143C287.675 140.27 287.879 140.334 288.121 140.334C288.372 140.334 288.581 140.268 288.75 140.135C288.918 140.001 289.046 139.819 289.132 139.588C289.22 139.358 289.264 139.1 289.264 138.811C289.264 138.526 289.221 138.272 289.135 138.046C289.061 137.834 288.929 137.648 288.753 137.51C288.584 137.379 288.373 137.313 288.121 137.313C287.877 137.313 287.672 137.377 287.503 137.502C287.329 137.637 287.198 137.819 287.124 138.026C287.033 138.278 286.989 138.544 286.995 138.811ZM292.311 141.061C292.038 141.061 291.79 141.01 291.569 140.909C291.356 140.812 291.174 140.658 291.044 140.463C290.917 140.269 290.853 140.03 290.853 139.748C290.853 139.505 290.9 139.305 290.993 139.148C291.087 138.99 291.214 138.867 291.373 138.775C291.532 138.683 291.71 138.614 291.906 138.567C292.103 138.52 292.303 138.485 292.507 138.461L293.137 138.388C293.298 138.367 293.415 138.335 293.488 138.29C293.561 138.244 293.598 138.172 293.598 138.071V138.051C293.598 137.806 293.528 137.616 293.39 137.481C293.253 137.346 293.049 137.28 292.778 137.28C292.495 137.28 292.272 137.342 292.109 137.468C291.947 137.591 291.836 137.729 291.775 137.879L290.986 137.7C291.079 137.439 291.216 137.228 291.396 137.067C291.577 136.904 291.786 136.786 292.022 136.713C292.263 136.638 292.514 136.6 292.766 136.601C292.939 136.601 293.121 136.622 293.314 136.663C293.509 136.703 293.69 136.775 293.858 136.882C294.029 136.988 294.169 137.141 294.277 137.339C294.386 137.535 294.441 137.79 294.441 138.104V140.965H293.62V140.376H293.586C293.523 140.495 293.441 140.604 293.342 140.696C293.221 140.809 293.079 140.898 292.924 140.957C292.728 141.03 292.52 141.065 292.311 141.06V141.061ZM292.494 140.388C292.726 140.388 292.924 140.342 293.089 140.25C293.256 140.158 293.382 140.039 293.468 139.891C293.555 139.746 293.601 139.58 293.6 139.412V138.856C293.549 138.897 293.49 138.926 293.426 138.94C293.331 138.967 293.234 138.988 293.137 139.005L292.82 139.052L292.561 139.086C292.409 139.104 292.259 139.139 292.115 139.19C291.992 139.232 291.881 139.304 291.794 139.4C291.712 139.501 291.67 139.629 291.676 139.759C291.676 139.967 291.753 140.123 291.906 140.23C292.06 140.335 292.256 140.388 292.494 140.388ZM297.376 141.052C296.958 141.052 296.599 140.957 296.298 140.769C295.997 140.577 295.757 140.304 295.606 139.981C295.445 139.646 295.365 139.263 295.365 138.831C295.365 138.393 295.448 138.008 295.613 137.673C295.777 137.336 296.009 137.073 296.309 136.884C296.609 136.696 296.961 136.601 297.367 136.601C297.696 136.601 297.987 136.662 298.244 136.783C298.501 136.902 298.707 137.072 298.864 137.288C299.024 137.505 299.118 137.758 299.148 138.048H298.331C298.286 137.846 298.178 137.664 298.022 137.527C297.863 137.381 297.65 137.308 297.382 137.308C297.148 137.308 296.942 137.369 296.766 137.493C296.593 137.614 296.457 137.788 296.36 138.015C296.257 138.267 296.207 138.539 296.214 138.811C296.214 139.125 296.261 139.396 296.356 139.625C296.452 139.853 296.587 140.029 296.761 140.155C296.937 140.28 297.144 140.343 297.382 140.343C297.541 140.343 297.685 140.313 297.815 140.256C297.945 140.196 298.055 140.111 298.143 140.001C298.232 139.89 298.295 139.758 298.331 139.602H299.148C299.122 139.87 299.029 140.127 298.876 140.348C298.721 140.57 298.511 140.748 298.267 140.865C298.014 140.99 297.717 141.052 297.376 141.052ZM300.819 139.503L300.814 138.48H300.96L302.679 136.657H303.684L301.723 138.733H301.592L300.819 139.503ZM300.047 140.965V135.221H300.887V140.965H300.047ZM302.771 140.965L301.226 138.917L301.805 138.331L303.802 140.965H302.771Z" fill="white"/>
<path d="M309.188 129.139H267.035C264.025 129.139 261.585 131.575 261.585 134.581V141.702C261.585 144.707 264.025 147.143 267.035 147.143H309.188C312.198 147.143 314.637 144.707 314.637 141.702V134.581C314.637 131.575 312.198 129.139 309.188 129.139Z" stroke="#484848" stroke-width="0.473854"/>
<path d="M321.187 113.197H19.8637C16.5788 113.197 13.9158 115.856 13.9158 119.136V157.145C13.9158 160.425 16.5788 163.085 19.8637 163.085H321.187C324.472 163.085 327.135 160.425 327.135 157.145V119.136C327.135 115.856 324.472 113.197 321.187 113.197Z" stroke="#484848" stroke-width="0.790021"/>
</g>
</g>
<g opacity="0.5" clip-path="url(#clip2_1_9192)">
<g clip-path="url(#clip3_1_9192)">
<path d="M321.187 16.2725H19.8637C16.5788 16.2725 13.9158 18.9317 13.9158 22.2121V60.2207C13.9158 63.5011 16.5788 66.1604 19.8637 66.1604H321.187C324.472 66.1604 327.135 63.5011 327.135 60.2207V22.2121C327.135 18.9317 324.472 16.2725 321.187 16.2725Z" fill="#303030"/>
<path d="M46.7413 28.9736H30.9215C28.519 28.9736 26.5713 30.9185 26.5713 33.3176V49.1146C26.5713 51.5137 28.519 53.4585 30.9215 53.4585H46.7413C49.1438 53.4585 51.0915 51.5137 51.0915 49.1146V33.3176C51.0915 30.9185 49.1438 28.9736 46.7413 28.9736Z" fill="#484848"/>
<path fill-rule="evenodd" clip-rule="evenodd" d="M37.4467 35.8848V39.0442H40.2142V35.8848H41.4013V39.0442H43.3789V40.2287H41.4005V42.2036H43.3781V43.3881H41.4005V46.5475H40.2142V43.3881H37.4459V46.5475H36.2589V43.3881H34.282V42.2036H36.2589V40.2287H34.282V39.045H36.2589V35.8856H37.4459L37.4467 35.8848ZM37.4467 40.2287V42.2036H40.2142V40.2287H37.4467Z" fill="white"/>
<path d="M46.7413 28.9736H30.9215C28.519 28.9736 26.5713 30.9185 26.5713 33.3176V49.1146C26.5713 51.5137 28.519 53.4585 30.9215 53.4585H46.7413C49.1438 53.4585 51.0915 51.5137 51.0915 49.1146V33.3176C51.0915 30.9185 49.1438 28.9736 46.7413 28.9736Z" stroke="#585858" stroke-width="0.790021"/>
<path d="M67.5837 38.8845C67.5837 39.8109 67.1159 40.4349 66.1786 40.7548V40.7801C66.6731 40.8531 67.1235 41.105 67.4441 41.488C67.7732 41.8673 67.9382 42.3772 67.9382 43.017C67.9382 43.8429 67.6638 44.4875 67.1151 44.9507C66.5671 45.4139 65.8201 45.6459 64.8749 45.6459H60.9783V36.6104H64.6228C65.5426 36.6104 66.2642 36.8162 66.7876 37.2296C67.3189 37.6334 67.5837 38.1853 67.5837 38.8845ZM64.7996 40.389C65.407 40.389 65.8328 40.2702 66.0779 40.035C66.3221 39.799 66.4442 39.457 66.4442 39.0112C66.4442 38.5812 66.3173 38.2447 66.0652 38C65.8114 37.7474 65.4324 37.6207 64.9257 37.6207H62.1162V40.3882L64.7996 40.389ZM62.1162 44.6347H64.9891C66.196 44.6347 66.7987 44.0955 66.7987 43.017C66.7987 42.5285 66.6559 42.1365 66.3689 41.842C66.0906 41.5466 65.7147 41.3993 65.2429 41.3993H62.1162V44.6347ZM74.2605 39.2004V45.6459H73.2479V44.8747H73.2225C73.0195 45.1439 72.7412 45.3719 72.3867 45.5572C72.0323 45.7346 71.6017 45.8225 71.0966 45.8225C70.463 45.8225 69.9444 45.6459 69.54 45.292C69.1348 44.9293 68.9318 44.3988 68.9318 43.6996V39.2004H69.9444V43.447C69.9444 43.8936 70.0586 44.2554 70.2861 44.5334C70.5137 44.8026 70.8682 44.938 71.3487 44.938C71.9149 44.938 72.3701 44.7781 72.7158 44.4582C73.0703 44.1375 73.2471 43.7249 73.2471 43.2189V39.2004H74.2605ZM76.2889 37.9493C76.1305 37.9471 75.978 37.8891 75.8583 37.7854C75.7923 37.7326 75.7396 37.665 75.7045 37.5881C75.6694 37.5113 75.6528 37.4272 75.6561 37.3428C75.6561 37.1575 75.7235 37.0102 75.8583 36.901C75.9779 36.797 76.1304 36.7386 76.2889 36.7363C76.4479 36.736 76.6013 36.7947 76.7195 36.901C76.8543 37.0102 76.9217 37.1575 76.9217 37.3428C76.9217 37.5281 76.8543 37.6754 76.7195 37.7854C76.6014 37.8916 76.4479 37.9501 76.2889 37.9493ZM76.7948 39.2004V45.6459H75.783V39.2004H76.7948ZM79.2404 36.6104V45.6451H78.2277V36.6104H79.2404ZM86.2804 36.6104V45.6451H85.2677V44.8493H85.2424C84.7452 45.4986 84.0696 45.8233 83.2179 45.8233C82.6961 45.828 82.1833 45.688 81.7366 45.4186C81.2981 45.1399 80.9484 44.744 80.6867 44.2309C80.433 43.7162 80.3069 43.1144 80.3069 42.4232C80.3069 41.7327 80.4338 41.1301 80.6867 40.6162C80.9484 40.1015 81.2981 39.7104 81.7374 39.4411C82.181 39.164 82.6947 39.0192 83.2179 39.0238C84.1037 39.0238 84.7785 39.3612 85.2424 40.035H85.2677V36.6104H86.2804ZM83.3194 44.938C83.9181 44.938 84.3899 44.7107 84.7364 44.2554C85.0909 43.7922 85.2677 43.1817 85.2677 42.4232C85.2677 41.6646 85.0909 41.058 84.7364 40.6035C84.3907 40.1403 83.9181 39.9083 83.3186 39.9083C82.8975 39.9083 82.5344 40.0263 82.2307 40.2623C81.9269 40.4982 81.6994 40.8102 81.5471 41.1974C81.3932 41.5876 81.316 42.0038 81.3195 42.4232C81.3195 42.861 81.3957 43.2744 81.5471 43.6616C81.6994 44.0409 81.9269 44.3481 82.2307 44.5841C82.5344 44.82 82.8967 44.938 83.3194 44.938ZM92.8985 36.9136V45.6459H91.7598V39.1125C91.514 39.3398 91.2657 39.4831 91.0128 39.5417C90.7678 39.5924 90.4101 39.6177 89.9367 39.6177V38.7966C90.6544 38.7966 91.1603 38.6406 91.4553 38.3294C91.759 38.0087 91.9453 37.5368 92.0127 36.9136H92.8985Z" fill="white"/>
<path d="M149.547 33.4825H148.641C148.549 33.0052 148.276 32.5819 147.878 32.3011C147.689 32.1645 147.478 32.0611 147.253 31.9955C147.021 31.9266 146.78 31.8919 146.538 31.8925C146.085 31.8925 145.675 32.0074 145.307 32.2362C144.942 32.4642 144.652 32.8008 144.434 33.2458C144.22 33.6908 144.113 34.2364 144.113 34.8833C144.113 35.5294 144.22 36.0758 144.434 36.52C144.652 36.965 144.942 37.3015 145.307 37.5304C145.675 37.7584 146.085 37.8732 146.538 37.8732C146.786 37.8732 147.025 37.8392 147.253 37.7703C147.483 37.703 147.69 37.6016 147.878 37.4686C148.274 37.1843 148.547 36.7606 148.641 36.2832H149.547C149.486 36.6446 149.36 36.9919 149.174 37.3079C148.822 37.9037 148.262 38.3481 147.601 38.555C147.258 38.6662 146.899 38.7215 146.538 38.7189C145.9 38.7189 145.333 38.5629 144.836 38.2517C144.34 37.9413 143.949 37.4987 143.664 36.9246C143.38 36.3513 143.237 35.6704 143.237 34.8833C143.237 34.0954 143.38 33.4152 143.664 32.8412C143.949 32.2679 144.34 31.8252 144.836 31.5141C145.333 31.2029 145.9 31.0469 146.538 31.0469C146.916 31.0469 147.269 31.1023 147.601 31.2116C147.934 31.3208 148.234 31.4808 148.502 31.6922C148.77 31.9013 148.994 32.157 149.174 32.4579C149.355 32.7572 149.479 33.0993 149.547 33.4825ZM150.893 38.6167V33.0161H151.726V33.8618H151.784C151.887 33.5847 152.072 33.3598 152.34 33.1872C152.609 33.0141 152.924 32.9244 153.245 32.929C153.308 32.929 153.387 32.9298 153.482 32.9322C153.577 32.9346 153.649 32.9386 153.698 32.9433V33.8183C153.631 33.8048 153.564 33.7939 153.496 33.7858C153.389 33.7682 153.281 33.7594 153.172 33.7597C152.899 33.7597 152.656 33.8175 152.442 33.9315C152.235 34.0391 152.061 34.2005 151.938 34.3987C151.816 34.5951 151.755 34.8199 151.755 35.0725V38.6167H150.893ZM156.9 38.7331C156.36 38.7331 155.894 38.6144 155.501 38.3768C155.11 38.1343 154.797 37.7847 154.6 37.3696C154.39 36.9373 154.286 36.4337 154.286 35.8604C154.286 35.2863 154.39 34.7811 154.6 34.3433C154.793 33.9254 155.099 33.5694 155.483 33.3155C155.863 33.0676 156.306 32.9433 156.813 32.9433C157.105 32.9433 157.393 32.9916 157.678 33.089C157.963 33.1864 158.222 33.344 158.456 33.5633C158.689 33.7795 158.875 34.0661 159.014 34.4232C159.153 34.7811 159.223 35.2206 159.223 35.7432V36.1074H154.899V35.3647H158.346C158.346 35.048 158.283 34.7661 158.156 34.5182C158.038 34.2762 157.853 34.0728 157.623 33.9315C157.379 33.7839 157.098 33.7091 156.813 33.7161C156.469 33.7161 156.172 33.8016 155.921 33.9719C155.676 34.1364 155.478 34.3625 155.348 34.6275C155.214 34.8972 155.146 35.1944 155.147 35.4954V35.9918C155.147 36.4147 155.22 36.7726 155.366 37.0671C155.515 37.3585 155.721 37.5818 155.983 37.7347C156.247 37.8851 156.552 37.9603 156.9 37.9603C157.127 37.9603 157.331 37.9286 157.514 37.8653C157.698 37.8004 157.858 37.703 157.992 37.5739C158.13 37.4359 158.236 37.2691 158.302 37.0854L159.135 37.3189C159.049 37.5986 158.897 37.8538 158.693 38.0633C158.476 38.2811 158.214 38.4498 157.926 38.5582C157.598 38.679 157.25 38.7383 156.9 38.7331ZM162.183 38.7482C161.828 38.7482 161.505 38.6809 161.216 38.5479C160.936 38.4196 160.697 38.2162 160.526 37.9603C160.356 37.703 160.27 37.3918 160.27 37.0268C160.27 36.7061 160.333 36.4463 160.46 36.2468C160.585 36.0469 160.76 35.8833 160.968 35.7725C161.18 35.6585 161.414 35.573 161.669 35.5175C161.927 35.4589 162.186 35.413 162.447 35.379C162.788 35.3354 163.064 35.3022 163.275 35.2808C163.489 35.2562 163.646 35.2158 163.743 35.1604C163.842 35.1042 163.892 35.0068 163.892 34.8682V34.8389C163.892 34.4794 163.794 34.1999 163.597 34.0004C163.402 33.8016 163.107 33.7019 162.709 33.7019C162.298 33.7019 161.976 33.7913 161.742 33.9711C161.508 34.1516 161.344 34.3433 161.249 34.5475L160.431 34.2562C160.577 33.9157 160.772 33.6504 161.015 33.4612C161.261 33.2687 161.529 33.1349 161.819 33.0597C162.1 32.9835 162.389 32.9444 162.681 32.9433C162.861 32.9433 163.068 32.9647 163.301 33.009C163.537 33.0502 163.765 33.1365 163.984 33.268C164.206 33.3994 164.39 33.5974 164.535 33.8618C164.681 34.1271 164.754 34.4818 164.754 34.9268V38.6167H163.892V37.8582H163.849C163.773 38.0032 163.675 38.135 163.557 38.2485C163.4 38.4005 163.215 38.5207 163.013 38.6025C162.786 38.6991 162.51 38.7482 162.183 38.7482ZM162.315 37.9754C162.656 37.9754 162.943 37.9081 163.177 37.7742C163.391 37.6586 163.571 37.4878 163.697 37.2794C163.822 37.0711 163.89 36.8329 163.892 36.5897V35.8018C163.856 35.8454 163.776 35.8857 163.651 35.9222C163.512 35.96 163.37 35.9904 163.228 36.0132C162.954 36.0557 162.679 36.0922 162.403 36.1225C162.19 36.1493 161.979 36.197 161.775 36.265C161.582 36.3284 161.427 36.4242 161.307 36.5532C161.191 36.6799 161.132 36.8518 161.132 37.0711C161.132 37.3696 161.243 37.5961 161.464 37.7489C161.689 37.8994 161.972 37.9754 162.315 37.9754ZM168.767 33.0161V33.7454H165.86V33.0161H168.767ZM166.707 31.674H167.569V37.0125C167.569 37.2556 167.604 37.4377 167.675 37.5589C167.737 37.6687 167.835 37.754 167.952 37.8004C168.067 37.8392 168.187 37.8582 168.314 37.8582C168.408 37.8582 168.487 37.8534 168.547 37.8439L168.694 37.8146L168.869 38.5874C168.789 38.6152 168.707 38.6371 168.624 38.6532C168.493 38.68 168.36 38.6922 168.226 38.6896C167.982 38.6896 167.744 38.6373 167.511 38.5328C167.279 38.4282 167.079 38.2633 166.933 38.0553C166.783 37.8415 166.707 37.5715 166.707 37.2461V31.6732V31.674ZM172.354 38.7331C171.813 38.7331 171.348 38.6144 170.955 38.3768C170.564 38.1343 170.251 37.7847 170.054 37.3696C169.844 36.9373 169.74 36.4337 169.74 35.8604C169.74 35.2863 169.844 34.7811 170.054 34.3433C170.247 33.9252 170.553 33.5692 170.937 33.3155C171.317 33.0676 171.76 32.9433 172.266 32.9433C172.559 32.9433 172.847 32.9916 173.132 33.089C173.417 33.1864 173.676 33.344 173.91 33.5633C174.143 33.7795 174.329 34.0661 174.468 34.4232C174.607 34.7811 174.677 35.2206 174.677 35.7432V36.1074H170.353V35.3647H173.8C173.8 35.048 173.737 34.7661 173.61 34.5182C173.491 34.2766 173.307 34.0732 173.077 33.9315C172.833 33.7839 172.552 33.7091 172.266 33.7161C171.924 33.7161 171.626 33.8016 171.376 33.9719C171.13 34.1364 170.932 34.3625 170.802 34.6275C170.668 34.8972 170.6 35.1944 170.602 35.4954V35.9918C170.602 36.4147 170.675 36.7726 170.821 37.0671C170.969 37.3585 171.175 37.5818 171.437 37.7347C171.701 37.8851 172.006 37.9603 172.354 37.9603C172.58 37.9603 172.785 37.9286 172.968 37.8653C173.153 37.8004 173.312 37.703 173.446 37.5739C173.584 37.4359 173.69 37.2691 173.756 37.0854L174.589 37.3189C174.503 37.5986 174.351 37.8538 174.147 38.0633C173.93 38.2811 173.668 38.4498 173.38 38.5582C173.052 38.679 172.704 38.7383 172.354 38.7331ZM178.106 38.7331C177.638 38.7331 177.225 38.6152 176.868 38.38C176.509 38.1417 176.229 37.8059 176.027 37.3736C175.826 36.9381 175.724 36.4242 175.724 35.8311C175.724 35.2428 175.826 34.732 176.027 34.2997C176.229 33.8666 176.511 33.5324 176.871 33.2972C177.232 33.0613 177.647 32.9433 178.12 32.9433C178.485 32.9433 178.773 33.0043 178.985 33.1254C179.2 33.2442 179.362 33.3804 179.474 33.534C179.589 33.6845 179.678 33.8088 179.741 33.9062H179.814V31.149H180.676V38.6167H179.844V37.756H179.741C179.678 37.859 179.588 37.9872 179.471 38.1424C179.334 38.3121 179.164 38.4522 178.971 38.5542C178.754 38.6738 178.466 38.7331 178.106 38.7331ZM178.222 37.9603C178.568 37.9603 178.86 37.8708 179.098 37.6911C179.337 37.509 179.519 37.2564 179.642 36.9357C179.767 36.6126 179.829 36.2389 179.829 35.8161C179.829 35.3988 179.768 35.0321 179.646 34.7186C179.524 34.4026 179.344 34.1572 179.105 33.9822C178.867 33.8048 178.573 33.7161 178.222 33.7161C177.857 33.7161 177.553 33.8096 177.309 33.9972C177.06 34.1925 176.872 34.4541 176.765 34.7518C176.641 35.093 176.581 35.4539 176.586 35.8168C176.586 36.2151 176.647 36.577 176.769 36.9032C176.893 37.2263 177.075 37.4836 177.317 37.6761C177.56 37.8661 177.862 37.9603 178.222 37.9603Z" fill="#A1A1A1"/>
<path d="M207.305 45.0674H146.401C144.654 45.0674 143.237 46.4819 143.237 48.2269C143.237 49.9718 144.654 51.3863 146.401 51.3863H207.305C209.052 51.3863 210.469 49.9718 210.469 48.2269C210.469 46.4819 209.052 45.0674 207.305 45.0674Z" fill="#484848"/>
<path d="M309.189 32.3701H265.985C262.975 32.3701 260.536 34.8064 260.536 37.8117V44.6224C260.536 47.6276 262.975 50.0639 265.985 50.0639H309.189C312.198 50.0639 314.638 47.6276 314.638 44.6224V37.8117C314.638 34.8064 312.198 32.3701 309.189 32.3701Z" fill="#262626"/>
<path d="M276.727 43.6759H274.864V37.9312H276.786C277.349 37.9312 277.833 38.0468 278.238 38.2764C278.641 38.5025 278.965 38.8458 279.168 39.2606C279.385 39.6874 279.494 40.1989 279.494 40.7952C279.494 41.3938 279.384 41.9077 279.165 42.3377C278.947 42.7676 278.633 43.0986 278.221 43.3306C277.809 43.5603 277.311 43.6759 276.727 43.6759ZM275.733 42.9181H276.679C277.117 42.9181 277.481 42.8357 277.771 42.6718C278.061 42.5055 278.279 42.2648 278.423 41.9513C278.567 41.6345 278.64 41.2497 278.64 40.7952C278.64 40.3439 278.567 39.9622 278.423 39.6478C278.293 39.3472 278.07 39.0965 277.786 38.9328C277.503 38.7697 277.152 38.6889 276.732 38.6889H275.733V42.9181ZM282.365 43.7622C281.94 43.7622 281.574 43.6719 281.267 43.4906C280.961 43.3071 280.715 43.0393 280.559 42.7193C280.394 42.3868 280.311 41.9964 280.311 41.5498C280.311 41.108 280.394 40.7192 280.559 40.3827C280.725 40.0461 280.957 39.7832 281.256 39.5948C281.555 39.4055 281.905 39.3113 282.305 39.3113C282.549 39.3113 282.785 39.3509 283.014 39.4317C283.242 39.5124 283.447 39.6383 283.629 39.811C283.811 39.9828 283.953 40.2061 284.059 40.4808C284.163 40.754 284.216 41.0858 284.216 41.477V41.7739H280.786V41.146H283.393C283.397 40.9425 283.351 40.7412 283.258 40.56C283.17 40.3868 283.034 40.2424 282.866 40.1439C282.698 40.0454 282.506 39.9969 282.311 40.0042C282.076 40.0042 281.869 40.062 281.693 40.1784C281.522 40.29 281.382 40.4445 281.289 40.6265C281.195 40.8117 281.147 41.0167 281.149 41.2244V41.7153C281.149 42.0027 281.199 42.2482 281.3 42.4501C281.403 42.652 281.547 42.8064 281.73 42.9125C281.914 43.0171 282.128 43.0701 282.373 43.0701C282.521 43.0717 282.668 43.0489 282.808 43.0028C282.937 42.9597 283.054 42.8881 283.15 42.7935C283.247 42.6989 283.321 42.5837 283.367 42.4564L284.163 42.599C284.101 42.8286 283.983 43.0394 283.82 43.2126C283.657 43.3868 283.452 43.5222 283.205 43.6196C282.936 43.7188 282.651 43.7671 282.365 43.7622ZM285.147 45.2912V39.3675H285.968V40.0659H286.038C286.1 39.9566 286.17 39.8525 286.249 39.7547C286.34 39.636 286.468 39.5338 286.63 39.4459C286.794 39.3564 287.009 39.3113 287.277 39.3113C287.625 39.3113 287.936 39.3992 288.209 39.575C288.483 39.7508 288.697 40.0042 288.852 40.3351C289.01 40.6661 289.089 41.0636 289.089 41.53C289.089 41.9956 289.011 42.3947 288.855 42.7273C288.718 43.0373 288.496 43.3026 288.215 43.493C287.938 43.6722 287.615 43.7651 287.285 43.7598C287.023 43.7598 286.809 43.7162 286.642 43.6284C286.493 43.5531 286.361 43.448 286.254 43.3195C286.174 43.2208 286.102 43.1156 286.038 43.0052H285.987V45.2912H285.147ZM285.971 41.5221C285.971 41.8246 286.015 42.0898 286.103 42.3179C286.191 42.5459 286.318 42.7249 286.484 42.8539C286.651 42.9806 286.856 43.044 287.097 43.044C287.348 43.044 287.557 42.9783 287.726 42.846C287.894 42.7114 288.022 42.5285 288.108 42.2989C288.196 42.0685 288.24 41.8095 288.24 41.5213C288.24 41.237 288.197 40.9821 288.111 40.7556C288.037 40.5444 287.905 40.3586 287.729 40.2203C287.56 40.0889 287.35 40.024 287.097 40.024C286.854 40.024 286.648 40.0865 286.479 40.2116C286.305 40.347 286.174 40.5291 286.1 40.7366C286.009 40.988 285.965 41.2548 285.971 41.5221ZM290.87 37.9312V43.6759H290.03V37.9312H290.87ZM293.816 43.7622C293.412 43.7622 293.059 43.6703 292.758 43.485C292.454 43.2978 292.211 43.0284 292.055 42.7082C291.889 42.3757 291.805 41.9861 291.805 41.5411C291.805 41.0945 291.889 40.7033 292.055 40.3692C292.222 40.0342 292.456 39.7737 292.758 39.5892C293.059 39.404 293.412 39.3113 293.816 39.3113C294.221 39.3113 294.574 39.404 294.876 39.5884C295.177 39.7745 295.411 40.0342 295.577 40.3684C295.744 40.7033 295.828 41.0945 295.828 41.5411C295.828 41.9861 295.744 42.3749 295.577 42.7082C295.411 43.0408 295.177 43.2997 294.876 43.4842C294.574 43.6703 294.221 43.7622 293.816 43.7622ZM293.819 43.0582C294.081 43.0582 294.298 42.9893 294.471 42.8508C294.643 42.7122 294.77 42.5285 294.853 42.2989C294.937 42.0685 294.98 41.8151 294.98 41.5387C294.983 41.2806 294.94 41.024 294.853 40.7809C294.78 40.5631 294.648 40.3698 294.471 40.2227C294.298 40.0825 294.081 40.0129 293.819 40.0129C293.555 40.0129 293.336 40.0825 293.162 40.2227C292.985 40.37 292.852 40.5631 292.777 40.7809C292.693 41.0245 292.651 41.2809 292.654 41.5387C292.654 41.8151 292.695 42.0685 292.777 42.2989C292.861 42.5285 292.99 42.713 293.162 42.8508C293.336 42.9893 293.555 43.0582 293.819 43.0582ZM297.149 45.2912C296.954 45.2923 296.761 45.261 296.577 45.1985L296.779 44.5112C296.932 44.5524 297.069 44.5706 297.189 44.5651C297.307 44.5599 297.42 44.5121 297.506 44.4305C297.599 44.3457 297.682 44.2088 297.753 44.0179L297.857 43.7321L296.278 39.3675H297.178L298.27 42.7106H298.315L299.407 39.3675H300.309L298.531 44.2507C298.459 44.4568 298.353 44.6493 298.216 44.8201C298.09 44.9768 297.937 45.0948 297.761 45.1732C297.585 45.2524 297.381 45.2912 297.149 45.2912Z" fill="white"/>
<path d="M309.189 32.3701H265.985C262.975 32.3701 260.536 34.8064 260.536 37.8117V44.6224C260.536 47.6276 262.975 50.0639 265.985 50.0639H309.189C312.198 50.0639 314.638 47.6276 314.638 44.6224V37.8117C314.638 34.8064 312.198 32.3701 309.189 32.3701Z" stroke="#484848" stroke-width="0.473854"/>
<path d="M321.187 16.2725H19.8637C16.5788 16.2725 13.9158 18.9317 13.9158 22.2121V60.2207C13.9158 63.5011 16.5788 66.1604 19.8637 66.1604H321.187C324.472 66.1604 327.135 63.5011 327.135 60.2207V22.2121C327.135 18.9317 324.472 16.2725 321.187 16.2725Z" stroke="#484848" stroke-width="0.790021"/>
</g>
</g>
<g clip-path="url(#clip4_1_9192)">
<g clip-path="url(#clip5_1_9192)">
<path d="M331.123 63.0801H10.1373C6.63803 63.0801 3.80127 65.9228 3.80127 69.4294V110.06C3.80127 113.566 6.63803 116.409 10.1373 116.409H331.123C334.622 116.409 337.459 113.566 337.459 110.06V69.4294C337.459 65.9228 334.622 63.0801 331.123 63.0801Z" fill="#303030"/>
<path d="M38.7684 76.6582H21.9167C19.3574 76.6582 17.2827 78.7373 17.2827 81.3019V98.1888C17.2827 100.753 19.3574 102.832 21.9167 102.832H38.7684C41.3277 102.832 43.4024 100.753 43.4024 98.1888V81.3019C43.4024 78.7373 41.3277 76.6582 38.7684 76.6582Z" fill="#484848"/>
<path fill-rule="evenodd" clip-rule="evenodd" d="M28.8678 84.0459V87.423H31.8158V84.0459H33.0803V87.423H35.1869V88.6892H33.0794V90.8001H35.1861V92.0663H33.0794V95.4434H31.8158V92.0663H28.8669V95.4434H27.6024V92.0663H25.4966V90.8001H27.6024V88.6892H25.4966V87.423H27.6024V84.0459H28.8678ZM28.8678 88.6892V90.8001H31.8158V88.6892H28.8678Z" fill="white"/>
<path d="M38.7684 76.6582H21.9167C19.3574 76.6582 17.2827 78.7373 17.2827 81.3019V98.1888C17.2827 100.753 19.3574 102.832 21.9167 102.832H38.7684C41.3277 102.832 43.4024 100.753 43.4024 98.1888V81.3019C43.4024 78.7373 41.3277 76.6582 38.7684 76.6582Z" stroke="#585858" stroke-width="0.843008"/>
<path d="M60.9714 87.252C60.9714 88.2423 60.473 88.9092 59.4746 89.2512V89.2783C60.0014 89.3563 60.4812 89.6256 60.8227 90.0349C61.1733 90.4404 61.349 90.9846 61.349 91.6685C61.349 92.5521 61.0567 93.2411 60.4722 93.7362C59.8885 94.2314 59.0928 94.4794 58.0859 94.4794H53.9351V84.8203H57.8173C58.7971 84.8203 59.5658 85.0412 60.1233 85.4822C60.6893 85.9147 60.9714 86.5046 60.9714 87.252ZM58.0057 88.8601C58.6527 88.8601 59.1063 88.7332 59.3673 88.481C59.6275 88.2296 59.7576 87.8648 59.7576 87.3874C59.7576 86.9278 59.6224 86.5673 59.3538 86.3066C59.0835 86.0357 58.6797 85.9012 58.14 85.9012H55.1472V88.8593L58.0057 88.8601ZM55.1472 93.3985H58.2075C59.4932 93.3985 60.1351 92.8221 60.1351 91.6693C60.1351 91.1471 59.9831 90.7281 59.6773 90.4133C59.3808 90.0976 58.9804 89.9401 58.4778 89.9401H55.1472V93.3985ZM68.0837 87.5897V94.4794H67.0051V93.6541H66.978C66.7618 93.9419 66.4653 94.1857 66.0877 94.3837C65.7101 94.5725 65.2515 94.6673 64.7134 94.6673C64.0385 94.6673 63.4861 94.4777 63.0553 94.1002C62.6236 93.7125 62.4074 93.1454 62.4074 92.3981V87.5889H63.486V92.1281C63.486 92.6046 63.6077 92.9914 63.8501 93.2893C64.0925 93.5771 64.4701 93.721 64.982 93.721C65.5851 93.721 66.07 93.5509 66.4383 93.2081C66.8158 92.8661 67.0042 92.4252 67.0042 91.8843V87.5889L68.0837 87.5897ZM70.2445 86.2524C70.0757 86.25 69.9133 86.188 69.7858 86.0772C69.7155 86.0207 69.6594 85.9484 69.622 85.8663C69.5846 85.7841 69.5669 85.6943 69.5704 85.6041C69.5704 85.406 69.6422 85.2486 69.7858 85.1309C69.9133 85.0202 70.0757 84.9581 70.2445 84.9557C70.4151 84.9557 70.568 85.015 70.7031 85.1309C70.8467 85.2486 70.9185 85.406 70.9185 85.6041C70.9185 85.8021 70.8467 85.9596 70.7031 86.0772C70.5773 86.1907 70.4138 86.2532 70.2445 86.2524ZM70.7834 87.5897V94.4794H69.7055V87.5897H70.7834ZM73.3884 84.8203V94.4794H72.3097V84.8203H73.3884ZM80.8877 84.8203V94.4794H79.809V93.6279H79.7819C79.2523 94.3219 78.5326 94.6681 77.6254 94.6681C77.0697 94.6735 76.5234 94.5241 76.0475 94.2364C75.5804 93.9385 75.2079 93.5153 74.9292 92.966C74.6589 92.4167 74.5245 91.7726 74.5245 91.0345C74.5245 90.2956 74.6597 89.6524 74.9292 89.1031C75.2079 88.5529 75.5804 88.1348 76.0484 87.8462C76.521 87.5503 77.0682 87.3958 77.6254 87.401C78.569 87.401 79.2878 87.7607 79.7819 88.481H79.809V84.8203H80.8877ZM77.7336 93.7227C78.3713 93.7227 78.8739 93.4789 79.243 92.9931C79.6206 92.4979 79.809 91.8445 79.809 91.0345C79.809 90.2237 79.6206 89.5754 79.243 89.0895C78.8747 88.5935 78.3713 88.3464 77.7327 88.3464C77.2842 88.3464 76.8973 88.4725 76.5738 88.7247C76.2503 88.977 76.0078 89.3096 75.8457 89.7235C75.6816 90.1409 75.5993 90.586 75.6032 91.0345C75.6032 91.5026 75.6843 91.9436 75.8457 92.3583C76.0078 92.7637 76.2503 93.0921 76.5738 93.3443C76.8973 93.5966 77.2833 93.7227 77.7336 93.7227ZM85.0115 88.4141C85.0115 87.3959 85.2953 86.5673 85.8612 85.9282C86.4272 85.2799 87.2634 84.9549 88.3691 84.9549C88.883 84.9494 89.3909 85.0654 89.8516 85.2934C90.301 85.5093 90.6608 85.8292 90.9303 86.2524C91.1997 86.6756 91.3349 87.175 91.3349 87.7522C91.3349 88.3108 91.2039 88.8017 90.9438 89.2249C90.6925 89.6284 90.3679 89.981 89.9867 90.2643C89.6176 90.5352 89.1285 90.85 88.517 91.2097C87.8243 91.6059 87.2947 91.9571 86.9264 92.2635C86.5796 92.5499 86.3299 92.937 86.2118 93.3714V93.3985H91.1997V94.4785H84.742C84.742 92.8848 85.6678 91.5474 87.5194 90.4666L88.0583 90.156C88.6158 89.8411 89.0246 89.5889 89.2856 89.4001C89.5389 89.2285 89.7507 89.0024 89.9056 88.7383C90.0492 88.4767 90.121 88.1526 90.121 87.7649C90.121 87.2884 89.9867 86.883 89.7173 86.5495C89.447 86.2076 88.9891 86.0366 88.3421 86.0366C87.5776 86.0366 87.0337 86.2524 86.711 86.6849C86.3875 87.1166 86.2253 87.693 86.2253 88.4141H85.0115Z" fill="white"/>
<path d="M148.283 81.4775H147.318C147.22 80.9673 146.929 80.5148 146.505 80.2147C146.304 80.0683 146.079 79.9575 145.84 79.8872C145.592 79.8138 145.336 79.777 145.078 79.778C144.595 79.778 144.158 79.9007 143.767 80.1445C143.377 80.3891 143.068 80.7488 142.837 81.2245C142.609 81.7001 142.495 82.2825 142.495 82.974C142.495 83.6655 142.609 84.2486 142.837 84.7243C143.068 85.2 143.377 85.5597 143.767 85.8043C144.16 86.0487 144.615 86.1755 145.078 86.1699C145.342 86.1699 145.596 86.1335 145.84 86.0608C146.084 85.988 146.305 85.8805 146.505 85.7374C146.707 85.5919 146.879 85.4141 147.019 85.2042C147.165 84.9816 147.267 84.7327 147.318 84.4712H148.283C148.218 84.8575 148.083 85.2287 147.886 85.5665C147.511 86.203 146.914 86.6777 146.21 86.8987C145.844 87.0178 145.462 87.0773 145.078 87.0747C144.398 87.0747 143.794 86.908 143.265 86.5754C142.736 86.2427 142.32 85.7704 142.017 85.1568C141.713 84.544 141.561 83.8161 141.561 82.974C141.561 82.1326 141.713 81.4047 142.017 80.792C142.32 80.1783 142.736 79.7052 143.265 79.3725C143.794 79.0399 144.398 78.874 145.078 78.874C145.48 78.874 145.857 78.9333 146.21 79.0492C146.564 79.166 146.885 79.3378 147.17 79.5638C147.456 79.7873 147.694 80.0598 147.886 80.3823C148.078 80.7022 148.21 81.067 148.283 81.4775ZM149.717 86.9655V80.979H150.604V81.883H150.666C150.775 81.5867 150.972 81.3463 151.258 81.1618C151.545 80.9766 151.88 80.8803 152.222 80.8851C152.289 80.8851 152.373 80.8867 152.475 80.8893C152.576 80.8918 152.652 80.8952 152.705 80.9011V81.8364C152.633 81.8217 152.562 81.8099 152.49 81.8009C152.376 81.7823 152.26 81.7732 152.144 81.7738C151.854 81.7738 151.595 81.8347 151.367 81.9566C151.146 82.0716 150.96 82.2441 150.829 82.456C150.7 82.6667 150.635 82.9071 150.635 83.1771V86.9655H149.717ZM156.115 87.09C155.54 87.09 155.043 86.963 154.625 86.7082C154.209 86.4492 153.876 86.0758 153.665 85.6325C153.442 85.1695 153.33 84.632 153.33 84.0184C153.33 83.4056 153.442 82.8648 153.665 82.3976C153.871 81.9506 154.196 81.5698 154.606 81.2981C155.011 81.0332 155.483 80.9003 156.022 80.9003C156.333 80.9003 156.641 80.9528 156.944 81.0569C157.253 81.1641 157.536 81.3367 157.773 81.563C158.021 81.7949 158.22 82.1013 158.367 82.483C158.515 82.8648 158.59 83.3354 158.59 83.894V84.2833H153.984V83.4886H157.656C157.656 83.1509 157.589 82.8495 157.453 82.5846C157.327 82.3259 157.13 82.1084 156.886 81.9574C156.626 81.7996 156.326 81.7197 156.022 81.7272C155.657 81.7272 155.34 81.8178 155.073 81.9998C154.811 82.1758 154.601 82.4178 154.462 82.7014C154.32 82.9896 154.246 83.3074 154.249 83.6291V84.1589C154.249 84.6109 154.326 84.9943 154.482 85.3092C154.64 85.6206 154.859 85.8585 155.139 86.0218C155.419 86.1826 155.745 86.2639 156.115 86.2639C156.357 86.2639 156.574 86.23 156.769 86.1623C156.959 86.0963 157.133 85.9901 157.279 85.8508C157.426 85.7033 157.539 85.525 157.609 85.3286L158.496 85.5775C158.403 85.8796 158.246 86.1445 158.025 86.3731C157.794 86.6062 157.515 86.7869 157.208 86.9029C156.859 87.0321 156.488 87.0955 156.115 87.09ZM161.744 87.1052C161.389 87.1103 161.037 87.0372 160.713 86.8911C160.415 86.7543 160.16 86.5371 159.978 86.2639C159.797 85.988 159.705 85.6553 159.705 85.266C159.705 84.9232 159.773 84.6447 159.908 84.4323C160.042 84.2165 160.223 84.0472 160.449 83.9245C160.674 83.8034 160.923 83.7129 161.195 83.6528C161.47 83.5901 161.746 83.541 162.024 83.5046C162.387 83.4572 162.681 83.4225 162.907 83.3988C163.135 83.3735 163.301 83.3303 163.405 83.2702C163.511 83.2109 163.564 83.1068 163.564 82.9587V82.9274C163.564 82.5431 163.459 82.2444 163.249 82.0311C163.042 81.8178 162.727 81.7111 162.304 81.7111C161.866 81.7111 161.522 81.8076 161.273 81.9998C161.024 82.1919 160.849 82.3976 160.748 82.6159L159.877 82.3036C160.032 81.9397 160.24 81.657 160.499 81.4538C160.761 81.249 161.047 81.1068 161.355 81.0256C161.654 80.9441 161.963 80.9023 162.273 80.9011C162.465 80.9011 162.685 80.924 162.934 80.9705C163.186 81.0154 163.428 81.1077 163.662 81.2473C163.898 81.3878 164.094 81.5994 164.249 81.883C164.404 82.1665 164.482 82.5457 164.482 83.0214V86.9655H163.564V86.1547H163.517C163.437 86.3097 163.332 86.4506 163.207 86.572C163.04 86.7341 162.843 86.8623 162.627 86.9495C162.386 87.0536 162.092 87.1052 161.744 87.1052ZM161.884 86.2791C162.247 86.2791 162.553 86.208 162.802 86.065C163.03 85.9413 163.222 85.7585 163.356 85.5357C163.49 85.3128 163.562 85.0581 163.564 84.7979V83.9566C163.525 84.0032 163.44 84.0463 163.307 84.0853C163.159 84.1258 163.008 84.1583 162.856 84.1826C162.564 84.2282 162.271 84.2671 161.978 84.2994C161.75 84.328 161.526 84.3791 161.309 84.4518C161.103 84.5195 160.938 84.621 160.81 84.759C160.686 84.8944 160.624 85.0789 160.624 85.3125C160.624 85.6325 160.742 85.8737 160.977 86.0379C161.217 86.1987 161.518 86.2791 161.884 86.2791ZM168.756 80.979V81.7577H165.66V80.979H168.756ZM166.563 79.5444H167.48V85.2508C167.48 85.5106 167.518 85.7053 167.593 85.8348C167.671 85.9617 167.77 86.0481 167.889 86.0921C168.01 86.1344 168.139 86.1547 168.274 86.1547C168.374 86.1547 168.458 86.1496 168.522 86.1395L168.679 86.1082L168.865 86.9342C168.78 86.9638 168.693 86.9873 168.604 87.0045C168.465 87.0332 168.323 87.0463 168.18 87.0434C167.921 87.0434 167.667 86.9876 167.418 86.8758C167.171 86.764 166.959 86.5877 166.803 86.3655C166.643 86.1369 166.563 85.8483 166.563 85.4996V79.5444ZM172.578 87.09C172.002 87.09 171.506 86.963 171.088 86.7082C170.671 86.4492 170.338 86.0758 170.127 85.6325C169.904 85.1695 169.793 84.632 169.793 84.0184C169.793 83.4056 169.904 82.8648 170.127 82.3976C170.333 81.9504 170.658 81.5696 171.068 81.2981C171.473 81.0332 171.945 80.9003 172.484 80.9003C172.796 80.9003 173.103 80.9528 173.406 81.0569C173.716 81.1641 173.998 81.3367 174.235 81.563C174.483 81.7949 174.682 82.1013 174.83 82.483C174.977 82.8648 175.052 83.3354 175.052 83.894V84.2833H170.447V83.4886H174.118C174.118 83.1509 174.051 82.8495 173.916 82.5846C173.789 82.3263 173.592 82.1089 173.348 81.9574C173.088 81.7996 172.788 81.7197 172.484 81.7272C172.119 81.7272 171.802 81.8178 171.535 81.9998C171.274 82.1758 171.063 82.4178 170.925 82.7014C170.782 82.9896 170.709 83.3074 170.711 83.6291V84.1589C170.711 84.6109 170.789 84.9943 170.944 85.3092C171.102 85.6206 171.322 85.8585 171.601 86.0218C171.882 86.1826 172.207 86.2639 172.578 86.2639C172.818 86.2639 173.036 86.23 173.232 86.1623C173.422 86.0963 173.595 85.9901 173.741 85.8508C173.888 85.7033 174.001 85.525 174.071 85.3286L174.958 85.5775C174.865 85.8796 174.708 86.1445 174.488 86.3731C174.256 86.6062 173.978 86.7869 173.671 86.9029C173.321 87.0321 172.95 87.0955 172.578 87.09ZM178.704 87.09C178.206 87.09 177.767 86.9639 177.386 86.7116C177.004 86.4577 176.706 86.0988 176.49 85.6367C176.276 85.1712 176.168 84.621 176.168 83.9879C176.168 83.3591 176.276 82.8131 176.49 82.351C176.706 81.888 177.006 81.5309 177.389 81.2786C177.773 81.0264 178.216 80.9011 178.719 80.9011C179.109 80.9011 179.416 80.9655 179.641 81.0958C179.87 81.2228 180.043 81.3683 180.162 81.5317C180.285 81.6925 180.379 81.8254 180.447 81.9295H180.525V78.9832H181.442V86.9647H180.556V86.0455H180.447C180.379 86.1547 180.283 86.2927 180.159 86.4586C180.013 86.6399 179.831 86.7896 179.626 86.8987C179.395 87.0256 179.088 87.09 178.704 87.09ZM178.828 86.2639C179.197 86.2639 179.508 86.1674 179.762 85.9761C180.016 85.7806 180.21 85.5114 180.341 85.1687C180.474 84.8233 180.54 84.4238 180.54 83.9719C180.54 83.525 180.475 83.1339 180.346 82.7988C180.215 82.461 180.024 82.1987 179.769 82.0116C179.515 81.822 179.202 81.7272 178.828 81.7272C178.439 81.7272 178.116 81.8271 177.856 82.0268C177.591 82.2358 177.39 82.5158 177.277 82.8343C177.145 83.1987 177.08 83.5842 177.086 83.9719C177.086 84.3984 177.151 84.7852 177.28 85.1331C177.413 85.4793 177.607 85.7544 177.864 85.96C178.123 86.1632 178.445 86.2639 178.828 86.2639Z" fill="#A1A1A1"/>
<path d="M198.013 93.8608H144.932C143.07 93.8608 141.561 95.3728 141.561 97.2379C141.561 99.1031 143.07 100.615 144.932 100.615H198.013C199.875 100.615 201.384 99.1031 201.384 97.2379C201.384 95.3728 199.875 93.8608 198.013 93.8608Z" fill="#484848"/>
<path d="M319.343 81.5127H280.309C277.517 81.5127 275.254 83.7809 275.254 86.5788V92.9111C275.254 95.7091 277.517 97.9772 280.309 97.9772H319.343C322.135 97.9772 324.398 95.7091 324.398 92.9111V86.5788C324.398 83.7809 322.135 81.5127 319.343 81.5127Z" fill="#2E5235" fill-opacity="0.3"/>
<path d="M285.48 88.5812H284.737C284.662 88.1887 284.438 87.8407 284.112 87.6104C283.957 87.4977 283.784 87.4124 283.601 87.3581C283.41 87.3015 283.213 87.273 283.014 87.2735C282.643 87.2735 282.307 87.3683 282.006 87.5562C281.707 87.7441 281.468 88.0209 281.291 88.3865C281.115 88.7522 281.028 89.2007 281.028 89.7323C281.028 90.2647 281.115 90.7132 281.291 91.078C281.468 91.4445 281.707 91.7213 282.006 91.9092C282.307 92.0971 282.643 92.1911 283.014 92.1911C283.218 92.1911 283.413 92.1631 283.601 92.1064C283.788 92.0514 283.959 91.9684 284.112 91.8584C284.437 91.6252 284.66 91.2768 284.737 90.8842H285.48C285.43 91.1811 285.327 91.4665 285.175 91.7264C284.886 92.2163 284.427 92.5817 283.885 92.7522C283.604 92.8435 283.31 92.8889 283.014 92.8868C282.491 92.8868 282.027 92.759 281.62 92.5034C281.213 92.2469 280.893 91.883 280.659 91.4115C280.426 90.9401 280.31 90.3806 280.31 89.7331C280.31 89.0848 280.426 88.5253 280.659 88.0539C280.893 87.5824 281.213 87.2185 281.62 86.962C282.027 86.7064 282.491 86.5786 283.014 86.5786C283.323 86.5786 283.614 86.6235 283.885 86.714C284.158 86.8038 284.405 86.9358 284.624 87.1093C284.844 87.2811 285.027 87.491 285.175 87.739C285.322 87.9845 285.424 88.2655 285.48 88.5812ZM290.7 86.6633H291.443V90.7276C291.443 91.1474 291.344 91.5232 291.146 91.8525C290.947 92.1831 290.66 92.4518 290.318 92.6286C289.96 92.8165 289.541 92.9105 289.061 92.9105C288.58 92.9105 288.161 92.8174 287.804 92.6286C287.461 92.4517 287.173 92.183 286.973 91.8525C286.774 91.5119 286.672 91.1231 286.679 90.7285V86.6624H287.421V90.6684C287.421 90.968 287.487 91.2355 287.619 91.4682C287.75 91.7001 287.937 91.883 288.181 92.0175C288.426 92.1496 288.719 92.2148 289.061 92.2148C289.402 92.2148 289.695 92.1487 289.94 92.0175C290.176 91.8927 290.372 91.7019 290.503 91.4682C290.637 91.2235 290.705 90.9477 290.7 90.6684V86.6624V86.6633ZM292.924 92.803V86.6624H294.995C295.474 86.6624 295.866 86.7445 296.174 86.9079C296.48 87.0704 296.709 87.293 296.856 87.5765C297.003 87.8609 297.077 88.1834 297.077 88.5456C297.077 88.907 297.003 89.2278 296.856 89.508C296.703 89.7934 296.466 90.0242 296.176 90.1682C295.871 90.3256 295.481 90.4043 295.006 90.4043H293.331V89.7323H294.983C295.31 89.7323 295.573 89.6849 295.773 89.5884C295.96 89.5061 296.114 89.3626 296.209 89.1813C296.301 89.0035 296.347 88.7919 296.347 88.5456C296.347 88.3002 296.301 88.0843 296.209 87.9007C296.114 87.7133 295.959 87.5633 295.769 87.4749C295.568 87.3734 295.302 87.3226 294.971 87.3226H293.666V92.803H292.924ZM295.809 90.0437L297.317 92.803H296.455L294.971 90.0437H295.809ZM298.313 92.803V86.6624H300.384C300.863 86.6624 301.256 86.7445 301.563 86.9079C301.87 87.0704 302.098 87.293 302.246 87.5765C302.392 87.8609 302.467 88.1834 302.467 88.5456C302.467 88.907 302.392 89.2278 302.246 89.508C302.093 89.7931 301.855 90.0237 301.566 90.1682C301.261 90.3256 300.871 90.4043 300.396 90.4043H298.721V89.7323H300.372C300.7 89.7323 300.962 89.6849 301.162 89.5884C301.364 89.4927 301.509 89.3565 301.599 89.1813C301.691 89.0035 301.736 88.7919 301.736 88.5456C301.736 88.3002 301.691 88.0843 301.599 87.9007C301.504 87.7137 301.349 87.5639 301.159 87.4749C300.957 87.3734 300.691 87.3226 300.36 87.3226H299.056V92.803H298.313ZM301.198 90.0437L302.706 92.803H301.844L300.36 90.0437H301.198ZM303.703 92.803V86.6624H307.402V87.3226H304.445V89.3963H307.21V90.0564H304.445V92.1428H307.449V92.803H303.703ZM313.598 86.6633V92.803H312.879L309.54 87.9819H309.481V92.803H308.739V86.6624H309.457L312.808 91.4953H312.868V86.6624H313.598V86.6633ZM314.748 87.3226V86.6624H319.344V87.3226H317.416V92.803H316.675V87.3226H314.748Z" fill="#A2CEAD"/>
<path d="M319.344 81.9351H280.31C277.75 81.9351 275.676 84.0141 275.676 86.5787V92.9111C275.676 95.4758 277.75 97.5548 280.31 97.5548H319.344C321.903 97.5548 323.978 95.4758 323.978 92.9111V86.5787C323.978 84.0141 321.903 81.9351 319.344 81.9351Z" stroke="#3A523E" stroke-width="0.843008"/>
<path d="M331.123 63.0801H10.1373C6.63803 63.0801 3.80127 65.9228 3.80127 69.4294V110.06C3.80127 113.566 6.63803 116.409 10.1373 116.409H331.123C334.622 116.409 337.459 113.566 337.459 110.06V69.4294C337.459 65.9228 334.622 63.0801 331.123 63.0801Z" stroke="#484848" stroke-width="0.843008"/>
</g>
</g>
<defs>
<clipPath id="clip0_1_9192">
<rect width="314.01" height="51.47" fill="white" transform="translate(13.52 112.09)"/>
</clipPath>
<clipPath id="clip1_1_9192">
<rect width="314.01" height="51.47" fill="white" transform="translate(13.52 112.09)"/>
</clipPath>
<clipPath id="clip2_1_9192">
<rect width="314.01" height="51.47" fill="white" transform="translate(13.52 15.6699)"/>
</clipPath>
<clipPath id="clip3_1_9192">
<rect width="314.01" height="51.47" fill="white" transform="translate(13.52 15.6699)"/>
</clipPath>
<clipPath id="clip4_1_9192">
<rect width="334.5" height="55.02" fill="white" transform="translate(3.37988 62.5898)"/>
</clipPath>
<clipPath id="clip5_1_9192">
<rect width="334.5" height="55.02" fill="white" transform="translate(3.37988 62.5898)"/>
</clipPath>
</defs>
</svg>
