<svg width="60" height="61" viewBox="0 0 60 61" fill="none" xmlns="http://www.w3.org/2000/svg">
<rect y="0.139893" width="60" height="60" rx="10" fill="#303030"/>
<g clip-path="url(#clip0_1_9351)">
<g clip-path="url(#clip1_1_9351)">
<path d="M28 23.84L28 27.4398C28 27.8265 27.6866 28.1399 27.2999 28.1399L23.7001 28.1399C23.3135 28.1399 23 27.8265 23 27.4398L23 23.84C23 23.4533 23.3135 23.1399 23.7001 23.1399L27.2999 23.1399C27.6866 23.1399 28 23.4533 28 23.84Z" fill="#96D3FF"/>
</g>
</g>
<g clip-path="url(#clip2_1_9351)">
<g clip-path="url(#clip3_1_9351)">
<path d="M19 23.84L19 27.4398C19 27.8265 18.6866 28.1399 18.2999 28.1399L14.7001 28.1399C14.3135 28.1399 14 27.8265 14 27.4398L14 23.84C14 23.4533 14.3135 23.1399 14.7001 23.1399L18.2999 23.1399C18.6866 23.1399 19 23.4533 19 23.84Z" fill="#96D3FF"/>
</g>
</g>
<g clip-path="url(#clip4_1_9351)">
<g clip-path="url(#clip5_1_9351)">
<path d="M37 23.84L37 27.4398C37 27.8265 36.6866 28.1399 36.2999 28.1399L32.7001 28.1399C32.3135 28.1399 32 27.8265 32 27.4398L32 23.84C32 23.4533 32.3135 23.1399 32.7001 23.1399L36.2999 23.1399C36.6866 23.1399 37 23.4533 37 23.84Z" fill="#96D3FF"/>
</g>
</g>
<g clip-path="url(#clip6_1_9351)">
<g clip-path="url(#clip7_1_9351)">
<path d="M46 23.84L46 27.4398C46 27.8265 45.6866 28.1399 45.2999 28.1399L41.7001 28.1399C41.3135 28.1399 41 27.8265 41 27.4398L41 23.84C41 23.4533 41.3135 23.1399 41.7001 23.1399L45.2999 23.1399C45.6866 23.1399 46 23.4533 46 23.84Z" fill="#96D3FF"/>
</g>
</g>
<g clip-path="url(#clip8_1_9351)">
<g clip-path="url(#clip9_1_9351)">
<path d="M28 14.84L28 18.4398C28 18.8265 27.6866 19.1399 27.2999 19.1399L23.7001 19.1399C23.3135 19.1399 23 18.8265 23 18.4398L23 14.84C23 14.4533 23.3135 14.1399 23.7001 14.1399L27.2999 14.1399C27.6866 14.1399 28 14.4533 28 14.84Z" fill="#96D3FF"/>
</g>
</g>
<g clip-path="url(#clip10_1_9351)">
<g clip-path="url(#clip11_1_9351)">
<path d="M27.2999 37.1399L23.7001 37.1399C23.3134 37.1399 23 36.8265 23 36.4398L23 32.84C23 32.4533 23.3134 32.1399 23.7001 32.1399L27.2999 32.1399C27.6865 32.1399 28 32.4533 28 32.84L28 36.4398C28 36.8265 27.6865 37.1399 27.2999 37.1399Z" fill="#96D3FF"/>
</g>
</g>
<g clip-path="url(#clip12_1_9351)">
<g clip-path="url(#clip13_1_9351)">
<path d="M18.2999 37.1399L14.7001 37.1399C14.3134 37.1399 14 36.8265 14 36.4398L14 32.84C14 32.4533 14.3134 32.1399 14.7001 32.1399L18.2999 32.1399C18.6865 32.1399 19 32.4533 19 32.84L19 36.4398C19 36.8265 18.6865 37.1399 18.2999 37.1399Z" fill="#96D3FF"/>
</g>
</g>
<g clip-path="url(#clip14_1_9351)">
<g clip-path="url(#clip15_1_9351)">
<path d="M27.2999 46.1399L23.7001 46.1399C23.3134 46.1399 23 45.8265 23 45.4398L23 41.84C23 41.4533 23.3134 41.1399 23.7001 41.1399L27.2999 41.1399C27.6865 41.1399 28 41.4533 28 41.84L28 45.4398C28 45.8265 27.6865 46.1399 27.2999 46.1399Z" fill="#96D3FF"/>
</g>
</g>
<rect x="32" y="37.1399" width="5" height="5" rx="1" transform="rotate(-90 32 37.1399)" fill="#95D3FF"/>
<rect x="41" y="37.1399" width="5" height="5" rx="1" transform="rotate(-90 41 37.1399)" fill="#95D3FF"/>
<rect x="32" y="46.1399" width="5" height="5" rx="1" transform="rotate(-90 32 46.1399)" fill="#95D3FF"/>
<rect x="32" y="19.1399" width="5" height="5" rx="1" transform="rotate(-90 32 19.1399)" fill="#95D3FF"/>
<rect x="0.5" y="0.639893" width="59" height="59" rx="9.5" stroke="#606060"/>
<defs>
<clipPath id="clip0_1_9351">
<rect width="5" height="5" fill="white" transform="translate(23 23.1399)"/>
</clipPath>
<clipPath id="clip1_1_9351">
<rect width="5" height="5" fill="white" transform="translate(23 23.1399)"/>
</clipPath>
<clipPath id="clip2_1_9351">
<rect width="5" height="5" fill="white" transform="translate(14 23.1399)"/>
</clipPath>
<clipPath id="clip3_1_9351">
<rect width="5" height="5" fill="white" transform="translate(14 23.1399)"/>
</clipPath>
<clipPath id="clip4_1_9351">
<rect width="5" height="5" fill="white" transform="translate(32 23.1399)"/>
</clipPath>
<clipPath id="clip5_1_9351">
<rect width="5" height="5" fill="white" transform="translate(32 23.1399)"/>
</clipPath>
<clipPath id="clip6_1_9351">
<rect width="5" height="5" fill="white" transform="translate(41 23.1399)"/>
</clipPath>
<clipPath id="clip7_1_9351">
<rect width="5" height="5" fill="white" transform="translate(41 23.1399)"/>
</clipPath>
<clipPath id="clip8_1_9351">
<rect width="5" height="5" fill="white" transform="translate(23 14.1399)"/>
</clipPath>
<clipPath id="clip9_1_9351">
<rect width="5" height="5" fill="white" transform="translate(23 14.1399)"/>
</clipPath>
<clipPath id="clip10_1_9351">
<rect width="5" height="5" fill="white" transform="translate(23 32.1399)"/>
</clipPath>
<clipPath id="clip11_1_9351">
<rect width="5" height="5" fill="white" transform="translate(23 32.1399)"/>
</clipPath>
<clipPath id="clip12_1_9351">
<rect width="5" height="5" fill="white" transform="translate(14 32.1399)"/>
</clipPath>
<clipPath id="clip13_1_9351">
<rect width="5" height="5" fill="white" transform="translate(14 32.1399)"/>
</clipPath>
<clipPath id="clip14_1_9351">
<rect width="5" height="5" fill="white" transform="translate(23 41.1399)"/>
</clipPath>
<clipPath id="clip15_1_9351">
<rect width="5" height="5" fill="white" transform="translate(23 41.1399)"/>
</clipPath>
</defs>
</svg>
