<svg width="60" height="61" viewBox="0 0 60 61" fill="none" xmlns="http://www.w3.org/2000/svg">
<rect y="0.139893" width="60" height="60" rx="10" fill="#303030"/>
<g clip-path="url(#clip0_1_9415)">
<g clip-path="url(#clip1_1_9415)">
<path d="M27.5 25.5675L27.5 29.1674C27.5 29.554 27.1866 29.8674 26.7999 29.8674L23.2001 29.8674C22.8135 29.8674 22.5 29.554 22.5 29.1674L22.5 25.5675C22.5 25.1809 22.8135 24.8675 23.2001 24.8675L26.7999 24.8675C27.1866 24.8675 27.5 25.1809 27.5 25.5675Z" fill="#FDAFAF"/>
</g>
</g>
<g clip-path="url(#clip2_1_9415)">
<g clip-path="url(#clip3_1_9415)">
<path d="M32.5 20.5675L32.5 24.1674C32.5 24.554 32.1866 24.8674 31.7999 24.8674L28.2001 24.8674C27.8135 24.8674 27.5 24.554 27.5 24.1674L27.5 20.5675C27.5 20.1809 27.8135 19.8675 28.2001 19.8675L31.7999 19.8675C32.1866 19.8675 32.5 20.1809 32.5 20.5675Z" fill="#FDAFAF"/>
</g>
</g>
<g clip-path="url(#clip4_1_9415)">
<g clip-path="url(#clip5_1_9415)">
<path d="M20.7999 34.8674L17.2001 34.8674C16.8134 34.8674 16.5 34.554 16.5 34.1674L16.5 30.5675C16.5 30.1809 16.8134 29.8675 17.2001 29.8675L20.7999 29.8675C21.1865 29.8675 21.5 30.1809 21.5 30.5675L21.5 34.1674C21.5 34.554 21.1865 34.8674 20.7999 34.8674Z" fill="#FDAFAF"/>
</g>
</g>
<g clip-path="url(#clip6_1_9415)">
<g clip-path="url(#clip7_1_9415)">
<path d="M15.7999 39.8674L12.2001 39.8674C11.8134 39.8674 11.5 39.554 11.5 39.1674L11.5 35.5675C11.5 35.1809 11.8134 34.8675 12.2001 34.8675L15.7999 34.8675C16.1865 34.8675 16.5 35.1809 16.5 35.5675L16.5 39.1674C16.5 39.554 16.1865 39.8674 15.7999 39.8674Z" fill="#FDAFAF"/>
</g>
</g>
<g clip-path="url(#clip8_1_9415)">
<g clip-path="url(#clip9_1_9415)">
<path d="M42.5 25.5675L42.5 29.1674C42.5 29.554 42.1866 29.8674 41.7999 29.8674L38.2001 29.8674C37.8135 29.8674 37.5 29.554 37.5 29.1674L37.5 25.5675C37.5 25.1809 37.8135 24.8675 38.2001 24.8675L41.7999 24.8675C42.1866 24.8675 42.5 25.1809 42.5 25.5675Z" fill="#FDAFAF"/>
</g>
</g>
<g clip-path="url(#clip10_1_9415)">
<g clip-path="url(#clip11_1_9415)">
<path d="M47.5 20.5675L47.5 24.1674C47.5 24.554 47.1866 24.8674 46.7999 24.8674L43.2001 24.8674C42.8135 24.8674 42.5 24.554 42.5 24.1674L42.5 20.5675C42.5 20.1809 42.8135 19.8675 43.2001 19.8675L46.7999 19.8675C47.1866 19.8675 47.5 20.1809 47.5 20.5675Z" fill="#FDAFAF"/>
</g>
</g>
<g clip-path="url(#clip12_1_9415)">
<g clip-path="url(#clip13_1_9415)">
<path d="M35.7999 34.8674L32.2001 34.8674C31.8134 34.8674 31.5 34.554 31.5 34.1674L31.5 30.5675C31.5 30.1809 31.8134 29.8675 32.2001 29.8675L35.7999 29.8675C36.1865 29.8675 36.5 30.1809 36.5 30.5675L36.5 34.1674C36.5 34.554 36.1865 34.8674 35.7999 34.8674Z" fill="#FDAFAF"/>
</g>
</g>
<g clip-path="url(#clip14_1_9415)">
<g clip-path="url(#clip15_1_9415)">
<path d="M30.7999 39.8674L27.2001 39.8674C26.8134 39.8674 26.5 39.554 26.5 39.1674L26.5 35.5675C26.5 35.1809 26.8134 34.8675 27.2001 34.8675L30.7999 34.8675C31.1865 34.8675 31.5 35.1809 31.5 35.5675L31.5 39.1674C31.5 39.554 31.1865 39.8674 30.7999 39.8674Z" fill="#FDAFAF"/>
</g>
</g>
<g clip-path="url(#clip16_1_9415)">
<g clip-path="url(#clip17_1_9415)">
<path d="M46.2999 39.3674L42.7001 39.3674C42.3134 39.3674 42 39.054 42 38.6674L42 35.0675C42 34.6809 42.3134 34.3675 42.7001 34.3675L46.2999 34.3675C46.6865 34.3675 47 34.6809 47 35.0675L47 38.6674C47 39.054 46.6865 39.3674 46.2999 39.3674Z" fill="#FDAFAF"/>
</g>
</g>
<g clip-path="url(#clip18_1_9415)">
<g clip-path="url(#clip19_1_9415)">
<path d="M16.2999 24.3674L12.7001 24.3674C12.3134 24.3674 12 24.054 12 23.6674L12 20.0675C12 19.6809 12.3134 19.3675 12.7001 19.3675L16.2999 19.3675C16.6865 19.3675 17 19.6809 17 20.0675L17 23.6674C17 24.054 16.6865 24.3674 16.2999 24.3674Z" fill="#FDAFAF"/>
</g>
</g>
<rect x="0.5" y="0.639893" width="59" height="59" rx="9.5" stroke="#606060"/>
<defs>
<clipPath id="clip0_1_9415">
<rect width="5" height="6" fill="white" transform="translate(22.5 24.6399)"/>
</clipPath>
<clipPath id="clip1_1_9415">
<rect width="5" height="6" fill="white" transform="translate(22.5 24.6399)"/>
</clipPath>
<clipPath id="clip2_1_9415">
<rect width="5" height="6" fill="white" transform="translate(27.5 19.6399)"/>
</clipPath>
<clipPath id="clip3_1_9415">
<rect width="5" height="6" fill="white" transform="translate(27.5 19.6399)"/>
</clipPath>
<clipPath id="clip4_1_9415">
<rect width="5" height="6" fill="white" transform="translate(16.5 29.6399)"/>
</clipPath>
<clipPath id="clip5_1_9415">
<rect width="5" height="6" fill="white" transform="translate(16.5 29.6399)"/>
</clipPath>
<clipPath id="clip6_1_9415">
<rect width="5" height="6" fill="white" transform="translate(11.5 34.6399)"/>
</clipPath>
<clipPath id="clip7_1_9415">
<rect width="5" height="6" fill="white" transform="translate(11.5 34.6399)"/>
</clipPath>
<clipPath id="clip8_1_9415">
<rect width="5" height="6" fill="white" transform="translate(37.5 24.6399)"/>
</clipPath>
<clipPath id="clip9_1_9415">
<rect width="5" height="6" fill="white" transform="translate(37.5 24.6399)"/>
</clipPath>
<clipPath id="clip10_1_9415">
<rect width="5" height="6" fill="white" transform="translate(42.5 19.6399)"/>
</clipPath>
<clipPath id="clip11_1_9415">
<rect width="5" height="6" fill="white" transform="translate(42.5 19.6399)"/>
</clipPath>
<clipPath id="clip12_1_9415">
<rect width="5" height="6" fill="white" transform="translate(31.5 29.6399)"/>
</clipPath>
<clipPath id="clip13_1_9415">
<rect width="5" height="6" fill="white" transform="translate(31.5 29.6399)"/>
</clipPath>
<clipPath id="clip14_1_9415">
<rect width="5" height="6" fill="white" transform="translate(26.5 34.6399)"/>
</clipPath>
<clipPath id="clip15_1_9415">
<rect width="5" height="6" fill="white" transform="translate(26.5 34.6399)"/>
</clipPath>
<clipPath id="clip16_1_9415">
<rect width="5" height="6" fill="white" transform="translate(42 34.1399)"/>
</clipPath>
<clipPath id="clip17_1_9415">
<rect width="5" height="6" fill="white" transform="translate(42 34.1399)"/>
</clipPath>
<clipPath id="clip18_1_9415">
<rect width="5" height="6" fill="white" transform="translate(12 19.1399)"/>
</clipPath>
<clipPath id="clip19_1_9415">
<rect width="5" height="6" fill="white" transform="translate(12 19.1399)"/>
</clipPath>
</defs>
</svg>
