<svg width="389" height="201" viewBox="0 0 389 201" fill="none" xmlns="http://www.w3.org/2000/svg">
<g clip-path="url(#clip0_1_9067)">
<g clip-path="url(#clip1_1_9067)">
<path d="M367.09 84.954L61.0047 117.125C57.6293 117.479 55.1824 120.52 55.5393 123.916L61.2815 178.549C61.6384 181.945 64.664 184.41 68.0394 184.056L374.125 151.885C377.5 151.53 379.947 148.49 379.59 145.094L373.848 90.4604C373.491 87.0645 370.466 84.5992 367.09 84.954Z" fill="#303030"/>
<path d="M367.09 84.954L61.0047 117.125C57.6293 117.479 55.1824 120.52 55.5393 123.916L61.2815 178.549C61.6384 181.945 64.664 184.41 68.0394 184.056L374.125 151.885C377.5 151.53 379.947 148.49 379.59 145.094L373.848 90.4604C373.491 87.0645 370.466 84.5992 367.09 84.954Z" stroke="#484848" stroke-width="0.821776"/>
<path d="M99.3555 129.593L80.3868 131.587C76.2126 132.026 73.1865 135.786 73.6279 139.985L75.6337 159.069C76.0751 163.269 79.8168 166.317 83.991 165.879L102.96 163.885C107.134 163.446 110.16 159.686 109.719 155.487L107.713 136.403C107.271 132.203 103.53 129.155 99.3555 129.593Z" fill="#484848"/>
<path d="M99.3555 129.593L80.3868 131.587C76.2126 132.026 73.1865 135.786 73.6279 139.985L75.6337 159.069C76.0751 163.269 79.8168 166.317 83.991 165.879L102.96 163.885C107.134 163.446 110.16 159.686 109.719 155.487L107.713 136.403C107.271 132.203 103.53 129.155 99.3555 129.593Z" stroke="#585858" stroke-width="1.01644"/>
<path d="M97.4904 144.003L89.8139 144.809C89.4067 144.852 89.0333 145.056 88.7758 145.376C88.5183 145.696 88.3979 146.106 88.4409 146.515L89.2526 154.238C89.2957 154.648 89.4987 155.024 89.8171 155.283C90.1355 155.543 90.5431 155.664 90.9503 155.622L98.6268 154.815C99.034 154.772 99.4074 154.568 99.6649 154.248C99.9223 153.928 100.043 153.518 99.9997 153.109L99.188 145.386C99.145 144.976 98.9419 144.6 98.6236 144.341C98.3052 144.081 97.8976 143.96 97.4904 144.003Z" stroke="#A1A1A1" stroke-width="1.10602" stroke-linecap="round" stroke-linejoin="round"/>
<path d="M85.8574 151.472C85.013 151.561 84.249 150.938 84.1597 150.088L83.348 142.365C83.2587 141.516 83.8766 140.748 84.721 140.659L92.3975 139.853C93.2419 139.764 94.0058 140.386 94.0951 141.236" stroke="#A1A1A1" stroke-width="1.10602" stroke-linecap="square" stroke-linejoin="round"/>
<path d="M121.661 130.542L121.535 129.336L129.909 128.456L130.035 129.662L126.525 130.031L127.579 140.057L126.227 140.2L125.173 130.175L121.662 130.544L121.661 130.542ZM135.317 139.423C134.511 139.507 133.795 139.401 133.172 139.104C132.55 138.801 132.027 138.324 131.666 137.732C131.285 137.113 131.05 136.373 130.959 135.51C130.869 134.647 130.944 133.87 131.188 133.179C131.435 132.484 131.821 131.923 132.345 131.494C132.872 131.061 133.514 130.805 134.271 130.726C134.707 130.68 135.145 130.708 135.586 130.81C136.026 130.911 136.439 131.108 136.823 131.4C137.205 131.689 137.529 132.091 137.792 132.607C138.056 133.122 138.229 133.773 138.312 134.56L138.369 135.108L131.914 135.787L131.797 134.668L136.943 134.127C136.905 133.685 136.762 133.259 136.527 132.884C136.311 132.539 136.003 132.262 135.638 132.085C135.273 131.906 134.858 131.84 134.393 131.889C133.881 131.943 133.45 132.117 133.103 132.412C132.763 132.699 132.503 133.07 132.351 133.49C132.194 133.916 132.138 134.374 132.188 134.827L132.267 135.572C132.333 136.209 132.5 136.737 132.763 137.157C133.032 137.571 133.374 137.873 133.79 138.064C134.208 138.249 134.675 138.314 135.194 138.26C135.533 138.224 135.833 138.145 136.096 138.02C136.361 137.892 136.585 137.721 136.763 137.507C136.943 137.287 137.072 137.027 137.15 136.724L138.43 136.944C138.343 137.381 138.163 137.777 137.888 138.132C137.613 138.482 137.256 138.772 136.821 138.998C136.386 139.222 135.884 139.363 135.317 139.423ZM145.968 131.514L144.847 131.966C144.747 131.77 144.619 131.591 144.466 131.435C144.295 131.254 144.084 131.116 143.851 131.033C143.598 130.937 143.284 130.91 142.91 130.949C142.397 131.003 141.983 131.167 141.666 131.44C141.353 131.709 141.215 132.025 141.253 132.387C141.287 132.709 141.43 132.952 141.682 133.113C141.934 133.276 142.314 133.392 142.822 133.465L144.097 133.641C144.865 133.745 145.453 133.967 145.859 134.305C146.265 134.639 146.499 135.101 146.561 135.69C146.611 136.172 146.52 136.618 146.283 137.027C146.05 137.437 145.7 137.776 145.233 138.047C144.765 138.319 144.206 138.488 143.555 138.557C142.702 138.647 141.974 138.533 141.375 138.22C140.777 137.906 140.365 137.398 140.141 136.697L141.33 136.262C141.494 136.702 141.749 137.02 142.096 137.212C142.448 137.405 142.886 137.474 143.414 137.418C144.013 137.355 144.475 137.177 144.801 136.884C145.131 136.586 145.275 136.257 145.237 135.895C145.226 135.757 145.186 135.624 145.12 135.503C145.055 135.382 144.964 135.276 144.855 135.192C144.63 135.013 144.303 134.895 143.87 134.841L142.44 134.658C141.653 134.556 141.061 134.332 140.661 133.986C140.263 133.635 140.035 133.171 139.974 132.588C139.924 132.114 140.011 131.679 140.239 131.285C140.484 130.878 140.831 130.541 141.244 130.31C141.721 130.042 142.249 129.878 142.793 129.83C143.621 129.743 144.291 129.858 144.802 130.173C145.317 130.489 145.705 130.936 145.968 131.514ZM151.502 129.025L151.617 130.123L147.277 130.579L147.161 129.481L151.502 129.025ZM148.215 127.329L149.501 127.194L150.345 135.225C150.383 135.59 150.465 135.859 150.589 136.032C150.718 136.199 150.868 136.306 151.042 136.35C151.219 136.39 151.402 136.401 151.591 136.381C151.733 136.366 151.848 136.347 151.937 136.323L152.152 136.256L152.535 137.391C152.238 137.531 151.919 137.617 151.592 137.645C151.228 137.683 150.864 137.642 150.498 137.521C150.135 137.4 149.812 137.183 149.561 136.894C149.301 136.595 149.147 136.201 149.095 135.711L148.215 127.331L148.215 127.329ZM158.986 125.4L160.167 136.632L158.815 136.774L157.634 125.543L158.986 125.401L158.986 125.4ZM163.457 131.163L163.99 136.232L162.703 136.367L161.818 127.941L163.061 127.81L163.2 129.127L163.308 129.115C163.46 128.667 163.721 128.292 164.094 127.991C164.466 127.685 164.969 127.499 165.601 127.433C166.168 127.373 166.677 127.438 167.127 127.627C167.576 127.813 167.944 128.129 168.229 128.576C168.515 129.02 168.696 129.6 168.771 130.316L169.334 135.669L168.046 135.804L167.493 130.539C167.423 129.877 167.198 129.38 166.818 129.046C166.437 128.709 165.949 128.572 165.352 128.635C164.942 128.678 164.584 128.805 164.279 129.019C163.978 129.232 163.753 129.52 163.604 129.883C163.454 130.247 163.406 130.673 163.457 131.163ZM174.441 126.614L174.557 127.712L170.216 128.168L170.101 127.07L174.441 126.614ZM171.154 124.918L172.44 124.783L173.285 132.814C173.323 133.179 173.404 133.448 173.529 133.621C173.639 133.776 173.799 133.889 173.982 133.939C174.159 133.979 174.342 133.99 174.53 133.97C174.672 133.956 174.787 133.936 174.877 133.912L175.09 133.845L175.475 134.98C175.178 135.12 174.858 135.206 174.531 135.234C174.167 135.272 173.804 135.231 173.437 135.11C173.075 134.989 172.752 134.772 172.501 134.483C172.241 134.184 172.087 133.79 172.035 133.3L171.154 124.919L171.154 124.918ZM180.701 134.653C179.894 134.737 179.18 134.631 178.557 134.334C177.935 134.031 177.412 133.554 177.051 132.961C176.67 132.343 176.434 131.603 176.343 130.74C176.252 129.877 176.329 129.1 176.573 128.409C176.819 127.714 177.204 127.153 177.729 126.724C178.257 126.291 178.899 126.035 179.655 125.956C180.092 125.91 180.529 125.938 180.97 126.04C181.411 126.14 181.823 126.338 182.207 126.63C182.589 126.919 182.913 127.321 183.177 127.837C183.441 128.352 183.613 129.003 183.696 129.79L183.754 130.338L177.299 131.017L177.181 129.898L182.328 129.357C182.278 128.882 182.139 128.467 181.91 128.114C181.695 127.769 181.387 127.492 181.022 127.315C180.657 127.135 180.243 127.07 179.778 127.119C179.264 127.173 178.835 127.347 178.488 127.642C178.147 127.929 177.888 128.3 177.735 128.72C177.578 129.146 177.523 129.604 177.573 130.057L177.651 130.802C177.718 131.439 177.883 131.967 178.148 132.387C178.416 132.801 178.758 133.103 179.175 133.294C179.591 133.479 180.059 133.544 180.579 133.49C180.917 133.454 181.218 133.375 181.48 133.25C181.737 133.129 181.965 132.954 182.149 132.737C182.327 132.517 182.456 132.257 182.534 131.953L183.815 132.174C183.73 132.607 183.544 133.015 183.272 133.362C182.996 133.712 182.641 134.001 182.206 134.228C181.735 134.461 181.225 134.605 180.701 134.653ZM186.108 133.906L185.222 125.481L186.465 125.35L186.599 126.624L186.686 126.614C186.798 126.176 187.053 125.788 187.409 125.512C187.784 125.209 188.24 125.024 188.72 124.981C188.814 124.971 188.932 124.961 189.075 124.949C189.217 124.937 189.325 124.932 189.398 124.932L189.536 126.248C189.435 126.238 189.333 126.232 189.232 126.23C189.068 126.22 188.904 126.225 188.742 126.242C188.335 126.285 187.98 126.409 187.679 126.615C187.382 126.809 187.146 127.083 186.996 127.405C186.847 127.728 186.791 128.086 186.834 128.44L187.394 133.771L186.108 133.906ZM195.189 124.434L195.304 125.531L190.789 126.006L190.674 124.908L195.189 124.434ZM192.912 133.192L191.904 123.604C191.853 123.121 191.924 122.706 192.116 122.36C192.307 122.016 192.574 121.743 192.917 121.545C193.259 121.346 193.638 121.223 194.031 121.183C194.347 121.15 194.608 121.149 194.813 121.179C195.018 121.21 195.173 121.242 195.276 121.275L195.023 122.433C194.929 122.413 194.835 122.395 194.741 122.379C194.591 122.358 194.439 122.357 194.288 122.376C193.864 122.421 193.568 122.561 193.401 122.797C193.239 123.032 193.18 123.359 193.223 123.775L194.199 133.057L192.912 133.192ZM200.123 132.632C199.592 132.688 199.1 132.64 198.646 132.483C198.208 132.335 197.819 132.066 197.523 131.709C197.228 131.347 197.052 130.893 196.994 130.344C196.943 129.861 196.997 129.461 197.154 129.141C197.31 128.818 197.539 128.554 197.837 128.348C198.135 128.143 198.471 127.978 198.843 127.854C199.219 127.726 199.599 127.615 199.983 127.523C200.485 127.404 200.892 127.311 201.204 127.246C201.521 127.175 201.747 127.091 201.884 126.99C202.023 126.891 202.082 126.738 202.06 126.529L202.056 126.485C201.999 125.944 201.808 125.538 201.482 125.27C201.16 125.001 200.703 124.897 200.11 124.959C199.495 125.024 199.028 125.209 198.708 125.517C198.387 125.824 198.172 126.139 198.063 126.461L196.795 126.15C196.96 125.616 197.208 125.186 197.542 124.863C197.867 124.544 198.254 124.295 198.679 124.134C199.102 123.971 199.524 123.866 199.946 123.822C200.215 123.794 200.528 123.794 200.884 123.824C201.243 123.85 201.596 123.943 201.944 124.106C202.295 124.27 202.602 124.539 202.861 124.913C203.121 125.29 203.287 125.812 203.357 126.481L203.941 132.033L202.653 132.168L202.533 131.026L202.468 131.033C202.4 131.225 202.276 131.437 202.094 131.666C201.912 131.897 201.659 132.102 201.337 132.284C201.015 132.465 200.61 132.581 200.123 132.632ZM200.197 131.45C200.706 131.397 201.124 131.25 201.452 131.013C201.764 130.797 202.011 130.498 202.166 130.15C202.315 129.813 202.369 129.469 202.332 129.117L202.208 127.935C202.161 128.007 202.047 128.079 201.867 128.153C201.665 128.232 201.459 128.3 201.25 128.357C200.847 128.463 200.442 128.561 200.035 128.651C199.72 128.724 199.414 128.829 199.12 128.963C198.863 129.073 198.638 129.247 198.468 129.47C198.312 129.678 198.253 129.947 198.288 130.277C198.335 130.726 198.536 131.049 198.89 131.244C199.249 131.436 199.684 131.504 200.197 131.45ZM209.709 131.604C208.925 131.686 208.228 131.57 207.622 131.258C207.01 130.939 206.5 130.451 206.152 129.853C205.777 129.231 205.546 128.5 205.458 127.658C205.368 126.803 205.445 126.031 205.689 125.343C205.912 124.686 206.313 124.104 206.846 123.663C207.374 123.231 208.016 122.975 208.772 122.895C209.361 122.834 209.903 122.888 210.398 123.057C210.894 123.227 211.313 123.493 211.656 123.856C211.999 124.219 212.235 124.661 212.363 125.18L211.077 125.315C210.939 124.941 210.685 124.624 210.315 124.363C209.95 124.099 209.483 123.996 208.915 124.056C208.445 124.096 207.998 124.282 207.638 124.59C207.291 124.888 207.037 125.287 206.876 125.784C206.718 126.277 206.674 126.843 206.74 127.478C206.809 128.129 206.969 128.686 207.224 129.148C207.482 129.608 207.812 129.953 208.214 130.18C208.621 130.407 209.078 130.494 209.586 130.441C209.921 130.406 210.219 130.315 210.479 130.169C210.738 130.027 210.96 129.825 211.127 129.58C211.294 129.335 211.401 129.054 211.439 128.759L212.725 128.624C212.708 129.122 212.569 129.607 212.32 130.037C212.071 130.466 211.72 130.827 211.298 131.087C210.857 131.367 210.327 131.539 209.709 131.604ZM218.394 130.691C217.587 130.776 216.873 130.669 216.25 130.372C215.627 130.069 215.105 129.593 214.744 129C214.363 128.382 214.128 127.641 214.037 126.778C213.946 125.916 214.022 125.138 214.265 124.448C214.512 123.752 214.898 123.191 215.422 122.762C215.95 122.33 216.593 122.074 217.348 121.994C217.785 121.948 218.222 121.976 218.663 122.078C219.104 122.179 219.516 122.376 219.899 122.669C220.282 122.957 220.606 123.359 220.87 123.875C221.134 124.391 221.306 125.042 221.389 125.828L221.447 126.377L214.992 127.055L214.874 125.936L220.021 125.395C219.971 124.92 219.832 124.505 219.603 124.152C219.387 123.807 219.08 123.53 218.715 123.353C218.35 123.174 217.935 123.108 217.47 123.157C216.958 123.211 216.528 123.385 216.18 123.681C215.84 123.967 215.58 124.339 215.428 124.758C215.271 125.185 215.215 125.643 215.266 126.095L215.344 126.841C215.411 127.477 215.576 128.005 215.841 128.425C216.108 128.84 216.451 129.142 216.868 129.332C217.284 129.517 217.752 129.583 218.272 129.528C218.61 129.493 218.911 129.413 219.173 129.288C219.429 129.167 219.657 128.992 219.841 128.775C220.02 128.556 220.149 128.296 220.227 127.992L221.508 128.212C221.422 128.649 221.24 129.045 220.965 129.4C220.675 129.763 220.312 130.058 219.898 130.266C219.427 130.5 218.917 130.644 218.394 130.691ZM228.097 129.493L227.994 128.506L231.252 124.059C231.635 123.539 231.948 123.088 232.191 122.707C232.433 122.324 232.605 121.969 232.708 121.644C232.812 121.318 232.847 120.974 232.81 120.635C232.768 120.24 232.638 119.909 232.419 119.638C232.201 119.368 231.913 119.164 231.586 119.05C231.228 118.924 230.847 118.883 230.471 118.928C230.078 118.961 229.701 119.094 229.375 119.316C229.078 119.525 228.858 119.797 228.717 120.133C228.577 120.497 228.529 120.891 228.579 121.279L227.291 121.414C227.222 120.757 227.313 120.163 227.562 119.634C227.812 119.105 228.182 118.674 228.673 118.341C229.186 118.001 229.776 117.794 230.389 117.739C231.044 117.67 231.638 117.749 232.172 117.973C232.688 118.184 233.139 118.529 233.479 118.973C233.816 119.414 234.015 119.924 234.075 120.501C234.119 120.915 234.087 121.327 233.979 121.739C233.874 122.145 233.666 122.608 233.354 123.128C233.044 123.645 232.606 124.284 232.039 125.041L229.815 128.004L229.824 128.092L235.014 127.546L235.141 128.753L228.097 129.493Z" fill="white"/>
<path d="M175.224 146.206L126.972 151.278C124.852 151.501 123.315 153.41 123.54 155.543C123.764 157.675 125.664 159.224 127.784 159.001L176.036 153.929C178.156 153.707 179.693 151.797 179.468 149.664C179.244 147.532 177.344 145.983 175.224 146.206Z" fill="#484848"/>
<path d="M355.723 111.394L314.867 115.688C312.703 115.916 311.134 117.865 311.363 120.042L312.32 129.15C312.549 131.327 314.489 132.908 316.653 132.68L357.509 128.386C359.673 128.159 361.241 126.209 361.013 124.032L360.055 114.924C359.826 112.747 357.887 111.167 355.723 111.394Z" fill="#3E3E3E"/>
<path d="M355.723 111.394L314.867 115.688C312.703 115.916 311.134 117.865 311.363 120.042L312.32 129.15C312.549 131.327 314.489 132.908 316.653 132.68L357.509 128.386C359.673 128.159 361.241 126.209 361.013 124.032L360.055 114.924C359.826 112.747 357.887 111.167 355.723 111.394Z" stroke="#696969" stroke-width="0.945651"/>
<path d="M318.17 127.278L317.449 120.418L319.752 120.176C320.287 120.12 320.735 120.171 321.094 120.33C321.456 120.486 321.736 120.72 321.935 121.03C322.134 121.342 322.255 121.699 322.297 122.103C322.34 122.507 322.296 122.883 322.166 123.23C322.039 123.578 321.816 123.867 321.497 124.099C321.178 124.329 320.753 124.472 320.224 124.527L318.572 124.701L318.495 123.965L320.119 123.794C320.485 123.756 320.772 123.661 320.981 123.511C321.19 123.361 321.333 123.172 321.41 122.944C321.49 122.701 321.515 122.443 321.484 122.188C321.456 121.913 321.379 121.673 321.255 121.467C321.129 121.259 320.939 121.099 320.714 121.01C320.477 120.908 320.174 120.877 319.803 120.916L318.352 121.069L318.995 127.189L318.17 127.275L318.17 127.278ZM324.119 126.652L323.398 119.793L325.701 119.551C326.234 119.495 326.68 119.541 327.042 119.688C327.403 119.833 327.681 120.056 327.879 120.355C328.077 120.655 328.197 121.007 328.239 121.41C328.282 121.814 328.237 122.181 328.106 122.511C327.969 122.847 327.732 123.133 327.427 123.327C327.106 123.54 326.682 123.673 326.154 123.729L324.29 123.925L324.211 123.175L326.048 122.982C326.412 122.943 326.7 122.858 326.91 122.728C327.109 122.614 327.263 122.435 327.348 122.221C327.429 122.012 327.456 121.771 327.427 121.496C327.398 121.221 327.321 120.987 327.198 120.793C327.07 120.595 326.88 120.445 326.658 120.369C326.423 120.277 326.121 120.252 325.752 120.291L324.301 120.443L324.945 126.563L324.119 126.65L324.119 126.652ZM327.004 123.234L329.005 126.139L328.046 126.24L326.072 123.332L327.004 123.234ZM330.218 119.077L330.939 125.936L330.114 126.022L329.394 119.163L330.218 119.076L330.218 119.077ZM332.153 118.874L334.784 124.434L334.863 124.426L336.281 118.44L337.146 118.349L335.363 125.471L334.511 125.56L331.288 118.965L332.153 118.874ZM338.622 125.128L337.756 125.219L339.539 118.098L340.391 118.008L343.614 124.603L342.749 124.694L340.104 119.135L340.052 119.14L338.622 125.128ZM338.66 122.416L342.147 122.049L342.224 122.785L338.737 123.152L338.66 122.416ZM342.863 118.494L342.786 117.755L347.898 117.218L347.976 117.955L345.832 118.18L346.475 124.3L345.649 124.387L345.006 118.269L342.863 118.494ZM349.892 123.942L349.172 117.085L353.285 116.653L353.363 117.39L350.075 117.736L350.318 120.053L353.393 119.729L353.471 120.466L350.396 120.79L350.641 123.12L353.982 122.768L354.06 123.505L349.892 123.942Z" fill="#D8D8D8"/>
</g>
</g>
<g clip-path="url(#clip2_1_9067)">
<g clip-path="url(#clip3_1_9067)">
<path d="M335.026 32.6676L27.2965 27.2962C23.903 27.237 21.1044 29.9207 21.0456 33.2905L20.0993 87.5036C20.0405 90.8733 22.7438 93.6531 26.1372 93.7123L333.867 99.0838C337.26 99.143 340.059 96.4593 340.117 93.0895L341.064 38.8764C341.123 35.5066 338.419 32.7269 335.026 32.6676Z" fill="#303030"/>
<path d="M335.026 32.6676L27.2965 27.2962C23.903 27.237 21.1044 29.9207 21.0456 33.2905L20.0993 87.5036C20.0405 90.8733 22.7438 93.6531 26.1372 93.7123L333.867 99.0838C337.26 99.143 340.059 96.4593 340.117 93.0895L341.064 38.8764C341.123 35.5066 338.419 32.7269 335.026 32.6676Z" stroke="#484848" stroke-width="0.816439"/>
<path d="M63.8458 44.133L44.7755 43.8001C40.579 43.7269 37.118 47.0458 37.0453 51.2131L36.7147 70.1506C36.642 74.318 39.985 77.7557 44.1816 77.8289L63.2518 78.1618C67.4484 78.2351 70.9093 74.9161 70.9821 70.7488L71.3126 51.8113C71.3854 47.6439 68.0423 44.2062 63.8458 44.133Z" fill="#303B32"/>
<path d="M63.8458 44.133L44.7755 43.8001C40.579 43.7269 37.118 47.0458 37.0453 51.2131L36.7147 70.1506C36.642 74.318 39.985 77.7557 44.1816 77.8289L63.2518 78.1618C67.4484 78.2351 70.9093 74.9161 70.9821 70.7488L71.3126 51.8113C71.3854 47.6439 68.0423 44.2062 63.8458 44.133Z" stroke="#2E5235" stroke-width="1.00983"/>
<path d="M60.2397 58.0235L52.522 57.8888C52.1127 57.8816 51.7173 58.0362 51.4228 58.3186C51.1283 58.601 50.9589 58.9881 50.9518 59.3946L50.818 67.0585C50.8109 67.465 50.9667 67.8577 51.2512 68.1502C51.5356 68.4427 51.9254 68.6111 52.3348 68.6182L60.0524 68.7529C60.4617 68.7601 60.8572 68.6054 61.1516 68.323C61.4461 68.0406 61.6156 67.6536 61.6227 67.2471L61.7564 59.5832C61.7635 59.1767 61.6077 58.784 61.3233 58.4915C61.0388 58.199 60.649 58.0306 60.2397 58.0235Z" stroke="#A2CEAD" stroke-width="1.09884" stroke-linecap="round" stroke-linejoin="round"/>
<path d="M47.7867 63.939C46.9377 63.9242 46.2552 63.2223 46.2699 62.3793L46.4037 54.7154C46.4184 53.8724 47.125 53.1947 47.9739 53.2096L55.6916 53.3443C56.5405 53.3591 57.223 54.061 57.2083 54.904" stroke="#A2CEAD" stroke-width="1.09884" stroke-linecap="square" stroke-linejoin="round"/>
<path d="M85.8739 47.5949L85.8948 46.3982L94.3138 46.5452L94.2929 47.7419L90.7626 47.6802L90.5889 57.6312L89.2305 57.6075L89.4042 47.6576L85.875 47.596L85.8739 47.5949ZM98.3477 57.9408C97.5362 57.9266 96.8403 57.7359 96.2578 57.3698C95.6772 56.998 95.2164 56.4684 94.9301 55.8441C94.6271 55.1927 94.4826 54.4389 94.4975 53.5827C94.5125 52.7265 94.6833 51.9738 95.0089 51.3268C95.3379 50.6754 95.7901 50.1719 96.3621 49.815C96.9385 49.4549 97.6066 49.2815 98.3673 49.2947C98.8062 49.3024 99.2371 49.3822 99.6623 49.5353C100.088 49.6873 100.472 49.9305 100.818 50.2629C101.163 50.592 101.435 51.025 101.633 51.5618C101.833 52.0997 101.925 52.7574 101.912 53.538L101.902 54.0821L95.4128 53.9688L95.4322 52.8587L100.606 52.949C100.622 52.5114 100.532 52.0764 100.343 51.6806C100.171 51.3165 99.8993 51.0081 99.5588 50.7907C99.2185 50.5712 98.8147 50.4569 98.3472 50.4487C97.8312 50.4397 97.3836 50.5589 97.0032 50.8064C96.6305 51.0458 96.3279 51.3786 96.1261 51.7712C95.918 52.1701 95.8068 52.6119 95.8014 53.0611L95.7885 53.8013C95.7774 54.433 95.8784 54.9703 96.089 55.4131C96.3041 55.8517 96.607 56.1888 96.9977 56.4256C97.3885 56.6569 97.8452 56.7777 98.3678 56.7868C98.7074 56.7927 99.0158 56.751 99.2909 56.6606C99.5705 56.5669 99.8133 56.4265 100.017 56.2385C100.221 56.0449 100.381 55.8056 100.495 55.5163L101.74 55.8874C101.6 56.3055 101.373 56.6717 101.056 56.986C100.741 57.2959 100.352 57.5366 99.8925 57.706C99.433 57.8732 98.9177 57.9507 98.3477 57.9408ZM109.882 51.4769L108.714 51.784C108.639 51.5806 108.533 51.3897 108.401 51.2178C108.253 51.02 108.061 50.8598 107.839 50.7502C107.598 50.6255 107.291 50.561 106.916 50.5545C106.4 50.5455 105.969 50.6562 105.621 50.8856C105.277 51.1118 105.102 51.4044 105.096 51.7635C105.09 52.0832 105.203 52.3382 105.433 52.5273C105.664 52.7164 106.027 52.8771 106.521 53.0084L107.766 53.3357C108.516 53.5295 109.071 53.8174 109.434 54.1971C109.797 54.5736 109.973 55.0542 109.962 55.6389C109.954 56.1173 109.808 56.543 109.523 56.9158C109.243 57.2888 108.854 57.5788 108.357 57.788C107.86 57.9984 107.284 58.0968 106.631 58.0854C105.771 58.0703 105.064 57.8718 104.507 57.493C103.951 57.1132 103.605 56.5661 103.466 55.8518L104.7 55.5689C104.809 56.0198 105.024 56.362 105.346 56.5921C105.67 56.8234 106.098 56.9437 106.628 56.9529C107.231 56.9634 107.711 56.8448 108.071 56.597C108.434 56.3448 108.618 56.0403 108.624 55.6801C108.629 55.5441 108.606 55.4084 108.556 55.2819C108.505 55.1554 108.428 55.0408 108.33 54.9456C108.129 54.7428 107.817 54.5884 107.395 54.4835L105.997 54.1317C105.229 53.9376 104.668 53.6463 104.313 53.259C103.962 52.8674 103.79 52.3847 103.8 51.8066C103.809 51.3358 103.949 50.9199 104.222 50.5622C104.515 50.1921 104.901 49.9044 105.34 49.7275C105.845 49.5224 106.388 49.4259 106.934 49.4443C107.768 49.4588 108.419 49.6509 108.887 50.0227C109.359 50.3934 109.692 50.8789 109.882 51.4769ZM115.676 49.7053L115.657 50.7936L111.295 50.7174L111.314 49.6291L115.676 49.7053ZM112.62 47.6478L113.914 47.6704L113.775 55.6408C113.769 56.0021 113.817 56.2767 113.92 56.4592C114.027 56.6385 114.162 56.7613 114.33 56.8256C114.501 56.8866 114.681 56.9193 114.871 56.9226C115.014 56.9252 115.13 56.9195 115.222 56.9069L115.442 56.8669L115.686 58.0255C115.374 58.1269 115.046 58.1727 114.718 58.1608C114.347 58.1532 113.982 58.067 113.647 57.9078C113.303 57.7452 113.008 57.4939 112.794 57.1799C112.573 56.8562 112.466 56.4514 112.475 55.9653L112.62 47.6478ZM123.547 47.0555L123.353 58.2031L121.993 58.1794L122.188 47.0317L123.547 47.0555ZM127.284 53.2405L127.196 58.2702L125.903 58.2476L126.049 49.8863L127.298 49.9082L127.275 51.2143L127.386 51.2162C127.59 50.796 127.895 50.4596 128.302 50.2093C128.709 49.9547 129.229 49.8334 129.866 49.8445C130.436 49.8545 130.933 49.9793 131.356 50.2188C131.779 50.4551 132.106 50.8091 132.335 51.2807C132.565 51.7502 132.673 52.3402 132.661 53.0507L132.568 58.364L131.275 58.3414L131.366 53.1157C131.377 52.4588 131.214 51.9445 130.878 51.5718C130.54 51.1957 130.071 51.0025 129.473 50.992C129.06 50.9848 128.688 51.067 128.361 51.2387C128.036 51.4116 127.778 51.6666 127.586 52.0039C127.392 52.3422 127.293 52.7544 127.284 53.2405ZM138.739 50.1079L138.72 51.1961L134.357 51.12L134.376 50.0317L138.739 50.1079ZM135.683 48.0503L136.977 48.0729L136.838 56.0434C136.832 56.4046 136.88 56.6793 136.982 56.8618C137.072 57.0274 137.217 57.1568 137.393 57.2282C137.563 57.2892 137.743 57.3219 137.934 57.3252C138.076 57.3277 138.193 57.3221 138.285 57.3094L138.505 57.2695L138.748 58.428C138.436 58.5295 138.109 58.5753 137.781 58.5634C137.41 58.5558 137.045 58.4695 136.71 58.3103C136.365 58.1481 136.07 57.8967 135.857 57.5825C135.635 57.2588 135.529 56.8539 135.537 56.3678L135.683 48.0503ZM143.976 58.7372C143.165 58.7231 142.468 58.5324 141.886 58.1663C141.305 57.7947 140.844 57.2651 140.558 56.6405C140.255 55.9891 140.111 55.2353 140.126 54.3791C140.141 53.523 140.312 52.7703 140.637 52.1232C140.966 51.4719 141.417 50.9683 141.99 50.6114C142.567 50.2513 143.235 50.0779 143.996 50.0912C144.433 50.0988 144.865 50.1786 145.291 50.3317C145.716 50.4837 146.101 50.727 146.446 51.0594C146.791 51.3885 147.063 51.8214 147.261 52.3582C147.46 52.8962 147.554 53.5538 147.54 54.3344L147.531 54.8786L141.04 54.7653L141.059 53.6551L146.235 53.7454C146.243 53.2736 146.154 52.8515 145.971 52.477C145.799 52.1128 145.527 51.8043 145.186 51.5872C144.847 51.3677 144.443 51.2533 143.976 51.2451C143.46 51.2361 143.012 51.3554 142.632 51.6028C142.258 51.8417 141.955 52.1746 141.753 52.5677C141.546 52.9667 141.435 53.4084 141.43 53.8576L141.417 54.5977C141.406 55.2294 141.506 55.7667 141.717 56.2096C141.932 56.6481 142.235 56.9852 142.626 57.222C143.017 57.4534 143.474 57.5741 143.996 57.5833C144.336 57.5892 144.644 57.5475 144.919 57.457C145.199 57.3633 145.441 57.223 145.645 57.0349C145.85 56.8413 146.009 56.6021 146.124 56.3128L147.368 56.6838C147.228 57.1019 147.001 57.4682 146.685 57.7824C146.368 58.0923 145.98 58.333 145.521 58.5024C145.025 58.6745 144.501 58.7541 143.976 58.7372ZM149.433 58.6572L149.579 50.2971L150.828 50.3189L150.806 51.5823L150.895 51.5839C151.055 51.1727 151.339 50.8414 151.745 50.5911C152.154 50.3398 152.629 50.2136 153.111 50.2284C153.207 50.2301 153.325 50.2343 153.467 50.2401C153.61 50.2459 153.718 50.2532 153.791 50.2622L153.768 51.5683C153.668 51.5461 153.568 51.5279 153.467 51.5138C153.306 51.4848 153.143 51.4692 152.98 51.4669C152.571 51.4598 152.203 51.5388 151.88 51.704C151.561 51.858 151.293 52.0977 151.106 52.3957C150.918 52.6938 150.819 53.0381 150.819 53.3896L150.727 58.6809L149.433 58.6572ZM159.599 50.472L159.58 51.5602L155.041 51.481L155.06 50.3927L159.599 50.472ZM156.273 58.7777L156.439 49.2636C156.448 48.7841 156.568 48.3864 156.8 48.0707C157.033 47.756 157.331 47.5214 157.696 47.3679C158.059 47.215 158.451 47.1405 158.845 47.1492C159.163 47.1547 159.423 47.1845 159.622 47.2394C159.822 47.2933 159.971 47.343 160.07 47.3874L159.677 48.4922C159.587 48.461 159.496 48.4321 159.405 48.4053C159.258 48.3661 159.107 48.3468 158.956 48.3482C158.528 48.3407 158.217 48.4426 158.024 48.6539C157.834 48.8641 157.735 49.1767 157.727 49.5905L157.567 58.8003L156.273 58.7777ZM163.498 59.0999C162.966 59.0906 162.482 58.9814 162.051 58.7746C161.634 58.5762 161.281 58.2667 161.03 57.8806C160.781 57.4907 160.661 57.0243 160.671 56.4802C160.679 56.0006 160.782 55.6147 160.977 55.3202C161.172 55.0225 161.431 54.7915 161.751 54.6263C162.072 54.461 162.424 54.3401 162.81 54.2636C163.199 54.1828 163.59 54.1206 163.981 54.076C164.493 54.0203 164.91 53.9783 165.228 53.9521C165.551 53.9205 165.785 53.8655 165.932 53.7837C166.084 53.7031 166.161 53.5599 166.165 53.353L166.166 53.3092C166.175 52.7727 166.035 52.3519 165.743 52.05C165.456 51.7471 165.016 51.5905 164.419 51.5801C163.802 51.5693 163.315 51.6944 162.96 51.9576C162.605 52.2198 162.353 52.5023 162.205 52.8042L160.985 52.3481C161.213 51.8428 161.512 51.4527 161.883 51.1766C162.243 50.9025 162.657 50.7057 163.098 50.5988C163.522 50.492 163.959 50.4407 164.396 50.4462C164.666 50.4509 164.976 50.4892 165.326 50.561C165.679 50.6296 166.018 50.7636 166.343 50.9653C166.673 51.1682 166.943 51.4686 167.156 51.8666C167.368 52.2668 167.468 52.7986 167.457 53.462L167.36 58.9713L166.067 58.9487L166.087 57.8166L166.022 57.8155C165.931 57.9946 165.781 58.1869 165.573 58.3892C165.364 58.5936 165.089 58.7641 164.747 58.9037C164.405 59.0423 163.989 59.1084 163.498 59.0999ZM163.716 57.9494C164.227 57.9583 164.661 57.8651 165.015 57.672C165.352 57.4982 165.633 57.2355 165.829 56.913C166.017 56.6009 166.114 56.2707 166.12 55.9215L166.141 54.7456C166.084 54.8103 165.963 54.8685 165.776 54.9199C165.565 54.9727 165.352 55.0143 165.137 55.0446C164.725 55.1004 164.311 55.1476 163.896 55.1861C163.559 55.224 163.244 55.2886 162.95 55.3821C162.681 55.4586 162.437 55.6026 162.24 55.8001C162.061 55.9853 161.97 56.2411 161.964 56.5685C161.956 57.014 162.116 57.3541 162.445 57.5888C162.777 57.8202 163.201 57.9404 163.716 57.9494ZM173.139 59.2463C172.35 59.2325 171.674 59.0345 171.11 58.6556C170.541 58.2695 170.095 57.7312 169.822 57.1031C169.525 56.4474 169.385 55.7036 169.4 54.8682C169.414 54.0197 169.585 53.2725 169.911 52.6287C170.212 52.0116 170.681 51.49 171.264 51.1224C171.84 50.7623 172.508 50.5889 173.268 50.6021C173.86 50.6125 174.392 50.7313 174.863 50.9563C175.335 51.1825 175.718 51.4937 176.015 51.8909C176.311 52.2882 176.492 52.7491 176.555 53.2726L175.262 53.25C175.169 52.8673 174.956 52.5262 174.622 52.2258C174.29 51.9232 173.84 51.7664 173.27 51.7565C172.766 51.7477 172.322 51.8713 171.937 52.1253C171.556 52.376 171.255 52.7354 171.036 53.2036C170.819 53.6686 170.705 54.2164 170.694 54.847C170.682 55.4929 170.775 56.0575 170.972 56.5406C171.172 57.0227 171.458 57.4 171.829 57.6715C172.205 57.9431 172.648 58.0834 173.159 58.0923C173.473 58.1017 173.786 58.0476 174.079 57.9331C174.353 57.8251 174.598 57.6543 174.793 57.4344C174.989 57.2146 175.129 56.952 175.202 56.6681L176.496 56.6907C176.419 57.176 176.221 57.6348 175.922 58.0258C175.622 58.4168 175.23 58.7278 174.779 58.931C174.308 59.1528 173.761 59.2571 173.139 59.2463ZM181.871 59.3987C181.06 59.3845 180.363 59.1938 179.781 58.8278C179.201 58.4559 178.74 57.9263 178.454 57.302C178.151 56.6506 178.006 55.8968 178.021 55.0406C178.036 54.1844 178.207 53.4317 178.532 52.7847C178.861 52.1334 179.312 51.6298 179.886 51.2729C180.462 50.9128 181.13 50.7394 181.891 50.7526C182.329 50.7603 182.761 50.8401 183.186 50.9932C183.611 51.1452 183.996 51.3885 184.341 51.7208C184.686 52.0499 184.959 52.4829 185.158 53.0197C185.356 53.5576 185.449 54.2153 185.435 54.9959L185.426 55.54L178.936 55.4267L178.956 54.3166L184.13 54.4069C184.145 53.9693 184.055 53.5343 183.866 53.1385C183.694 52.7743 183.422 52.4658 183.081 52.2486C182.742 52.0291 182.338 51.9148 181.871 51.9066C181.355 51.8976 180.907 52.0168 180.527 52.2643C180.154 52.5035 179.851 52.8363 179.649 53.2291C179.441 53.6282 179.33 54.0699 179.325 54.5191L179.312 55.2592C179.301 55.8909 179.401 56.4282 179.613 56.871C179.828 57.3096 180.131 57.6467 180.521 57.8835C180.912 58.1148 181.369 58.2356 181.891 58.2447C182.231 58.2506 182.539 58.2089 182.814 58.1185C183.094 58.0248 183.336 57.8844 183.54 57.6963C183.745 57.5028 183.905 57.2635 184.019 56.9742L185.263 57.3453C185.123 57.7634 184.896 58.1296 184.58 58.4439C184.264 58.7538 183.876 58.9945 183.416 59.1639C182.92 59.3359 182.396 59.4155 181.871 59.3987ZM195.789 48.3165L195.594 59.4641L194.235 59.4404L194.405 49.7073L194.338 49.7061L191.566 51.4647L191.59 50.094L194.429 48.2927L195.789 48.3165Z" fill="white"/>
<path d="M166.08 69.9003L88.7792 68.551C86.5616 68.5123 84.7326 70.2662 84.6942 72.4684C84.6558 74.6705 86.4224 76.4871 88.64 76.5258L165.941 77.8751C168.159 77.9138 169.987 76.16 170.026 73.9578C170.064 71.7556 168.298 69.939 166.08 69.9003Z" fill="#484848"/>
<path d="M320.525 57.1995L283.861 56.5595C281.686 56.5215 279.891 58.2421 279.854 60.4026L279.696 69.4405C279.658 71.601 281.391 73.3832 283.567 73.4212L320.231 74.0611C322.407 74.0991 324.201 72.3785 324.239 70.218L324.396 61.1801C324.434 59.0196 322.701 57.2374 320.525 57.1995Z" fill="#2E5235" fill-opacity="0.3"/>
<path d="M320.525 57.1995L283.861 56.5595C281.686 56.5215 279.891 58.2421 279.854 60.4026L279.696 69.4405C279.658 71.601 281.391 73.3832 283.567 73.4212L320.231 74.0611C322.407 74.0991 324.201 72.3785 324.239 70.218L324.396 61.1801C324.434 59.0196 322.701 57.2374 320.525 57.1995Z" stroke="#3A523E" stroke-width="0.939509"/>
<path d="M285.729 68.3116L285.848 61.5061L288.163 61.5465C288.702 61.5559 289.139 61.6599 289.477 61.8585C289.817 62.055 290.067 62.3178 290.226 62.6459C290.386 62.9751 290.461 63.34 290.454 63.7407C290.447 64.1414 290.359 64.5046 290.188 64.829C290.019 65.1546 289.764 65.4119 289.418 65.6008C289.073 65.7875 288.635 65.8763 288.101 65.867L286.442 65.838L286.455 65.1066L288.088 65.1351C288.456 65.1416 288.752 65.0832 288.977 64.9612C289.203 64.8392 289.367 64.6712 289.471 64.4584C289.578 64.2423 289.634 63.9991 289.639 63.7264C289.647 63.4743 289.599 63.2235 289.497 62.9924C289.399 62.7734 289.23 62.593 289.017 62.4791C288.795 62.3515 288.497 62.2839 288.124 62.2774L286.666 62.2519L286.56 68.3261L285.729 68.3116ZM296.327 61.689L297.156 61.7034L297.077 66.2098C297.069 66.6751 296.951 67.0881 296.724 67.45C296.496 67.8129 296.169 68.1053 295.782 68.2943C295.379 68.4954 294.909 68.5912 294.372 68.5818C293.834 68.5725 293.367 68.4603 292.972 68.2453C292.591 68.0421 292.275 67.7387 292.056 67.3685C291.841 66.9868 291.736 66.5539 291.751 66.1168L291.829 61.6105L292.66 61.625L292.582 66.0645C292.576 66.3963 292.644 66.6943 292.787 66.9552C292.929 67.2151 293.136 67.4213 293.405 67.5749C293.677 67.7253 294.004 67.8044 294.386 67.8111C294.767 67.8177 295.096 67.7501 295.373 67.6093C295.65 67.4652 295.863 67.2663 296.012 67.0115C296.164 66.7557 296.243 66.4603 296.249 66.1286L296.327 61.689ZM298.694 68.5379L298.813 61.7324L301.208 61.7742C301.686 61.7825 302.078 61.8715 302.386 62.0412C302.693 62.2086 302.92 62.4305 303.067 62.708C303.213 62.9832 303.284 63.2867 303.278 63.6184C303.273 63.9108 303.217 64.1518 303.109 64.3405C303.01 64.5215 302.867 64.6747 302.692 64.7855C302.523 64.8932 302.338 64.9729 302.143 65.0213L302.142 65.087C302.351 65.1048 302.561 65.1819 302.77 65.318C302.979 65.4553 303.154 65.6489 303.293 65.8989C303.43 66.1499 303.497 66.4544 303.491 66.8135C303.485 67.154 303.401 67.4603 303.241 67.7291C303.079 68.0001 302.829 68.2114 302.49 68.3643C302.15 68.5183 301.71 68.5906 301.17 68.5811L298.694 68.5379ZM299.537 67.821L301.183 67.8498C301.725 67.8592 302.112 67.7619 302.343 67.5579C302.454 67.4648 302.544 67.3488 302.606 67.2179C302.668 67.087 302.7 66.9443 302.701 66.7997C302.705 66.5698 302.649 66.3553 302.535 66.1583C302.417 65.9562 302.245 65.7903 302.038 65.6787C301.801 65.5497 301.535 65.4828 301.265 65.4845L299.578 65.4551L299.537 67.821ZM299.591 64.738L301.13 64.7648C301.38 64.7692 301.606 64.7239 301.808 64.6299C302.005 64.5425 302.174 64.403 302.297 64.2267C302.423 64.0438 302.49 63.8273 302.489 63.6058C302.494 63.4642 302.47 63.3231 302.419 63.1911C302.367 63.0591 302.288 62.939 302.188 62.8383C301.982 62.6244 301.651 62.5135 301.196 62.5055L299.63 62.4782L299.591 64.738ZM304.823 68.6449L304.942 61.8393L305.771 61.8538L305.665 67.928L308.851 67.9836L308.838 68.715L304.823 68.6449ZM311.072 61.9463L310.953 68.7519L310.123 68.7374L310.241 61.9319L311.072 61.9463ZM318.212 64.1989L317.383 64.1844C317.305 63.748 317.061 63.358 316.701 63.0949C316.53 62.9671 316.338 62.8693 316.134 62.8057C315.922 62.7395 315.702 62.7043 315.48 62.7012C315.065 62.694 314.687 62.7925 314.348 62.9947C313.994 63.213 313.711 63.5273 313.531 63.9004C313.328 64.302 313.221 64.7985 313.211 65.3875C313.2 65.9765 313.29 66.4753 313.479 66.8849C313.67 67.2935 313.932 67.6047 314.263 67.8185C314.596 68.0324 314.97 68.1441 315.385 68.1513C315.613 68.1553 315.832 68.1274 316.042 68.0697C316.253 68.011 316.445 67.9234 316.619 67.8038C316.987 67.5518 317.244 67.1702 317.338 66.7365L318.167 66.751C318.106 67.0789 317.985 67.393 317.81 67.6778C317.478 68.2149 316.957 68.6108 316.348 68.7891C316.042 68.8834 315.717 68.9281 315.371 68.9221C314.787 68.9119 314.27 68.7605 313.82 68.469C313.36 68.1661 312.995 67.7407 312.767 67.2415C312.515 66.7136 312.395 66.0917 312.408 65.3735C312.42 64.6564 312.561 64.0378 312.832 63.5191C313.102 63.0014 313.467 62.6047 313.927 62.3291C314.4 62.05 314.943 61.9116 315.493 61.9304C315.839 61.9365 316.163 61.9925 316.465 62.0974C316.769 62.2024 317.042 62.3528 317.283 62.5498C317.526 62.7457 317.727 62.9814 317.887 63.2591C318.047 63.5345 318.156 63.8475 318.212 64.1989Z" fill="#A2CEAD"/>
</g>
</g>
<defs>
<clipPath id="clip0_1_9067">
<rect width="321.984" height="69.8923" fill="white" transform="translate(53.4199 116.6) rotate(-5.99997)"/>
</clipPath>
<clipPath id="clip1_1_9067">
<rect width="321.984" height="69.8923" fill="white" transform="translate(53.4199 116.6) rotate(-5.99997)"/>
</clipPath>
<clipPath id="clip2_1_9067">
<rect width="321.989" height="67.8903" fill="white" transform="translate(20.3201 26.1997) rotate(0.999999)"/>
</clipPath>
<clipPath id="clip3_1_9067">
<rect width="321.989" height="67.8903" fill="white" transform="translate(20.3201 26.1997) rotate(0.999999)"/>
</clipPath>
</defs>
</svg>
