<svg width="342" height="181" viewBox="0 0 342 181" fill="none" xmlns="http://www.w3.org/2000/svg">
<g clip-path="url(#clip0_1_9241)">
<g clip-path="url(#clip1_1_9241)">
<g opacity="0.5">
<path d="M281.62 18.1313H60.4499C57.3494 18.1313 54.8359 20.6448 54.8359 23.7453V49.8704C54.8359 52.9709 57.3494 55.4844 60.4499 55.4844H281.62C284.72 55.4844 287.234 52.9709 287.234 49.8704V23.7453C287.234 20.6448 284.72 18.1313 281.62 18.1313Z" fill="#303030"/>
<path d="M281.62 18.1313H60.4499C57.3494 18.1313 54.8359 20.6448 54.8359 23.7453V49.8704C54.8359 52.9709 57.3494 55.4844 60.4499 55.4844H281.62C284.72 55.4844 287.234 52.9709 287.234 49.8704V23.7453C287.234 20.6448 284.72 18.1313 281.62 18.1313Z" stroke="#484848" stroke-width="0.848933"/>
</g>
<path d="M295.404 32.8853H46.6666C43.1502 32.8853 40.2996 35.7359 40.2996 39.2522V156.541C40.2996 160.057 43.1502 162.908 46.6666 162.908H295.404C298.92 162.908 301.771 160.057 301.771 156.541V39.2522C301.771 35.7359 298.92 32.8853 295.404 32.8853Z" fill="#303030"/>
<path d="M285.217 46.4678H56.8538C55.2128 46.4678 53.8826 47.7981 53.8826 49.439V121.734C53.8826 123.375 55.2128 124.705 56.8538 124.705H285.217C286.858 124.705 288.188 123.375 288.188 121.734V49.439C288.188 47.7981 286.858 46.4678 285.217 46.4678Z" fill="#303030"/>
<path d="M65.3253 64.7198H63.9407L67.0512 56.076H68.558L71.6677 64.7206H70.2839L67.839 57.6473H67.7719L65.3244 64.7206L65.3253 64.7198ZM65.557 61.3351H70.0479V62.4319H65.557V61.3351ZM74.0769 60.8707V64.7198H72.8154V58.2373H74.0268V59.2917H74.1066C74.2561 58.9488 74.4895 58.6729 74.8079 58.4649C75.1279 58.2569 75.532 58.1525 76.0184 58.1525C76.4599 58.1525 76.8478 58.2458 77.1798 58.4309C77.5109 58.6143 77.7689 58.8868 77.9523 59.2501C78.1348 59.6126 78.2265 60.0617 78.2265 60.5965V64.7198H76.9641V60.7476C76.9641 60.2773 76.8419 59.9106 76.5974 59.6457C76.3521 59.3783 76.0159 59.245 75.588 59.245C75.296 59.245 75.0362 59.3079 74.807 59.4352C74.5789 59.5656 74.3932 59.7589 74.2722 59.9921C74.1423 60.234 74.0769 60.5278 74.0769 60.8707ZM82.9449 58.2373V59.2501H79.404V58.2365H82.944L82.9449 58.2373ZM80.3531 56.6838H81.6154V62.8165C81.6154 63.061 81.652 63.2452 81.7258 63.3691C81.798 63.4905 81.8922 63.5729 82.0077 63.6179C82.1265 63.6603 82.2538 63.6816 82.3922 63.6816C82.4932 63.6816 82.5815 63.6748 82.6579 63.6603L82.8354 63.6264L83.0629 64.6689C82.9611 64.7051 82.8566 64.7335 82.7505 64.7538C82.584 64.7881 82.4145 64.8051 82.2445 64.8047C81.9257 64.8127 81.609 64.7519 81.3158 64.6264C81.0333 64.5062 80.7915 64.3069 80.6197 64.0525C80.4414 63.7936 80.3531 63.4693 80.3531 63.078V56.6838ZM87.0019 64.8505C86.3941 64.8505 85.8644 64.7113 85.411 64.4329C84.9553 64.1514 84.5893 63.7459 84.3558 63.2639C84.1054 62.763 83.9797 62.1772 83.9797 61.5074C83.9797 60.8351 84.1054 60.2476 84.3558 59.7434C84.5881 59.2597 84.954 58.8526 85.4102 58.5701C85.8635 58.2917 86.3941 58.1525 87.0019 58.1525C87.6098 58.1525 88.1395 58.2917 88.5928 58.5701C89.0462 58.8486 89.3976 59.2408 89.6481 59.7434C89.8985 60.2476 90.0233 60.8351 90.0233 61.5074C90.0233 62.1781 89.8985 62.763 89.6481 63.2639C89.4146 63.7459 89.0485 64.1514 88.5928 64.4329C88.1395 64.7113 87.6098 64.8505 87.0019 64.8505ZM87.0062 63.7911C87.4001 63.7911 87.7261 63.6875 87.985 63.4787C88.2439 63.2707 88.4349 62.9931 88.5589 62.6467C88.6862 62.3012 88.749 61.92 88.749 61.504C88.749 61.0898 88.6854 60.7103 88.5589 60.3639C88.4496 60.0358 88.2508 59.7447 87.985 59.5235C87.7261 59.3129 87.3992 59.2077 87.0062 59.2077C86.6089 59.2077 86.2803 59.3129 86.018 59.5243C85.7521 59.7461 85.5523 60.0369 85.4407 60.3648C85.3133 60.7309 85.2501 61.1164 85.254 61.504C85.254 61.92 85.3168 62.302 85.4407 62.6476C85.5664 62.9931 85.7599 63.2707 86.018 63.4795C86.2803 63.6875 86.6089 63.7911 87.0062 63.7911ZM92.694 60.8707V64.7198H91.4325V58.2373H92.6439V59.2917H92.7237C92.8695 58.9524 93.1134 58.6644 93.4241 58.4649C93.745 58.2569 94.1491 58.1525 94.6355 58.1525C95.077 58.1525 95.4641 58.2458 95.796 58.4309C96.128 58.6143 96.386 58.8868 96.5686 59.2501C96.7519 59.6126 96.8428 60.0617 96.8428 60.5965V64.7198H95.5821V60.7476C95.5821 60.2773 95.4598 59.9106 95.2145 59.6457C94.97 59.3783 94.6338 59.245 94.206 59.245C93.9131 59.245 93.6533 59.3079 93.425 59.4352C93.1965 59.5654 93.0105 59.7588 92.8893 59.9921C92.7594 60.234 92.6949 60.5269 92.6949 60.8699L92.694 60.8707ZM98.5347 64.7198V58.2373H99.797V64.7198H98.5364H98.5347ZM99.1731 57.2365C98.9629 57.2404 98.7596 57.1618 98.6068 57.0174C98.533 56.9499 98.4743 56.8676 98.4343 56.7759C98.3944 56.6842 98.3742 56.5852 98.3751 56.4852C98.3738 56.3852 98.3938 56.2861 98.4338 56.1945C98.4737 56.1029 98.5327 56.0208 98.6068 55.9537C98.6818 55.8809 98.7704 55.8237 98.8676 55.7852C98.9648 55.7467 99.0686 55.7278 99.1731 55.7296C99.3921 55.7296 99.5797 55.8043 99.7334 55.9537C99.8088 56.02 99.8691 56.1018 99.9101 56.1935C99.9511 56.2852 99.9719 56.3847 99.9711 56.4852C99.9714 56.5856 99.9504 56.6851 99.9094 56.7768C99.8684 56.8686 99.8084 56.9506 99.7334 57.0174C99.5829 57.1617 99.3815 57.2404 99.1731 57.2365ZM103.382 64.8633C102.998 64.8688 102.618 64.7909 102.267 64.6349C101.947 64.4898 101.673 64.2574 101.478 63.9642C101.287 63.6714 101.191 63.3131 101.191 62.8878C101.191 62.5228 101.261 62.2214 101.402 61.9845C101.543 61.7485 101.733 61.5618 101.972 61.4242C102.211 61.2859 102.479 61.1814 102.774 61.111C103.072 61.0402 103.374 60.9866 103.678 60.9505L104.622 60.841C104.864 60.8105 105.04 60.7612 105.15 60.6933C105.26 60.6254 105.315 60.5159 105.315 60.3639V60.3342C105.315 59.9658 105.211 59.6805 105.003 59.4776C104.797 59.2756 104.49 59.1737 104.082 59.1737C103.658 59.1737 103.323 59.268 103.078 59.4564C102.836 59.6432 102.668 59.8495 102.576 60.077L101.39 59.807C101.531 59.4131 101.736 59.0948 102.006 58.8528C102.277 58.6091 102.599 58.4277 102.947 58.3214C103.309 58.2077 103.686 58.1507 104.065 58.1525C104.324 58.1525 104.599 58.1839 104.889 58.2458C105.181 58.3053 105.454 58.4139 105.707 58.5744C105.964 58.7357 106.173 58.9649 106.336 59.262C106.499 59.5583 106.581 59.942 106.581 60.4149V64.7189H105.348V63.8335H105.297C105.217 63.9965 105.094 64.157 104.931 64.3149C104.768 64.4719 104.557 64.6035 104.302 64.7071C104.046 64.8115 103.739 64.8633 103.382 64.8633ZM103.656 63.8505C104.004 63.8505 104.303 63.7817 104.551 63.6434C104.801 63.5058 104.991 63.3259 105.12 63.1034C105.25 62.8854 105.319 62.6359 105.318 62.3818V61.5456C105.274 61.5906 105.187 61.6331 105.057 61.673C104.931 61.7095 104.785 61.7409 104.622 61.7698C104.459 61.7952 104.3 61.819 104.145 61.8411L103.757 61.892C103.529 61.9192 103.304 61.9716 103.087 62.0482C102.886 62.1212 102.726 62.2265 102.605 62.3649C102.486 62.4998 102.427 62.6798 102.427 62.9048C102.427 63.2172 102.543 63.4532 102.774 63.6136C103.004 63.7715 103.299 63.8505 103.656 63.8505ZM114.868 56.076H116.168V62.2044C116.168 62.7588 116.057 63.2325 115.838 63.6264C115.63 64.0121 115.311 64.3267 114.922 64.5296C114.529 64.7351 114.068 64.8378 113.539 64.8378C113.087 64.8452 112.639 64.7545 112.225 64.5721C111.854 64.406 111.536 64.1382 111.31 63.7996C111.088 63.46 110.977 63.0457 110.977 62.5584H112.272C112.272 62.7978 112.327 63.005 112.437 63.179C112.55 63.3539 112.703 63.4905 112.897 63.589C113.094 63.6841 113.319 63.7325 113.572 63.7325C113.848 63.7325 114.081 63.6748 114.273 63.5593C114.471 63.4364 114.626 63.2548 114.716 63.0398C114.818 62.8122 114.868 62.5338 114.868 62.2044V56.076ZM120.695 64.8505C120.087 64.8505 119.558 64.7113 119.104 64.4329C118.649 64.1514 118.283 63.7459 118.049 63.2639C117.799 62.763 117.674 62.1772 117.674 61.5074C117.674 60.8351 117.799 60.2476 118.049 59.7434C118.282 59.2596 118.648 58.8525 119.104 58.5701C119.558 58.2917 120.087 58.1525 120.695 58.1525C121.303 58.1525 121.833 58.2917 122.287 58.5701C122.739 58.8486 123.091 59.2408 123.341 59.7434C123.592 60.2476 123.717 60.8351 123.717 61.5074C123.717 62.1781 123.592 62.763 123.341 63.2639C123.108 63.7458 122.742 64.1513 122.287 64.4329C121.834 64.7113 121.303 64.8505 120.695 64.8505ZM120.699 63.7911C121.093 63.7911 121.42 63.6875 121.679 63.4787C121.937 63.2707 122.129 62.9931 122.253 62.6467C122.383 62.2799 122.447 61.8931 122.442 61.504C122.442 61.0898 122.38 60.7103 122.253 60.3639C122.144 60.0359 121.945 59.7448 121.679 59.5235C121.42 59.3129 121.093 59.2077 120.699 59.2077C120.303 59.2077 119.974 59.3129 119.712 59.5243C119.446 59.746 119.246 60.0368 119.134 60.3648C119.007 60.731 118.944 61.1164 118.948 61.504C118.948 61.92 119.01 62.302 119.134 62.6476C119.261 62.9931 119.453 63.2707 119.711 63.4795C119.974 63.6875 120.303 63.7911 120.699 63.7911ZM126.388 60.8707V64.7198H125.126V58.2373H126.337V59.2917H126.417C126.566 58.9488 126.8 58.6729 127.118 58.4649C127.439 58.2569 127.842 58.1525 128.33 58.1525C128.771 58.1525 129.158 58.2458 129.49 58.4309C129.826 58.618 130.096 58.9041 130.263 59.2501C130.445 59.6126 130.537 60.0617 130.537 60.5965V64.7198H129.275V60.7476C129.275 60.2773 129.152 59.9106 128.908 59.6457C128.662 59.3783 128.326 59.245 127.899 59.245C127.627 59.24 127.358 59.3055 127.118 59.4352C126.889 59.5652 126.703 59.7586 126.582 59.9921C126.453 60.234 126.388 60.5278 126.388 60.8707ZM135.023 64.8505C134.384 64.8505 133.834 64.7147 133.373 64.4413C132.914 64.1654 132.545 63.7623 132.309 63.2809C132.062 62.78 131.938 62.1934 131.938 61.5202C131.938 60.8563 132.062 60.2714 132.309 59.7646C132.541 59.2795 132.904 58.8687 133.356 58.5786C133.806 58.2942 134.332 58.1525 134.934 58.1525C135.3 58.1525 135.655 58.2127 135.998 58.3341C136.341 58.4547 136.649 58.6448 136.923 58.9038C137.195 59.1627 137.411 59.4989 137.568 59.9123C137.726 60.3232 137.805 60.8223 137.805 61.4107V61.858H132.652V60.9123H136.568C136.568 60.5813 136.501 60.2867 136.366 60.0311C136.236 59.7782 136.038 59.5663 135.795 59.4191C135.538 59.2655 135.242 59.1879 134.943 59.1949C134.588 59.1949 134.279 59.2824 134.014 59.4564C133.756 59.6245 133.546 59.8575 133.406 60.1322C133.265 60.4108 133.193 60.719 133.196 61.0312V61.7698C133.196 62.2027 133.271 62.5712 133.423 62.8751C133.579 63.179 133.793 63.4116 134.069 63.5712C134.345 63.7291 134.667 63.808 135.035 63.808C135.275 63.808 135.493 63.7741 135.69 63.7062C135.883 63.6411 136.059 63.5332 136.204 63.3906C136.349 63.248 136.461 63.0744 136.53 62.8827L137.724 63.0992C137.632 63.4452 137.455 63.7629 137.21 64.0237C136.951 64.2941 136.635 64.5029 136.285 64.6349C135.917 64.7792 135.496 64.8505 135.023 64.8505ZM144.062 59.8198L142.919 60.0227C142.868 59.8708 142.791 59.7292 142.691 59.6041C142.58 59.4647 142.439 59.3533 142.277 59.279C142.103 59.1949 141.885 59.1525 141.623 59.1525C141.266 59.1525 140.968 59.2331 140.728 59.3936C140.489 59.5506 140.369 59.7552 140.369 60.0048C140.366 60.1049 140.386 60.2042 140.428 60.2952C140.47 60.3861 140.532 60.466 140.61 60.5286C140.771 60.6611 141.03 60.7689 141.386 60.8538L142.417 61.0898C143.013 61.2281 143.458 61.4404 143.751 61.7273C144.043 62.0143 144.189 62.3869 144.189 62.8462C144.189 63.2342 144.077 63.5805 143.852 63.8844C143.629 64.185 143.318 64.4218 142.919 64.5933C142.522 64.7648 142.062 64.8505 141.538 64.8505C140.812 64.8505 140.221 64.696 139.761 64.3862C139.303 64.0738 139.022 63.6306 138.918 63.0567L140.137 62.8708C140.213 63.1892 140.369 63.4294 140.606 63.5924C140.842 63.7537 141.15 63.8335 141.53 63.8335C141.944 63.8335 142.274 63.7478 142.522 63.5763C142.769 63.4014 142.893 63.1892 142.893 62.9387C142.895 62.8421 142.875 62.7463 142.836 62.658C142.797 62.5697 142.739 62.4911 142.666 62.4277C142.516 62.2902 142.287 62.1857 141.977 62.1153L140.88 61.875C140.275 61.7375 139.828 61.5185 139.538 61.2163C139.251 60.9157 139.108 60.5346 139.108 60.0727C139.108 59.6907 139.215 59.3554 139.429 59.0685C139.643 58.7815 139.938 58.5574 140.315 58.3978C140.692 58.234 141.124 58.1525 141.61 58.1525C142.311 58.1525 142.863 58.3053 143.265 58.6083C143.667 58.9097 143.933 59.3129 144.062 59.8198Z" fill="white"/>
<path d="M149.51 64.2955V56.2688H152.222C152.849 56.2688 153.364 56.3766 153.766 56.5906C154.169 56.8028 154.467 57.0931 154.66 57.465C154.854 57.8351 154.95 58.2579 154.95 58.7299C154.95 59.2036 154.854 59.6221 154.66 59.988C154.467 60.3539 154.17 60.6417 153.77 60.8505C153.371 61.0568 152.86 61.1604 152.238 61.1604H150.044V60.2826H152.207C152.635 60.2826 152.98 60.2198 153.242 60.0941C153.506 59.9685 153.696 59.791 153.814 59.561C153.933 59.3284 153.994 59.0516 153.994 58.7307C154 58.4395 153.939 58.1509 153.814 57.8877C153.689 57.643 153.486 57.447 153.237 57.3308C152.973 57.1984 152.624 57.1313 152.191 57.1313H150.483V64.2955H149.51ZM153.288 60.6901L155.264 64.2955H154.135L152.191 60.6901H153.288ZM158.825 64.4211C158.282 64.4211 157.805 64.2912 157.395 64.0332C156.981 63.7674 156.649 63.391 156.439 62.9465C156.211 62.4822 156.097 61.9388 156.097 61.3166C156.097 60.6901 156.211 60.1425 156.439 59.6747C156.668 59.2078 156.987 58.8436 157.395 58.5856C157.805 58.3266 158.282 58.1976 158.825 58.1976C159.368 58.1976 159.844 58.3266 160.251 58.5856C160.662 58.8436 160.98 59.207 161.208 59.6747C161.438 60.1425 161.553 60.6901 161.553 61.3166C161.553 61.9388 161.438 62.4822 161.208 62.9465C160.998 63.3921 160.667 63.7689 160.251 64.0332C159.844 64.2912 159.368 64.4211 158.825 64.4211ZM158.825 63.5892C159.238 63.5892 159.577 63.4839 159.844 63.2725C160.11 63.0603 160.308 62.7827 160.435 62.438C160.566 62.079 160.631 61.6995 160.628 61.3174C160.628 60.9142 160.564 60.5398 160.435 60.1917C160.32 59.8616 160.115 59.5701 159.844 59.3496C159.577 59.1357 159.238 59.0278 158.825 59.0278C158.412 59.0278 158.073 59.1357 157.806 59.3496C157.535 59.5704 157.33 59.8618 157.215 60.1917C157.086 60.5398 157.023 60.9142 157.023 61.3166C157.023 61.719 157.086 62.0925 157.215 62.4372C157.343 62.7827 157.54 63.0611 157.806 63.2725C158.073 63.4847 158.412 63.5892 158.825 63.5892ZM163.89 56.2688V64.2955H162.964V56.2688H163.89ZM166.509 56.2688V64.2955H165.583V56.2688H166.509ZM170.648 64.4211C170.105 64.4211 169.628 64.2912 169.218 64.0332C168.804 63.7672 168.472 63.3909 168.261 62.9465C168.034 62.4822 167.92 61.9388 167.92 61.3166C167.92 60.6901 168.034 60.1425 168.261 59.6747C168.491 59.2078 168.81 58.8436 169.218 58.5856C169.628 58.3266 170.105 58.1976 170.648 58.1976C171.191 58.1976 171.667 58.3266 172.074 58.5856C172.484 58.8436 172.804 59.207 173.031 59.6747C173.261 60.1425 173.376 60.6901 173.376 61.3166C173.376 61.9388 173.261 62.4822 173.031 62.9465C172.821 63.3919 172.49 63.7687 172.074 64.0332C171.667 64.2912 171.191 64.4211 170.648 64.4211ZM170.648 63.5892C171.061 63.5892 171.4 63.4839 171.667 63.2725C171.938 63.0545 172.142 62.7656 172.258 62.438C172.389 62.079 172.454 61.6994 172.45 61.3174C172.45 60.9142 172.387 60.5398 172.258 60.1917C172.143 59.8618 171.938 59.5704 171.667 59.3496C171.4 59.1357 171.061 59.0278 170.648 59.0278C170.235 59.0278 169.895 59.1357 169.629 59.3496C169.358 59.5704 169.153 59.8618 169.037 60.1917C168.909 60.5398 168.845 60.9142 168.845 61.3166C168.845 61.719 168.909 62.0925 169.037 62.4372C169.165 62.7827 169.363 63.0611 169.629 63.2725C169.895 63.4847 170.235 63.5892 170.648 63.5892ZM178.581 61.8344V58.2757H179.506V64.2946H178.581V63.2759H178.519C178.378 63.5815 178.158 63.8421 177.86 64.0569C177.562 64.2683 177.186 64.3736 176.732 64.3736C176.381 64.3803 176.035 64.2954 175.728 64.1274C175.427 63.9517 175.187 63.6892 175.038 63.3744C174.871 63.0374 174.787 62.6129 174.787 62.101V58.2757H175.712V62.0382C175.712 62.4771 175.835 62.8277 176.08 63.0883C176.329 63.3498 176.645 63.4805 177.029 63.4805C177.259 63.4805 177.493 63.4211 177.731 63.3039C177.971 63.1859 178.172 63.0068 178.334 62.7632C178.499 62.5204 178.581 62.2105 178.581 61.8344ZM183.818 58.2757V59.0593H180.699V58.2757H183.818ZM181.608 56.8334H182.532V62.5713C182.532 62.8319 182.57 63.028 182.646 63.1588C182.725 63.2861 182.823 63.3727 182.944 63.4177C183.067 63.4601 183.196 63.4805 183.332 63.4805C183.434 63.4805 183.518 63.4754 183.583 63.4644L183.739 63.433L183.928 64.2641C183.842 64.2939 183.754 64.3174 183.665 64.3345C183.553 64.36 183.41 64.3736 183.238 64.3736C182.977 64.3736 182.721 64.3175 182.469 64.2055C182.221 64.0926 182.007 63.9153 181.851 63.6919C181.688 63.4627 181.608 63.1723 181.608 62.8217V56.8334ZM188.297 64.2955V63.59L190.947 60.6901C191.258 60.3505 191.514 60.0551 191.715 59.8038C191.916 59.5508 192.065 59.3131 192.162 59.0907C192.261 58.8666 192.31 58.6314 192.31 58.3861C192.31 58.1034 192.242 57.8597 192.107 57.6526C191.972 57.445 191.782 57.2794 191.558 57.1746C191.313 57.0594 191.045 57.0016 190.775 57.0057C190.466 57.0057 190.197 57.0702 189.967 57.1984C189.743 57.3198 189.56 57.5035 189.438 57.7273C189.311 57.9739 189.248 58.2486 189.254 58.5261H188.329C188.329 58.0567 188.437 57.6432 188.654 57.2884C188.868 56.9356 189.174 56.6482 189.54 56.4573C189.916 56.2586 190.338 56.1602 190.806 56.1602C191.276 56.1602 191.693 56.2586 192.056 56.4573C192.419 56.6559 192.704 56.9242 192.91 57.2604C193.117 57.5974 193.219 57.9726 193.219 58.3852C193.219 58.6806 193.166 58.9693 193.059 59.2511C192.955 59.5313 192.772 59.8437 192.511 60.1883C192.252 60.5305 191.893 60.9481 191.432 61.4422L189.63 63.3701V63.433H193.361V64.2955H188.297ZM195.67 63.2683C195.577 63.2695 195.485 63.2518 195.399 63.2162C195.313 63.1806 195.236 63.1278 195.171 63.0611C195.104 62.9966 195.052 62.9191 195.016 62.8334C194.98 62.7477 194.963 62.6556 194.964 62.5628C194.963 62.4701 194.981 62.3782 195.016 62.2926C195.052 62.2071 195.105 62.1297 195.171 62.0653C195.236 61.9985 195.313 61.9456 195.399 61.9098C195.485 61.8741 195.577 61.8562 195.67 61.8573C195.762 61.8562 195.854 61.8741 195.94 61.9098C196.025 61.9456 196.103 61.9985 196.167 62.0653C196.234 62.1297 196.287 62.207 196.322 62.2925C196.358 62.3781 196.376 62.4701 196.375 62.5628C196.372 62.6862 196.338 62.8069 196.277 62.9137C196.215 63.0205 196.127 63.1101 196.022 63.174C195.915 63.2374 195.793 63.27 195.67 63.2683ZM195.67 59.2087C195.577 59.2098 195.485 59.192 195.399 59.1562C195.313 59.1204 195.236 59.0675 195.171 59.0007C195.105 58.9363 195.052 58.8589 195.016 58.7734C194.981 58.6878 194.963 58.5959 194.964 58.5032C194.963 58.4104 194.98 58.3183 195.016 58.2326C195.052 58.1469 195.104 58.0694 195.171 58.0049C195.236 57.9382 195.313 57.8855 195.399 57.8498C195.485 57.8142 195.577 57.7965 195.67 57.7977C195.863 57.7977 196.029 57.8665 196.167 58.0049C196.234 58.0693 196.287 58.1468 196.323 58.2325C196.358 58.3182 196.376 58.4103 196.375 58.5032C196.372 58.6266 196.338 58.7473 196.277 58.8541C196.215 58.9609 196.127 59.0505 196.022 59.1144C195.915 59.1775 195.793 59.2107 195.67 59.2087Z" fill="#6DBDF5"/>
<path d="M204.565 64.2957V58.2759H205.459V59.1851H205.522C205.632 58.888 205.83 58.6452 206.117 58.4601C206.405 58.2742 206.729 58.1817 207.089 58.1817C207.157 58.1817 207.242 58.1834 207.344 58.1859C207.446 58.1885 207.523 58.1927 207.576 58.1978V59.1384C207.504 59.1237 207.432 59.1118 207.36 59.1028C207.245 59.0842 207.128 59.0751 207.011 59.0756C206.739 59.0705 206.469 59.1339 206.228 59.2598C206.005 59.375 205.818 59.5481 205.686 59.7607C205.554 59.9795 205.486 60.231 205.491 60.4865V64.2957H204.565ZM210.934 64.4213C210.391 64.4213 209.914 64.2915 209.504 64.0334C209.09 63.7677 208.759 63.3912 208.548 62.9467C208.32 62.4824 208.207 61.9391 208.207 61.3168C208.207 60.6903 208.32 60.1427 208.548 59.675C208.777 59.208 209.096 58.8439 209.504 58.5858C209.914 58.3269 210.391 58.1978 210.934 58.1978C211.477 58.1978 211.953 58.3269 212.36 58.5858C212.771 58.8439 213.09 59.2072 213.317 59.675C213.547 60.1427 213.662 60.6903 213.662 61.3168C213.662 61.9391 213.547 62.4824 213.317 62.9467C213.108 63.3923 212.776 63.7692 212.36 64.0334C211.953 64.2915 211.477 64.4213 210.934 64.4213ZM210.934 63.5894C211.347 63.5894 211.686 63.4841 211.953 63.2727C212.219 63.0605 212.417 62.7829 212.545 62.4382C212.675 62.0793 212.741 61.6997 212.737 61.3176C212.737 60.9144 212.673 60.54 212.545 60.192C212.429 59.8619 212.224 59.5703 211.953 59.3498C211.686 59.1359 211.347 59.0281 210.934 59.0281C210.522 59.0281 210.182 59.1359 209.915 59.3498C209.644 59.5704 209.439 59.8619 209.324 60.192C209.196 60.54 209.131 60.9144 209.131 61.3168C209.131 61.7192 209.196 62.0927 209.324 62.4374C209.451 62.7829 209.649 63.0614 209.915 63.2727C210.182 63.485 210.522 63.5894 210.934 63.5894ZM215.999 56.269V64.2957H215.074V56.269H215.999ZM218.618 56.269V64.2957H217.692V56.269H218.618ZM222.757 64.4213C222.214 64.4213 221.737 64.2915 221.327 64.0334C220.913 63.7675 220.581 63.3911 220.37 62.9467C220.143 62.4824 220.03 61.9391 220.03 61.3168C220.03 60.6903 220.143 60.1427 220.37 59.675C220.6 59.208 220.919 58.8439 221.327 58.5858C221.737 58.3269 222.214 58.1978 222.757 58.1978C223.301 58.1978 223.776 58.3269 224.183 58.5858C224.593 58.8439 224.913 59.2072 225.14 59.675C225.369 60.1427 225.485 60.6903 225.485 61.3168C225.485 61.9391 225.369 62.4824 225.14 62.9467C224.93 63.3922 224.599 63.7689 224.183 64.0334C223.776 64.2915 223.301 64.4213 222.757 64.4213ZM222.757 63.5894C223.17 63.5894 223.509 63.4841 223.776 63.2727C224.047 63.0548 224.252 62.7658 224.368 62.4382C224.498 62.0792 224.563 61.6996 224.559 61.3176C224.559 60.9144 224.496 60.54 224.368 60.192C224.252 59.8621 224.047 59.5706 223.776 59.3498C223.509 59.1359 223.17 59.0281 222.757 59.0281C222.344 59.0281 222.004 59.1359 221.738 59.3498C221.467 59.5706 221.262 59.8621 221.146 60.192C221.019 60.54 220.954 60.9144 220.954 61.3168C220.954 61.7192 221.019 62.0927 221.146 62.4374C221.274 62.7829 221.471 63.0614 221.738 63.2727C222.004 63.485 222.344 63.5894 222.757 63.5894ZM230.69 61.8346V58.2759H231.615V64.2949H230.69V63.2761H230.628C230.487 63.5817 230.267 63.8424 229.969 64.0572C229.671 64.2685 229.295 64.3738 228.841 64.3738C228.464 64.3738 228.129 64.2915 227.837 64.1276C227.537 63.9519 227.296 63.6894 227.147 63.3746C226.98 63.0376 226.897 62.6131 226.897 62.1012V58.2759H227.821V62.0384C227.821 62.4773 227.944 62.8279 228.19 63.0885C228.438 63.35 228.754 63.4807 229.138 63.4807C229.368 63.4807 229.602 63.4213 229.84 63.3041C230.08 63.1861 230.281 63.007 230.443 62.7634C230.608 62.5206 230.69 62.2107 230.69 61.8346ZM235.927 58.2759V59.0595H232.808V58.2759H235.927ZM233.717 56.8336H234.641V62.5715C234.641 62.8321 234.68 63.0282 234.755 63.159C234.822 63.2772 234.927 63.3687 235.053 63.4179C235.176 63.4604 235.305 63.4807 235.441 63.4807C235.543 63.4807 235.626 63.4756 235.692 63.4646L235.849 63.4332L236.037 64.2643C235.951 64.2941 235.863 64.3177 235.774 64.3348C235.662 64.3602 235.519 64.3738 235.347 64.3738C235.082 64.3729 234.82 64.3156 234.579 64.2057C234.33 64.0928 234.116 63.9155 233.96 63.6921C233.798 63.4629 233.717 63.1726 233.717 62.822V56.8336ZM242.695 64.4213C242.194 64.4213 241.75 64.294 241.367 64.041C240.983 63.7846 240.682 63.4238 240.465 62.9595C240.249 62.4917 240.14 61.9391 240.14 61.3015C240.14 60.6691 240.249 60.1206 240.465 59.6554C240.682 59.1902 240.984 58.8311 241.371 58.5773C241.757 58.3243 242.204 58.1978 242.711 58.1978C243.103 58.1978 243.413 58.2632 243.64 58.3931C243.869 58.5213 244.045 58.6681 244.165 58.832C244.288 58.9941 244.383 59.1274 244.451 59.2318H244.53V56.269H245.454V64.2957H244.56V63.3704H244.451C244.36 63.5131 244.264 63.6519 244.161 63.7863C244.014 63.9687 243.831 64.1192 243.624 64.2286C243.391 64.3568 243.082 64.4213 242.695 64.4213ZM242.821 63.5894C243.192 63.5894 243.505 63.4935 243.762 63.3008C244.017 63.1038 244.212 62.8338 244.346 62.4892C244.479 62.1411 244.545 61.7404 244.545 61.2862C244.545 60.8363 244.48 60.4432 244.349 60.1062C244.218 59.7666 244.026 59.5026 243.769 59.3142C243.513 59.124 243.197 59.0281 242.821 59.0281C242.429 59.0281 242.102 59.1291 241.841 59.3303C241.574 59.5402 241.372 59.8212 241.257 60.141C241.129 60.4806 241.065 60.8626 241.065 61.2862C241.065 61.7141 241.131 62.1038 241.261 62.4535C241.394 62.8016 241.59 63.0783 241.849 63.2846C242.11 63.4884 242.434 63.5894 242.821 63.5894ZM249.722 64.4213C249.179 64.4213 248.702 64.2915 248.291 64.0334C247.878 63.7674 247.547 63.391 247.336 62.9467C247.108 62.4824 246.994 61.9391 246.994 61.3168C246.994 60.6903 247.108 60.1427 247.336 59.675C247.546 59.2296 247.877 58.8522 248.291 58.5858C248.702 58.3269 249.179 58.1978 249.722 58.1978C250.266 58.1978 250.741 58.3269 251.149 58.5858C251.559 58.8439 251.877 59.2072 252.105 59.675C252.335 60.1427 252.449 60.6903 252.449 61.3168C252.449 61.9391 252.335 62.4824 252.105 62.9467C251.895 63.3921 251.564 63.7689 251.149 64.0334C250.741 64.2915 250.266 64.4213 249.722 64.4213ZM249.722 63.5894C250.135 63.5894 250.475 63.4841 250.741 63.2727C251.012 63.0548 251.217 62.7658 251.333 62.4382C251.464 62.0792 251.529 61.6996 251.525 61.3176C251.525 60.9144 251.461 60.54 251.333 60.192C251.217 59.8621 251.013 59.5706 250.741 59.3498C250.475 59.1359 250.135 59.0281 249.722 59.0281C249.309 59.0281 248.97 59.1359 248.703 59.3498C248.432 59.5706 248.227 59.8621 248.111 60.192C247.983 60.54 247.92 60.9144 247.92 61.3168C247.92 61.7192 247.983 62.0927 248.111 62.4374C248.24 62.7829 248.437 63.0614 248.703 63.2727C248.97 63.485 249.309 63.5894 249.722 63.5894ZM254.787 60.6742V64.2957H253.862V58.2759H254.755V59.2165H254.833C254.975 58.9109 255.189 58.6647 255.477 58.4797C255.764 58.292 256.135 58.1978 256.59 58.1978C256.997 58.1978 257.354 58.281 257.659 58.4483C257.965 58.6129 258.203 58.8642 258.372 59.2004C258.542 59.5349 258.627 59.9585 258.627 60.4704V64.2957H257.703V60.5332C257.703 60.0604 257.58 59.6928 257.334 59.4279C257.088 59.1614 256.751 59.0289 256.323 59.0289C256.047 59.024 255.774 59.0901 255.531 59.2208C255.301 59.3481 255.119 59.5349 254.986 59.7811C254.853 60.0264 254.787 60.3244 254.787 60.6742ZM262.841 64.4213C262.261 64.4213 261.761 64.2932 261.34 64.0368C260.921 63.7767 260.585 63.4012 260.373 62.9552C260.148 62.49 260.036 61.9493 260.036 61.3329C260.036 60.7158 260.148 60.1724 260.373 59.703C260.599 59.2293 260.916 58.8608 261.321 58.5968C261.728 58.3311 262.204 58.1978 262.747 58.1978C263.061 58.1978 263.37 58.2496 263.676 58.354C263.981 58.4584 264.26 58.6282 264.511 58.8634C264.762 59.096 264.962 59.405 265.11 59.7887C265.259 60.1724 265.334 60.6461 265.334 61.2073V61.5995H260.693V60.7998H264.393C264.393 60.4602 264.325 60.1572 264.189 59.8906C264.062 59.6307 263.863 59.412 263.617 59.2598C263.355 59.101 263.053 59.0206 262.747 59.0281C262.379 59.0281 262.06 59.1198 261.791 59.3031C261.528 59.4797 261.315 59.7228 261.176 60.0077C261.032 60.2979 260.958 60.6177 260.96 60.9416V61.4738C260.96 61.9289 261.038 62.3143 261.195 62.6301C261.355 62.9442 261.576 63.1819 261.857 63.3474C262.14 63.5087 262.468 63.5902 262.841 63.5902C263.084 63.5902 263.304 63.5563 263.5 63.4884C263.692 63.422 263.867 63.3148 264.013 63.1743C264.157 63.0333 264.267 62.8585 264.346 62.6496L265.239 62.9001C265.147 63.2005 264.985 63.4746 264.766 63.6997C264.533 63.9343 264.252 64.1161 263.942 64.2329C263.59 64.363 263.217 64.4269 262.841 64.4213Z" fill="#D8D8D8"/>
<path d="M65.8559 82.5474L64.0222 76.5276H64.9934L66.2948 81.1365H66.3576L67.6429 76.5276H68.6302L69.9002 81.1204H69.963L71.2636 76.5276H72.2356L70.4019 82.5466H69.4927L68.176 77.9224H68.0818L66.7651 82.5474H65.8559ZM75.2298 82.6883C74.8487 82.6883 74.5023 82.6162 74.1916 82.4727C73.8908 82.3353 73.6342 82.1169 73.4505 81.8419C73.2679 81.5652 73.1763 81.2307 73.1763 80.8385C73.1763 80.4938 73.2442 80.2145 73.38 79.9998C73.5158 79.7833 73.6975 79.6135 73.925 79.4904C74.1616 79.3642 74.4148 79.2719 74.6772 79.2162C74.9548 79.1534 75.2324 79.1041 75.5125 79.0676C75.8776 79.0201 76.1747 78.9853 76.4022 78.9615C76.6314 78.936 76.7987 78.8919 76.9031 78.8316C77.0109 78.7722 77.0644 78.6678 77.0644 78.5184V78.487C77.0644 78.1007 76.9583 77.7993 76.7469 77.5854C76.538 77.3715 76.2205 77.2645 75.7944 77.2645C75.3529 77.2645 75.0066 77.3613 74.7561 77.554C74.5048 77.7475 74.3283 77.9538 74.2272 78.1737L73.3486 77.8596C73.5056 77.4946 73.7145 77.2093 73.976 77.0056C74.2391 76.7993 74.5278 76.6558 74.8385 76.5743C75.1402 76.4927 75.4512 76.4507 75.7638 76.4495C75.9565 76.4495 76.1789 76.4724 76.4294 76.52C76.6832 76.5641 76.9268 76.6567 77.162 76.7984C77.3997 76.9394 77.5975 77.1524 77.7537 77.4368C77.9108 77.7221 77.9889 78.1032 77.9889 78.5812V82.5474H77.0635V81.7324H77.0168C76.9358 81.8882 76.83 82.0299 76.7036 82.1518C76.5353 82.315 76.337 82.4439 76.1195 82.5313C75.8767 82.6365 75.5804 82.6883 75.2298 82.6883ZM75.3707 81.8572C75.7366 81.8572 76.0448 81.7859 76.2961 81.6416C76.5259 81.5169 76.7183 81.3332 76.8533 81.1093C76.9884 80.8855 77.0612 80.6296 77.0644 80.3682V79.5218C77.0253 79.5685 76.9387 79.6118 76.8054 79.6509C76.6559 79.6917 76.5043 79.7246 76.3513 79.7493C76.0567 79.7948 75.7612 79.8339 75.465 79.8665C75.2358 79.8953 75.0101 79.9465 74.7909 80.0193C74.5846 80.0872 74.4174 80.1908 74.2901 80.3291C74.1644 80.465 74.1016 80.65 74.1016 80.8852C74.1016 81.2078 74.2204 81.4497 74.4581 81.6153C74.6984 81.7766 75.0032 81.8572 75.3707 81.8572ZM79.6774 82.5474V76.5276H80.6027V82.5466L79.6774 82.5474ZM80.1477 75.5242C79.9738 75.527 79.8059 75.4607 79.6808 75.34C79.6195 75.2838 79.5708 75.2155 79.5378 75.1393C79.5047 75.063 79.4881 74.9807 79.4889 74.8977C79.4889 74.7245 79.5534 74.5776 79.6816 74.4545C79.8065 74.334 79.9741 74.2677 80.1477 74.2703C80.3277 74.2703 80.4822 74.3314 80.6104 74.4545C80.6726 74.5102 80.7222 74.5786 80.7559 74.655C80.7896 74.7314 80.8065 74.8142 80.8056 74.8977C80.8064 74.981 80.7894 75.0636 80.7557 75.1399C80.7221 75.2162 80.6725 75.2844 80.6104 75.34C80.5493 75.3998 80.477 75.447 80.3975 75.4786C80.3181 75.5102 80.2332 75.5257 80.1477 75.5242ZM84.9144 76.5276V77.3112H81.7946V76.5276H84.9144ZM82.7038 75.0853H83.6292V80.8232C83.6292 81.0838 83.6665 81.28 83.7421 81.4107C83.821 81.538 83.9203 81.6246 84.04 81.6696C84.1631 81.7121 84.2922 81.7324 84.428 81.7324C84.5299 81.7324 84.6139 81.7265 84.6793 81.7163L84.8355 81.6849L85.024 82.516C84.938 82.5458 84.8501 82.5694 84.7608 82.5865C84.6487 82.6119 84.5061 82.6255 84.3338 82.6255C84.0732 82.6255 83.8168 82.5695 83.5663 82.4574C83.3175 82.3448 83.1035 82.1674 82.9466 81.9438C82.7853 81.7146 82.7038 81.4234 82.7038 81.0737V75.0853ZM86.305 82.5474V76.5276H87.2303V82.5466L86.305 82.5474ZM86.7753 75.5242C86.6017 75.5268 86.4342 75.4605 86.3092 75.34C86.248 75.2838 86.1993 75.2155 86.1662 75.1393C86.1332 75.063 86.1165 74.9807 86.1174 74.8977C86.1174 74.7245 86.1811 74.5776 86.3092 74.4545C86.4344 74.3338 86.6023 74.2675 86.7762 74.2703C86.9561 74.2703 87.1098 74.3314 87.238 74.4545C87.3004 74.5101 87.3502 74.5784 87.384 74.6549C87.4178 74.7313 87.4349 74.8141 87.4341 74.8977C87.4349 74.981 87.4179 75.0636 87.3842 75.1399C87.3505 75.2162 87.301 75.2844 87.2388 75.34C87.1777 75.3999 87.1052 75.4471 87.0256 75.4787C86.946 75.5104 86.8609 75.5258 86.7753 75.5242ZM89.8484 78.9259V82.5474H88.924V76.5276H89.8179V77.4682H89.896C90.0378 77.1626 90.2517 76.9164 90.5386 76.7314C90.8264 76.5429 91.1974 76.4495 91.6516 76.4495C92.0591 76.4495 92.4156 76.5327 92.7212 76.7C93.0268 76.8647 93.2654 77.1159 93.4352 77.4521C93.605 77.7866 93.6899 78.2102 93.6899 78.7221V82.5474H92.7645V78.7849C92.7645 78.3121 92.6423 77.9445 92.3969 77.6796C92.1507 77.4131 91.8137 77.2806 91.3859 77.2806C91.1098 77.2757 90.837 77.3418 90.5938 77.4725C90.3646 77.5998 90.1821 77.7866 90.0488 78.0328C89.9155 78.2781 89.8484 78.5761 89.8484 78.9259ZM97.8097 84.9304C97.3632 84.9304 96.9786 84.8726 96.6577 84.758C96.3639 84.6611 96.091 84.5093 95.8538 84.3106C95.6552 84.143 95.4847 83.9446 95.3487 83.7232L96.0855 83.2053C96.1687 83.3157 96.2749 83.4413 96.403 83.5823C96.5304 83.7257 96.7061 83.8497 96.9277 83.9541C97.1527 84.0611 97.4464 84.1154 97.8106 84.1154C98.2962 84.1154 98.6969 83.9974 99.0127 83.7622C99.3293 83.5271 99.4872 83.1595 99.4872 82.6569V81.4345H99.4091C99.3412 81.5448 99.2444 81.6806 99.1188 81.8419C98.9729 82.02 98.7913 82.1655 98.5857 82.269C98.3564 82.3921 98.0449 82.4532 97.6527 82.4532C97.1933 82.46 96.7408 82.3408 96.3445 82.1085C95.9599 81.8784 95.656 81.544 95.431 81.1051C95.2086 80.6662 95.0982 80.133 95.0982 79.5057C95.0982 78.8894 95.2061 78.3528 95.4234 77.8953C95.6399 77.436 95.9412 77.0803 96.3283 76.8298C96.7155 76.5752 97.162 76.4495 97.6688 76.4495C98.061 76.4495 98.3717 76.5149 98.6018 76.6448C98.8344 76.773 99.0118 76.9198 99.1341 77.0837C99.2597 77.2458 99.3565 77.3791 99.4244 77.4835H99.5178V76.5276H100.412V82.7197C100.412 83.2376 100.295 83.6578 100.059 83.9821C99.8249 84.3099 99.4971 84.5596 99.1188 84.6986C98.7009 84.8576 98.2568 84.9362 97.8097 84.9304ZM97.7783 81.6221C98.1493 81.6221 98.4634 81.5372 98.7189 81.3674C98.9753 81.1976 99.1697 80.9531 99.303 80.6348C99.4363 80.3164 99.5034 79.9344 99.5034 79.4904C99.5034 79.0574 99.4371 78.6737 99.3073 78.3418C99.1925 78.0317 98.9909 77.7612 98.7266 77.5625C98.4711 77.374 98.1544 77.2798 97.7783 77.2798C97.387 77.2798 97.0601 77.3791 96.7987 77.5778C96.5335 77.785 96.3313 78.0619 96.2146 78.3775C96.0828 78.7335 96.0178 79.1108 96.0227 79.4904C96.0227 79.9081 96.0881 80.2782 96.218 80.5991C96.3521 80.9183 96.5482 81.1687 96.8063 81.3521C97.0678 81.5321 97.3921 81.6221 97.7783 81.6221ZM107.889 76.5276V77.3112H104.644V76.5276H107.889ZM105.617 82.5466V75.6974C105.617 75.3527 105.698 75.0649 105.859 74.8357C106.018 74.6084 106.237 74.4292 106.491 74.3179C106.749 74.2031 107.028 74.1444 107.31 74.1455C107.537 74.1455 107.723 74.1642 107.866 74.2007C108.011 74.2372 108.117 74.2712 108.188 74.3026L107.921 75.1023C107.856 75.081 107.791 75.0612 107.725 75.0428C107.62 75.0166 107.512 75.0049 107.404 75.008C107.098 75.008 106.877 75.0844 106.741 75.2389C106.608 75.3935 106.542 75.6193 106.542 75.9172V82.5474L105.617 82.5466ZM111.383 82.673C110.84 82.673 110.363 82.5432 109.953 82.2851C109.539 82.0192 109.208 81.6428 108.997 81.1985C108.769 80.7341 108.656 80.1908 108.656 79.5685C108.656 78.942 108.769 78.3944 108.997 77.9267C109.226 77.4598 109.545 77.0956 109.953 76.8375C110.363 76.5786 110.84 76.4495 111.383 76.4495C111.927 76.4495 112.402 76.5786 112.81 76.8375C113.22 77.0956 113.54 77.4589 113.766 77.9267C113.996 78.3944 114.111 78.942 114.111 79.5685C114.111 80.1908 113.996 80.7341 113.766 81.1985C113.557 81.6439 113.225 82.0207 112.81 82.2851C112.403 82.5432 111.927 82.673 111.383 82.673ZM111.383 81.8411C111.797 81.8411 112.136 81.7358 112.402 81.5244C112.669 81.3122 112.866 81.0346 112.995 80.6899C113.122 80.3444 113.186 79.9709 113.186 79.5694C113.186 79.1661 113.122 78.7917 112.995 78.4445C112.879 78.1143 112.674 77.8226 112.403 77.6015C112.136 77.3876 111.797 77.2798 111.384 77.2798C110.971 77.2798 110.631 77.3867 110.365 77.6015C110.093 77.8225 109.889 78.1143 109.773 78.4445C109.646 78.7917 109.581 79.1661 109.581 79.5685C109.581 79.9709 109.645 80.3444 109.773 80.6891C109.9 81.0346 110.098 81.3131 110.365 81.5244C110.631 81.7367 110.971 81.8411 111.383 81.8411ZM115.523 82.5474V76.5276H116.417V77.4368H116.479C116.59 77.1397 116.788 76.8978 117.075 76.7118C117.362 76.5268 117.687 76.4334 118.047 76.4334C118.115 76.4334 118.199 76.4351 118.301 76.4376C118.403 76.4402 118.48 76.4436 118.533 76.4495V77.3901C118.462 77.3754 118.39 77.3635 118.317 77.3545C118.202 77.3359 118.086 77.3268 117.969 77.3273C117.697 77.3225 117.427 77.3858 117.185 77.5115C116.957 77.6312 116.777 77.7985 116.644 78.0124C116.513 78.2246 116.448 78.4666 116.448 78.7382V82.5474H115.523ZM122.734 82.5474V76.5276H123.658V82.5466L122.734 82.5474ZM123.204 75.5242C123.03 75.5269 122.862 75.4607 122.737 75.34C122.676 75.2839 122.627 75.2155 122.594 75.1393C122.561 75.0631 122.544 74.9807 122.545 74.8977C122.545 74.7245 122.609 74.5776 122.737 74.4545C122.862 74.3338 123.03 74.2676 123.204 74.2703C123.384 74.2703 123.538 74.3314 123.666 74.4545C123.728 74.5101 123.778 74.5784 123.812 74.6549C123.846 74.7313 123.863 74.8141 123.862 74.8977C123.862 74.9811 123.845 75.0637 123.812 75.14C123.778 75.2163 123.728 75.2845 123.666 75.34C123.605 75.3999 123.533 75.447 123.453 75.4786C123.374 75.5103 123.289 75.5257 123.204 75.5242ZM126.277 78.9259V82.5474H125.353V76.5276H126.246V77.4682H126.324C126.465 77.1626 126.679 76.9164 126.967 76.7314C127.254 76.5429 127.625 76.4495 128.08 76.4495C128.488 76.4495 128.844 76.5327 129.15 76.7C129.455 76.8647 129.693 77.1159 129.863 77.4521C130.033 77.7866 130.118 78.2102 130.118 78.7221V82.5474H129.193V78.7849C129.193 78.3121 129.07 77.9445 128.825 77.6796C128.578 77.4131 128.241 77.2806 127.814 77.2806C127.537 77.2757 127.265 77.3418 127.022 77.4725C126.789 77.6023 126.6 77.7971 126.477 78.0328C126.344 78.2781 126.277 78.5761 126.277 78.9259ZM136.072 77.8757L135.241 78.1109C135.185 77.9655 135.107 77.8295 135.01 77.7076C134.902 77.5672 134.762 77.4544 134.602 77.3783C134.43 77.2917 134.209 77.2484 133.939 77.2484C133.571 77.2484 133.265 77.3333 133.019 77.503C132.776 77.6711 132.654 77.8834 132.654 78.1423C132.654 78.3715 132.738 78.554 132.905 78.6873C133.073 78.8206 133.333 78.931 133.689 79.0201L134.583 79.24C135.121 79.3699 135.522 79.5702 135.786 79.8393C136.05 80.1059 136.181 80.4497 136.181 80.8699C136.186 81.2026 136.081 81.5275 135.884 81.7953C135.687 82.0669 135.413 82.2808 135.061 82.4379C134.708 82.5941 134.298 82.673 133.83 82.673C133.216 82.673 132.708 82.5398 132.305 82.2732C131.903 82.0066 131.648 81.617 131.541 81.1051L132.419 80.8852C132.503 81.2095 132.661 81.4523 132.894 81.6153C133.129 81.7766 133.435 81.8572 133.815 81.8572C134.246 81.8572 134.588 81.7664 134.841 81.583C135.097 81.3979 135.226 81.1755 135.226 80.9175C135.228 80.8192 135.209 80.7216 135.172 80.6309C135.134 80.5402 135.077 80.4585 135.006 80.3911C134.86 80.2485 134.635 80.1407 134.332 80.0702L133.328 79.8351C132.777 79.7043 132.372 79.5023 132.113 79.2281C131.858 78.9513 131.73 78.605 131.73 78.189C131.73 77.8494 131.825 77.5489 132.016 77.2883C132.22 77.0179 132.492 76.8058 132.804 76.6728C133.138 76.5234 133.517 76.4495 133.939 76.4495C134.535 76.4495 135.003 76.5803 135.343 76.8409C135.685 77.1024 135.929 77.4462 136.072 77.8757ZM140.192 76.5276V77.3112H137.072V76.5276H140.192ZM137.981 75.0853H138.907V80.8232C138.907 81.0838 138.944 81.28 139.02 81.4107C139.087 81.5283 139.192 81.6196 139.317 81.6696C139.441 81.7121 139.57 81.7324 139.705 81.7324C139.807 81.7324 139.891 81.7265 139.957 81.7163L140.114 81.6849L140.301 82.516C140.216 82.5457 140.128 82.5693 140.039 82.5865C139.926 82.6119 139.784 82.6255 139.612 82.6255C139.347 82.6249 139.085 82.5676 138.844 82.4574C138.595 82.3448 138.381 82.1674 138.224 81.9438C138.063 81.7146 137.981 81.4234 137.981 81.0737V75.0853ZM143.354 82.6883C142.996 82.6933 142.642 82.6197 142.316 82.4727C142.015 82.335 141.759 82.1167 141.575 81.8419C141.392 81.5652 141.301 81.2307 141.301 80.8385C141.301 80.4938 141.368 80.2145 141.504 79.9998C141.64 79.7833 141.822 79.6135 142.049 79.4904C142.286 79.3642 142.539 79.2719 142.801 79.2162C143.077 79.1538 143.356 79.1042 143.637 79.0676C144.003 79.0201 144.299 78.9853 144.526 78.9615C144.757 78.936 144.924 78.8919 145.028 78.8316C145.135 78.7722 145.189 78.6678 145.189 78.5184V78.487C145.189 78.1007 145.083 77.7993 144.871 77.5854C144.662 77.3715 144.345 77.2645 143.919 77.2645C143.477 77.2645 143.131 77.3613 142.88 77.554C142.629 77.7475 142.453 77.9538 142.352 78.1737L141.473 77.8596C141.63 77.4946 141.839 77.2093 142.1 77.0056C142.355 76.8037 142.649 76.6569 142.963 76.5743C143.264 76.4925 143.575 76.4506 143.887 76.4495C144.081 76.4495 144.303 76.4724 144.554 76.52C144.807 76.5641 145.051 76.6567 145.286 76.7984C145.524 76.9394 145.722 77.1524 145.878 77.4368C146.035 77.7221 146.113 78.1032 146.113 78.5812V82.5474H145.189V81.7324H145.141C145.06 81.8885 144.955 82.0302 144.828 82.1518C144.66 82.3152 144.461 82.4441 144.244 82.5313C144.001 82.6365 143.705 82.6883 143.354 82.6883ZM143.496 81.8572C143.861 81.8572 144.17 81.7859 144.42 81.6416C144.65 81.5171 144.843 81.3335 144.978 81.1095C145.113 80.8856 145.186 80.6297 145.189 80.3682V79.5218C145.15 79.5685 145.063 79.6118 144.93 79.6509C144.78 79.6917 144.629 79.7246 144.476 79.7493C144.181 79.7948 143.886 79.8339 143.589 79.8665C143.36 79.8954 143.134 79.9466 142.915 80.0193C142.709 80.0872 142.542 80.1908 142.413 80.3291C142.289 80.465 142.226 80.65 142.226 80.8852C142.226 81.2078 142.345 81.4497 142.582 81.6153C142.823 81.7766 143.127 81.8572 143.496 81.8572ZM148.726 78.9259V82.5474H147.802V76.5276H148.695V77.4682H148.774C148.915 77.1626 149.129 76.9164 149.416 76.7314C149.703 76.5429 150.074 76.4495 150.529 76.4495C150.937 76.4495 151.293 76.5327 151.599 76.7C151.905 76.8647 152.142 77.1159 152.312 77.4521C152.483 77.7866 152.568 78.2102 152.568 78.7221V82.5474H151.642V78.7849C151.642 78.3121 151.519 77.9445 151.274 77.6796C151.028 77.4131 150.691 77.2806 150.263 77.2806C149.967 77.2806 149.703 77.3443 149.472 77.4725C149.241 77.5998 149.06 77.7866 148.927 78.0328C148.793 78.2781 148.726 78.5761 148.726 78.9259ZM156.703 82.673C156.138 82.673 155.653 82.5398 155.245 82.2732C154.834 82.0025 154.508 81.6207 154.305 81.1721C154.085 80.7044 153.975 80.1704 153.975 79.5685C153.975 78.9573 154.087 78.4182 154.312 77.9504C154.52 77.5027 154.848 77.1215 155.26 76.8494C155.668 76.5828 156.143 76.4495 156.687 76.4495C157.11 76.4495 157.492 76.5276 157.832 76.6847C158.171 76.8409 158.45 77.0608 158.666 77.3426C158.883 77.6253 159.018 77.9538 159.07 78.3308H158.145C158.067 78.0447 157.903 77.7896 157.675 77.6007C157.435 77.3867 157.11 77.2798 156.703 77.2798C156.365 77.2729 156.033 77.3717 155.754 77.5625C155.475 77.761 155.256 78.0339 155.124 78.3503C154.974 78.6873 154.9 79.0829 154.9 79.5371C154.9 80.0023 154.973 80.4072 155.119 80.7528C155.268 81.0974 155.478 81.3648 155.747 81.5559C156.018 81.7469 156.337 81.8419 156.703 81.8419C156.943 81.8419 157.161 81.7995 157.357 81.7163C157.552 81.6346 157.725 81.5082 157.861 81.3475C157.998 81.1868 158.095 80.9961 158.145 80.791H159.07C159.021 81.1384 158.888 81.4685 158.682 81.752C158.478 82.0338 158.208 82.2588 157.871 82.426C157.536 82.5907 157.147 82.673 156.703 82.673ZM162.946 82.673C162.366 82.673 161.866 82.5449 161.445 82.2885C161.025 82.028 160.69 81.6526 160.477 81.2069C160.252 80.7417 160.14 80.201 160.14 79.5846C160.14 78.9675 160.252 78.4241 160.477 77.9547C160.705 77.481 161.02 77.1125 161.425 76.8494C161.833 76.5828 162.308 76.4495 162.852 76.4495C163.166 76.4495 163.475 76.5013 163.78 76.6057C164.087 76.7101 164.364 76.8808 164.616 77.1151C164.866 77.3477 165.066 77.6567 165.215 78.0404C165.364 78.4241 165.438 78.8978 165.438 79.459V79.8512H160.798V79.0515H164.498C164.498 78.7119 164.43 78.4089 164.294 78.1423C164.167 77.8822 163.968 77.6635 163.722 77.5115C163.46 77.3527 163.158 77.2723 162.852 77.2798C162.483 77.2798 162.165 77.3715 161.896 77.554C161.629 77.7348 161.424 77.97 161.28 78.2603C161.137 78.55 161.063 78.8692 161.065 79.1924V79.7256C161.065 80.1806 161.143 80.566 161.3 80.8818C161.459 81.1959 161.68 81.4336 161.962 81.5992C162.245 81.7604 162.572 81.8419 162.946 81.8419C163.189 81.8419 163.408 81.808 163.605 81.7401C163.803 81.6696 163.974 81.5652 164.117 81.426C164.262 81.285 164.373 81.1102 164.451 80.9013L165.344 81.1518C165.252 81.4522 165.089 81.7263 164.87 81.9515C164.637 82.186 164.356 82.3678 164.047 82.4846C163.695 82.6147 163.321 82.6786 162.946 82.673ZM172.568 76.5276V77.3112H169.448V76.5276H172.568ZM170.357 75.0853H171.281V80.8232C171.281 81.0838 171.32 81.28 171.395 81.4107C171.474 81.538 171.573 81.6246 171.693 81.6696C171.816 81.7121 171.945 81.7324 172.081 81.7324C172.183 81.7324 172.267 81.7265 172.332 81.7163L172.489 81.6849L172.677 82.516C172.591 82.5457 172.504 82.5693 172.415 82.5865C172.274 82.6149 172.131 82.628 171.987 82.6255C171.722 82.6248 171.46 82.5675 171.219 82.4574C170.971 82.3448 170.757 82.1674 170.6 81.9438C170.438 81.7146 170.357 81.4234 170.357 81.0737V75.0853ZM176.339 82.673C175.796 82.673 175.319 82.5432 174.909 82.2851C174.495 82.0194 174.164 81.6429 173.953 81.1985C173.726 80.7341 173.612 80.1908 173.612 79.5685C173.612 78.942 173.726 78.3944 173.953 77.9267C174.182 77.4598 174.501 77.0956 174.909 76.8375C175.319 76.5786 175.796 76.4495 176.339 76.4495C176.883 76.4495 177.358 76.5786 177.766 76.8375C178.176 77.0956 178.495 77.4589 178.722 77.9267C178.952 78.3944 179.067 78.942 179.067 79.5685C179.067 80.1908 178.952 80.7341 178.722 81.1985C178.513 81.644 178.181 82.0209 177.766 82.2851C177.358 82.5432 176.883 82.673 176.339 82.673ZM176.339 81.8411C176.752 81.8411 177.092 81.7358 177.358 81.5244C177.625 81.3122 177.822 81.0346 177.95 80.6899C178.081 80.331 178.146 79.9514 178.143 79.5694C178.143 79.1661 178.078 78.7917 177.95 78.4445C177.822 78.0965 177.625 77.8163 177.358 77.6015C177.092 77.3876 176.752 77.2798 176.339 77.2798C175.927 77.2798 175.587 77.3867 175.321 77.6015C175.049 77.8223 174.844 78.1142 174.729 78.4445C174.601 78.7917 174.536 79.1661 174.536 79.5685C174.536 79.9709 174.601 80.3444 174.729 80.6891C174.856 81.0346 175.054 81.3131 175.321 81.5244C175.587 81.7367 175.927 81.8411 176.339 81.8411ZM187.847 77.8766L187.016 78.1109C186.96 77.9655 186.882 77.8295 186.785 77.7076C186.677 77.5672 186.537 77.4544 186.377 77.3783C186.205 77.2917 185.984 77.2484 185.715 77.2484C185.347 77.2484 185.039 77.3333 184.794 77.503C184.551 77.6711 184.43 77.8834 184.43 78.1423C184.43 78.3715 184.513 78.554 184.68 78.6873C184.847 78.8206 185.109 78.931 185.464 79.0201L186.358 79.24C186.896 79.3699 187.297 79.5702 187.561 79.8393C187.825 80.1059 187.956 80.4497 187.956 80.8699C187.96 81.2026 187.856 81.5275 187.658 81.7953C187.463 82.0669 187.189 82.2808 186.836 82.4379C186.483 82.5941 186.072 82.673 185.605 82.673C184.991 82.673 184.483 82.5398 184.081 82.2732C183.678 82.0066 183.424 81.617 183.316 81.1051L184.195 80.8852C184.278 81.2095 184.436 81.4523 184.668 81.6153C184.903 81.7766 185.211 81.8572 185.589 81.8572C186.021 81.8572 186.363 81.7664 186.617 81.583C186.872 81.3979 187 81.1755 187 80.9175C187.003 80.8192 186.984 80.7215 186.947 80.6308C186.909 80.5401 186.852 80.4584 186.78 80.3911C186.634 80.2485 186.409 80.1407 186.106 80.0702L185.104 79.8351C184.552 79.7043 184.147 79.5023 183.888 79.2281C183.633 78.9513 183.504 78.605 183.504 78.189C183.504 77.8494 183.599 77.5489 183.79 77.2883C183.995 77.0179 184.267 76.8058 184.578 76.6728C184.913 76.5234 185.291 76.4495 185.715 76.4495C186.31 76.4495 186.778 76.5803 187.117 76.8409C187.46 77.1024 187.703 77.447 187.847 77.8766ZM191.967 76.5276V77.3112H188.847V76.5276H191.967ZM189.756 75.0853H190.681V80.8232C190.681 81.0838 190.719 81.28 190.795 81.4107C190.861 81.5289 190.967 81.6204 191.093 81.6696C191.215 81.7121 191.345 81.7324 191.481 81.7324C191.583 81.7324 191.666 81.7265 191.731 81.7163L191.888 81.6849L192.076 82.516C191.99 82.5459 191.903 82.5694 191.814 82.5865C191.702 82.6119 191.559 82.6255 191.387 82.6255C191.122 82.6246 190.86 82.5673 190.618 82.4574C190.37 82.3446 190.156 82.1672 190 81.9438C189.837 81.7146 189.756 81.4234 189.756 81.0737V75.0853ZM195.13 82.6883C194.748 82.6883 194.402 82.6162 194.091 82.4727C193.79 82.3352 193.534 82.1168 193.35 81.8419C193.167 81.5652 193.076 81.2307 193.076 80.8385C193.076 80.4938 193.144 80.2145 193.28 79.9998C193.416 79.7833 193.597 79.6135 193.824 79.4904C194.061 79.3642 194.314 79.2719 194.577 79.2162C194.854 79.1534 195.132 79.1041 195.412 79.0676C195.777 79.0201 196.074 78.9853 196.301 78.9615C196.531 78.936 196.698 78.8919 196.803 78.8316C196.91 78.7722 196.963 78.6678 196.963 78.5184V78.487C196.963 78.1007 196.858 77.7993 196.646 77.5854C196.437 77.3715 196.12 77.2645 195.693 77.2645C195.252 77.2645 194.906 77.3613 194.655 77.554C194.405 77.7475 194.228 77.9538 194.126 78.1737L193.248 77.8596C193.405 77.4946 193.614 77.2093 193.875 77.0056C194.139 76.7993 194.427 76.6558 194.737 76.5743C195.039 76.4925 195.35 76.4506 195.662 76.4495C195.855 76.4495 196.078 76.4724 196.328 76.52C196.582 76.5641 196.827 76.6567 197.062 76.7984C197.3 76.9394 197.496 77.1524 197.654 77.4368C197.81 77.7221 197.889 78.1032 197.889 78.5812V82.5474H196.963V81.7324H196.917C196.835 81.8883 196.729 82.03 196.603 82.1518C196.435 82.315 196.237 82.4439 196.019 82.5313C195.776 82.6365 195.479 82.6883 195.13 82.6883ZM195.271 81.8572C195.636 81.8572 195.945 81.7859 196.195 81.6416C196.434 81.513 196.632 81.3204 196.767 81.0855C196.895 80.8681 196.963 80.6205 196.963 80.3682V79.5218C196.924 79.5685 196.838 79.6118 196.704 79.6509C196.555 79.6918 196.403 79.7247 196.25 79.7493C195.956 79.7947 195.661 79.8337 195.365 79.8665C195.136 79.8953 194.91 79.9465 194.691 80.0193C194.484 80.0872 194.317 80.1908 194.189 80.3291C194.063 80.465 194.001 80.65 194.001 80.8852C194.001 81.2078 194.119 81.4497 194.357 81.6153C194.597 81.7766 194.902 81.8572 195.271 81.8572ZM199.576 82.5474V76.5276H200.47V77.4368H200.533C200.643 77.1397 200.841 76.8978 201.128 76.7118C201.418 76.5258 201.756 76.4289 202.1 76.4334C202.168 76.4334 202.253 76.4351 202.355 76.4376C202.457 76.4402 202.534 76.4436 202.587 76.4495V77.3901C202.515 77.3754 202.443 77.3635 202.371 77.3545C202.256 77.3358 202.139 77.3268 202.022 77.3273C201.75 77.3223 201.48 77.3856 201.239 77.5115C201.013 77.6266 200.825 77.8025 200.694 78.0194C200.564 78.2362 200.497 78.4853 200.502 78.7382V82.5474H199.576ZM206.678 76.5276V77.3112H203.559V76.5276H206.678ZM204.468 75.0853H205.392V80.8232C205.392 81.0838 205.431 81.28 205.506 81.4107C205.573 81.5289 205.678 81.6204 205.804 81.6696C205.926 81.7121 206.056 81.7324 206.192 81.7324C206.294 81.7324 206.377 81.7265 206.443 81.7163L206.6 81.6849L206.788 82.516C206.702 82.5458 206.614 82.5694 206.525 82.5865C206.413 82.6119 206.27 82.6255 206.098 82.6255C205.833 82.6246 205.571 82.5673 205.33 82.4574C205.081 82.3446 204.867 82.1672 204.711 81.9438C204.549 81.7146 204.468 81.4234 204.468 81.0737V75.0853ZM66.9841 111.164C66.5249 111.164 66.1097 111.073 65.7422 110.89C65.3874 110.719 65.0823 110.46 64.8559 110.138C64.6332 109.816 64.5068 109.438 64.4917 109.048H65.4323C65.4688 109.411 65.6335 109.712 65.9264 109.949C66.2218 110.184 66.5741 110.302 66.9841 110.302C67.2926 110.308 67.5965 110.228 67.8619 110.071C68.1189 109.919 68.3291 109.699 68.4698 109.436C68.6183 109.164 68.693 108.858 68.693 108.515C68.693 108.165 68.6166 107.852 68.4621 107.578C68.3161 107.307 68.0992 107.081 67.8348 106.924C67.5579 106.761 67.2422 106.677 66.9213 106.681C66.6652 106.68 66.4104 106.719 66.1658 106.795C65.9378 106.856 65.7217 106.955 65.5265 107.088L64.6173 106.979L65.1029 103.028H69.2729V103.89H65.9187L65.636 106.257H65.6836C66.0885 105.962 66.577 105.802 67.0784 105.803C67.5336 105.795 67.9822 105.913 68.3745 106.144C68.7668 106.375 69.0874 106.71 69.3009 107.112C69.5224 107.517 69.6337 107.98 69.6337 108.499C69.6337 109.011 69.5191 109.469 69.289 109.871C69.0665 110.266 68.7415 110.594 68.3484 110.819C67.9485 111.049 67.4935 111.164 66.9841 111.164ZM74.3104 111.055V105.035H75.2035V105.975H75.2825C75.3976 105.666 75.6108 105.403 75.8894 105.227C76.1696 105.047 76.5049 104.957 76.8963 104.957C77.2936 104.957 77.6247 105.047 77.8878 105.227C78.1544 105.405 78.3624 105.654 78.511 105.975H78.5738C78.7283 105.665 78.9592 105.418 79.2673 105.235C79.5764 105.049 79.9465 104.957 80.3769 104.957C80.9151 104.957 81.3549 105.125 81.6978 105.462C82.04 105.796 82.2106 106.318 82.2106 107.026V111.055H81.2853V107.026C81.2853 106.582 81.1647 106.264 80.9219 106.073C80.6772 105.882 80.3741 105.781 80.0636 105.787C79.64 105.787 79.3123 105.915 79.0789 106.172C78.8471 106.424 78.7308 106.746 78.7308 107.136V111.055H77.7902V106.931C77.7902 106.589 77.6798 106.314 77.4574 106.104C77.235 105.893 76.9489 105.787 76.5992 105.787C76.3608 105.786 76.1271 105.853 75.9251 105.98C75.7149 106.111 75.5421 106.294 75.4234 106.512C75.2942 106.751 75.2293 107.02 75.2349 107.292V111.055H74.3104ZM83.9017 111.055V105.035H84.827V111.055H83.9017ZM84.372 104.031C84.1984 104.034 84.0308 103.968 83.9059 103.847C83.8446 103.791 83.7958 103.723 83.7627 103.646C83.7297 103.57 83.7131 103.488 83.7141 103.405C83.7141 103.232 83.7777 103.085 83.9059 102.962C84.031 102.841 84.1989 102.775 84.3728 102.777C84.5528 102.777 84.7065 102.839 84.8346 102.962C84.8971 103.017 84.9468 103.086 84.9807 103.162C85.0145 103.238 85.0316 103.321 85.0308 103.405C85.0317 103.488 85.0147 103.571 84.981 103.647C84.9474 103.723 84.8977 103.792 84.8355 103.847C84.7744 103.907 84.7019 103.954 84.6223 103.986C84.5427 104.018 84.4576 104.033 84.372 104.031ZM87.4451 107.433V111.055H86.5206V105.035H87.4154V105.975H87.4935C87.6321 105.673 87.8553 105.417 88.1361 105.239C88.4239 105.051 88.7949 104.957 89.2491 104.957C89.6566 104.957 90.0131 105.04 90.3188 105.207C90.6244 105.372 90.8621 105.623 91.0319 105.96C91.2025 106.295 91.2874 106.717 91.2874 107.229V111.055H90.362V107.292C90.362 106.819 90.2398 106.451 89.9945 106.187C89.7483 105.92 89.4112 105.787 88.9834 105.787C88.7072 105.782 88.4345 105.849 88.1913 105.98C87.9621 106.107 87.7796 106.295 87.6463 106.54C87.513 106.785 87.4468 107.083 87.4468 107.433H87.4451ZM97.8522 111.195C97.4942 111.201 97.1394 111.127 96.8131 110.98C96.5126 110.842 96.2562 110.624 96.0728 110.349C95.8903 110.072 95.7986 109.738 95.7986 109.346C95.7986 109.001 95.8665 108.722 96.0024 108.507C96.1362 108.292 96.3242 108.117 96.5474 107.998C96.774 107.874 97.0253 107.784 97.2995 107.723C97.5763 107.661 97.8547 107.611 98.134 107.575C98.4999 107.527 98.7962 107.492 99.0237 107.469C99.2529 107.442 99.421 107.399 99.5254 107.34C99.6324 107.279 99.6867 107.175 99.6867 107.026V106.994C99.6867 106.608 99.5806 106.307 99.3684 106.093C99.1595 105.879 98.842 105.772 98.4167 105.772C97.9753 105.772 97.6289 105.868 97.3776 106.062C97.1272 106.255 96.9506 106.461 96.8487 106.681L95.9709 106.368C96.1272 106.002 96.336 105.716 96.5983 105.513C96.8528 105.311 97.1461 105.164 97.46 105.081C97.7741 104.998 98.0822 104.957 98.3853 104.957C98.578 104.957 98.8004 104.98 99.0509 105.027C99.3047 105.071 99.5492 105.164 99.7844 105.306C100.022 105.447 100.219 105.66 100.376 105.944C100.532 106.229 100.611 106.61 100.611 107.088V111.055H99.6859V110.24H99.64C99.5585 110.395 99.4525 110.537 99.3259 110.659C99.1577 110.822 98.9597 110.951 98.7427 111.039C98.4991 111.144 98.2019 111.195 97.8522 111.195ZM97.9931 110.364C98.3581 110.364 98.6672 110.293 98.9184 110.15C99.148 110.025 99.3402 109.841 99.4751 109.617C99.6099 109.393 99.6827 109.137 99.6859 108.875V108.029C99.6468 108.076 99.5611 108.119 99.4278 108.158C99.278 108.199 99.1261 108.232 98.9728 108.256C98.6785 108.302 98.3833 108.341 98.0873 108.374C97.8582 108.402 97.6325 108.454 97.4133 108.526C97.2222 108.585 97.0494 108.692 96.9116 108.836C96.7859 108.972 96.7231 109.158 96.7231 109.393C96.7231 109.714 96.842 109.957 97.0797 110.122C97.3208 110.284 97.6247 110.364 97.9931 110.364ZM104.729 113.438C104.282 113.438 103.898 113.38 103.577 113.265C103.283 113.168 103.01 113.016 102.773 112.818C102.575 112.65 102.404 112.452 102.267 112.23L103.004 111.713C103.088 111.823 103.194 111.948 103.322 112.089C103.45 112.233 103.625 112.357 103.847 112.461C104.072 112.568 104.365 112.623 104.729 112.623C105.215 112.623 105.616 112.505 105.932 112.269C106.248 112.034 106.406 111.666 106.406 111.164V109.942H106.328C106.26 110.051 106.163 110.187 106.038 110.349C105.892 110.527 105.711 110.673 105.505 110.776C105.275 110.899 104.964 110.96 104.571 110.96C104.112 110.967 103.66 110.848 103.263 110.616C102.88 110.386 102.575 110.051 102.35 109.612C102.128 109.173 102.017 108.64 102.017 108.014C102.017 107.397 102.126 106.86 102.342 106.402C102.559 105.943 102.861 105.587 103.248 105.337C103.634 105.083 104.081 104.957 104.588 104.957C104.98 104.957 105.291 105.022 105.521 105.153C105.753 105.28 105.931 105.427 106.054 105.592C106.179 105.753 106.275 105.886 106.343 105.991H106.437V105.035H107.331V111.227C107.331 111.744 107.213 112.165 106.978 112.489C106.744 112.817 106.416 113.067 106.038 113.206C105.62 113.365 105.176 113.444 104.729 113.438ZM104.698 110.129C105.069 110.129 105.382 110.044 105.639 109.875C105.894 109.705 106.089 109.461 106.222 109.142C106.355 108.824 106.422 108.442 106.422 107.998C106.422 107.564 106.357 107.181 106.226 106.85C106.112 106.539 105.91 106.269 105.646 106.07C105.39 105.881 105.074 105.787 104.698 105.787C104.306 105.787 103.979 105.886 103.718 106.085C103.453 106.292 103.251 106.569 103.134 106.885C103.002 107.241 102.937 107.618 102.942 107.998C102.942 108.416 103.007 108.785 103.138 109.107C103.258 109.409 103.462 109.67 103.726 109.859C103.987 110.039 104.312 110.129 104.698 110.129ZM111.47 111.18C110.927 111.18 110.449 111.05 110.039 110.792C109.626 110.527 109.294 110.151 109.083 109.706C108.856 109.241 108.742 108.698 108.742 108.076C108.742 107.449 108.856 106.902 109.083 106.434C109.293 105.988 109.625 105.611 110.039 105.345C110.449 105.086 110.927 104.957 111.47 104.957C112.013 104.957 112.489 105.086 112.896 105.345C113.307 105.603 113.625 105.966 113.853 106.434C114.082 106.902 114.198 107.449 114.198 108.076C114.198 108.698 114.082 109.241 113.853 109.706C113.643 110.152 113.311 110.528 112.896 110.792C112.489 111.05 112.013 111.18 111.47 111.18ZM111.47 110.349C111.882 110.349 112.222 110.243 112.489 110.032C112.755 109.82 112.952 109.542 113.08 109.197C113.209 108.852 113.273 108.478 113.273 108.076C113.276 107.693 113.211 107.312 113.08 106.952C112.965 106.621 112.76 106.33 112.489 106.109C112.222 105.895 111.882 105.787 111.47 105.787C111.057 105.787 110.718 105.895 110.451 106.109C110.179 106.329 109.974 106.621 109.859 106.952C109.728 107.312 109.663 107.693 109.667 108.076C109.667 108.478 109.731 108.852 109.859 109.197C109.987 109.542 110.185 109.82 110.451 110.032C110.717 110.243 111.057 110.349 111.47 110.349Z" fill="#A1A1A1"/>
<g filter="url(#filter0_d_1_9241)">
<path d="M158.862 99.5264H130.711C127.898 99.5264 125.617 101.807 125.617 104.62V109.849C125.617 112.663 127.898 114.943 130.711 114.943H158.862C161.675 114.943 163.955 112.663 163.955 109.849V104.62C163.955 101.807 161.675 99.5264 158.862 99.5264Z" fill="#2E5235" fill-opacity="0.3"/>
<path d="M131.286 110.206H130.557L132.665 104.464H133.383L135.491 110.206H134.762L133.047 105.372H133.002L131.286 110.206ZM131.555 107.963H134.493V108.58H131.555V107.963ZM140.736 106.258H140.041C139.97 105.891 139.76 105.566 139.454 105.35C139.309 105.245 139.147 105.165 138.976 105.115C138.797 105.062 138.612 105.035 138.425 105.036C138.078 105.036 137.763 105.124 137.481 105.3C137.2 105.475 136.977 105.734 136.811 106.076C136.646 106.418 136.564 106.838 136.564 107.335C136.564 107.832 136.646 108.252 136.811 108.594C136.977 108.936 137.2 109.195 137.481 109.371C137.763 109.546 138.078 109.634 138.425 109.634C138.616 109.634 138.8 109.607 138.976 109.556C139.151 109.503 139.311 109.426 139.454 109.323C139.758 109.104 139.968 108.779 140.041 108.411H140.736C140.689 108.689 140.593 108.956 140.45 109.199C140.18 109.657 139.749 109.999 139.241 110.158C138.978 110.244 138.702 110.286 138.425 110.284C137.936 110.284 137.5 110.165 137.119 109.926C136.729 109.677 136.417 109.323 136.219 108.905C136.001 108.464 135.891 107.941 135.891 107.335C135.891 106.73 136.001 106.206 136.219 105.765C136.438 105.324 136.738 104.983 137.119 104.745C137.511 104.502 137.964 104.378 138.425 104.386C138.716 104.386 138.987 104.427 139.241 104.511C139.498 104.596 139.729 104.719 139.934 104.881C140.139 105.043 140.312 105.239 140.45 105.471C140.588 105.701 140.684 105.963 140.736 106.258ZM141.545 105.081V104.464H145.852V105.081H144.046V110.206H143.351V105.081H141.545ZM147.62 104.464V110.206H146.925V104.464H147.62ZM149.25 104.464L150.955 109.298H151.022L152.727 104.464H153.455L151.347 110.206H150.63L148.521 104.464H149.25ZM154.35 110.206V104.464H157.815V105.081H155.045V107.021H157.636V107.638H155.045V109.589H157.86V110.206H154.35Z" fill="#A2CEAD"/>
<path d="M158.862 99.9209H130.711C128.116 99.9209 126.012 102.025 126.012 104.62V109.849C126.012 112.444 128.116 114.548 130.711 114.548H158.862C161.457 114.548 163.561 112.444 163.561 109.849V104.62C163.561 102.025 161.457 99.9209 158.862 99.9209Z" stroke="#3A523E" stroke-width="0.789507"/>
</g>
<path d="M285.217 46.4678H56.8538C55.2128 46.4678 53.8826 47.7981 53.8826 49.439V121.734C53.8826 123.375 55.2128 124.705 56.8538 124.705H285.217C286.858 124.705 288.188 123.375 288.188 121.734V49.439C288.188 47.7981 286.858 46.4678 285.217 46.4678Z" stroke="#484848" stroke-width="0.848933"/>
<path d="M54.7596 141.722L57.1417 148.479H57.2359L59.6188 141.722H60.6376L57.6909 149.749H56.6875L53.74 141.722H54.7587H54.7596ZM61.7633 149.749V143.729H62.6877V149.749H61.7624H61.7633ZM62.2327 142.726C62.0588 142.729 61.8909 142.662 61.7658 142.541C61.7046 142.485 61.656 142.417 61.6231 142.34C61.5902 142.264 61.5737 142.181 61.5748 142.098C61.5748 141.926 61.6385 141.778 61.7666 141.656C61.8917 141.535 62.0597 141.469 62.2336 141.472C62.4135 141.472 62.5672 141.533 62.6954 141.656C62.8261 141.778 62.8906 141.926 62.8906 142.098C62.8916 142.182 62.8746 142.265 62.8409 142.341C62.8073 142.417 62.7576 142.486 62.6954 142.541C62.6344 142.601 62.5621 142.649 62.4826 142.68C62.4032 142.712 62.3182 142.727 62.2327 142.726ZM66.9052 149.875C66.3254 149.875 65.8254 149.746 65.4043 149.49C64.9848 149.23 64.6489 148.854 64.4365 148.408C64.2116 147.943 64.0995 147.402 64.0995 146.786C64.0995 146.169 64.2116 145.626 64.4365 145.155C64.6641 144.682 64.9799 144.314 65.3848 144.05C65.7923 143.784 66.2677 143.651 66.811 143.651C67.1251 143.651 67.435 143.703 67.7406 143.807C68.0462 143.912 68.3247 144.081 68.5751 144.317C68.8255 144.549 69.025 144.857 69.1744 145.242C69.3238 145.626 69.3977 146.098 69.3977 146.66V147.053H64.7574V146.253H68.4571C68.4571 145.913 68.3892 145.61 68.2533 145.344C68.126 145.084 67.9277 144.865 67.6812 144.713C67.4195 144.554 67.1178 144.474 66.8119 144.481C66.4434 144.481 66.1242 144.573 65.8551 144.755C65.5918 144.933 65.3796 145.176 65.2396 145.461C65.0961 145.751 65.0222 146.07 65.024 146.394V146.927C65.024 147.381 65.103 147.767 65.2592 148.083C65.4049 148.382 65.6351 148.631 65.9213 148.801C66.204 148.962 66.5326 149.043 66.9061 149.043C67.148 149.043 67.3679 149.009 67.564 148.942C67.7558 148.875 67.931 148.768 68.0776 148.628C68.2211 148.486 68.3323 148.312 68.4104 148.103L69.3043 148.353C69.2118 148.654 69.0491 148.928 68.8298 149.153C68.5966 149.387 68.3158 149.569 68.0063 149.686C67.654 149.816 67.2807 149.88 66.9052 149.875ZM72.1686 149.749L70.3349 143.729H71.307L72.6075 148.338H72.6703L73.9556 143.729H74.9438L76.2129 148.322H76.2758L77.5772 143.729H78.5492L76.7155 149.749H75.8054L74.4896 145.124H74.3945L73.0787 149.749H72.1686ZM84.6479 149.89C84.2659 149.89 83.9195 149.818 83.6088 149.674C83.308 149.537 83.0514 149.318 82.8677 149.043C82.6852 148.767 82.5935 148.432 82.5935 148.04C82.5935 147.695 82.6614 147.415 82.7973 147.201C82.9311 146.987 83.1191 146.811 83.3423 146.692C83.5689 146.569 83.8202 146.478 84.0944 146.418C84.3712 146.355 84.6496 146.305 84.9289 146.268C85.2948 146.222 85.5911 146.186 85.8186 146.163C86.0487 146.137 86.2159 146.093 86.3203 146.033C86.4281 145.974 86.4816 145.869 86.4816 145.72V145.688C86.4816 145.302 86.3755 145.002 86.1641 144.787C85.9544 144.573 85.6378 144.466 85.2116 144.466C84.7702 144.466 84.4238 144.563 84.1725 144.755C83.9221 144.949 83.7455 145.155 83.6436 145.375L82.7658 145.062C82.9229 144.696 83.1317 144.411 83.3932 144.207C83.6477 144.006 83.941 143.859 84.2549 143.776C84.569 143.693 84.8771 143.651 85.1802 143.651C85.3738 143.651 85.5962 143.674 85.8466 143.721C86.0996 143.766 86.3441 143.858 86.5792 143.999C86.8169 144.141 87.0139 144.353 87.171 144.638C87.328 144.923 87.4061 145.305 87.4061 145.783V149.749H86.4816V148.934H86.4349C86.3532 149.089 86.2472 149.231 86.1208 149.353C85.9527 149.516 85.7547 149.645 85.5376 149.733C85.2948 149.837 84.9977 149.89 84.6479 149.89ZM84.788 149.059C85.1539 149.059 85.4621 148.987 85.7133 148.843C85.9435 148.719 86.1362 148.535 86.2713 148.311C86.4064 148.087 86.479 147.831 86.4816 147.57V146.723C86.4417 146.77 86.356 146.813 86.2227 146.852C86.0729 146.893 85.921 146.926 85.7677 146.951C85.5979 146.976 85.4323 147 85.2702 147.021C85.1106 147.039 84.9816 147.055 84.8822 147.068C84.6531 147.097 84.4273 147.148 84.2082 147.221C84.0174 147.279 83.8449 147.386 83.7073 147.531C83.5808 147.666 83.5188 147.851 83.5188 148.087C83.5188 148.408 83.6377 148.651 83.8754 148.816C84.1156 148.978 84.4196 149.059 84.788 149.059ZM90.0191 141.722V149.749H89.0938V141.722H90.0191ZM92.6381 141.722V149.749H91.7127V141.722H92.6381ZM100.242 141.722V149.749H99.2699V142.742H99.2232L97.2639 144.042V143.055L99.2699 141.722H100.242ZM102.551 149.749V149.043L105.2 146.143C105.51 145.804 105.767 145.508 105.968 145.257C106.147 145.04 106.297 144.8 106.415 144.544C106.514 144.319 106.564 144.084 106.564 143.839C106.564 143.557 106.496 143.312 106.36 143.106C106.226 142.898 106.035 142.733 105.811 142.628C105.566 142.513 105.298 142.455 105.027 142.459C104.719 142.459 104.45 142.524 104.22 142.651C103.996 142.773 103.813 142.957 103.691 143.181C103.564 143.427 103.5 143.702 103.507 143.98H102.582C102.582 143.509 102.69 143.097 102.907 142.742C103.121 142.389 103.427 142.102 103.793 141.911C104.169 141.712 104.591 141.613 105.058 141.613C105.529 141.613 105.946 141.712 106.309 141.911C106.672 142.109 106.957 142.377 107.163 142.714C107.37 143.051 107.473 143.426 107.473 143.839C107.473 144.134 107.42 144.423 107.312 144.705C107.207 144.985 107.025 145.297 106.763 145.642C106.505 145.984 106.145 146.402 105.685 146.896L103.883 148.824V148.886H107.614V149.749H102.551ZM114.876 149.875C114.296 149.875 113.796 149.746 113.375 149.49C112.955 149.23 112.62 148.854 112.407 148.408C112.182 147.943 112.07 147.402 112.07 146.786C112.07 146.169 112.182 145.626 112.407 145.155C112.635 144.682 112.95 144.314 113.355 144.05C113.763 143.784 114.238 143.651 114.782 143.651C115.096 143.651 115.405 143.703 115.71 143.807C116.016 143.912 116.294 144.081 116.546 144.317C116.796 144.549 116.996 144.857 117.145 145.242C117.294 145.626 117.368 146.098 117.368 146.66V147.053H112.728V146.253H116.428C116.428 145.913 116.36 145.61 116.224 145.344C116.097 145.084 115.898 144.865 115.652 144.713C115.39 144.554 115.088 144.474 114.782 144.481C114.413 144.481 114.094 144.573 113.826 144.755C113.559 144.936 113.354 145.171 113.21 145.461C113.066 145.751 112.995 146.062 112.995 146.394V146.927C112.995 147.381 113.074 147.767 113.23 148.083C113.376 148.382 113.606 148.631 113.892 148.801C114.175 148.962 114.502 149.043 114.877 149.043C115.119 149.043 115.339 149.009 115.535 148.942C115.726 148.875 115.902 148.768 116.048 148.628C116.192 148.486 116.303 148.312 116.381 148.103L117.274 148.353C117.181 148.656 117.022 148.923 116.8 149.153C116.567 149.388 116.286 149.569 115.977 149.686C115.625 149.816 115.251 149.88 114.876 149.875ZM123.515 143.729L121.289 149.749H120.348L118.122 143.729H119.125L120.787 148.526H120.85L122.511 143.729H123.515ZM127.044 149.875C126.464 149.875 125.964 149.746 125.543 149.49C125.123 149.229 124.787 148.854 124.575 148.408C124.35 147.943 124.238 147.402 124.238 146.786C124.238 146.169 124.35 145.626 124.575 145.155C124.802 144.682 125.118 144.314 125.523 144.05C125.931 143.784 126.406 143.651 126.949 143.651C127.263 143.651 127.573 143.703 127.878 143.807C128.185 143.912 128.462 144.081 128.713 144.317C128.964 144.549 129.164 144.857 129.313 145.242C129.461 145.626 129.536 146.098 129.536 146.66V147.053H124.896V146.253H128.595C128.595 145.913 128.528 145.61 128.392 145.344C128.265 145.084 128.066 144.865 127.82 144.713C127.558 144.554 127.256 144.474 126.949 144.481C126.581 144.481 126.263 144.573 125.993 144.755C125.727 144.936 125.521 145.171 125.378 145.461C125.234 145.751 125.161 146.07 125.162 146.394V146.927C125.162 147.381 125.241 147.767 125.398 148.083C125.557 148.397 125.778 148.636 126.06 148.801C126.342 148.962 126.67 149.043 127.044 149.043C127.286 149.043 127.506 149.009 127.702 148.942C127.901 148.871 128.072 148.767 128.215 148.628C128.359 148.486 128.471 148.312 128.549 148.103L129.442 148.353C129.348 148.656 129.19 148.923 128.968 149.153C128.735 149.387 128.454 149.569 128.145 149.686C127.792 149.816 127.419 149.88 127.044 149.875ZM131.868 146.127V149.749H130.944V143.729H131.837V144.67H131.915C132.057 144.364 132.271 144.118 132.558 143.933C132.845 143.744 133.216 143.651 133.671 143.651C134.079 143.651 134.435 143.734 134.741 143.901C135.047 144.066 135.284 144.317 135.454 144.654C135.624 144.988 135.709 145.412 135.709 145.924V149.749H134.784V145.986C134.784 145.514 134.661 145.145 134.416 144.881C134.17 144.615 133.833 144.481 133.405 144.481C133.109 144.481 132.845 144.546 132.613 144.673C132.38 144.803 132.191 144.998 132.068 145.234C131.934 145.48 131.868 145.778 131.868 146.127ZM140.017 143.729V144.513H136.897V143.729H140.017ZM137.806 142.287H138.732V148.025C138.732 148.285 138.769 148.481 138.845 148.612C138.924 148.74 139.023 148.826 139.143 148.871C139.266 148.913 139.395 148.934 139.531 148.934C139.632 148.934 139.716 148.928 139.782 148.918L139.938 148.886L140.127 149.717C140.041 149.747 139.953 149.771 139.864 149.788C139.751 149.814 139.61 149.827 139.437 149.827C139.176 149.827 138.919 149.771 138.669 149.659C138.42 149.546 138.206 149.369 138.049 149.145C137.888 148.915 137.806 148.625 137.806 148.275V142.287ZM145.564 145.077L144.734 145.312C144.677 145.167 144.599 145.031 144.502 144.908C144.394 144.768 144.254 144.656 144.094 144.58C143.922 144.493 143.701 144.45 143.432 144.45C143.064 144.45 142.757 144.535 142.511 144.705C142.268 144.872 142.147 145.085 142.147 145.344C142.147 145.574 142.23 145.755 142.397 145.889C142.565 146.022 142.826 146.132 143.182 146.222L144.075 146.441C144.613 146.571 145.015 146.772 145.278 147.041C145.542 147.307 145.674 147.65 145.674 148.071C145.674 148.416 145.575 148.724 145.376 148.996C145.18 149.268 144.906 149.482 144.553 149.639C144.201 149.796 143.791 149.875 143.323 149.875C142.709 149.875 142.2 149.741 141.798 149.475C141.396 149.208 141.141 148.818 141.034 148.307L141.912 148.087C141.995 148.411 142.154 148.654 142.386 148.816C142.621 148.978 142.928 149.059 143.307 149.059C143.738 149.059 144.08 148.968 144.334 148.784C144.589 148.599 144.718 148.377 144.718 148.118C144.72 148.02 144.701 147.923 144.664 147.832C144.626 147.742 144.57 147.661 144.499 147.593C144.352 147.449 144.128 147.342 143.824 147.272L142.821 147.037C142.27 146.906 141.864 146.704 141.606 146.43C141.35 146.152 141.222 145.806 141.222 145.39C141.222 145.051 141.318 144.75 141.508 144.49C141.712 144.219 141.984 144.007 142.296 143.874C142.654 143.72 143.042 143.644 143.432 143.651C144.028 143.651 144.496 143.781 144.836 144.042C145.178 144.304 145.42 144.648 145.564 145.077Z" fill="#A1A1A1"/>
<path d="M151.934 142.109L155.33 145.929L151.934 149.749" stroke="#A1A1A1" stroke-width="0.848933"/>
<path d="M295.404 32.8853H46.6666C43.1502 32.8853 40.2996 35.7359 40.2996 39.2522V156.541C40.2996 160.057 43.1502 162.908 46.6666 162.908H295.404C298.92 162.908 301.771 160.057 301.771 156.541V39.2522C301.771 35.7359 298.92 32.8853 295.404 32.8853Z" stroke="#484848" stroke-width="0.848933"/>
</g>
</g>
<defs>
<filter id="filter0_d_1_9241" x="125.617" y="99.5264" width="38.3379" height="16.206" filterUnits="userSpaceOnUse" color-interpolation-filters="sRGB">
<feFlood flood-opacity="0" result="BackgroundImageFix"/>
<feColorMatrix in="SourceAlpha" type="matrix" values="0 0 0 0 0 0 0 0 0 0 0 0 0 0 0 0 0 0 127 0" result="hardAlpha"/>
<feOffset dy="0.789507"/>
<feComposite in2="hardAlpha" operator="out"/>
<feColorMatrix type="matrix" values="0 0 0 0 0.227451 0 0 0 0 0.321569 0 0 0 0 0.243137 0 0 0 1 0"/>
<feBlend mode="normal" in2="BackgroundImageFix" result="effect1_dropShadow_1_9241"/>
<feBlend mode="normal" in="SourceGraphic" in2="effect1_dropShadow_1_9241" result="shape"/>
</filter>
<clipPath id="clip0_1_9241">
<rect width="266.24" height="151.11" fill="white" transform="translate(37.9202 15.1602)"/>
</clipPath>
<clipPath id="clip1_1_9241">
<rect width="266.24" height="151.11" fill="white" transform="translate(37.9202 15.1602)"/>
</clipPath>
</defs>
</svg>
