<svg width="361" height="187" viewBox="0 0 361 187" fill="none" xmlns="http://www.w3.org/2000/svg">
<g clip-path="url(#clip0_1_9034)">
<g clip-path="url(#clip1_1_9034)">
<path d="M332.876 100.451H27.6368C23.5839 100.451 20.2983 103.689 20.2983 107.684V166.505C20.2983 170.5 23.5839 173.738 27.6368 173.738H332.876C336.928 173.738 340.214 170.5 340.214 166.505V107.684C340.214 103.689 336.928 100.451 332.876 100.451Z" fill="#303030"/>
<path d="M45.2612 115.879H41.3185C38.3543 115.879 35.9514 118.248 35.9514 121.169V125.056C35.9514 127.977 38.3543 130.346 41.3185 130.346H45.2612C48.2253 130.346 50.6283 127.977 50.6283 125.056V121.169C50.6283 118.248 48.2253 115.879 45.2612 115.879Z" fill="#29342B"/>
<path d="M45.2464 119.255H41.3331C40.2525 119.255 39.3765 120.119 39.3765 121.184V125.041C39.3765 126.106 40.2525 126.97 41.3331 126.97H45.2464C46.3271 126.97 47.2031 126.106 47.2031 125.041V121.184C47.2031 120.119 46.3271 119.255 45.2464 119.255Z" fill="#A2CEAD"/>
<path d="M45.2612 115.879H41.3185C38.3543 115.879 35.9514 118.248 35.9514 121.169V125.056C35.9514 127.977 38.3543 130.346 41.3185 130.346H45.2612C48.2253 130.346 50.6283 127.977 50.6283 125.056V121.169C50.6283 118.248 48.2253 115.879 45.2612 115.879Z" stroke="#3A523E" stroke-width="0.968367"/>
<path d="M61.432 117.385V128.416H60.0232V117.385H61.432ZM67.2794 120.332C68.0621 120.332 68.7039 120.553 69.2048 120.995C69.7057 121.427 69.9561 122.07 69.9561 122.924V128.416H68.7039V123.232C68.7039 122.687 68.563 122.25 68.2812 121.921C67.9995 121.581 67.5612 121.412 66.9664 121.412C66.2669 121.412 65.6985 121.607 65.2602 121.998C64.8317 122.388 64.6184 122.893 64.6184 123.51V128.416H63.3661V120.548H64.6184V121.489H64.6497C64.9001 121.16 65.2445 120.887 65.6828 120.671C66.1211 120.444 66.6533 120.332 67.2794 120.332ZM74.8761 123.741C74.9701 123.762 75.3301 123.849 75.9562 124.004C76.5921 124.148 77.0774 124.41 77.412 124.79C77.7456 125.171 77.9129 125.659 77.9129 126.256C77.9129 126.729 77.7769 127.146 77.5059 127.506C77.2339 127.866 76.8582 128.143 76.3788 128.339C75.9093 128.535 75.3712 128.632 74.7666 128.632C73.5867 128.632 72.6945 128.381 72.0899 127.876C71.4843 127.372 71.1605 126.678 71.1194 125.793H72.3716C72.4235 126.338 72.6064 126.77 72.9195 127.089C73.2423 127.398 73.8587 127.552 74.7666 127.552C75.3927 127.552 75.8623 127.429 76.1754 127.182C76.4982 126.924 76.6606 126.642 76.6606 126.333C76.6606 126.025 76.5823 125.784 76.4258 125.608C76.277 125.432 76.0822 125.298 75.8623 125.222C75.5517 125.106 75.2325 125.013 74.9074 124.945L74.4692 124.852C74.3169 124.82 74.1656 124.784 74.0152 124.744C73.564 124.656 73.1195 124.537 72.6847 124.389C72.3387 124.255 72.0322 124.037 71.7925 123.757C71.5518 123.468 71.4324 123.072 71.4324 122.569C71.4324 122.157 71.5518 121.782 71.7925 121.442C72.0321 121.103 72.3765 120.835 72.8256 120.64C73.2854 120.435 73.8166 120.332 74.4222 120.332C75.3712 120.332 76.1225 120.563 76.6763 121.026C77.229 121.489 77.5372 122.08 77.5998 122.8H76.3475C76.2779 122.425 76.092 122.08 75.8153 121.813C75.5541 121.546 75.0894 121.412 74.4222 121.412C73.8685 121.412 73.4409 121.509 73.1386 121.705C72.8354 121.901 72.6847 122.158 72.6847 122.476C72.6847 122.723 72.7571 122.919 72.9038 123.062C73.0506 123.207 73.2326 123.314 73.4517 123.386C73.6806 123.459 73.9996 123.541 74.4065 123.633L74.8761 123.741ZM80.8831 121.628V126.364C80.8831 126.734 80.9711 126.991 81.1492 127.136C81.3262 127.28 81.6188 127.352 82.0258 127.352C82.2028 127.352 82.3437 127.347 82.4484 127.336V128.416C82.1397 128.481 81.8247 128.512 81.5092 128.509C80.9144 128.509 80.4497 128.359 80.1161 128.061C79.7932 127.762 79.6308 127.239 79.6308 126.488V121.628H78.4568V120.548H79.6308V117.925H80.8831V120.548H82.4484V121.628H80.8831ZM88.6412 122.553C88.6412 121.792 88.0992 121.412 87.0133 121.412C86.2619 121.412 85.7356 121.53 85.4323 121.766C85.13 122.003 84.9578 122.41 84.9157 122.985H83.6635C83.7055 122.172 83.9981 121.529 84.54 121.057C85.083 120.574 85.9077 120.332 87.0133 120.332C87.8693 120.332 88.5629 120.527 89.0951 120.918C89.6273 121.299 89.8934 121.93 89.8934 122.816V126.642C89.8934 126.95 89.9355 127.177 90.0187 127.321C90.1126 127.455 90.2955 127.521 90.5665 127.521C90.6605 127.521 90.7387 127.517 90.8013 127.506V128.37C90.5645 128.45 90.316 128.492 90.0656 128.493C89.6694 128.493 89.3563 128.421 89.1264 128.277C88.9073 128.123 88.7459 127.841 88.6412 127.429H88.6099C88.3387 127.818 87.9654 128.127 87.5298 128.324C87.0817 128.529 86.5388 128.632 85.9019 128.632C85.0987 128.632 84.4569 128.427 83.9765 128.015C83.5069 127.603 83.2721 127.063 83.2721 126.395C83.2721 125.819 83.4081 125.361 83.6791 125.022C83.9511 124.682 84.3209 124.425 84.7905 124.25C85.2709 124.065 85.9019 123.9 86.6845 123.757C87.0756 123.692 87.4624 123.604 87.8429 123.494C88.1041 123.413 88.3027 123.299 88.4377 123.155C88.5737 123.01 88.6412 122.811 88.6412 122.553ZM86.0271 127.552C86.8098 127.552 87.4418 127.372 87.9211 127.012C88.4015 126.642 88.6412 126.096 88.6412 125.377V124.065C88.4328 124.271 87.8174 124.477 86.7941 124.682C85.9801 124.857 85.3961 125.063 85.041 125.3C84.6966 125.536 84.5244 125.881 84.5244 126.333C84.5244 127.146 85.0253 127.552 86.0271 127.552ZM95.6509 120.332C96.4336 120.332 97.0753 120.553 97.5762 120.995C98.0771 121.427 98.3276 122.07 98.3276 122.924V128.416H97.0753V123.232C97.0753 122.687 96.9345 122.25 96.6527 121.921C96.3709 121.581 95.9327 121.412 95.3378 121.412C94.6383 121.412 94.0699 121.607 93.6316 121.998C93.2031 122.388 92.9899 122.893 92.9899 123.51V128.416H91.7376V120.548H92.9899V121.489H93.0212C93.2716 121.16 93.616 120.887 94.0543 120.671C94.4926 120.444 95.0248 120.332 95.6509 120.332ZM105.674 123.386C105.633 122.874 105.418 122.39 105.063 122.013C104.697 121.612 104.15 121.412 103.42 121.412C102.543 121.412 101.886 121.715 101.447 122.322C101.019 122.929 100.806 123.649 100.806 124.482C100.806 125.315 101.019 126.034 101.447 126.642C101.886 127.249 102.543 127.552 103.42 127.552C104.16 127.552 104.708 127.352 105.063 126.95C105.428 126.549 105.632 126.071 105.674 125.516H106.926C106.904 126.083 106.728 126.633 106.417 127.111C106.106 127.588 105.671 127.975 105.157 128.231C104.646 128.498 104.066 128.632 103.42 128.632C102.647 128.632 101.969 128.458 101.385 128.108C100.799 127.756 100.327 127.248 100.023 126.642C99.71 126.015 99.5534 125.295 99.5534 124.482C99.5534 123.669 99.71 122.949 100.023 122.322C100.327 121.716 100.799 121.207 101.385 120.856C101.969 120.506 102.647 120.332 103.42 120.332C104.066 120.332 104.641 120.466 105.142 120.733C105.652 120.99 106.059 121.35 106.363 121.813C106.676 122.276 106.863 122.8 106.926 123.386H105.674ZM111.521 127.552C112.231 127.552 112.774 127.388 113.149 127.058C113.525 126.73 113.76 126.374 113.854 125.994H115.106C114.907 126.743 114.474 127.413 113.869 127.907C113.274 128.39 112.507 128.632 111.568 128.632C110.775 128.632 110.081 128.462 109.486 128.123C108.903 127.774 108.435 127.265 108.14 126.657C107.827 126.031 107.671 125.304 107.671 124.482C107.671 123.186 108.015 122.172 108.704 121.442C109.392 120.702 110.326 120.332 111.506 120.332C112.736 120.332 113.666 120.722 114.292 121.504C114.918 122.285 115.231 123.386 115.231 124.806H108.923C108.923 125.3 109.022 125.758 109.22 126.179C109.418 126.591 109.71 126.924 110.097 127.182C110.493 127.429 110.968 127.552 111.521 127.552ZM111.506 121.412C111.015 121.412 110.571 121.515 110.175 121.72C109.797 121.918 109.478 122.211 109.252 122.569C109.033 122.916 108.919 123.317 108.923 123.726H113.979C113.979 123.305 113.874 122.919 113.666 122.569C113.468 122.21 113.169 121.915 112.805 121.72C112.429 121.515 111.996 121.412 111.506 121.412ZM119.542 121.489C119.542 120.327 119.87 119.38 120.528 118.65C121.185 117.909 122.156 117.539 123.439 117.539C124.065 117.539 124.64 117.667 125.161 117.925C125.683 118.172 126.1 118.537 126.413 119.02C126.726 119.503 126.883 120.074 126.883 120.733C126.883 121.37 126.731 121.931 126.429 122.414C126.127 122.887 125.756 123.283 125.318 123.602C124.89 123.911 124.321 124.271 123.611 124.682C122.808 125.136 122.192 125.536 121.764 125.886C121.362 126.213 121.072 126.655 120.935 127.151V127.182H126.726V128.416H119.229C119.229 126.596 120.304 125.068 122.453 123.834L123.079 123.479C123.726 123.119 124.201 122.831 124.504 122.615C124.798 122.419 125.044 122.161 125.224 121.859C125.391 121.56 125.474 121.191 125.474 120.748C125.474 120.203 125.318 119.741 125.005 119.36C124.692 118.969 124.159 118.773 123.408 118.773C122.521 118.773 121.89 119.02 121.514 119.514C121.138 120.008 120.95 120.666 120.95 121.489H119.542Z" fill="white"/>
<path d="M66.848 153.006H65.8139C65.7091 152.468 65.3971 151.991 64.9431 151.675C64.727 151.52 64.4854 151.403 64.229 151.329C63.9638 151.252 63.6886 151.213 63.4121 151.214C62.8955 151.214 62.4269 151.343 62.0072 151.6C61.5904 151.858 61.2588 152.237 61.0113 152.738C60.7667 153.24 60.6444 153.855 60.6444 154.583C60.6444 155.312 60.7667 155.927 61.0113 156.429C61.2588 156.93 61.5904 157.309 62.0072 157.567C62.4279 157.824 62.8955 157.952 63.4121 157.952C63.6958 157.952 63.9678 157.914 64.229 157.838C64.4902 157.76 64.7279 157.648 64.9431 157.497C65.3945 157.177 65.7057 156.699 65.8139 156.162H66.847C66.7778 156.569 66.6339 156.96 66.4224 157.316C66.0201 157.987 65.3799 158.488 64.6252 158.722C64.2476 158.844 63.8425 158.906 63.4121 158.906C62.6842 158.906 62.0365 158.732 61.4691 158.381C60.9017 158.03 60.4565 157.532 60.1317 156.885C59.806 156.239 59.6426 155.471 59.6426 154.583C59.6426 153.696 59.806 152.928 60.1317 152.282C60.4565 151.636 60.9027 151.137 61.4691 150.787C62.0365 150.436 62.6842 150.26 63.4121 150.26C63.8425 150.26 64.2476 150.322 64.6252 150.445C65.0067 150.569 65.3492 150.75 65.6554 150.988C65.9606 151.224 66.2169 151.511 66.4224 151.851C66.6278 152.188 66.7697 152.573 66.847 153.006H66.848ZM72.4205 156.211V152.479H73.4047V158.791H72.4205V157.723H72.354C72.1972 158.051 71.9557 158.333 71.6535 158.541C71.3365 158.762 70.9364 158.873 70.4531 158.873C70.052 158.873 69.6968 158.786 69.3857 158.615C69.0662 158.431 68.8105 158.156 68.652 157.826C68.4739 157.472 68.3849 157.027 68.3849 156.491V152.479H69.3691V156.424C69.3691 156.885 69.4992 157.251 69.7604 157.525C70.0246 157.8 70.3611 157.937 70.7691 157.937C71.0137 157.937 71.2631 157.875 71.5155 157.752C71.7719 157.628 71.9851 157.439 72.1583 157.185C72.3324 156.93 72.4205 156.605 72.4205 156.211ZM75.2068 158.791V152.48H76.1567V153.433H76.2232C76.3406 153.12 76.552 152.867 76.8572 152.673C77.1653 152.478 77.525 152.376 77.8913 152.381C78.0636 152.382 78.2358 152.388 78.4079 152.397V153.384C78.3321 153.368 78.2557 153.356 78.1789 153.347C78.0615 153.328 77.9383 153.318 77.8072 153.318C77.497 153.318 77.2182 153.383 76.9736 153.511C76.734 153.632 76.5335 153.816 76.395 154.043C76.2564 154.271 76.1854 154.532 76.19 154.797V158.791H75.2068ZM79.574 158.791V152.48H80.525V153.433H80.5915C80.7111 153.117 80.9342 152.85 81.2254 152.673C81.5336 152.478 81.8932 152.376 82.2595 152.381C82.4318 152.382 82.6041 152.388 82.7761 152.397V153.384C82.7003 153.368 82.6239 153.356 82.5472 153.347C82.4298 153.328 82.3065 153.318 82.1754 153.318C81.8643 153.318 81.5864 153.383 81.3419 153.511C81.1022 153.632 80.9017 153.816 80.7632 154.043C80.6247 154.271 80.5536 154.532 80.5582 154.797V158.791H79.574ZM86.4321 158.922C85.8157 158.922 85.2835 158.788 84.8355 158.52C84.3893 158.247 84.0321 157.854 83.8063 157.386C83.5666 156.898 83.4472 156.331 83.4472 155.684C83.4472 155.038 83.5666 154.468 83.8063 153.976C84.0264 153.504 84.3758 153.103 84.8149 152.817C85.2483 152.537 85.7541 152.397 86.3323 152.397C86.6686 152.397 87.0025 152.453 87.3204 152.561C87.6452 152.671 87.9416 152.85 88.2087 153.096C88.4748 153.34 88.6881 153.663 88.8466 154.065C89.0051 154.468 89.0843 154.964 89.0843 155.553V155.964H84.1477V155.125H88.0835C88.0835 154.77 88.0111 154.452 87.8663 154.172C87.7308 153.9 87.5198 153.67 87.2578 153.511C86.9791 153.345 86.6579 153.261 86.3323 153.269C85.941 153.269 85.6015 153.365 85.3148 153.556C85.0344 153.742 84.8086 153.997 84.6603 154.296C84.5077 154.6 84.4293 154.935 84.4314 155.274V155.833C84.4314 156.309 84.5146 156.713 84.6819 157.045C84.8511 157.373 85.0859 157.624 85.3863 157.797C85.7061 157.972 86.0674 158.06 86.4331 158.052C86.6913 158.052 86.9242 158.016 87.1326 157.946C87.3439 157.87 87.5259 157.761 87.6795 157.616C87.8321 157.468 87.9495 157.285 88.0336 157.066L88.9836 157.328C88.8838 157.647 88.7155 157.926 88.4797 158.167C88.243 158.405 87.9514 158.592 87.6041 158.726C87.2291 158.862 86.8317 158.929 86.4321 158.922ZM91.5644 154.994V158.791H90.5802V152.48H91.5311V153.466H91.6143C91.7649 153.145 91.9929 152.887 92.2991 152.694C92.6043 152.496 92.9986 152.397 93.4829 152.397C93.9153 152.397 94.2949 152.485 94.6207 152.66C94.9455 152.833 95.1979 153.096 95.3789 153.449C95.5599 153.8 95.6499 154.244 95.6499 154.78V158.791H94.6667V154.847C94.6667 154.351 94.5356 153.964 94.2743 153.687C94.0131 153.408 93.6551 153.269 93.1982 153.269C92.8851 153.269 92.6043 153.336 92.3568 153.469C92.1122 153.604 91.9185 153.8 91.7767 154.058C91.6348 154.315 91.5644 154.627 91.5644 154.994ZM100.232 152.48V153.302H96.9149V152.48H100.232ZM97.8814 150.967H98.8656V156.983C98.8656 157.257 98.9057 157.463 98.986 157.6C99.057 157.724 99.169 157.819 99.3029 157.87C99.434 157.915 99.571 157.937 99.7158 157.937C99.8234 157.937 99.9134 157.931 99.9829 157.921L100.149 157.887L100.35 158.759C100.258 158.79 100.165 158.815 100.07 158.833C99.9206 158.863 99.7684 158.876 99.616 158.873C99.3382 158.873 99.0652 158.815 98.7991 158.697C98.5344 158.579 98.3067 158.393 98.1397 158.159C97.9675 157.918 97.8814 157.613 97.8814 157.247V150.967ZM105.149 158.791V150.376H108.035C108.701 150.376 109.249 150.488 109.676 150.713C110.105 150.935 110.422 151.24 110.627 151.63C110.833 152.018 110.936 152.461 110.936 152.956C110.936 153.452 110.833 153.892 110.627 154.276C110.422 154.659 110.107 154.96 109.681 155.179C109.255 155.396 108.712 155.504 108.051 155.504H105.716V154.583H108.017C108.473 154.583 108.84 154.518 109.118 154.386C109.379 154.273 109.594 154.076 109.727 153.827C109.854 153.583 109.919 153.293 109.919 152.956C109.919 152.619 109.854 152.325 109.727 152.073C109.594 151.817 109.378 151.611 109.114 151.49C108.833 151.35 108.462 151.28 108 151.28H106.183V158.791H105.149ZM109.168 155.011L111.268 158.791H110.067L107.999 155.011H109.168ZM115.058 158.922C114.48 158.922 113.972 158.787 113.537 158.516C113.096 158.237 112.744 157.843 112.519 157.378C112.278 156.89 112.156 156.321 112.156 155.668C112.156 155.011 112.278 154.437 112.518 153.947C112.742 153.479 113.095 153.083 113.536 152.804C113.973 152.533 114.48 152.397 115.058 152.397C115.635 152.397 116.142 152.532 116.575 152.804C117.012 153.075 117.351 153.456 117.593 153.947C117.837 154.437 117.96 155.011 117.96 155.668C117.96 156.32 117.837 156.89 117.593 157.378C117.351 157.866 117.012 158.246 116.575 158.516C116.142 158.787 115.636 158.922 115.058 158.922ZM115.058 158.052C115.497 158.052 115.858 157.941 116.142 157.719C116.426 157.497 116.635 157.205 116.771 156.843C116.908 156.482 116.976 156.09 116.976 155.668C116.976 155.247 116.908 154.853 116.771 154.489C116.648 154.143 116.43 153.837 116.142 153.605C115.858 153.381 115.496 153.268 115.058 153.268C114.619 153.268 114.258 153.381 113.974 153.605C113.69 153.83 113.481 154.124 113.345 154.489C113.206 154.867 113.136 155.266 113.139 155.668C113.139 156.09 113.208 156.482 113.345 156.844C113.481 157.205 113.69 157.497 113.974 157.719C114.258 157.941 114.619 158.052 115.058 158.052ZM120.446 150.376V158.791H119.461V150.376H120.446ZM123.231 150.376V158.791H122.248V150.376H123.231ZM127.634 158.922C127.056 158.922 126.549 158.787 126.113 158.516C125.673 158.237 125.32 157.843 125.096 157.378C124.854 156.89 124.733 156.321 124.733 155.668C124.733 155.011 124.854 154.437 125.096 153.947C125.34 153.456 125.68 153.075 126.113 152.804C126.549 152.533 127.056 152.397 127.634 152.397C128.212 152.397 128.718 152.532 129.152 152.804C129.595 153.081 129.948 153.478 130.169 153.947C130.414 154.437 130.536 155.011 130.536 155.668C130.536 156.32 130.414 156.89 130.169 157.378C129.946 157.844 129.593 158.239 129.152 158.516C128.718 158.787 128.212 158.922 127.634 158.922ZM127.634 158.052C128.074 158.052 128.436 157.941 128.718 157.719C129.002 157.497 129.212 157.205 129.348 156.843C129.487 156.467 129.556 156.069 129.553 155.668C129.553 155.247 129.484 154.853 129.348 154.489C129.225 154.142 129.007 153.837 128.718 153.605C128.436 153.381 128.074 153.268 127.634 153.268C127.195 153.268 126.834 153.381 126.55 153.605C126.262 153.837 126.044 154.143 125.921 154.489C125.783 154.867 125.713 155.266 125.717 155.668C125.717 156.09 125.785 156.482 125.921 156.844C126.057 157.205 126.268 157.497 126.55 157.719C126.834 157.941 127.195 158.052 127.634 158.052ZM136.073 156.21V152.48H137.058V158.791H136.073V157.723H136.007C135.85 158.051 135.609 158.333 135.306 158.541C134.989 158.762 134.589 158.873 134.106 158.873C133.706 158.873 133.35 158.786 133.039 158.615C132.719 158.431 132.463 158.156 132.305 157.826C132.127 157.472 132.038 157.027 132.038 156.491V152.479H133.022V156.424C133.022 156.885 133.153 157.251 133.414 157.525C133.678 157.8 134.014 157.937 134.423 157.937C134.667 157.937 134.916 157.875 135.169 157.752C135.425 157.628 135.639 157.439 135.811 157.185C135.986 156.93 136.073 156.604 136.073 156.21ZM141.645 152.48V153.302H138.326V152.48H141.645ZM139.293 150.967H140.277V156.983C140.277 157.257 140.317 157.463 140.399 157.6C140.469 157.723 140.581 157.819 140.715 157.87C140.846 157.915 140.984 157.937 141.127 157.937C141.236 157.937 141.325 157.931 141.394 157.921L141.561 157.887L141.761 158.759C141.67 158.79 141.577 158.815 141.482 158.833C141.332 158.863 141.18 158.876 141.028 158.873C140.75 158.873 140.477 158.815 140.211 158.697C139.946 158.579 139.718 158.393 139.551 158.159C139.379 157.918 139.293 157.613 139.293 157.247V150.967Z" fill="#A1A1A1"/>
<path d="M184.658 151.077H154.33C152.439 151.077 150.906 152.588 150.906 154.452C150.906 156.316 152.439 157.827 154.33 157.827H184.658C186.549 157.827 188.082 156.316 188.082 154.452C188.082 152.588 186.549 151.077 184.658 151.077Z" fill="#484848"/>
<path d="M317.221 121.666H301.568C297.246 121.666 293.741 125.12 293.741 129.38V144.809C293.741 149.069 297.246 152.523 301.568 152.523H317.221C321.544 152.523 325.048 149.069 325.048 144.809V129.38C325.048 125.12 321.544 121.666 317.221 121.666Z" fill="#484848"/>
<path d="M306.46 131.309L312.33 137.095L306.46 142.881" stroke="white" stroke-width="0.971281"/>
<path d="M332.876 100.451H27.6368C23.5839 100.451 20.2983 103.689 20.2983 107.684V166.505C20.2983 170.5 23.5839 173.738 27.6368 173.738H332.876C336.928 173.738 340.214 170.5 340.214 166.505V107.684C340.214 103.689 336.928 100.451 332.876 100.451Z" stroke="#484848" stroke-width="0.968367"/>
</g>
</g>
<g clip-path="url(#clip2_1_9034)">
<g clip-path="url(#clip3_1_9034)">
<path d="M332.876 13.001H27.6368C23.5839 13.001 20.2983 16.2393 20.2983 20.2341V79.0555C20.2983 83.0502 23.5839 86.2886 27.6368 86.2886H332.876C336.928 86.2886 340.214 83.0502 340.214 79.0555V20.2341C340.214 16.2393 336.928 13.001 332.876 13.001Z" fill="#303030"/>
<path d="M45.2612 28.4297H41.3185C38.3543 28.4297 35.9514 30.7981 35.9514 33.7198V37.6058C35.9514 40.5275 38.3543 42.8959 41.3185 42.8959H45.2612C48.2253 42.8959 50.6283 40.5275 50.6283 37.6058V33.7198C50.6283 30.7981 48.2253 28.4297 45.2612 28.4297Z" fill="#29342B"/>
<path d="M45.2464 31.8057H41.3331C40.2525 31.8057 39.3765 32.6691 39.3765 33.7342V37.5914C39.3765 38.6565 40.2525 39.5199 41.3331 39.5199H45.2464C46.3271 39.5199 47.2031 38.6565 47.2031 37.5914V33.7342C47.2031 32.6691 46.3271 31.8057 45.2464 31.8057Z" fill="#A2CEAD"/>
<path d="M45.2612 28.4297H41.3185C38.3543 28.4297 35.9514 30.7981 35.9514 33.7198V37.6058C35.9514 40.5275 38.3543 42.8959 41.3185 42.8959H45.2612C48.2253 42.8959 50.6283 40.5275 50.6283 37.6058V33.7198C50.6283 30.7981 48.2253 28.4297 45.2612 28.4297Z" stroke="#3A523E" stroke-width="0.968367"/>
<path d="M61.432 29.9351V40.9665H60.0232V29.9351H61.432ZM67.2794 32.8819C68.0621 32.8819 68.7039 33.1037 69.2048 33.5453C69.7057 33.9773 69.9561 34.6205 69.9561 35.4739V40.9665H68.7039V35.7825C68.7039 35.2377 68.563 34.7999 68.2812 34.4711C67.9995 34.1316 67.5612 33.9619 66.9664 33.9619C66.2669 33.9619 65.6985 34.1577 65.2602 34.5482C64.8317 34.9387 64.6184 35.4431 64.6184 36.0602V40.9665H63.3661V33.0979H64.6184V34.0391H64.6497C64.9001 33.7102 65.2445 33.4373 65.6828 33.2213C66.1211 32.9947 66.6533 32.8819 67.2794 32.8819ZM74.8761 36.2916C74.9701 36.3119 75.3301 36.3996 75.9562 36.5539C76.5921 36.6986 77.0774 36.9599 77.412 37.3408C77.7456 37.7217 77.9129 38.2096 77.9129 38.8065C77.9129 39.279 77.7769 39.6965 77.5059 40.0562C77.2339 40.4159 76.8582 40.6936 76.3789 40.8893C75.9093 41.0851 75.3712 41.1825 74.7666 41.1825C73.5867 41.1825 72.6945 40.9308 72.0899 40.4265C71.4843 39.9222 71.1605 39.2279 71.1194 38.3436H72.3716C72.4235 38.8885 72.6064 39.3205 72.9195 39.6396C73.2423 39.9482 73.8587 40.1025 74.7666 40.1025C75.3927 40.1025 75.8623 39.9791 76.1754 39.7322C76.4982 39.4747 76.6606 39.1922 76.6606 38.8836C76.6606 38.5751 76.5823 38.334 76.4258 38.1585C76.277 37.9818 76.0822 37.8485 75.8623 37.7728C75.5517 37.6562 75.2325 37.5634 74.9074 37.4951L74.4692 37.4025C74.3169 37.3703 74.1656 37.3343 74.0152 37.2945C73.564 37.2061 73.1195 37.0875 72.6847 36.9396C72.3387 36.8048 72.0322 36.5875 71.7925 36.3071C71.5518 36.0187 71.4324 35.6224 71.4324 35.1191C71.4324 34.7073 71.5518 34.3322 71.7925 33.9928C72.0321 33.6533 72.3765 33.3853 72.8256 33.1905C73.2854 32.9851 73.8166 32.8819 74.4222 32.8819C75.3712 32.8819 76.1225 33.1133 76.6763 33.5762C77.229 34.0391 77.5372 34.6302 77.5998 35.3505H76.3475C76.2779 34.975 76.092 34.6301 75.8153 34.3631C75.5541 34.096 75.0894 33.9619 74.4222 33.9619C73.8685 33.9619 73.4409 34.0593 73.1386 34.2551C72.8354 34.4508 72.6847 34.7083 72.6847 35.0265C72.6847 35.2733 72.7571 35.4691 72.9038 35.6128C73.0506 35.7574 73.2326 35.8645 73.4517 35.9368C73.6806 36.0091 73.9996 36.0911 74.4065 36.1836L74.8761 36.2916ZM80.8831 34.1779V38.9145C80.8831 39.2848 80.9711 39.5413 81.1492 39.6859C81.3263 39.8306 81.6188 39.9019 82.0258 39.9019C82.2028 39.9019 82.3437 39.8971 82.4484 39.8865V40.9665C82.1397 41.0309 81.8247 41.062 81.5092 41.0591C80.9144 41.0591 80.4497 40.9096 80.1161 40.6116C79.7932 40.3127 79.6308 39.7891 79.6308 39.0379V34.1779H78.4568V33.0979H79.6308V30.4751H80.8831V33.0979H82.4484V34.1779H80.8831ZM88.6412 35.1036C88.6412 34.3418 88.0992 33.9619 87.0133 33.9619C86.2619 33.9619 85.7356 34.0805 85.4323 34.3168C85.13 34.553 84.9578 34.96 84.9157 35.5356H83.6635C83.7055 34.7227 83.9981 34.0796 84.5401 33.6071C85.083 33.124 85.9078 32.8819 87.0133 32.8819C87.8693 32.8819 88.5629 33.0777 89.0951 33.4682C89.6273 33.8491 89.8935 34.4807 89.8935 35.3659V39.1922C89.8935 39.5008 89.9355 39.7274 90.0187 39.8711C90.1126 40.0051 90.2955 40.0716 90.5665 40.0716C90.6605 40.0716 90.7387 40.0668 90.8013 40.0562V40.9202C90.5645 41.0002 90.316 41.0419 90.0656 41.0436C89.6694 41.0436 89.3563 40.9713 89.1264 40.8276C88.9073 40.6733 88.7459 40.3908 88.6412 39.9791H88.6099C88.3387 40.3682 87.9654 40.6775 87.5298 40.8739C87.0817 41.0793 86.5388 41.1825 85.9019 41.1825C85.0987 41.1825 84.4569 40.9771 83.9765 40.5653C83.5069 40.1536 83.2721 39.6136 83.2721 38.9453C83.2721 38.3697 83.4081 37.9116 83.6791 37.5722C83.9511 37.2328 84.3209 36.9753 84.7905 36.8008C85.2709 36.6156 85.9019 36.4507 86.6845 36.3071C87.0756 36.2423 87.4624 36.1547 87.8429 36.0448C88.1041 35.9628 88.3027 35.849 88.4377 35.7053C88.5737 35.5607 88.6412 35.3611 88.6412 35.1036ZM86.0271 40.1025C86.8098 40.1025 87.4418 39.9222 87.9211 39.5625C88.4015 39.1922 88.6412 38.6464 88.6412 37.9271V36.6156C88.4328 36.821 87.8174 37.0274 86.7941 37.2328C85.9801 37.4073 85.3961 37.6137 85.041 37.8499C84.6966 38.0862 84.5244 38.4314 84.5244 38.8836C84.5244 39.6965 85.0253 40.1025 86.0271 40.1025ZM95.6509 32.8819C96.4336 32.8819 97.0753 33.1037 97.5762 33.5453C98.0771 33.9773 98.3276 34.6205 98.3276 35.4739V40.9665H97.0753V35.7825C97.0753 35.2377 96.9345 34.7999 96.6527 34.4711C96.3709 34.1316 95.9327 33.9619 95.3378 33.9619C94.6383 33.9619 94.0699 34.1577 93.6316 34.5482C93.2031 34.9387 92.9899 35.4431 92.9899 36.0602V40.9665H91.7376V33.0979H92.9899V34.0391H93.0212C93.2716 33.7102 93.616 33.4373 94.0543 33.2213C94.4926 32.9947 95.0248 32.8819 95.6509 32.8819ZM105.674 35.9368C105.633 35.4244 105.418 34.9406 105.063 34.5636C104.697 34.1625 104.15 33.9619 103.42 33.9619C102.543 33.9619 101.886 34.2657 101.447 34.8722C101.019 35.4797 100.806 36.1991 100.806 37.0322C100.806 37.8653 101.019 38.5847 101.447 39.1922C101.886 39.7997 102.543 40.1025 103.42 40.1025C104.16 40.1025 104.708 39.9019 105.063 39.5008C105.428 39.0996 105.632 38.6213 105.674 38.0659H106.926C106.904 38.6328 106.728 39.1835 106.417 39.6609C106.106 40.1384 105.671 40.5252 105.157 40.7813C104.646 41.0485 104.066 41.1825 103.42 41.1825C102.647 41.1825 101.969 41.008 101.385 40.6579C100.799 40.3067 100.327 39.7983 100.023 39.1922C99.71 38.5654 99.5534 37.8451 99.5534 37.0322C99.5534 36.2193 99.71 35.499 100.023 34.8722C100.327 34.2661 100.799 33.7576 101.385 33.4065C101.969 33.0565 102.647 32.8819 103.42 32.8819C104.066 32.8819 104.641 33.016 105.142 33.2831C105.652 33.5405 106.059 33.9002 106.363 34.3631C106.676 34.8259 106.863 35.3505 106.926 35.9368H105.674ZM111.521 40.1025C112.231 40.1025 112.774 39.9386 113.149 39.6088C113.525 39.28 113.76 38.9241 113.854 38.5442H115.106C114.907 39.2938 114.475 39.9629 113.869 40.4573C113.274 40.9405 112.507 41.1825 111.568 41.1825C110.775 41.1825 110.081 41.0128 109.486 40.6733C108.903 40.3242 108.435 39.8149 108.14 39.2076C107.827 38.5808 107.671 37.8547 107.671 37.0322C107.671 35.7362 108.015 34.7227 108.704 33.9928C109.392 33.2522 110.326 32.8819 111.506 32.8819C112.736 32.8819 113.666 33.2725 114.292 34.0545C114.918 34.8356 115.231 35.9368 115.231 37.3562H108.923C108.923 37.8499 109.022 38.308 109.22 38.7293C109.418 39.1411 109.71 39.4747 110.097 39.7322C110.493 39.9791 110.968 40.1025 111.521 40.1025ZM111.506 33.9619C111.015 33.9619 110.571 34.0651 110.175 34.2705C109.797 34.4684 109.478 34.7611 109.252 35.1191C109.033 35.4664 108.919 35.8676 108.923 36.2762H113.979C113.979 35.8548 113.874 35.4691 113.666 35.1191C113.468 34.7599 113.169 34.4651 112.805 34.2705C112.429 34.0651 111.996 33.9619 111.506 33.9619ZM122.938 30.3053V40.9665H121.53V32.9899C121.227 33.2676 120.919 33.4431 120.606 33.5145C120.304 33.5762 119.86 33.6071 119.276 33.6071V32.6042C120.163 32.6042 120.789 32.4142 121.154 32.0333C121.53 31.6428 121.759 31.0662 121.843 30.3053H122.938Z" fill="white"/>
<path d="M66.848 65.5559H65.8139C65.7091 65.018 65.3971 64.5411 64.9431 64.2252C64.727 64.0703 64.4854 63.9532 64.229 63.879C63.9638 63.8018 63.6886 63.7631 63.4121 63.7642C62.8955 63.7642 62.4269 63.8934 62.0072 64.1499C61.5904 64.4084 61.2588 64.7873 61.0113 65.2888C60.7667 65.7902 60.6444 66.4054 60.6444 67.1334C60.6444 67.8624 60.7667 68.4777 61.0113 68.9791C61.2588 69.4805 61.5904 69.8595 62.0072 70.1169C62.4279 70.3744 62.8955 70.5027 63.4121 70.5027C63.6958 70.5027 63.9678 70.4641 64.229 70.3879C64.4902 70.3108 64.7279 70.1979 64.9431 70.0475C65.3945 69.7271 65.7057 69.2498 65.8139 68.712H66.847C66.7778 69.119 66.6339 69.5101 66.4224 69.8662C66.0201 70.5376 65.3799 71.0384 64.6252 71.2722C64.2476 71.3946 63.8425 71.4563 63.4121 71.4563C62.6842 71.4563 62.0365 71.2818 61.4691 70.9308C60.9017 70.5798 60.4565 70.0822 60.1317 69.4352C59.806 68.7891 59.6426 68.0215 59.6426 67.1334C59.6426 66.2463 59.806 65.4787 60.1317 64.8327C60.4565 64.1866 60.9027 63.6871 61.4691 63.337C62.0365 62.986 62.6842 62.8105 63.4121 62.8105C63.8425 62.8105 64.2476 62.8723 64.6252 62.9957C65.0067 63.1191 65.3492 63.3004 65.6554 63.5386C65.9606 63.7739 66.2169 64.0612 66.4224 64.4016C66.6278 64.7382 66.7697 65.1229 66.847 65.5559H66.848ZM72.4205 68.7612V65.0294H73.4047V71.3416H72.4205V70.2732H72.354C72.1972 70.6015 71.9557 70.8835 71.6535 71.0909C71.3365 71.3127 70.9364 71.4235 70.4531 71.4235C70.052 71.4235 69.6968 71.3368 69.3857 71.1651C69.0662 70.981 68.8105 70.706 68.652 70.3763C68.4739 70.0224 68.3849 69.5769 68.3849 69.0408V65.0294H69.3691V68.9743C69.3691 69.4352 69.4992 69.8016 69.7604 70.0755C70.0246 70.3503 70.3611 70.4872 70.7691 70.4872C71.0137 70.4872 71.2631 70.4255 71.5155 70.3021C71.7719 70.1787 71.9851 69.9897 72.1583 69.7351C72.3324 69.4805 72.4205 69.1555 72.4205 68.7612ZM75.2068 71.3416V65.0303H76.1567V65.983H76.2232C76.3406 65.6706 76.552 65.417 76.8572 65.2232C77.1653 65.0278 77.525 64.9262 77.8913 64.931C78.0636 64.9323 78.2358 64.9378 78.4079 64.9474V65.9339C78.3321 65.9187 78.2557 65.9064 78.1789 65.8972C78.0615 65.8779 77.9383 65.8683 77.8072 65.8683C77.497 65.8683 77.2182 65.9329 76.9736 66.0612C76.734 66.1818 76.5335 66.3664 76.395 66.5938C76.2564 66.8212 76.1854 67.0823 76.19 67.3475V71.3416H75.2068ZM79.574 71.3416V65.0303H80.525V65.983H80.5915C80.7111 65.6673 80.9342 65.3999 81.2254 65.2232C81.5336 65.0278 81.8932 64.9262 82.2595 64.931C82.4318 64.9323 82.6041 64.9378 82.7761 64.9474V65.9339C82.7003 65.9187 82.6239 65.9065 82.5472 65.8972C82.4298 65.8779 82.3065 65.8683 82.1754 65.8683C81.8643 65.8683 81.5864 65.9329 81.3419 66.0612C81.1022 66.1818 80.9017 66.3664 80.7632 66.5938C80.6247 66.8212 80.5536 67.0823 80.5582 67.3475V71.3416H79.574ZM86.4321 71.4727C85.8157 71.4727 85.2835 71.3387 84.8355 71.0706C84.3893 70.7976 84.0321 70.404 83.8063 69.9366C83.5666 69.4487 83.4472 68.8817 83.4472 68.2347C83.4472 67.5886 83.5666 67.0187 83.8063 66.5259C84.0264 66.0546 84.3758 65.6531 84.8149 65.3669C85.2483 65.0872 85.7541 64.9474 86.3323 64.9474C86.6686 64.9477 87.0025 65.0031 87.3204 65.1113C87.6452 65.2213 87.9416 65.4006 88.2087 65.6465C88.4748 65.8905 88.6881 66.2135 88.8466 66.6156C89.0051 67.0187 89.0843 67.5143 89.0843 68.1035V68.5143H84.1477V67.6754H88.0835C88.0835 67.3205 88.0111 67.0023 87.8663 66.7227C87.7308 66.45 87.5198 66.2207 87.2578 66.0612C86.9791 65.895 86.6579 65.811 86.3323 65.8191C85.941 65.8191 85.6015 65.9155 85.3148 66.1065C85.0344 66.2919 84.8086 66.547 84.6603 66.8461C84.5077 67.1499 84.4293 67.4848 84.4314 67.8239V68.3832C84.4314 68.8595 84.5146 69.2635 84.6819 69.5953C84.8511 69.9231 85.0859 70.1738 85.3863 70.3474C85.7061 70.5222 86.0674 70.61 86.4331 70.602C86.6913 70.602 86.9242 70.5663 87.1326 70.4959C87.3439 70.4207 87.5259 70.3117 87.6795 70.1661C87.8321 70.0186 87.9495 69.8354 88.0336 69.6165L88.9836 69.8788C88.8838 70.197 88.7155 70.4766 88.4797 70.7177C88.243 70.9549 87.9514 71.142 87.6041 71.276C87.2291 71.4121 86.8317 71.4788 86.4321 71.4727ZM91.5644 67.5442V71.3416H90.5802V65.0303H91.5311V66.0158H91.6143C91.7649 65.6957 91.9929 65.4373 92.2991 65.2444C92.6043 65.0467 92.9986 64.9474 93.4829 64.9474C93.9153 64.9474 94.2949 65.0352 94.6207 65.2107C94.9455 65.3833 95.1979 65.6465 95.3789 65.9994C95.5599 66.3504 95.6499 66.794 95.6499 67.3302V71.3416H94.6667V67.3977C94.6667 66.901 94.5356 66.5144 94.2743 66.2376C94.0131 65.958 93.6551 65.8191 93.1982 65.8191C92.8851 65.8191 92.6043 65.8866 92.3568 66.0197C92.1122 66.1547 91.9185 66.3504 91.7767 66.6079C91.6348 66.8654 91.5644 67.1768 91.5644 67.5442ZM100.232 65.0303V65.8519H96.9149V65.0303H100.232ZM97.8814 63.5174H98.8656V69.5335C98.8656 69.8074 98.9057 70.0128 98.986 70.1507C99.057 70.2739 99.169 70.3692 99.3029 70.4207C99.434 70.465 99.571 70.4872 99.7158 70.4872C99.8234 70.4872 99.9134 70.4814 99.9829 70.4708L100.149 70.4371L100.35 71.3088C100.258 71.3402 100.165 71.365 100.07 71.383C99.9206 71.4131 99.7684 71.4267 99.616 71.4235C99.3382 71.4235 99.0652 71.3657 98.7991 71.2471C98.5344 71.1291 98.3067 70.9433 98.1397 70.709C97.9675 70.4679 97.8814 70.1632 97.8814 69.7968V63.5174ZM105.149 71.3416V62.9263H108.035C108.701 62.9263 109.249 63.0381 109.676 63.2638C110.105 63.4855 110.422 63.7903 110.627 64.1798C110.833 64.5684 110.936 65.011 110.936 65.5067C110.936 66.0023 110.833 66.442 110.627 66.8258C110.422 67.2096 110.107 67.5105 109.681 67.7294C109.255 67.9463 108.712 68.0543 108.051 68.0543H105.716V67.1334H108.017C108.473 67.1334 108.84 67.0679 109.118 66.9367C109.379 66.8228 109.594 66.6258 109.727 66.3774C109.854 66.1335 109.919 65.8432 109.919 65.5067C109.919 65.1692 109.854 64.8751 109.727 64.6234C109.594 64.3668 109.378 64.1614 109.114 64.04C108.833 63.9002 108.462 63.8298 108 63.8298H106.183V71.3416H105.149ZM109.168 67.5616L111.268 71.3416H110.067L107.999 67.5616H109.168ZM115.058 71.4727C114.48 71.4727 113.972 71.3377 113.537 71.0658C113.096 70.7875 112.744 70.3933 112.519 69.9279C112.278 69.44 112.156 68.8711 112.156 68.2183C112.156 67.5616 112.278 66.9869 112.518 66.497C112.742 66.0297 113.095 65.6337 113.536 65.3543C113.973 65.0834 114.48 64.9474 115.058 64.9474C115.635 64.9474 116.142 65.0824 116.575 65.3543C117.012 65.6253 117.351 66.0062 117.593 66.497C117.837 66.9869 117.96 67.5616 117.96 68.2183C117.96 68.8701 117.837 69.44 117.593 69.9279C117.351 70.4159 117.012 70.7958 116.575 71.0658C116.142 71.3377 115.636 71.4727 115.058 71.4727ZM115.058 70.602C115.497 70.602 115.858 70.4911 116.142 70.2693C116.426 70.0475 116.635 69.7553 116.771 69.3937C116.908 69.0321 116.976 68.6406 116.976 68.2183C116.976 67.7969 116.908 67.4034 116.771 67.0389C116.648 66.6929 116.43 66.3872 116.142 66.1557C115.858 65.931 115.496 65.8182 115.058 65.8182C114.619 65.8182 114.258 65.931 113.974 66.1557C113.69 66.3803 113.481 66.6744 113.345 67.0389C113.206 67.4169 113.136 67.8162 113.139 68.2183C113.139 68.6406 113.208 69.0321 113.345 69.3947C113.481 69.7553 113.69 70.0475 113.974 70.2693C114.258 70.4911 114.619 70.602 115.058 70.602ZM120.446 62.9263V71.3416H119.461V62.9263H120.446ZM123.231 62.9263V71.3416H122.248V62.9263H123.231ZM127.634 71.4727C127.056 71.4727 126.549 71.3377 126.113 71.0658C125.673 70.7874 125.32 70.3933 125.096 69.9279C124.854 69.44 124.733 68.8711 124.733 68.2183C124.733 67.5616 124.854 66.9869 125.096 66.497C125.34 66.0062 125.68 65.6253 126.113 65.3543C126.549 65.0834 127.056 64.9474 127.634 64.9474C128.212 64.9474 128.718 65.0824 129.152 65.3543C129.595 65.6317 129.948 66.0282 130.169 66.497C130.414 66.9869 130.536 67.5616 130.536 68.2183C130.536 68.8701 130.414 69.44 130.169 69.9279C129.946 70.3947 129.593 70.7893 129.152 71.0658C128.718 71.3377 128.212 71.4727 127.634 71.4727ZM127.634 70.602C128.074 70.602 128.436 70.4911 128.718 70.2693C129.002 70.0475 129.212 69.7553 129.348 69.3937C129.487 69.0171 129.556 68.619 129.553 68.2183C129.553 67.7969 129.484 67.4034 129.348 67.0389C129.225 66.6928 129.007 66.387 128.718 66.1557C128.436 65.931 128.074 65.8182 127.634 65.8182C127.195 65.8182 126.834 65.931 126.55 66.1557C126.262 66.3874 126.044 66.693 125.921 67.0389C125.783 67.417 125.713 67.8163 125.717 68.2183C125.717 68.6406 125.785 69.0321 125.921 69.3947C126.057 69.7553 126.268 70.0475 126.55 70.2693C126.834 70.4911 127.195 70.602 127.634 70.602ZM136.073 68.7602V65.0303H137.058V71.3416H136.073V70.2732H136.007C135.85 70.6016 135.609 70.8836 135.306 71.0909C134.989 71.3127 134.589 71.4235 134.106 71.4235C133.706 71.4235 133.35 71.3368 133.039 71.1651C132.719 70.9809 132.463 70.706 132.305 70.3763C132.127 70.0224 132.038 69.5769 132.038 69.0408V65.0294H133.022V68.9743C133.022 69.4352 133.153 69.8016 133.414 70.0755C133.678 70.3503 134.014 70.4872 134.423 70.4872C134.667 70.4872 134.916 70.4255 135.169 70.3021C135.425 70.1787 135.639 69.9897 135.811 69.7351C135.986 69.4805 136.073 69.1546 136.073 68.7602ZM141.645 65.0303V65.8519H138.326V65.0303H141.645ZM139.293 63.5174H140.277V69.5335C140.277 69.8074 140.317 70.0128 140.399 70.1507C140.469 70.2737 140.581 70.369 140.715 70.4207C140.846 70.465 140.984 70.4872 141.127 70.4872C141.236 70.4872 141.325 70.4814 141.394 70.4708L141.561 70.4371L141.761 71.3088C141.67 71.3403 141.577 71.3651 141.482 71.383C141.332 71.4131 141.18 71.4267 141.028 71.4235C140.75 71.4235 140.477 71.3657 140.211 71.2471C139.946 71.1291 139.718 70.9433 139.551 70.709C139.379 70.4679 139.293 70.1632 139.293 69.7968V63.5174Z" fill="#A1A1A1"/>
<path d="M208.138 63.627H154.33C152.439 63.627 150.906 65.138 150.906 67.002C150.906 68.8659 152.439 70.377 154.33 70.377H208.138C210.029 70.377 211.562 68.8659 211.562 67.002C211.562 65.138 210.029 63.627 208.138 63.627Z" fill="#484848"/>
<path d="M317.221 34.2163H301.568C297.246 34.2163 293.741 37.6701 293.741 41.9306V57.3592C293.741 61.6196 297.246 65.0735 301.568 65.0735H317.221C321.544 65.0735 325.048 61.6196 325.048 57.3592V41.9306C325.048 37.6701 321.544 34.2163 317.221 34.2163Z" fill="#484848"/>
<path d="M306.46 43.8594L312.33 49.6451L306.46 55.4308" stroke="white" stroke-width="0.971281"/>
<path d="M332.876 13.001H27.6368C23.5839 13.001 20.2983 16.2393 20.2983 20.2341V79.0555C20.2983 83.0502 23.5839 86.2886 27.6368 86.2886H332.876C336.928 86.2886 340.214 83.0502 340.214 79.0555V20.2341C340.214 16.2393 336.928 13.001 332.876 13.001Z" stroke="#484848" stroke-width="0.968367"/>
</g>
</g>
<defs>
<clipPath id="clip0_1_9034">
<rect width="320.891" height="74.25" fill="white" transform="translate(19.8101 99.9697)"/>
</clipPath>
<clipPath id="clip1_1_9034">
<rect width="320.891" height="74.25" fill="white" transform="translate(19.8101 99.9697)"/>
</clipPath>
<clipPath id="clip2_1_9034">
<rect width="320.891" height="74.25" fill="white" transform="translate(19.8101 12.52)"/>
</clipPath>
<clipPath id="clip3_1_9034">
<rect width="320.891" height="74.25" fill="white" transform="translate(19.8101 12.52)"/>
</clipPath>
</defs>
</svg>
