<svg width="17" height="16" viewBox="0 0 17 16" fill="none" xmlns="http://www.w3.org/2000/svg">
<g clip-path="url(#clip0_1_9882)">
<g clip-path="url(#clip1_1_9882)">
<mask id="mask0_1_9882" style="mask-type:luminance" maskUnits="userSpaceOnUse" x="0" y="0" width="17" height="16">
<path d="M16.3301 0H0.330078V16H16.3301V0Z" fill="white"/>
</mask>
<g mask="url(#mask0_1_9882)">
<path d="M8.33008 0C3.91275 0 0.330078 3.582 0.330078 8C0.330078 11.5347 2.62208 14.5333 5.80141 15.5913C6.20075 15.6653 6.33008 15.4173 6.33008 15.2067V13.7173C4.10475 14.2013 3.64141 12.7733 3.64141 12.7733C3.27741 11.8487 2.75275 11.6027 2.75275 11.6027C2.02675 11.106 2.80808 11.1167 2.80808 11.1167C3.61141 11.1727 4.03408 11.9413 4.03408 11.9413C4.74741 13.164 5.90541 12.8107 6.36208 12.606C6.43341 12.0893 6.64075 11.736 6.87008 11.5367C5.09341 11.3333 3.22541 10.6473 3.22541 7.58267C3.22541 6.70867 3.53808 5.99533 4.04941 5.43533C3.96675 5.23333 3.69275 4.41933 4.12741 3.318C4.12741 3.318 4.79941 3.10333 6.32808 4.138C6.96608 3.96067 7.65008 3.872 8.33008 3.86867C9.01008 3.872 9.69475 3.96067 10.3341 4.138C11.8614 3.10333 12.5321 3.318 12.5321 3.318C12.9674 4.42 12.6934 5.234 12.6108 5.43533C13.1241 5.99533 13.4341 6.70933 13.4341 7.58267C13.4341 10.6553 11.5628 11.332 9.78141 11.53C10.0681 11.778 10.3301 12.2647 10.3301 13.0113V15.2067C10.3301 15.4193 10.4581 15.6693 10.8641 15.5907C14.0408 14.5313 16.3301 11.5333 16.3301 8C16.3301 3.582 12.7481 0 8.33008 0Z" fill="white"/>
</g>
</g>
</g>
<defs>
<clipPath id="clip0_1_9882">
<rect width="16" height="16" fill="white" transform="translate(0.330078)"/>
</clipPath>
<clipPath id="clip1_1_9882">
<rect width="16" height="16" fill="white" transform="translate(0.330078)"/>
</clipPath>
</defs>
</svg>
