<svg width="27" height="26" viewBox="0 0 27 26" fill="none" xmlns="http://www.w3.org/2000/svg">
<path fill-rule="evenodd" clip-rule="evenodd" d="M0.137939 24.632C0.137939 25.387 0.749939 26 1.50594 26H6.97994C7.73594 26 8.34794 25.387 8.34794 24.632V21.793C8.34794 21.038 8.96094 20.425 9.71694 20.425H10.5029C11.2579 20.425 11.8709 19.812 11.8709 19.056V15.636C11.8709 14.88 11.2579 14.267 10.5029 14.267H7.08194C6.32594 14.267 5.71294 14.88 5.71294 15.635V16.421C5.71294 17.177 5.09994 17.79 4.34494 17.79H1.50594C0.750939 17.79 0.137939 18.402 0.137939 19.158V24.632ZM8.34794 4.89C8.34794 5.646 8.96094 6.258 9.71694 6.258H10.5029C11.2579 6.258 11.8709 6.871 11.8709 7.627V10.364C11.8709 11.119 11.2579 11.732 10.5029 11.732H7.76594C7.58621 11.7321 7.40821 11.6968 7.24212 11.6282C7.07603 11.5595 6.92511 11.4587 6.79797 11.3317C6.67083 11.2046 6.56998 11.0538 6.50117 10.8877C6.43236 10.7217 6.39694 10.5437 6.39694 10.364V9.578C6.39694 8.822 5.78494 8.21 5.02894 8.21H1.50594C1.14312 8.21 0.795167 8.06587 0.538617 7.80932C0.282068 7.55277 0.137939 7.20482 0.137939 6.842V1.37C0.137939 0.613 0.749939 0 1.50594 0H6.97994C7.73594 0 8.34794 0.613 8.34794 1.369V4.89ZM19.8779 9.578C19.8779 8.822 20.4909 8.21 21.2469 8.21H24.7699C25.5249 8.21 26.1379 7.597 26.1379 6.841V1.37C26.1379 1.007 25.9939 0.658838 25.7374 0.40197C25.4809 0.145103 25.1329 0.000529927 24.7699 0L19.2959 0C18.9329 0.000264867 18.5849 0.144583 18.3282 0.401263C18.0715 0.657943 17.9272 1.006 17.9269 1.369V4.89C17.9269 5.646 17.3149 6.258 16.5589 6.258H15.7729C15.0179 6.258 14.4049 6.871 14.4049 7.627V10.364C14.4049 11.119 15.0179 11.732 15.7729 11.732H18.5099C19.2659 11.732 19.8789 11.119 19.8789 10.364L19.8779 9.578ZM26.1379 24.631C26.1379 25.386 25.5249 25.999 24.7689 25.999H19.2959C19.1162 25.9991 18.9382 25.9638 18.7721 25.8952C18.606 25.8265 18.4551 25.7257 18.328 25.5987C18.2008 25.4716 18.1 25.3208 18.0312 25.1547C17.9624 24.9887 17.9269 24.8107 17.9269 24.631V21.108C17.9269 20.353 17.3139 19.74 16.5589 19.74H15.7729C15.5932 19.74 15.4152 19.7046 15.2492 19.6358C15.0832 19.567 14.9323 19.4661 14.8053 19.339C14.6782 19.2118 14.5775 19.0609 14.5088 18.8948C14.4401 18.7287 14.4048 18.5507 14.4049 18.371V15.635C14.4049 14.879 15.0179 14.266 15.7729 14.266H18.5099C18.8729 14.2663 19.221 14.4106 19.4777 14.6673C19.7344 14.9239 19.8787 15.272 19.8789 15.635V16.42C19.8789 17.176 20.4909 17.789 21.2469 17.789H24.7689C25.5249 17.789 26.1379 18.401 26.1379 19.157V24.631Z" fill="#131313"/>
</svg>
