<svg width="14" height="16" viewBox="0 0 14 16" fill="none" xmlns="http://www.w3.org/2000/svg">
<g clip-path="url(#clip0_1_9173)">
<g clip-path="url(#clip1_1_9173)">
<path fill-rule="evenodd" clip-rule="evenodd" d="M0 14.1917C0 14.5987 0.33 14.9287 0.737 14.9287H3.684C4.091 14.9287 4.421 14.5987 4.421 14.1917V12.6637C4.421 12.2567 4.751 11.9267 5.158 11.9267H5.581C5.988 11.9267 6.318 11.5967 6.318 11.1897V9.34771C6.318 9.25093 6.29894 9.15509 6.2619 9.06567C6.22486 8.97626 6.17057 8.89501 6.10214 8.82657C6.0337 8.75814 5.95245 8.70385 5.86304 8.66681C5.77362 8.62977 5.67778 8.61071 5.581 8.61071H3.739C3.54354 8.61071 3.35608 8.68836 3.21786 8.82657C3.07965 8.96479 3.002 9.15225 3.002 9.34771V9.77071C3.002 10.1777 2.672 10.5077 2.265 10.5077H0.737C0.541535 10.5077 0.354077 10.5854 0.215862 10.7236C0.077648 10.8618 0 11.0492 0 11.2447L0 14.1917ZM4.421 3.56171C4.421 3.96871 4.751 4.29871 5.158 4.29871H5.581C5.988 4.29871 6.318 4.62871 6.318 5.03571V6.50971C6.318 6.91671 5.988 7.24671 5.581 7.24671H4.107C3.91154 7.24671 3.72408 7.16906 3.58586 7.03085C3.44765 6.89263 3.37 6.70518 3.37 6.50971V6.08671C3.37 5.89142 3.29249 5.70411 3.15449 5.56593C3.01649 5.42774 2.82929 5.34998 2.634 5.34971H0.737C0.541535 5.34971 0.354077 5.27206 0.215862 5.13385C0.077648 4.99563 0 4.80818 0 4.61271L0 1.66571C0 1.25871 0.33 0.928711 0.737 0.928711H3.684C4.091 0.928711 4.421 1.25871 4.421 1.66571V3.56171ZM10.63 6.08671C10.63 5.67971 10.96 5.34971 11.366 5.34971H13.263C13.67 5.34971 14 5.01971 14 4.61271V1.66571C14 1.47025 13.9224 1.28279 13.7841 1.14457C13.6459 1.00636 13.4585 0.928711 13.263 0.928711H10.316C10.2192 0.928711 10.1234 0.947774 10.034 0.984812C9.94455 1.02185 9.8633 1.07614 9.79486 1.14457C9.72643 1.21301 9.67214 1.29426 9.6351 1.38367C9.59806 1.47309 9.579 1.56893 9.579 1.66571V3.56171C9.579 3.96871 9.249 4.29871 8.842 4.29871H8.42C8.22454 4.29871 8.03708 4.37636 7.89886 4.51457C7.76065 4.65279 7.683 4.84025 7.683 5.03571V6.50971C7.683 6.91671 8.013 7.24671 8.42 7.24671H9.894C10.301 7.24671 10.631 6.91671 10.631 6.50971L10.63 6.08671ZM14 14.1917C14 14.5987 13.67 14.9287 13.263 14.9287H10.316C10.2192 14.9287 10.1234 14.9096 10.034 14.8726C9.94455 14.8356 9.8633 14.7813 9.79486 14.7128C9.72643 14.6444 9.67214 14.5632 9.6351 14.4737C9.59806 14.3843 9.579 14.2885 9.579 14.1917V12.2947C9.57874 12.0994 9.50097 11.9122 9.36278 11.7742C9.2246 11.6362 9.03729 11.5587 8.842 11.5587H8.419C8.22354 11.5587 8.03608 11.4811 7.89786 11.3428C7.75965 11.2046 7.682 11.0172 7.682 10.8217V9.34771C7.682 8.94071 8.012 8.61071 8.419 8.61071H9.893C10.3 8.61071 10.63 8.94071 10.63 9.34771V9.77071C10.63 10.1777 10.96 10.5077 11.366 10.5077H13.263C13.67 10.5077 14 10.8377 14 11.2447V14.1917Z" fill="white"/>
</g>
</g>
<defs>
<clipPath id="clip0_1_9173">
<rect width="14" height="15" fill="white" transform="translate(0 0.549805)"/>
</clipPath>
<clipPath id="clip1_1_9173">
<rect width="14" height="15" fill="white" transform="translate(0 0.549805)"/>
</clipPath>
</defs>
</svg>
