<svg width="1032" height="282" viewBox="0 0 1032 282" fill="none" xmlns="http://www.w3.org/2000/svg">
<g clip-path="url(#clip0_1_9557)">
<g clip-path="url(#clip1_1_9557)">
<g clip-path="url(#clip2_1_9557)">
<mask id="mask0_1_9557" style="mask-type:luminance" maskUnits="userSpaceOnUse" x="0" y="-72" width="1070" height="426">
<path d="M0 -71.3699H1070V353.63H0V-71.3699Z" fill="white"/>
</mask>
<g mask="url(#mask0_1_9557)">
<path opacity="0.2" d="M876.775 160.676L873.671 202.882L832.118 225.16L766.775 229.839L715.189 233.877L718.088 145.732L876.775 160.676Z" fill="black"/>
<path d="M626.804 151.091L724.704 94.4343L812.84 145.439L714.94 202.096L626.804 151.091Z" fill="#1F1F1F"/>
<path d="M626.775 104.047L673.732 17.9995L762.073 69.191L715.105 155.261L626.775 104.047Z" fill="#585858"/>
<path fill-rule="evenodd" clip-rule="evenodd" d="M674.089 34.8222L640.727 95.957C639.996 97.2967 639.817 98.87 640.228 100.34C640.64 101.81 641.609 103.061 642.928 103.825L706.734 140.749C707.407 141.139 708.151 141.39 708.922 141.487C709.693 141.584 710.475 141.526 711.224 141.316C711.972 141.105 712.671 140.748 713.279 140.263C713.887 139.778 714.393 139.176 714.766 138.493L748.136 77.3412C748.867 76.0014 749.046 74.4279 748.635 72.9574C748.224 71.4869 747.254 70.2361 745.935 69.4727L682.12 32.5638C681.447 32.1748 680.703 31.9244 679.932 31.8275C679.161 31.7305 678.379 31.7889 677.63 31.9993C676.882 32.2097 676.184 32.5678 675.575 33.0525C674.967 33.5373 674.462 34.1389 674.089 34.8222Z" fill="#1F1F1F"/>
<path d="M645.236 95.7053L678.598 34.5705C679.176 33.5055 680.072 32.6485 681.161 32.1197C679.854 31.6538 678.424 31.6699 677.128 32.1651C675.832 32.6604 674.755 33.6024 674.089 34.8221L640.727 95.9569C639.996 97.2966 639.817 98.8699 640.228 100.34C640.64 101.81 641.609 103.061 642.928 103.824L706.734 140.75C707.56 141.229 708.491 141.497 709.444 141.531C710.398 141.564 711.345 141.363 712.203 140.944C711.87 140.824 711.549 140.675 711.243 140.498L647.436 103.573C646.117 102.809 645.148 101.558 644.737 100.088C644.326 98.618 644.505 97.045 645.236 95.7053Z" fill="#131313"/>
<path d="M673.73 18.0727L724.511 -11.101L812.666 39.874L762.086 69.1749L673.73 18.0727Z" fill="#484848"/>
<path d="M687.844 21.7763C685.079 20.1766 685.087 17.5795 687.857 15.9827C690.617 14.393 695.084 14.392 697.84 15.9847C700.602 17.5805 700.599 20.1726 697.84 21.7703C695.082 23.3681 690.605 23.3721 687.844 21.7763Z" fill="#2D2D2D"/>
<path d="M687.752 20.1084C684.987 18.5107 684.991 15.9166 687.76 14.3208L687.899 14.2406C690.657 12.6509 695.119 12.6529 697.873 14.2446C700.634 15.8404 700.637 18.4295 697.878 20.0262L697.74 20.1064C694.983 21.7032 690.511 21.7042 687.752 20.1084Z" fill="#585858"/>
<path d="M762.059 69.1479L812.658 39.866V181.097L762.059 210.378L713.457 232.8L707.826 195.889L714.911 155.24L762.059 69.1479Z" fill="#1C1C1C"/>
<path d="M740.468 51.7269C738.87 50.8037 738.872 49.3042 740.473 48.382L755.993 39.444C757.587 38.5258 760.165 38.5268 761.756 39.447L780.406 50.2263C782.001 51.1485 782.002 52.644 780.409 53.5672L764.928 62.5323C763.335 63.4545 760.751 63.4555 759.157 62.5333L740.468 51.7269Z" fill="#2D2D2D"/>
<path d="M740.579 49.5167C738.981 48.5935 738.984 47.094 740.585 46.1718L756.104 37.2338C757.699 36.3156 760.276 36.3166 761.867 37.2368L780.517 48.0161C782.112 48.9383 782.114 50.4338 780.52 51.357L765.04 60.3211C763.446 61.2443 760.863 61.2443 759.268 60.3231L740.579 49.5167Z" fill="#585858"/>
<path d="M626.775 104.029L714.939 155.074V233.72L626.775 182.698V104.029Z" fill="#303030"/>
<path d="M626.778 104.028L714.942 155.072V233.924L626.778 182.903V104.028Z" fill="#303030"/>
<path d="M634.282 142.444C634.282 139.987 636.003 138.992 638.126 140.222L654.055 149.449C655.197 150.11 656.123 151.718 656.123 153.04V189.255C656.123 190.578 655.196 191.114 654.054 190.452L636.351 180.208C635.208 179.547 634.282 177.939 634.282 176.616V142.444Z" fill="#1F1F1F"/>
<path d="M634.282 141.531C634.282 140.208 635.209 139.672 636.352 140.334L652.69 149.799C653.832 150.46 654.757 152.068 654.757 153.389V188.466C654.757 189.789 653.831 190.324 652.689 189.663L636.351 180.208C635.208 179.547 634.282 177.939 634.282 176.617V141.531Z" fill="#262626"/>
<path d="M696.729 163.452C696.729 161.158 698.338 160.231 700.319 161.382C702.295 162.53 703.896 165.311 703.896 167.599V208.032C703.896 210.322 702.292 211.25 700.313 210.106C698.334 208.96 696.729 206.175 696.729 203.884V163.452Z" fill="#131313"/>
<path d="M699.286 160.746C699.177 161.08 699.118 161.468 699.118 161.907V202.412C699.118 204.703 700.723 207.488 702.701 208.633C703.058 208.84 703.403 208.979 703.728 209.055C703.267 210.463 701.912 210.892 700.313 209.967C698.334 208.821 696.729 206.037 696.729 203.747V163.241C696.729 161.363 697.808 160.401 699.286 160.746Z" fill="#1F1F1F"/>
<path d="M639.001 133.018C641.985 134.745 644.404 133.345 644.404 129.892C644.404 126.438 641.985 122.239 639.001 120.513C636.018 118.786 633.599 120.186 633.599 123.639C633.599 127.092 636.018 131.291 639.001 133.018Z" fill="#1F1F1F"/>
<path d="M637.634 133.703C640.618 135.429 643.037 134.03 643.037 130.576C643.037 127.123 640.618 122.924 637.634 121.197C634.651 119.471 632.232 120.87 632.232 124.324C632.232 127.777 634.651 131.976 637.634 133.703Z" fill="#4A4A4A"/>
<path d="M652.655 141.227C655.639 142.954 658.058 141.554 658.058 138.101C658.058 134.648 655.639 130.449 652.655 128.722C649.672 126.995 647.253 128.395 647.253 131.848C647.253 135.302 649.672 139.501 652.655 141.227Z" fill="#1F1F1F"/>
<path d="M651.289 141.911C654.273 143.638 656.692 142.238 656.692 138.785C656.692 135.331 654.273 131.132 651.289 129.406C648.306 127.679 645.887 129.079 645.887 132.532C645.887 135.985 648.306 140.184 651.289 141.911Z" fill="#4A4A4A"/>
<path d="M714.942 155.332L810.772 99.8741V177.895L714.942 233.353V155.332Z" fill="#1F1F1F"/>
<path d="M714.942 155.332L810.772 99.8741V178.661L714.942 234.119V155.332Z" fill="#1C1C1C"/>
<path d="M803.821 115.753L758.569 141.941C757.589 142.508 756.795 143.887 756.795 145.02V197.466C756.795 198.6 757.589 199.059 758.569 198.492L803.821 172.304C804.801 171.737 805.595 170.359 805.595 169.225V116.779C805.595 115.646 804.801 115.186 803.821 115.753Z" fill="#252525"/>
<path d="M681.708 85.5555C681.469 85.9882 681.147 86.3688 680.76 86.6752C680.373 86.9815 679.929 87.2074 679.453 87.3395C678.978 87.4717 678.481 87.5075 677.992 87.4449C677.503 87.3823 677.031 87.2225 676.604 86.9748C674.803 85.9324 674.155 83.5919 675.163 81.7686C675.402 81.3359 675.724 80.9552 676.111 80.6489C676.498 80.3426 676.942 80.1168 677.418 79.9847C677.893 79.8526 678.39 79.8169 678.879 79.8797C679.368 79.9425 679.84 80.1024 680.267 80.3502L683.539 82.2437L681.708 85.5555ZM683.357 86.5107C683.595 86.0779 683.918 85.6972 684.305 85.3908C684.692 85.0844 685.136 84.8585 685.611 84.7263C686.087 84.5941 686.584 84.5583 687.073 84.621C687.562 84.6837 688.034 84.8436 688.461 85.0914C690.261 86.1338 690.909 88.4744 689.901 90.2976L685.314 98.5912C685.075 99.0238 684.753 99.4044 684.366 99.7108C683.979 100.017 683.535 100.243 683.06 100.375C682.585 100.507 682.088 100.543 681.599 100.481C681.11 100.418 680.638 100.258 680.211 100.011C678.41 98.9681 677.762 96.6275 678.77 94.8043L683.357 86.5107Z" fill="#E01E5A"/>
<path d="M693.985 75.1029C692.184 74.0604 691.536 71.7199 692.544 69.8966C692.783 69.464 693.105 69.0834 693.492 68.7772C693.879 68.471 694.324 68.2452 694.799 68.1132C695.274 67.9811 695.771 67.9453 696.26 68.008C696.749 68.0707 697.221 68.2306 697.648 68.4783C699.449 69.5207 700.097 71.8612 699.088 73.6845L697.257 76.9963L693.985 75.1029ZM693.061 76.7718C694.862 77.8142 695.509 80.1548 694.501 81.978C694.262 82.4108 693.94 82.7914 693.553 83.0977C693.166 83.404 692.722 83.6298 692.246 83.7619C691.771 83.894 691.274 83.9297 690.785 83.8669C690.296 83.8042 689.824 83.6442 689.397 83.3964L681.204 78.6552C679.403 77.6128 678.756 75.2723 679.764 73.449C680.003 73.0164 680.325 72.6358 680.712 72.3296C681.099 72.0234 681.544 71.7976 682.019 71.6655C682.494 71.5334 682.991 71.4977 683.48 71.5604C683.969 71.6231 684.441 71.783 684.868 72.0306L693.061 76.7718Z" fill="#36C5F0"/>
<path d="M704.368 87.6876C704.607 87.2548 704.929 86.8742 705.316 86.5679C705.703 86.2616 706.147 86.0358 706.623 85.9037C707.098 85.7716 707.595 85.7359 708.084 85.7987C708.573 85.8614 709.045 86.0214 709.472 86.2692C711.273 87.3107 711.921 89.6512 710.913 91.4745C710.674 91.9071 710.352 92.2876 709.965 92.5939C709.578 92.9001 709.134 93.1259 708.658 93.2581C708.183 93.3903 707.686 93.4261 707.197 93.3636C706.708 93.301 706.236 93.1413 705.809 92.8938L702.537 91.0004L704.368 87.6876ZM702.72 86.7333C702.481 87.166 702.159 87.5467 701.772 87.853C701.385 88.1593 700.941 88.3851 700.465 88.5172C699.99 88.6493 699.493 88.685 699.004 88.6222C698.515 88.5594 698.043 88.3995 697.616 88.1516C695.815 87.1102 695.167 84.7697 696.176 82.9464L700.762 74.6529C701.001 74.2201 701.323 73.8393 701.71 73.5329C702.097 73.2265 702.541 73.0006 703.017 72.8684C703.492 72.7363 703.989 72.7005 704.478 72.7632C704.967 72.8258 705.439 72.9858 705.866 73.2335C707.667 74.276 708.314 76.6165 707.306 78.4398L702.72 86.7333Z" fill="#2EB67D"/>
<path d="M692.092 98.1401C693.893 99.1826 694.541 101.523 693.533 103.345C693.295 103.778 692.972 104.159 692.585 104.465C692.198 104.772 691.754 104.998 691.279 105.13C690.803 105.262 690.306 105.298 689.817 105.235C689.328 105.172 688.856 105.013 688.429 104.765C686.628 103.722 685.98 101.382 686.989 99.5585L688.82 96.2467L692.092 98.1401ZM693.015 96.4712C691.214 95.4298 690.566 93.0893 691.575 91.266C691.814 90.8333 692.136 90.4527 692.523 90.1464C692.91 89.84 693.354 89.6142 693.829 89.482C694.304 89.3498 694.801 89.314 695.29 89.3766C695.779 89.4392 696.251 89.599 696.678 89.8466L704.871 94.5888C706.672 95.6302 707.32 97.9707 706.312 99.794C706.073 100.227 705.751 100.607 705.364 100.913C704.977 101.22 704.533 101.446 704.057 101.578C703.582 101.71 703.085 101.746 702.596 101.683C702.107 101.621 701.635 101.461 701.208 101.213L693.015 96.4712Z" fill="#ECB22E"/>
<path d="M596.675 188.242L742.024 272.356C745.85 274.57 745.85 278.161 742.024 280.375L676.132 318.507C672.306 320.721 666.102 320.721 662.275 318.507L516.927 234.393C513.101 232.178 513.101 228.588 516.927 226.374L582.819 188.242C586.645 186.027 592.849 186.027 596.675 188.242Z" fill="black" fill-opacity="0.1"/>
<path d="M572.675 184.232L718.024 268.347C721.85 270.561 721.85 274.151 718.024 276.365L652.132 314.498C648.306 316.712 642.102 316.712 638.275 314.498L492.927 230.383C489.101 228.169 489.101 224.579 492.927 222.364L558.819 184.232C562.645 182.018 568.849 182.018 572.675 184.232Z" fill="#262626"/>
<path d="M638.275 318.006L492.928 233.892C490.996 232.774 490.039 231.304 490.058 229.839L490.054 214.804L720.893 260.912L720.892 275.947C720.856 277.371 719.9 278.787 718.024 279.874L652.132 318.006C648.305 320.221 642.102 320.221 638.275 318.006Z" fill="#1F1F1F"/>
<path d="M572.675 172.553L718.024 256.667C721.85 258.881 721.85 262.472 718.024 264.686L652.132 302.818C648.306 305.033 642.102 305.033 638.275 302.818L492.927 218.704C489.101 216.489 489.101 212.899 492.927 210.685L558.819 172.553C562.645 170.338 568.849 170.338 572.675 172.553Z" fill="#303030"/>
<path d="M573.634 171.201L716.126 253.662C719.952 255.876 719.952 259.466 716.126 261.681L652.135 298.713C648.308 300.927 642.105 300.927 638.278 298.713L495.787 216.252C491.961 214.038 491.961 210.447 495.787 208.233L559.778 171.201C563.604 168.987 569.808 168.987 573.634 171.201Z" fill="#484848"/>
<path d="M573.634 169.196L716.126 251.657C719.952 253.872 719.952 257.462 716.126 259.676L652.135 296.708C648.308 298.923 642.105 298.923 638.278 296.708L495.787 214.247C491.961 212.033 491.961 208.443 495.787 206.228L559.778 169.196C563.604 166.982 569.808 166.982 573.634 169.196Z" fill="#585858"/>
<path d="M588.427 214.5L598.692 220.441C600.605 221.548 600.605 223.343 598.692 224.45L587.79 230.759C585.877 231.866 582.775 231.866 580.862 230.759L570.597 224.819C568.684 223.711 568.684 221.916 570.597 220.809L581.499 214.5C583.412 213.393 586.514 213.393 588.427 214.5Z" fill="#484848"/>
<path d="M608.333 226.02L619.19 232.303C621.103 233.41 621.103 235.205 619.19 236.312L608.288 242.621C606.375 243.728 603.273 243.728 601.36 242.621L590.504 236.338C588.59 235.231 588.59 233.436 590.504 232.329L601.405 226.02C603.318 224.913 606.42 224.913 608.333 226.02Z" fill="#484848"/>
<path d="M567.626 202.463L578.774 208.915C580.687 210.022 580.687 211.817 578.774 212.924L567.872 219.233C565.959 220.34 562.857 220.34 560.944 219.233L549.796 212.781C547.883 211.674 547.883 209.879 549.796 208.772L560.697 202.463C562.61 201.356 565.712 201.356 567.626 202.463Z" fill="#484848"/>
<path d="M546.515 190.246L557.578 196.648C559.491 197.755 559.491 199.55 557.578 200.657L546.676 206.966C544.763 208.073 541.661 208.073 539.748 206.966L528.685 200.564C526.772 199.457 526.772 197.662 528.685 196.555L539.587 190.246C541.5 189.139 544.602 189.139 546.515 190.246Z" fill="#484848"/>
<path d="M628.809 237.87L639.821 244.243C641.734 245.35 641.734 247.145 639.821 248.252L628.919 254.561C627.006 255.668 623.904 255.668 621.991 254.561L610.979 248.189C609.066 247.081 609.066 245.286 610.979 244.179L621.881 237.87C623.794 236.763 626.896 236.763 628.809 237.87Z" fill="#484848"/>
<path d="M650.368 250.34L683.14 269.306C685.053 270.413 685.053 272.208 683.14 273.315L672.238 279.624C670.325 280.731 667.223 280.731 665.31 279.624L632.538 260.658C630.625 259.551 630.625 257.756 632.538 256.649L643.439 250.34C645.353 249.233 648.454 249.233 650.368 250.34Z" fill="#484848"/>
<path d="M547.207 213.786L558.445 220.289C560.358 221.397 560.358 223.192 558.445 224.299L547.543 230.608C545.63 231.715 542.528 231.715 540.615 230.608L529.377 224.104C527.464 222.997 527.464 221.202 529.377 220.095L540.279 213.786C542.192 212.679 545.294 212.679 547.207 213.786Z" fill="#484848"/>
<path d="M526.054 201.544L536.967 207.859C538.88 208.966 538.88 210.762 536.967 211.869L526.065 218.178C524.152 219.285 521.05 219.285 519.137 218.178L508.224 211.862C506.311 210.755 506.311 208.96 508.224 207.853L519.126 201.544C521.039 200.437 524.141 200.437 526.054 201.544Z" fill="#484848"/>
<path d="M630.971 262.261L642.06 268.678C643.973 269.786 643.973 271.581 642.06 272.688L631.158 278.997C629.245 280.104 626.143 280.104 624.23 278.997L613.141 272.58C611.228 271.472 611.228 269.677 613.141 268.57L624.043 262.261C625.956 261.154 629.058 261.154 630.971 262.261Z" fill="#484848"/>
<path d="M652.098 274.487L662.97 280.779C664.883 281.886 664.883 283.681 662.97 284.788L652.068 291.097C650.155 292.204 647.053 292.204 645.14 291.097L634.268 284.805C632.355 283.698 632.355 281.903 634.268 280.796L645.17 274.487C647.083 273.38 650.185 273.38 652.098 274.487Z" fill="#484848"/>
<path d="M567.878 225.748L620.767 256.355C622.68 257.463 622.68 259.258 620.767 260.365L609.865 266.674C607.952 267.781 604.85 267.781 602.937 266.674L550.049 236.067C548.135 234.959 548.135 233.164 550.049 232.057L560.95 225.748C562.863 224.641 565.965 224.641 567.878 225.748Z" fill="#484848"/>
<path d="M565.761 178.218L598.44 197.129C600.353 198.236 600.353 200.031 598.44 201.139L587.538 207.447C585.625 208.555 582.523 208.555 580.61 207.447L547.931 188.536C546.018 187.429 546.018 185.634 547.931 184.526L558.833 178.218C560.746 177.11 563.848 177.11 565.761 178.218Z" fill="#484848"/>
<path d="M651.093 227.531L661.358 233.471C663.271 234.579 663.271 236.374 661.358 237.481L650.456 243.79C648.543 244.897 645.441 244.897 643.528 243.79L633.263 237.849C631.35 236.742 631.35 234.947 633.263 233.84L644.165 227.531C646.078 226.424 649.18 226.424 651.093 227.531Z" fill="#484848"/>
<path d="M670.999 239.051L681.856 245.333C683.769 246.441 683.769 248.236 681.856 249.343L670.954 255.652C669.041 256.759 665.939 256.759 664.026 255.652L653.17 249.369C651.256 248.262 651.256 246.467 653.17 245.359L664.071 239.051C665.984 237.943 669.086 237.943 670.999 239.051Z" fill="#484848"/>
<path d="M630.292 215.494L641.44 221.945C643.353 223.053 643.353 224.848 641.44 225.955L630.538 232.264C628.625 233.371 625.523 233.371 623.61 232.264L612.462 225.812C610.549 224.705 610.549 222.91 612.462 221.803L623.363 215.494C625.276 214.387 628.378 214.387 630.292 215.494Z" fill="#484848"/>
<path d="M609.182 203.276L620.245 209.679C622.158 210.786 622.158 212.581 620.245 213.688L609.343 219.997C607.43 221.104 604.328 221.104 602.415 219.997L591.352 213.595C589.439 212.488 589.439 210.692 591.352 209.585L602.254 203.276C604.167 202.169 607.269 202.169 609.182 203.276Z" fill="#484848"/>
<path d="M691.476 250.901L702.488 257.273C704.401 258.381 704.401 260.176 702.488 261.283L691.586 267.592C689.673 268.699 686.571 268.699 684.658 267.592L673.647 261.219C671.733 260.112 671.733 258.317 673.647 257.21L684.548 250.901C686.461 249.794 689.563 249.794 691.476 250.901Z" fill="#484848"/>
<path d="M588.427 212.496L598.692 218.436C600.605 219.543 600.605 221.338 598.692 222.446L587.79 228.754C585.877 229.862 582.775 229.862 580.862 228.754L570.597 222.814C568.684 221.707 568.684 219.912 570.597 218.805L581.499 212.496C583.412 211.389 586.514 211.389 588.427 212.496Z" fill="#696969"/>
<path d="M608.333 224.015L619.19 230.298C621.103 231.405 621.103 233.2 619.19 234.307L608.288 240.616C606.375 241.723 603.273 241.723 601.36 240.616L590.504 234.334C588.59 233.226 588.59 231.431 590.504 230.324L601.405 224.015C603.318 222.908 606.42 222.908 608.333 224.015Z" fill="#696969"/>
<path d="M567.626 200.458L578.774 206.91C580.687 208.017 580.687 209.812 578.774 210.92L567.872 217.228C565.959 218.336 562.857 218.336 560.944 217.228L549.796 210.777C547.883 209.67 547.883 207.874 549.796 206.767L560.697 200.458C562.61 199.351 565.712 199.351 567.626 200.458Z" fill="#696969"/>
<path d="M546.515 188.241L557.578 194.643C559.491 195.75 559.491 197.545 557.578 198.653L546.676 204.961C544.763 206.069 541.661 206.069 539.748 204.961L528.685 198.559C526.772 197.452 526.772 195.657 528.685 194.55L539.587 188.241C541.5 187.134 544.602 187.134 546.515 188.241Z" fill="#696969"/>
<path d="M628.809 235.866L639.821 242.238C641.734 243.345 641.734 245.14 639.821 246.248L628.919 252.556C627.006 253.664 623.904 253.664 621.991 252.556L610.979 246.184C609.066 245.077 609.066 243.282 610.979 242.175L621.881 235.866C623.794 234.759 626.896 234.759 628.809 235.866Z" fill="#696969"/>
<path d="M650.368 248.335L683.14 267.301C685.053 268.408 685.053 270.203 683.14 271.311L672.238 277.619C670.325 278.727 667.223 278.727 665.31 277.619L632.538 258.654C630.625 257.547 630.625 255.751 632.538 254.644L643.439 248.335C645.353 247.228 648.454 247.228 650.368 248.335Z" fill="#696969"/>
<path d="M547.207 211.782L558.445 218.285C560.358 219.392 560.358 221.187 558.445 222.294L547.543 228.603C545.63 229.71 542.528 229.71 540.615 228.603L529.377 222.1C527.464 220.993 527.464 219.198 529.377 218.09L540.279 211.782C542.192 210.674 545.294 210.674 547.207 211.782Z" fill="#696969"/>
<path d="M526.054 199.539L536.967 205.855C538.88 206.962 538.88 208.757 536.967 209.864L526.065 216.173C524.152 217.28 521.05 217.28 519.137 216.173L508.224 209.857C506.311 208.75 506.311 206.955 508.224 205.848L519.126 199.539C521.039 198.432 524.141 198.432 526.054 199.539Z" fill="#696969"/>
<path d="M630.971 260.257L642.06 266.674C643.973 267.781 643.973 269.576 642.06 270.683L631.158 276.992C629.245 278.099 626.143 278.099 624.23 276.992L613.141 270.575C611.228 269.468 611.228 267.673 613.141 266.565L624.043 260.257C625.956 259.149 629.058 259.149 630.971 260.257Z" fill="#696969"/>
<path d="M652.098 272.482L662.97 278.774C664.883 279.881 664.883 281.676 662.97 282.784L652.068 289.092C650.155 290.2 647.053 290.2 645.14 289.092L634.268 282.801C632.355 281.693 632.355 279.898 634.268 278.791L645.17 272.482C647.083 271.375 650.185 271.375 652.098 272.482Z" fill="#696969"/>
<path d="M567.878 223.744L620.767 254.351C622.68 255.458 622.68 257.253 620.767 258.36L609.865 264.669C607.952 265.776 604.85 265.776 602.937 264.669L550.049 234.062C548.135 232.955 548.135 231.16 550.049 230.052L560.95 223.744C562.863 222.636 565.965 222.636 567.878 223.744Z" fill="#696969"/>
<path d="M565.761 176.213L598.44 195.124C600.353 196.231 600.353 198.027 598.44 199.134L587.538 205.443C585.625 206.55 582.523 206.55 580.61 205.443L547.931 186.531C546.018 185.424 546.018 183.629 547.931 182.522L558.833 176.213C560.746 175.106 563.848 175.106 565.761 176.213Z" fill="#696969"/>
<path d="M651.093 225.526L661.358 231.467C663.271 232.574 663.271 234.369 661.358 235.476L650.456 241.785C648.543 242.892 645.441 242.892 643.528 241.785L633.263 235.845C631.35 234.737 631.35 232.942 633.263 231.835L644.165 225.526C646.078 224.419 649.18 224.419 651.093 225.526Z" fill="#696969"/>
<path d="M670.999 237.046L681.856 243.329C683.769 244.436 683.769 246.231 681.856 247.338L670.954 253.647C669.041 254.754 665.939 254.754 664.026 253.647L653.17 247.364C651.256 246.257 651.256 244.462 653.17 243.355L664.071 237.046C665.984 235.939 669.086 235.939 670.999 237.046Z" fill="#696969"/>
<path d="M630.292 213.489L641.44 219.941C643.353 221.048 643.353 222.843 641.44 223.95L630.538 230.259C628.625 231.366 625.523 231.366 623.61 230.259L612.462 223.807C610.549 222.7 610.549 220.905 612.462 219.798L623.363 213.489C625.276 212.382 628.378 212.382 630.292 213.489Z" fill="#696969"/>
<path d="M609.182 201.272L620.245 207.674C622.158 208.781 622.158 210.576 620.245 211.683L609.343 217.992C607.43 219.099 604.328 219.099 602.415 217.992L591.352 211.59C589.439 210.483 589.439 208.688 591.352 207.581L602.254 201.272C604.167 200.165 607.269 200.165 609.182 201.272Z" fill="#696969"/>
<path d="M691.476 248.896L702.488 255.269C704.401 256.376 704.401 258.171 702.488 259.278L691.586 265.587C689.673 266.694 686.571 266.694 684.658 265.587L673.647 259.215C671.733 258.107 671.733 256.312 673.647 255.205L684.548 248.896C686.461 247.789 689.563 247.789 691.476 248.896Z" fill="#696969"/>
</g>
</g>
</g>
<g clip-path="url(#clip3_1_9557)">
<g clip-path="url(#clip4_1_9557)">
<path d="M878.488 216.003C878.488 203.465 887.247 188.218 898.053 181.949C908.858 175.68 917.618 180.762 917.618 193.3C917.618 205.839 908.858 221.085 898.053 227.354C887.247 233.623 878.488 228.541 878.488 216.003Z" fill="#1F1F1F"/>
<path d="M935.691 203.896C935.691 216.435 926.931 231.681 916.126 237.95C910.47 241.231 905.375 241.402 901.803 239.023L883.635 228.364C880.439 226.178 878.488 221.921 878.488 216.004C878.488 203.465 887.248 188.219 898.053 181.95C903.556 178.758 908.527 178.509 912.081 180.689L930.544 191.536C933.74 193.722 935.691 197.979 935.691 203.896Z" fill="#131313"/>
<path opacity="0.2" d="M1009.13 208.49L1012.54 218.018C1015.76 227.005 1009.29 236.524 999.787 236.783L965.057 237.731C963.619 237.77 962.21 237.324 961.054 236.465C959.898 235.605 959.061 234.381 958.678 232.988C958.443 232.126 958.03 231.322 957.467 230.629C956.904 229.937 956.203 229.37 955.409 228.966C954.615 228.562 953.746 228.329 952.857 228.283C951.968 228.237 951.079 228.379 950.248 228.698C943.516 231.28 935.055 234.437 925.832 236.918C918.174 238.98 911.823 231.736 913.987 224.07C914.902 220.829 917.23 218.171 920.334 216.898C929.926 212.969 939.076 209.776 947.256 209.907C950.974 209.967 954.728 207.848 955.603 204.216C955.946 202.789 956.757 201.52 957.905 200.612C959.052 199.705 960.47 199.211 961.931 199.211H995.999C998.872 199.211 1001.68 200.102 1004.03 201.763C1006.38 203.424 1008.16 205.773 1009.13 208.49Z" fill="black"/>
<path d="M896.561 226.599C896.561 214.06 905.32 198.814 916.126 192.545C926.931 186.276 935.691 191.358 935.691 203.896C935.691 216.434 926.931 231.681 916.126 237.95C905.32 244.219 896.561 239.137 896.561 226.599Z" fill="#1F1F1F"/>
<path d="M925.65 187.248C925.65 184.461 923.704 183.331 921.302 184.724L912.172 190.022C909.771 191.414 907.824 194.803 907.824 197.589V221.805C907.824 225.985 910.744 227.679 914.346 225.589L919.999 222.309C923.119 220.499 925.651 216.094 925.651 212.472V187.247L925.65 187.248Z" fill="#303030"/>
<path d="M927.658 187.248C927.658 184.461 925.712 183.331 923.311 184.724L914.18 190.022C911.779 191.414 909.833 194.803 909.833 197.589V221.805C909.833 225.985 912.752 227.679 916.354 225.589L922.006 222.309C925.128 220.499 927.659 216.094 927.659 212.472V187.247L927.658 187.248Z" fill="#484848"/>
<path d="M898.255 215.938L863.179 196.112C860.726 194.726 859.5 192.91 859.5 191.093V167.067H954.766V191.091C954.766 192.909 953.541 194.725 951.089 196.11L922.733 212.141L916.016 215.938C911.111 218.71 903.159 218.71 898.255 215.938Z" fill="#303030"/>
<path d="M951.09 172.199C955.994 169.346 955.994 164.719 951.09 161.866L916.014 141.46C911.109 138.607 903.158 138.607 898.254 141.46L863.179 161.866C858.274 164.719 858.274 169.346 863.179 172.199L898.254 192.605C903.159 195.459 911.109 195.459 916.014 192.605L951.09 172.199Z" fill="#1F1F1F"/>
<path d="M898.255 185.668L863.179 165.842C860.726 164.456 859.5 162.64 859.5 160.823V136.798H954.766V160.823C954.766 162.64 953.54 164.456 951.089 165.842L922.731 181.871L916.014 185.668C911.109 188.44 903.159 188.44 898.255 185.668Z" fill="#303030"/>
<path d="M939.559 173.2C939.559 170.415 937.613 169.285 935.211 170.678L930.67 173.313C928.27 174.705 926.324 178.093 926.324 180.879V196.352C926.324 200.531 929.243 202.225 932.845 200.135L933.907 199.519C937.028 197.708 939.56 193.304 939.56 189.682L939.559 173.2Z" fill="#484848"/>
<path d="M940.812 173.94C940.812 171.154 938.865 170.025 936.464 171.417L931.923 174.052C929.522 175.444 927.576 178.834 927.576 181.619V196.353C927.576 200.532 930.496 202.226 934.098 200.136L935.159 199.519C938.282 197.709 940.812 193.304 940.812 189.682V173.94Z" fill="#606060"/>
<path d="M951.09 141.929C955.994 139.076 955.994 134.45 951.09 131.596L916.014 111.19C911.109 108.337 903.159 108.337 898.254 111.19L863.179 131.596C858.274 134.45 858.274 139.076 863.179 141.93L898.254 162.336C903.159 165.189 911.11 165.189 916.014 162.336L951.09 141.929Z" fill="#484848"/>
<path d="M942.704 140.509C945.461 138.911 945.452 136.316 942.691 134.72C939.939 133.131 935.486 133.13 932.74 134.721C929.986 136.317 929.988 138.908 932.74 140.504C935.488 142.1 939.952 142.104 942.704 140.509Z" fill="#2D2D2D"/>
<path d="M942.796 138.843C945.552 137.245 945.548 134.654 942.788 133.059L942.649 132.979C939.9 131.389 935.451 131.391 932.706 132.983C929.954 134.577 929.951 137.164 932.701 138.76L932.839 138.84C935.588 140.436 940.045 140.437 942.796 138.843Z" fill="#585858"/>
<path d="M866.759 151.947C866.759 149.43 868.518 148.41 870.685 149.67L895.834 164.269C897 164.946 897.946 166.593 897.946 167.946V205.996C897.946 207.35 896.999 207.899 895.833 207.222L868.873 191.582C867.706 190.905 866.759 189.258 866.759 187.904V151.947Z" fill="#1F1F1F"/>
<path d="M866.045 151.556C866.045 150.201 866.992 149.653 868.158 150.33L893.838 165.239C895.005 165.917 895.951 167.564 895.951 168.917V204.841C895.951 206.194 895.004 206.744 893.838 206.066L868.158 191.168C866.992 190.49 866.045 188.843 866.045 187.489V151.556Z" fill="#262626"/>
<path d="M884.354 164.941L885.802 165.781C887.003 166.478 887.976 168.172 887.976 169.565V181.466C887.976 182.859 887.003 183.424 885.802 182.728L884.354 181.887C883.153 181.19 882.18 179.496 882.18 178.103V166.202C882.18 164.809 883.153 164.244 884.354 164.941Z" fill="#D9D9D9"/>
<path d="M875.317 159.399L876.766 160.239C877.966 160.936 878.939 162.63 878.939 164.023V175.924C878.939 177.317 877.966 177.882 876.766 177.186L875.317 176.345C874.116 175.649 873.143 173.954 873.143 172.561V160.66C873.143 159.267 874.116 158.702 875.317 159.399Z" fill="#D9D9D9"/>
</g>
</g>
</g>
<defs>
<clipPath id="clip0_1_9557">
<rect width="1070" height="425" fill="white" transform="translate(0 -71.3699)"/>
</clipPath>
<clipPath id="clip1_1_9557">
<rect width="1070" height="425" fill="white" transform="translate(0 -71.3699)"/>
</clipPath>
<clipPath id="clip2_1_9557">
<rect width="1070" height="425" fill="white" transform="translate(0 -71.3699)"/>
</clipPath>
<clipPath id="clip3_1_9557">
<rect width="160.5" height="140.25" fill="white" transform="translate(859.5 109.05)"/>
</clipPath>
<clipPath id="clip4_1_9557">
<rect width="160.5" height="140.25" fill="white" transform="translate(859.5 109.05)"/>
</clipPath>
</defs>
</svg>
