<svg width="21" height="22" viewBox="0 0 21 22" fill="none" xmlns="http://www.w3.org/2000/svg">
<g clip-path="url(#clip0_1_9784)">
<g clip-path="url(#clip1_1_9784)">
<path d="M4.8021 13.659C4.80051 14.2155 4.57876 14.7487 4.18527 15.1422C3.79179 15.5356 3.25857 15.7574 2.7021 15.759C2.14546 15.7579 1.61187 15.5365 1.21798 15.1432C0.824096 14.7499 0.601947 14.2166 0.600098 13.66C0.600098 12.503 1.5451 11.559 2.7011 11.559H4.8021V13.659ZM5.8601 13.659C5.8601 12.502 6.8051 11.558 7.9621 11.558C9.1181 11.558 10.0621 12.502 10.0621 13.658V18.92C10.061 19.4767 9.83948 20.0103 9.44592 20.4041C9.05235 20.7979 8.51882 21.0197 7.9621 21.021C7.40546 21.0197 6.87198 20.798 6.47828 20.4045C6.08458 20.011 5.86268 19.4776 5.8611 18.921V13.66L5.8601 13.659Z" fill="#E01E5A"/>
<path d="M7.9621 5.22202C7.40546 5.2207 6.87198 4.99906 6.47828 4.60555C6.08458 4.21203 5.86268 3.67866 5.8611 3.12202C5.86163 2.56522 6.08284 2.03132 6.47628 1.63732C6.86972 1.24332 7.4033 1.02134 7.9601 1.02002C9.1171 1.02002 10.0611 1.96502 10.0611 3.12102V5.22202H7.9621ZM7.9621 6.28002C9.1181 6.28002 10.0621 7.22502 10.0621 8.38202C10.0605 8.93849 9.83876 9.47171 9.44527 9.86519C9.05179 10.2587 8.51857 10.4804 7.9621 10.482H2.7021C2.14546 10.481 1.61187 10.2596 1.21798 9.86625C0.824096 9.47293 0.601947 8.93966 0.600098 8.38302C0.600098 7.22602 1.5451 6.28202 2.7011 6.28202H7.9611L7.9621 6.28002Z" fill="#36C5F0"/>
<path d="M16.3979 8.38202C16.3979 7.22502 17.3429 6.28102 18.4989 6.28102C19.6559 6.28102 20.5999 7.22502 20.5999 8.38102C20.5989 8.93783 20.3774 9.47157 19.9838 9.86549C19.5903 10.2594 19.0568 10.4814 18.4999 10.483H16.3979V8.38202ZM15.3399 8.38202C15.3399 9.53802 14.3949 10.482 13.2379 10.482C12.0819 10.482 11.1379 9.53802 11.1379 8.38202V3.12202C11.1379 1.96502 12.0819 1.02002 13.2379 1.02002C14.3949 1.02002 15.3389 1.96502 15.3389 3.12102V8.38102L15.3399 8.38202Z" fill="#2EB67D"/>
<path d="M13.238 16.818C14.395 16.818 15.339 17.763 15.339 18.918C15.3379 19.4748 15.1164 20.0085 14.7228 20.4024C14.3293 20.7964 13.7958 21.0184 13.239 21.02C12.6821 21.0187 12.1483 20.7969 11.7544 20.4032C11.3605 20.0095 11.1385 19.4759 11.137 18.919V16.818H13.238ZM13.238 15.76C12.082 15.76 11.138 14.815 11.138 13.659C11.138 12.502 12.082 11.558 13.238 11.558H18.5C19.656 11.558 20.601 12.502 20.601 13.658C20.5999 14.215 20.3782 14.7489 19.9845 15.1428C19.5907 15.5367 19.0569 15.7587 18.5 15.76H13.24H13.238Z" fill="#ECB22E"/>
</g>
</g>
<defs>
<clipPath id="clip0_1_9784">
<rect width="21" height="21" fill="white" transform="translate(0 0.420044)"/>
</clipPath>
<clipPath id="clip1_1_9784">
<rect width="21" height="21" fill="white" transform="translate(0 0.420044)"/>
</clipPath>
</defs>
</svg>
